<svg xmlns="http://www.w3.org/2000/svg" xmlns:xlink="http://www.w3.org/1999/xlink" width="1330" height="781" viewBox="0 0 1330 781">
  <defs>
    <linearGradient id="linear-gradient" x1="0.5" y1="1" x2="0.5" gradientUnits="objectBoundingBox">
      <stop offset="0" stop-color="#ebf4ff" stop-opacity="0"/>
      <stop offset="0.259" stop-color="#efefef"/>
      <stop offset="0.717" stop-color="#f7f7f7"/>
      <stop offset="1" stop-color="#f5faff" stop-opacity="0"/>
    </linearGradient>
    <clipPath id="clip-path">
      <rect id="Rectángulo_739486" data-name="Rectángulo 739486" width="1330" height="781" transform="translate(135 1014.987)" fill="url(#linear-gradient)"/>
    </clipPath>
  </defs>
  <g id="Enmascarar_grupo_1099820" data-name="Enmascarar grupo 1099820" transform="translate(-135 -1014.987)" opacity="0.084" clip-path="url(#clip-path)">
    <path id="Trazado_1308173" data-name="Trazado 1308173" d="M134.668,10.1C170.052,2.022,215.66-1.98,262.942,3.538,309.978,8.756,358.687,23.493,394.548,45.9c22.016,12.91,42.615,21.689,56.229,38.2,9.01,10.925,13.187,29.206,18.8,40.318,14.33,28.168,18.369,54.394,25.655,86.609,2.967,16.085,6.358,32.971,8.776,50.932,2.377,17.888,3.777,36.854,1.843,55.45-1.914,18.591-7.162,36.818-17.56,53.128-10.31,16.373-25.767,30.829-46.171,43.289-40.352,25.094-102.081,41.314-164.631,59.451-31.117,9.112-62,18.944-90.132,29.711-28.248,10.608-53.736,22.146-76.824,31-22.877,8.379-40.944,15.5-55.663,16.723-14.665,1.4-25.981-3.1-34.088-13.83C4.238,515.923,1.65,469.175,8.845,418.133c6.812-51.228,22.892-104.08,32.122-141.492,4.578-18.961,7.265-34.483,6.742-46.911A58.665,58.665,0,0,0,38.062,198.9C33.055,190.5,25.23,184,18.58,177.641c-6.761-6.323-12.348-12.509-15.441-19.42-6.477-13.581-2.467-30.637,8.1-50.128a238.66,238.66,0,0,1,45.216-57.9C75.831,32.564,98.271,18.851,134.668,10.1Z" transform="matrix(0.259, 0.966, -0.966, 0.259, 1704.66, 1149.905)" fill="#ffcd80" fill-rule="evenodd"/>
    <path id="Trazado_1308174" data-name="Trazado 1308174" d="M372.11,541.84c-35.384,8.08-80.992,12.081-128.274,6.563-47.036-5.217-95.745-19.955-131.606-42.365-37-21.7-61.163-51.077-75.034-78.515-14.33-28.168-18.369-54.394-25.655-86.609-2.967-16.085-6.358-32.971-8.776-50.932C.388,272.095-1.012,253.129.921,234.533c1.914-18.591,7.162-36.818,17.56-53.128,10.31-16.373,25.767-30.829,46.171-43.289C105,113.022,166.733,96.8,229.283,78.665c31.116-9.112,62-18.944,90.132-29.71,28.248-10.608,53.736-22.146,76.824-31,22.877-8.379,40.944-15.5,55.663-16.723,14.665-1.4,25.981,3.1,34.088,13.83,16.549,20.954,19.138,67.7,11.943,118.744-6.812,51.228-22.892,104.08-32.122,141.491-4.578,18.961-7.265,34.483-6.742,46.911a58.665,58.665,0,0,0,9.647,30.835c5.007,8.4,12.832,14.894,19.482,21.255,6.761,6.323,12.348,12.509,15.441,19.42,6.477,13.581,2.467,30.637-8.1,50.128a238.659,238.659,0,0,1-45.216,57.9c-19.381,17.624-41.82,31.337-78.217,40.087Z" transform="matrix(0.259, 0.966, -0.966, 0.259, 399.66, 1016.766)" fill="#95baeb" fill-rule="evenodd"/>
  </g>
</svg>
