<svg xmlns="http://www.w3.org/2000/svg" xmlns:xlink="http://www.w3.org/1999/xlink" width="102" height="102" viewBox="0 0 102 102">
  <defs>
    <filter id="Elipse_11494" x="0" y="0" width="102" height="102" filterUnits="userSpaceOnUse">
      <feOffset dy="3" input="SourceAlpha"/>
      <feGaussianBlur stdDeviation="3" result="blur"/>
      <feFlood flood-opacity="0.161"/>
      <feComposite operator="in" in2="blur"/>
      <feComposite in="SourceGraphic"/>
    </filter>
  </defs>
  <g id="Grupo_1228027" data-name="Grupo 1228027" transform="translate(-171 -3600.751)">
    <g id="Grupo_1224538" data-name="Grupo 1224538" transform="translate(180 3606.751)">
      <g transform="matrix(1, 0, 0, 1, -9, -6)" filter="url(#Elipse_11494)">
        <g id="Elipse_11494-2" data-name="Elipse 11494" transform="translate(9 6)" fill="#e1e7fb" stroke="#fff" stroke-width="4">
          <circle cx="42" cy="42" r="42" stroke="none"/>
          <circle cx="42" cy="42" r="40" fill="none"/>
        </g>
      </g>
    </g>
    <g id="Protecting" transform="translate(201.037 3627.501)">
      <circle id="Elipse_13809" data-name="Elipse 13809" cx="8.504" cy="8.504" r="8.504" transform="translate(23.488 13.775)" fill="#ebe5dd"/>
      <path id="Trazado_1307659" data-name="Trazado 1307659" d="M52.711,29.206a8.5,8.5,0,0,1-15.681,4.56A8.5,8.5,0,0,0,48.766,22.03,8.483,8.483,0,0,1,52.711,29.206Z" transform="translate(-12.214 -6.927)" fill="#c0ab91"/>
      <g id="Grupo_1227748" data-name="Grupo 1227748" transform="translate(2.554 2.654)">
        <path id="Trazado_1307660" data-name="Trazado 1307660" d="M51.542,6.925,49.579,8.233,48.271,10.85,46.963,8.233,45,6.925l1.963-1.308L48.271,3l1.308,2.617Z" transform="translate(-17.524 -3)" fill="#ffde55"/>
        <path id="Trazado_1307661" data-name="Trazado 1307661" d="M57.542,51.579l-1.963,1.308-1.308,3.271-1.308-3.271L51,51.579l1.963-1.308L54.271,47l1.308,3.271Z" transform="translate(-19.599 -18.216)" fill="#ffde55"/>
        <path id="Trazado_1307662" data-name="Trazado 1307662" d="M9.542,47.925,7.579,49.233,6.271,51.85,4.963,49.233,3,47.925l1.963-1.308L6.271,44l1.308,2.617Z" transform="translate(-3 -17.179)" fill="#ffde55"/>
        <path id="Trazado_1307663" data-name="Trazado 1307663" d="M10.542,7.579,8.579,8.888,7.271,12.159,5.963,8.888,4,7.579,5.963,6.271,7.271,3,8.579,6.271Z" transform="translate(-3.346 -3)" fill="#ffde55"/>
      </g>
      <path id="Trazado_1307664" data-name="Trazado 1307664" d="M50.467,28.925v2.617a.654.654,0,0,1-.654.654H47.85a.654.654,0,0,0-.654.654v1.963a.654.654,0,0,1-.654.654H43.925a.654.654,0,0,1-.654-.654V32.85a.654.654,0,0,0-.654-.654H40.654A.654.654,0,0,1,40,31.542V28.925a.654.654,0,0,1,.654-.654h1.963a.654.654,0,0,0,.654-.654V25.654A.654.654,0,0,1,43.925,25h2.617a.654.654,0,0,1,.654.654v1.963a.654.654,0,0,0,.654.654h1.963A.654.654,0,0,1,50.467,28.925Z" transform="translate(-13.241 -7.954)" fill="#57a4ff"/>
      <path id="Trazado_1307665" data-name="Trazado 1307665" d="M24.49,19.348a8.5,8.5,0,0,0,3.3,10.46c-.249.458-.563.942-.909,1.544L25.8,33.092v2.617H12.714V33.092L2.908,20.427a1.313,1.313,0,0,1,.386-1.773l.922-.615a2.617,2.617,0,0,1,3.461.5l5.037,6.045V8.233a1.963,1.963,0,1,1,3.925,0V4.963a1.963,1.963,0,0,1,3.925,0V8.233a1.963,1.963,0,0,1,3.925,0V11.5a1.963,1.963,0,1,1,3.925,0v3.578A8.514,8.514,0,0,0,24.49,19.348Z" transform="translate(-0.347 -0.346)" fill="#ffdaaa"/>
      <path id="Trazado_1307666" data-name="Trazado 1307666" d="M32.009,58.233H15L15.654,53h15.7Z" transform="translate(-4.596 -17.637)" fill="#00d7df"/>
      <path id="Trazado_1307667" data-name="Trazado 1307667" d="M31.992,13.121a9.083,9.083,0,0,0-3.271.615V11.159A2.613,2.613,0,0,0,26.1,8.542a2.555,2.555,0,0,0-1.308.366V7.888A2.617,2.617,0,0,0,22.18,5.271a2.555,2.555,0,0,0-1.308.366V4.617a2.617,2.617,0,1,0-5.233,0V5.637a2.555,2.555,0,0,0-1.308-.366,2.617,2.617,0,0,0-2.617,2.617V22.437L7.833,17.779a3.26,3.26,0,0,0-4.324-.628l-.922.615A1.957,1.957,0,0,0,2,20.428a.363.363,0,0,0,.039.052l9.669,12.488v1.74h-.654a.654.654,0,0,0-.648.576l-.654,5.233a.633.633,0,0,0,.157.51.642.642,0,0,0,.491.222H27.413a.642.642,0,0,0,.491-.222.633.633,0,0,0,.157-.51l-.654-5.233a.654.654,0,0,0-.648-.576H26.1V32.936l1-1.6c.144-.255.288-.5.425-.713.052-.092.1-.177.15-.262a9.159,9.159,0,1,0,4.311-17.238Zm-7.2-1.963a1.308,1.308,0,0,1,2.617,0v3.2A9.285,9.285,0,0,0,24.8,16.634Zm1.387,24.859.491,3.925H11.144l.491-3.925Zm.222-6.077c-.137.229-.281.471-.425.72L24.894,32.4a.646.646,0,0,0-.1.347v1.963H13.021V32.746a.629.629,0,0,0-.137-.4L3.1,19.715a.654.654,0,0,1,.209-.864l.916-.608a1.954,1.954,0,0,1,2.6.373l5.037,6.045.007-.007a.654.654,0,0,0,.5.242h1.963a2.617,2.617,0,0,1,2.617,2.617V30.13h1.308V27.513a3.925,3.925,0,0,0-3.925-3.925H13.021V7.888a1.308,1.308,0,1,1,2.617,0V20.971h1.308V4.617a1.308,1.308,0,1,1,2.617,0V20.971h1.308V7.888a1.308,1.308,0,1,1,2.617,0V18.9a9.116,9.116,0,0,0,3.088,10.755c-.059.1-.1.183-.17.288Zm5.587.19a7.85,7.85,0,1,1,7.85-7.85A7.85,7.85,0,0,1,31.992,30.13Z" transform="translate(0 0)"/>
      <path id="Trazado_1307668" data-name="Trazado 1307668" d="M36,56h1.308v1.308H36Z" transform="translate(-11.858 -18.675)"/>
      <path id="Trazado_1307669" data-name="Trazado 1307669" d="M32,56h1.308v1.308H32Z" transform="translate(-10.475 -18.675)"/>
      <path id="Trazado_1307670" data-name="Trazado 1307670" d="M3.291,7.777l1.794,1.2,1.232,3.082a.654.654,0,0,0,1.215,0L8.765,8.973l1.794-1.2a.654.654,0,0,0,0-1.089l-1.794-1.2L7.533,2.411a.654.654,0,0,0-1.215,0L5.085,5.493l-1.794,1.2a.654.654,0,0,0,0,1.089ZM5.98,6.469a.654.654,0,0,0,.245-.3l.7-1.753.7,1.753a.654.654,0,0,0,.245.3l1.148.764L7.872,8a.654.654,0,0,0-.245.3l-.7,1.753L6.224,8.3A.654.654,0,0,0,5.98,8L4.832,7.233Z" transform="translate(-0.446)"/>
      <path id="Trazado_1307671" data-name="Trazado 1307671" d="M44.293,7.139l1.819,1.212,1.23,2.461a.654.654,0,0,0,1.171,0l1.23-2.461,1.819-1.212a.654.654,0,0,0,0-1.089L49.742,4.838,48.515,2.377a.682.682,0,0,0-1.171,0l-1.23,2.461L44.3,6.05a.654.654,0,0,0,0,1.089Zm2.689-1.308a.666.666,0,0,0,.222-.252l.723-1.446.72,1.446a.666.666,0,0,0,.222.252l1.151.764-1.146.764a.666.666,0,0,0-.222.252l-.725,1.446-.72-1.446a.666.666,0,0,0-.222-.252l-1.151-.764Z" transform="translate(-14.626 -0.016)"/>
      <path id="Trazado_1307672" data-name="Trazado 1307672" d="M9.561,47.05,7.742,45.838,6.515,43.377a.682.682,0,0,0-1.171,0l-1.23,2.461L2.3,47.05a.654.654,0,0,0,0,1.089l1.819,1.212,1.23,2.461a.654.654,0,0,0,1.171,0l1.23-2.461,1.819-1.212a.654.654,0,0,0,0-1.089ZM6.872,48.359a.666.666,0,0,0-.222.252l-.723,1.446-.72-1.446a.666.666,0,0,0-.222-.252l-1.151-.764,1.146-.764a.666.666,0,0,0,.222-.252l.725-1.446.723,1.446a.666.666,0,0,0,.222.252l1.148.764Z" transform="translate(-0.102 -14.194)"/>
      <path id="Trazado_1307673" data-name="Trazado 1307673" d="M57.559,50.689l-1.794-1.2-1.232-3.082a.654.654,0,0,0-1.215,0l-1.232,3.082-1.794,1.2a.654.654,0,0,0,0,1.089l1.794,1.2,1.232,3.082a.654.654,0,0,0,1.215,0l1.232-3.082,1.794-1.2a.654.654,0,0,0,0-1.089ZM54.87,52a.654.654,0,0,0-.245.3l-.7,1.753-.7-1.753a.654.654,0,0,0-.245-.3l-1.148-.764,1.146-.764a.654.654,0,0,0,.245-.3l.7-1.753.7,1.753a.654.654,0,0,0,.245.3l1.148.764Z" transform="translate(-16.699 -15.216)"/>
      <path id="Trazado_1307674" data-name="Trazado 1307674" d="M39,31.2A1.308,1.308,0,0,0,40.308,32.5h1.963v1.963a1.308,1.308,0,0,0,1.308,1.308H46.2A1.308,1.308,0,0,0,47.5,34.467V32.5h1.963A1.308,1.308,0,0,0,50.775,31.2V28.579a1.308,1.308,0,0,0-1.308-1.308H47.5V25.308A1.308,1.308,0,0,0,46.2,24H43.579a1.308,1.308,0,0,0-1.308,1.308v1.963H40.308A1.308,1.308,0,0,0,39,28.579Zm1.308-2.617h1.963a1.308,1.308,0,0,0,1.308-1.308V25.308H46.2v1.963A1.308,1.308,0,0,0,47.5,28.579h1.963V31.2H47.5A1.308,1.308,0,0,0,46.2,32.5v1.963H43.579V32.5A1.308,1.308,0,0,0,42.271,31.2H40.308Z" transform="translate(-12.895 -7.608)"/>
    </g>
  </g>
</svg>
