<svg xmlns="http://www.w3.org/2000/svg" xmlns:xlink="http://www.w3.org/1999/xlink" width="102" height="102" viewBox="0 0 102 102">
  <defs>
    <filter id="Elipse_11494" x="0" y="0" width="102" height="102" filterUnits="userSpaceOnUse">
      <feOffset dy="3" input="SourceAlpha"/>
      <feGaussianBlur stdDeviation="3" result="blur"/>
      <feFlood flood-opacity="0.161"/>
      <feComposite operator="in" in2="blur"/>
      <feComposite in="SourceGraphic"/>
    </filter>
  </defs>
  <g id="Grupo_1228030" data-name="Grupo 1228030" transform="translate(-1116 -3600.751)">
    <g id="Grupo_1227248" data-name="Grupo 1227248" transform="translate(1125 3606.751)">
      <g transform="matrix(1, 0, 0, 1, -9, -6)" filter="url(#Elipse_11494)">
        <g id="Elipse_11494-2" data-name="Elipse 11494" transform="translate(9 6)" fill="#e1e7fb" stroke="#fff" stroke-width="4">
          <circle cx="42" cy="42" r="42" stroke="none"/>
          <circle cx="42" cy="42" r="40" fill="none"/>
        </g>
      </g>
    </g>
    <g id="Layer_21" transform="translate(1147.449 3624.13)">
      <g id="Grupo_1227893" data-name="Grupo 1227893" transform="translate(0 5.983)">
        <g id="Grupo_1227782" data-name="Grupo 1227782" transform="translate(17.829 13.37)">
          <g id="Grupo_1227781" data-name="Grupo 1227781">
            <circle id="Elipse_13812" data-name="Elipse 13812" cx="1.722" cy="1.722" r="1.722" fill="#f9d0b4"/>
          </g>
        </g>
        <g id="Grupo_1227784" data-name="Grupo 1227784" transform="translate(11.074 12.46)">
          <g id="Grupo_1227783" data-name="Grupo 1227783">
            <path id="Trazado_1307712" data-name="Trazado 1307712" d="M89.055,87.791a.942.942,0,0,0-1.28.247l-2.769,3.789-2.669,1.584a1.815,1.815,0,0,1-.927.254h-.74a1.815,1.815,0,0,1-.927-.254l-2.8-1.66-2.769-3.789a.942.942,0,0,0-1.28-.247.916.916,0,0,0-.222,1.3l2.9,3.971a.916.916,0,0,0,.272.247l2.416,1.525h0a.4.4,0,0,1,.188.347l.038,5.587h4.964l.038-5.511a.4.4,0,0,1,.188-.347h0L86.1,93.306a.916.916,0,0,0,.272-.247l2.9-3.971A.917.917,0,0,0,89.055,87.791Z" transform="translate(-72.5 -87.561)" fill="#f9d0b4"/>
          </g>
        </g>
        <g id="Grupo_1227786" data-name="Grupo 1227786" transform="translate(31.27 13.37)">
          <g id="Grupo_1227785" data-name="Grupo 1227785">
            <circle id="Elipse_13813" data-name="Elipse 13813" cx="1.722" cy="1.722" r="1.722" fill="#f9d0b4"/>
          </g>
        </g>
        <g id="Grupo_1227788" data-name="Grupo 1227788" transform="translate(24.209 12.46)">
          <g id="Grupo_1227787" data-name="Grupo 1227787" transform="translate(0 0)">
            <path id="Trazado_1307713" data-name="Trazado 1307713" d="M160.179,87.961a.942.942,0,0,0-1.28-.247.916.916,0,0,0-.222,1.3l.626.856,1.135-1.553Z" transform="translate(-158.5 -87.561)" fill="#f9d0b4"/>
          </g>
        </g>
        <g id="Grupo_1227790" data-name="Grupo 1227790" transform="translate(26.147 14.767)">
          <g id="Grupo_1227789" data-name="Grupo 1227789">
            <path id="Trazado_1307714" data-name="Trazado 1307714" d="M183.712,110.864c-.758-2.516-.377-1.4-1-3.362a1.5,1.5,0,0,0-1.426-1.044h-3.871a1.815,1.815,0,0,1-.927-.254l-2.8-1.66-1.375-1.882-1.135,1.553,1.141,1.562a.916.916,0,0,0,.272.247l2.417,1.525h0a.4.4,0,0,1,.188.347l.038,5.587h4.964l.034-4.4a.5.5,0,0,1,.979-.14l.691,2.3-.436,4.672a.942.942,0,0,0,.8,1.033.917.917,0,0,0,1.026-.824l.457-4.9A.92.92,0,0,0,183.712,110.864Z" transform="translate(-171.183 -102.662)" fill="#f9d0b4"/>
          </g>
        </g>
        <g id="Grupo_1227792" data-name="Grupo 1227792" transform="translate(3.673 12.656)">
          <g id="Grupo_1227791" data-name="Grupo 1227791" transform="translate(0 0)">
            <circle id="Elipse_13814" data-name="Elipse 13814" cx="1.722" cy="1.722" r="1.722" transform="translate(0 2.435) rotate(-45)" fill="#f9d0b4"/>
          </g>
        </g>
        <g id="Grupo_1227794" data-name="Grupo 1227794" transform="translate(12.983 12.46)">
          <g id="Grupo_1227793" data-name="Grupo 1227793" transform="translate(0 0)">
            <path id="Trazado_1307715" data-name="Trazado 1307715" d="M86.51,87.714a.942.942,0,0,0-1.28.247l-.23.315,1.135,1.553.6-.818A.916.916,0,0,0,86.51,87.714Z" transform="translate(-85 -87.561)" fill="#f9d0b4"/>
          </g>
        </g>
        <g id="Grupo_1227796" data-name="Grupo 1227796" transform="translate(0.382 14.729)">
          <g id="Grupo_1227795" data-name="Grupo 1227795" transform="translate(0 0)">
            <path id="Trazado_1307716" data-name="Trazado 1307716" d="M13.966,102.412l-1.4,1.92-2.8,1.66a1.815,1.815,0,0,1-.927.254H4.968a1.5,1.5,0,0,0-1.426,1.044c-.621,1.963-.241.846-1,3.362a.918.918,0,0,0-.04.366l.457,4.9a.916.916,0,0,0,1.026.824.942.942,0,0,0,.8-1.033l-.436-4.672.691-2.3a.5.5,0,0,1,.979.14l.034,4.4h4.964l.038-5.587a.4.4,0,0,1,.188-.347h0l2.417-1.525a.916.916,0,0,0,.272-.247l1.169-1.6Z" transform="translate(-2.5 -102.412)" fill="#f9d0b4"/>
          </g>
        </g>
        <g id="Grupo_1227798" data-name="Grupo 1227798" transform="translate(14.732 16.889)">
          <g id="Grupo_1227797" data-name="Grupo 1227797" transform="translate(0 0)">
            <path id="Trazado_1307717" data-name="Trazado 1307717" d="M104.94,116.607l-2.307,1.369a1.815,1.815,0,0,1-.927.254h-.74a1.815,1.815,0,0,1-.927-.254l-2.393-1.42-1.193,1.435,2.108,1.33h0a.4.4,0,0,1,.188.347l.038,5.587h4.964l.038-5.511a.4.4,0,0,1,.188-.347h0l2.15-1.356Z" transform="translate(-96.454 -116.556)" fill="#70d6f9"/>
          </g>
        </g>
        <g id="Grupo_1227800" data-name="Grupo 1227800" transform="translate(27.868 16.889)">
          <g id="Grupo_1227799" data-name="Grupo 1227799" transform="translate(0 0)">
            <path id="Trazado_1307718" data-name="Trazado 1307718" d="M192.263,119.274a1.5,1.5,0,0,0-1.426-1.044h-3.871a1.815,1.815,0,0,1-.927-.254l-2.393-1.42-1.193,1.435,2.108,1.33h0a.4.4,0,0,1,.188.347l.038,5.587h4.964l.034-4.4a.5.5,0,0,1,.979-.14l.59,1.962,1.759-.528C192.553,120.265,192.84,121.1,192.263,119.274Z" transform="translate(-182.454 -116.556)" fill="#f5c84c"/>
          </g>
        </g>
        <g id="Grupo_1227802" data-name="Grupo 1227802" transform="translate(0.57 16.889)">
          <g id="Grupo_1227801" data-name="Grupo 1227801" transform="translate(0 0)">
            <path id="Trazado_1307719" data-name="Trazado 1307719" d="M13.2,116.556l-2.393,1.42a1.815,1.815,0,0,1-.927.254H6.014a1.5,1.5,0,0,0-1.426,1.044c-.577,1.823-.29.991-.854,2.88l1.759.528.59-1.962a.5.5,0,0,1,.979.14l.034,4.4h4.964l.038-5.587a.4.4,0,0,1,.188-.347h0l2.108-1.33Z" transform="translate(-3.734 -116.556)" fill="#fc657e"/>
          </g>
        </g>
        <g id="Grupo_1227804" data-name="Grupo 1227804" transform="translate(17.069 25.589)">
          <g id="Grupo_1227803" data-name="Grupo 1227803">
            <path id="Trazado_1307720" data-name="Trazado 1307720" d="M111.75,173.517V183.9a.916.916,0,0,0,1.833,0v-7.752a.649.649,0,1,1,1.3,0V183.9a.916.916,0,0,0,1.833,0V173.517Z" transform="translate(-111.75 -173.517)" fill="#5290db"/>
          </g>
        </g>
        <g id="Grupo_1227806" data-name="Grupo 1227806" transform="translate(30.204 25.589)">
          <g id="Grupo_1227805" data-name="Grupo 1227805">
            <path id="Trazado_1307721" data-name="Trazado 1307721" d="M197.75,173.517V183.9a.916.916,0,0,0,1.833,0v-7.752a.649.649,0,1,1,1.3,0V183.9a.916.916,0,0,0,1.833,0V173.517Z" transform="translate(-197.75 -173.517)" fill="#5290db"/>
          </g>
        </g>
        <g id="Grupo_1227808" data-name="Grupo 1227808" transform="translate(3.933 25.589)">
          <g id="Grupo_1227807" data-name="Grupo 1227807">
            <path id="Trazado_1307722" data-name="Trazado 1307722" d="M25.75,173.517V183.9a.916.916,0,0,0,1.833,0v-7.752a.649.649,0,1,1,1.3,0V183.9a.916.916,0,0,0,1.833,0V173.517Z" transform="translate(-25.75 -173.517)" fill="#5290db"/>
          </g>
        </g>
        <g id="Grupo_1227810" data-name="Grupo 1227810" transform="translate(17.069 34.906)">
          <g id="Grupo_1227809" data-name="Grupo 1227809">
            <path id="Trazado_1307723" data-name="Trazado 1307723" d="M111.75,234.517v1.069a.916.916,0,0,0,1.833,0v-1.069Z" transform="translate(-111.75 -234.517)" fill="#818182"/>
          </g>
        </g>
        <g id="Grupo_1227812" data-name="Grupo 1227812" transform="translate(20.2 34.906)">
          <g id="Grupo_1227811" data-name="Grupo 1227811">
            <path id="Trazado_1307724" data-name="Trazado 1307724" d="M132.25,234.517v1.069a.916.916,0,0,0,1.833,0v-1.069Z" transform="translate(-132.25 -234.517)" fill="#818182"/>
          </g>
        </g>
        <g id="Grupo_1227814" data-name="Grupo 1227814" transform="translate(30.204 34.906)">
          <g id="Grupo_1227813" data-name="Grupo 1227813">
            <path id="Trazado_1307725" data-name="Trazado 1307725" d="M197.75,234.517v1.069a.916.916,0,0,0,1.833,0v-1.069Z" transform="translate(-197.75 -234.517)" fill="#818182"/>
          </g>
        </g>
        <g id="Grupo_1227816" data-name="Grupo 1227816" transform="translate(33.336 34.906)">
          <g id="Grupo_1227815" data-name="Grupo 1227815">
            <path id="Trazado_1307726" data-name="Trazado 1307726" d="M218.25,234.517v1.069a.916.916,0,0,0,1.833,0v-1.069Z" transform="translate(-218.25 -234.517)" fill="#818182"/>
          </g>
        </g>
        <g id="Grupo_1227818" data-name="Grupo 1227818" transform="translate(7.064 34.906)">
          <g id="Grupo_1227817" data-name="Grupo 1227817">
            <path id="Trazado_1307727" data-name="Trazado 1307727" d="M46.25,234.517v1.069a.916.916,0,0,0,1.833,0v-1.069Z" transform="translate(-46.25 -234.517)" fill="#818182"/>
          </g>
        </g>
        <g id="Grupo_1227820" data-name="Grupo 1227820" transform="translate(3.933 34.906)">
          <g id="Grupo_1227819" data-name="Grupo 1227819">
            <path id="Trazado_1307728" data-name="Trazado 1307728" d="M25.75,234.517v1.069a.916.916,0,0,0,1.833,0v-1.069Z" transform="translate(-25.75 -234.517)" fill="#818182"/>
          </g>
        </g>
        <g id="Grupo_1227822" data-name="Grupo 1227822" transform="translate(13.932 0.382)">
          <g id="Grupo_1227821" data-name="Grupo 1227821">
            <path id="Trazado_1307729" data-name="Trazado 1307729" d="M102.324,13.257h-1.111a.129.129,0,0,1-.125-.1,4.33,4.33,0,0,0-.577-1.392.129.129,0,0,1,.017-.161l.785-.785a.128.128,0,0,0,0-.181L100.3,9.622a.128.128,0,0,0-.181,0l-.785.785a.129.129,0,0,1-.161.017,4.334,4.334,0,0,0-1.392-.577.129.129,0,0,1-.1-.125V8.611a.128.128,0,0,0-.128-.128H96.118a.128.128,0,0,0-.128.128V9.722a.129.129,0,0,1-.1.125,4.331,4.331,0,0,0-1.392.577.129.129,0,0,1-.161-.017l-.785-.785a.128.128,0,0,0-.181,0l-1.013,1.013a.128.128,0,0,0,0,.181l.785.785a.129.129,0,0,1,.017.161,4.334,4.334,0,0,0-.577,1.392.129.129,0,0,1-.125.1H91.344a.128.128,0,0,0-.128.128v1.433a.128.128,0,0,0,.128.128h1.111a.129.129,0,0,1,.125.1,4.33,4.33,0,0,0,.577,1.392.129.129,0,0,1-.017.161l-.785.785a.128.128,0,0,0,0,.181l1.013,1.013a.128.128,0,0,0,.181,0l.785-.785a.129.129,0,0,1,.161-.017,4.334,4.334,0,0,0,1.392.577.129.129,0,0,1,.1.125v1.111a.128.128,0,0,0,.128.128h1.433a.128.128,0,0,0,.128-.128V18.481a.129.129,0,0,1,.1-.125,4.33,4.33,0,0,0,1.392-.577.129.129,0,0,1,.161.017l.785.785a.128.128,0,0,0,.181,0l1.013-1.013a.128.128,0,0,0,0-.181l-.785-.785a.129.129,0,0,1-.017-.161,4.334,4.334,0,0,0,.577-1.392.129.129,0,0,1,.125-.1h1.111a.128.128,0,0,0,.128-.128V13.385A.128.128,0,0,0,102.324,13.257Z" transform="translate(-91.216 -8.483)" fill="#dae6f1"/>
          </g>
        </g>
        <g id="Grupo_1227824" data-name="Grupo 1227824" transform="translate(16.678 3.151)">
          <g id="Grupo_1227823" data-name="Grupo 1227823">
            <circle id="Elipse_13815" data-name="Elipse 13815" cx="2.873" cy="2.873" r="2.873" fill="#70d6f9"/>
          </g>
        </g>
        <g id="Grupo_1227826" data-name="Grupo 1227826" transform="translate(24.813 29.634)">
          <g id="Grupo_1227825" data-name="Grupo 1227825">
            <path id="Trazado_1307730" data-name="Trazado 1307730" d="M165.253,201.352a1.7,1.7,0,0,1-1.359-1.329c0-.031-.061-.031-.061,0a1.7,1.7,0,0,1-1.359,1.329c-.031,0-.031.046,0,.061a1.7,1.7,0,0,1,1.359,1.329c0,.031.061.031.061,0a1.7,1.7,0,0,1,1.359-1.329C165.283,201.4,165.283,201.352,165.253,201.352Z" transform="translate(-162.45 -200)" fill="#f5c84c"/>
          </g>
        </g>
        <g id="Grupo_1227828" data-name="Grupo 1227828" transform="translate(7.902 9.32)">
          <g id="Grupo_1227827" data-name="Grupo 1227827" transform="translate(0 0)">
            <path id="Trazado_1307731" data-name="Trazado 1307731" d="M53.7,67.949a1.189,1.189,0,0,1-.954-.932c0-.021-.043-.021-.043,0a1.189,1.189,0,0,1-.954.932c-.021,0-.021.032,0,.043a1.189,1.189,0,0,1,.954.932c0,.021.043.021.043,0a1.189,1.189,0,0,1,.954-.932C53.722,67.981,53.722,67.949,53.7,67.949Z" transform="translate(-51.734 -67.001)" fill="#f5c84c"/>
          </g>
        </g>
        <g id="Grupo_1227830" data-name="Grupo 1227830" transform="translate(28.792 4.371)">
          <g id="Grupo_1227829" data-name="Grupo 1227829">
            <path id="Trazado_1307732" data-name="Trazado 1307732" d="M190.669,35.44h-.351v-.351a.492.492,0,0,0-.489-.489.483.483,0,0,0-.489.489v.351h-.351a.492.492,0,0,0-.489.489.483.483,0,0,0,.489.489h.351v.351a.492.492,0,0,0,.489.489.483.483,0,0,0,.489-.489v-.351h.351a.492.492,0,0,0,.489-.489A.483.483,0,0,0,190.669,35.44Z" transform="translate(-188.5 -34.6)" fill="#70d6f9"/>
          </g>
        </g>
        <g id="Grupo_1227832" data-name="Grupo 1227832" transform="translate(24.041 34.675)">
          <g id="Grupo_1227831" data-name="Grupo 1227831">
            <path id="Trazado_1307733" data-name="Trazado 1307733" d="M157.919,233a.519.519,0,1,0,.519.519A.519.519,0,0,0,157.919,233Z" transform="translate(-157.4 -233)" fill="#fc657e"/>
          </g>
        </g>
        <g id="Grupo_1227834" data-name="Grupo 1227834" transform="translate(26.943 1.225)">
          <g id="Grupo_1227833" data-name="Grupo 1227833">
            <path id="Trazado_1307734" data-name="Trazado 1307734" d="M176.919,14a.519.519,0,1,0,.519.519A.519.519,0,0,0,176.919,14Z" transform="translate(-176.4 -14)" fill="#87d147"/>
          </g>
        </g>
        <g id="Grupo_1227837" data-name="Grupo 1227837" transform="translate(17.447 12.988)">
          <g id="Grupo_1227836" data-name="Grupo 1227836" transform="translate(0 0)">
            <g id="Grupo_1227835" data-name="Grupo 1227835">
              <path id="Trazado_1307735" data-name="Trazado 1307735" d="M116.331,91.017a2.1,2.1,0,1,0,2.1,2.1A2.106,2.106,0,0,0,116.331,91.017Zm0,3.444a1.34,1.34,0,1,1,1.34-1.34A1.342,1.342,0,0,1,116.331,94.461Z" transform="translate(-114.227 -91.017)"/>
            </g>
          </g>
        </g>
        <g id="Grupo_1227840" data-name="Grupo 1227840" transform="translate(10.691 12.08)">
          <g id="Grupo_1227839" data-name="Grupo 1227839" transform="translate(0 0)">
            <g id="Grupo_1227838" data-name="Grupo 1227838">
              <path id="Trazado_1307736" data-name="Trazado 1307736" d="M87.7,86.22a1.289,1.289,0,0,0-.546-.852,1.328,1.328,0,0,0-1.8.336L82.624,89.43l-2.6,1.544a1.435,1.435,0,0,1-.732.2h-.74a1.436,1.436,0,0,1-.732-.2l-2.73-1.62-2.722-3.725a1.328,1.328,0,0,0-1.8-.336,1.3,1.3,0,0,0-.315,1.837l2.9,3.971a1.274,1.274,0,0,0,.377.345l2.422,1.528a.045.045,0,0,1,.006.025l.038,5.587a.382.382,0,0,0,.382.379h4.964a.382.382,0,0,0,.382-.379l.038-5.513c0-.013,0-.021,0-.019l0,0,.007,0,2.407-1.519a1.288,1.288,0,0,0,.386-.351l2.9-3.971A1.286,1.286,0,0,0,87.7,86.22Zm-.848.534-2.9,3.971a.547.547,0,0,1-.168.15L81.366,92.4a.784.784,0,0,0-.371.67L80.96,98.2H76.754L76.719,93a.785.785,0,0,0-.371-.673l-2.422-1.528a.53.53,0,0,1-.159-.144l-2.9-3.971a.534.534,0,0,1,.13-.757.559.559,0,0,1,.756.157l2.769,3.789a.383.383,0,0,0,.113.1l2.8,1.66a2.2,2.2,0,0,0,1.122.308h.74a2.2,2.2,0,0,0,1.122-.308l2.669-1.584a.381.381,0,0,0,.113-.1l2.769-3.789A.559.559,0,0,1,86.72,86a.534.534,0,0,1,.13.757Z" transform="translate(-69.998 -85.073)"/>
            </g>
          </g>
        </g>
        <g id="Grupo_1227843" data-name="Grupo 1227843" transform="translate(30.888 12.988)">
          <g id="Grupo_1227842" data-name="Grupo 1227842" transform="translate(0 0)">
            <g id="Grupo_1227841" data-name="Grupo 1227841">
              <path id="Trazado_1307737" data-name="Trazado 1307737" d="M204.332,91.017a2.1,2.1,0,1,0,2.1,2.1A2.106,2.106,0,0,0,204.332,91.017Zm0,3.444a1.34,1.34,0,1,1,1.34-1.34A1.341,1.341,0,0,1,204.332,94.461Z" transform="translate(-202.228 -91.017)"/>
            </g>
          </g>
        </g>
        <g id="Grupo_1227845" data-name="Grupo 1227845" transform="translate(23.827 12.08)">
          <g id="Grupo_1227844" data-name="Grupo 1227844">
            <path id="Trazado_1307738" data-name="Trazado 1307738" d="M158.572,85.91l-.206-.282a1.328,1.328,0,0,0-1.8-.336,1.3,1.3,0,0,0-.315,1.837l.556.761a.382.382,0,1,0,.617-.451l-.556-.761a.534.534,0,0,1,.13-.757.559.559,0,0,1,.756.157l.206.282a.382.382,0,0,0,.617-.45Z" transform="translate(-155.997 -85.073)"/>
          </g>
        </g>
        <g id="Grupo_1227847" data-name="Grupo 1227847" transform="translate(25.832 14.487)">
          <g id="Grupo_1227846" data-name="Grupo 1227846">
            <path id="Trazado_1307739" data-name="Trazado 1307739" d="M182.331,109.2c-.357-1.187-.46-1.561-.535-1.834-.084-.307-.135-.492-.465-1.533a1.87,1.87,0,0,0-1.79-1.311H175.67a1.436,1.436,0,0,1-.732-.2l-2.73-1.62-1.255-1.717a.382.382,0,1,0-.617.451l1.3,1.78a.383.383,0,0,0,.114.1l2.8,1.66a2.2,2.2,0,0,0,1.122.308h3.871a1.109,1.109,0,0,1,1.062.777c.325,1.027.375,1.207.457,1.505.076.277.181.656.543,1.859a.53.53,0,0,1,.023.213l-.457,4.9a.535.535,0,0,1-.6.481.559.559,0,0,1-.462-.618l.436-4.672a.382.382,0,0,0-.015-.146l-.691-2.3a.879.879,0,0,0-.831-.628.882.882,0,0,0-.9.875l-.031,4.017h-4.206l-.036-5.206a.784.784,0,0,0-.369-.672l0,0-2.421-1.527a.532.532,0,0,1-.159-.144l-1.074-1.47a.382.382,0,0,0-.617.451l1.074,1.47a1.277,1.277,0,0,0,.377.345l2.417,1.525.007,0a.051.051,0,0,1,0,.024l.038,5.587a.382.382,0,0,0,.382.379h4.964a.382.382,0,0,0,.382-.379l.034-4.4a.118.118,0,0,1,.036-.084.127.127,0,0,1,.084-.034.118.118,0,0,1,.111.084l.67,2.227-.429,4.6a1.3,1.3,0,0,0,1.292,1.457,1.3,1.3,0,0,0,1.29-1.178l.457-4.9A1.285,1.285,0,0,0,182.331,109.2Z" transform="translate(-169.121 -100.829)"/>
          </g>
        </g>
        <g id="Grupo_1227850" data-name="Grupo 1227850" transform="translate(4.006 12.988)">
          <g id="Grupo_1227849" data-name="Grupo 1227849" transform="translate(0 0)">
            <g id="Grupo_1227848" data-name="Grupo 1227848">
              <path id="Trazado_1307740" data-name="Trazado 1307740" d="M28.331,91.017a2.1,2.1,0,1,0,2.1,2.1A2.106,2.106,0,0,0,28.331,91.017Zm0,3.444a1.34,1.34,0,1,1,1.34-1.34A1.342,1.342,0,0,1,28.331,94.461Z" transform="translate(-26.227 -91.017)"/>
            </g>
          </g>
        </g>
        <g id="Grupo_1227852" data-name="Grupo 1227852" transform="translate(12.645 12.08)">
          <g id="Grupo_1227851" data-name="Grupo 1227851" transform="translate(0 0)">
            <path id="Trazado_1307741" data-name="Trazado 1307741" d="M85.4,86.144a1.289,1.289,0,0,0-.546-.852,1.328,1.328,0,0,0-1.8.336l-.186.255a.382.382,0,0,0,.616.451l.187-.255a.559.559,0,0,1,.756-.157.534.534,0,0,1,.13.757l-.55.752a.382.382,0,0,0,.617.451l.55-.752a1.288,1.288,0,0,0,.231-.985Z" transform="translate(-82.786 -85.073)"/>
          </g>
        </g>
        <g id="Grupo_1227854" data-name="Grupo 1227854" transform="translate(0 14.45)">
          <g id="Grupo_1227853" data-name="Grupo 1227853" transform="translate(0 0)">
            <path id="Trazado_1307742" data-name="Trazado 1307742" d="M13.134,102.215a.382.382,0,0,0-.534.083l-1.1,1.5a.544.544,0,0,1-.168.15l-2.412,1.522a.784.784,0,0,0-.372.671l-.036,5.208H4.312l-.031-4.017a.882.882,0,0,0-1.727-.247l-.691,2.3a.381.381,0,0,0-.015.146l.436,4.672a.559.559,0,0,1-.462.618.535.535,0,0,1-.6-.481l-.457-4.9a.541.541,0,0,1,.026-.22c.36-1.2.464-1.575.541-1.852.082-.3.132-.478.457-1.505a1.109,1.109,0,0,1,1.062-.777H6.721a2.2,2.2,0,0,0,1.121-.308l2.8-1.66a.381.381,0,0,0,.113-.1L12.08,101.2a.382.382,0,1,0-.617-.451L10.182,102.5l-2.73,1.621a1.433,1.433,0,0,1-.732.2H2.85a1.87,1.87,0,0,0-1.79,1.311c-.329,1.041-.38,1.226-.465,1.533-.075.273-.178.648-.533,1.827a1.291,1.291,0,0,0-.057.518l.457,4.9a1.3,1.3,0,0,0,1.29,1.178,1.334,1.334,0,0,0,.163-.01,1.328,1.328,0,0,0,1.129-1.447l-.429-4.6.67-2.227a.118.118,0,0,1,.112-.084h0a.118.118,0,0,1,.118.117l.034,4.4a.382.382,0,0,0,.382.379H8.9a.382.382,0,0,0,.382-.379l.038-5.589a.032.032,0,0,1,.006-.022l.005,0,2.407-1.519a1.291,1.291,0,0,0,.386-.351l1.1-1.5a.382.382,0,0,0-.083-.534Z" transform="translate(0 -100.591)"/>
          </g>
        </g>
        <g id="Grupo_1227857" data-name="Grupo 1227857" transform="translate(13.551 0)">
          <g id="Grupo_1227856" data-name="Grupo 1227856">
            <g id="Grupo_1227855" data-name="Grupo 1227855">
              <path id="Trazado_1307743" data-name="Trazado 1307743" d="M100.207,10.757H99.3a4.7,4.7,0,0,0-.474-1.144l.644-.644a.51.51,0,0,0,0-.721L98.453,7.234a.51.51,0,0,0-.721,0l-.644.644A4.7,4.7,0,0,0,95.944,7.4V6.493a.511.511,0,0,0-.51-.51H94a.511.511,0,0,0-.51.51V7.4a4.7,4.7,0,0,0-1.144.474L91.7,7.234a.51.51,0,0,0-.721,0L89.968,8.247a.51.51,0,0,0,0,.722l.644.644a4.7,4.7,0,0,0-.474,1.144h-.911a.511.511,0,0,0-.51.51V12.7a.511.511,0,0,0,.51.51h.911a4.7,4.7,0,0,0,.474,1.144L89.968,15a.511.511,0,0,0,0,.722l1.013,1.013a.522.522,0,0,0,.721,0l.644-.644a4.7,4.7,0,0,0,1.144.474v.911a.511.511,0,0,0,.51.51h1.433a.511.511,0,0,0,.51-.51v-.911a4.7,4.7,0,0,0,1.144-.474l.644.644a.522.522,0,0,0,.721,0l1.013-1.013a.511.511,0,0,0,0-.722l-.644-.644A4.7,4.7,0,0,0,99.3,13.21h.911a.511.511,0,0,0,.51-.51V11.267a.511.511,0,0,0-.51-.51Zm-.254,1.689H99.1a.508.508,0,0,0-.5.4,3.94,3.94,0,0,1-.526,1.27.508.508,0,0,0,.069.636l.606.606-.654.654-.606-.606a.508.508,0,0,0-.636-.069,3.936,3.936,0,0,1-1.27.526.508.508,0,0,0-.4.5v.857h-.926v-.857a.508.508,0,0,0-.4-.5,3.937,3.937,0,0,1-1.27-.526.508.508,0,0,0-.636.069l-.606.606-.654-.654.607-.606a.508.508,0,0,0,.068-.636,3.94,3.94,0,0,1-.526-1.27.508.508,0,0,0-.5-.4H89.48V11.52h.857a.508.508,0,0,0,.5-.4,3.938,3.938,0,0,1,.526-1.27.508.508,0,0,0-.069-.636l-.606-.606.654-.654.606.606a.508.508,0,0,0,.636.069A3.941,3.941,0,0,1,93.853,8.1a.507.507,0,0,0,.4-.5V6.747h.926V7.6a.508.508,0,0,0,.4.5,3.942,3.942,0,0,1,1.27.526.508.508,0,0,0,.636-.069l.606-.606.654.654-.606.606a.508.508,0,0,0-.068.636,3.941,3.941,0,0,1,.526,1.27.508.508,0,0,0,.5.4h.857v.925Z" transform="translate(-88.717 -5.983)"/>
            </g>
          </g>
        </g>
        <g id="Grupo_1227859" data-name="Grupo 1227859" transform="translate(18.201 5.19)">
          <g id="Grupo_1227858" data-name="Grupo 1227858">
            <path id="Trazado_1307744" data-name="Trazado 1307744" d="M121.888,40.072a.382.382,0,0,0-.54,0l-1.011,1.011-.519-.518a.382.382,0,0,0-.54.54l.788.788a.382.382,0,0,0,.54,0l1.281-1.281A.381.381,0,0,0,121.888,40.072Z" transform="translate(-119.166 -39.96)"/>
          </g>
        </g>
        <g id="Grupo_1227862" data-name="Grupo 1227862" transform="translate(16.296 2.769)">
          <g id="Grupo_1227861" data-name="Grupo 1227861">
            <g id="Grupo_1227860" data-name="Grupo 1227860">
              <path id="Trazado_1307745" data-name="Trazado 1307745" d="M109.943,24.115A3.255,3.255,0,1,0,113.2,27.37a3.259,3.259,0,0,0-3.255-3.255Zm0,5.747a2.491,2.491,0,1,1,2.492-2.491A2.494,2.494,0,0,1,109.943,29.862Z" transform="translate(-106.688 -24.115)"/>
            </g>
          </g>
        </g>
        <g id="Grupo_1227864" data-name="Grupo 1227864" transform="translate(22.895 16.629)">
          <g id="Grupo_1227863" data-name="Grupo 1227863" transform="translate(0 0)">
            <path id="Trazado_1307746" data-name="Trazado 1307746" d="M151.631,116.266l-1.059-1.273a.382.382,0,0,0-.587.488l1.059,1.273a.382.382,0,0,0,.587-.488Z" transform="translate(-149.897 -114.856)"/>
          </g>
        </g>
        <g id="Grupo_1227866" data-name="Grupo 1227866" transform="translate(14.422 16.609)">
          <g id="Grupo_1227865" data-name="Grupo 1227865">
            <path id="Trazado_1307747" data-name="Trazado 1307747" d="M96.088,114.81a.382.382,0,0,0-.538.049l-1.037,1.247a.382.382,0,1,0,.587.488l1.037-1.247A.382.382,0,0,0,96.088,114.81Z" transform="translate(-94.425 -114.721)"/>
          </g>
        </g>
        <g id="Grupo_1227868" data-name="Grupo 1227868" transform="translate(36.542 22.145)">
          <g id="Grupo_1227867" data-name="Grupo 1227867">
            <path id="Trazado_1307748" data-name="Trazado 1307748" d="M241.468,151.242a.382.382,0,0,0-.475-.256l-1.474.442a.382.382,0,1,0,.219.731l1.474-.442A.382.382,0,0,0,241.468,151.242Z" transform="translate(-239.246 -150.97)"/>
          </g>
        </g>
        <g id="Grupo_1227870" data-name="Grupo 1227870" transform="translate(27.552 16.595)">
          <g id="Grupo_1227869" data-name="Grupo 1227869" transform="translate(0 0)">
            <path id="Trazado_1307749" data-name="Trazado 1307749" d="M182.063,114.723a.382.382,0,0,0-.538.049l-1.054,1.268a.382.382,0,1,0,.587.488l1.054-1.268A.382.382,0,0,0,182.063,114.723Z" transform="translate(-180.383 -114.634)"/>
          </g>
        </g>
        <g id="Grupo_1227872" data-name="Grupo 1227872" transform="translate(0.301 22.139)">
          <g id="Grupo_1227871" data-name="Grupo 1227871">
            <path id="Trazado_1307750" data-name="Trazado 1307750" d="M4.013,151.411l-1.547-.464a.382.382,0,1,0-.219.731l1.547.464a.382.382,0,0,0,.219-.731Z" transform="translate(-1.974 -150.931)"/>
          </g>
        </g>
        <g id="Grupo_1227874" data-name="Grupo 1227874" transform="translate(9.739 16.605)">
          <g id="Grupo_1227873" data-name="Grupo 1227873" transform="translate(0 0)">
            <path id="Trazado_1307751" data-name="Trazado 1307751" d="M65.476,116.079l-1.038-1.247a.382.382,0,1,0-.587.488l1.038,1.247a.382.382,0,0,0,.587-.488Z" transform="translate(-63.763 -114.694)"/>
          </g>
        </g>
        <g id="Grupo_1227876" data-name="Grupo 1227876" transform="translate(16.687 25.207)">
          <g id="Grupo_1227875" data-name="Grupo 1227875">
            <path id="Trazado_1307752" data-name="Trazado 1307752" d="M114.6,171.015a.382.382,0,0,0-.382.382v10.386a.53.53,0,0,1-.162.384.535.535,0,0,1-.907-.384v-7.752a1.031,1.031,0,0,0-2.062,0v7.752a.53.53,0,0,1-.162.384.535.535,0,0,1-.907-.384V171.4a.382.382,0,1,0-.764,0v10.386a1.3,1.3,0,1,0,2.6,0v-7.752a.267.267,0,1,1,.535,0v7.752a1.292,1.292,0,0,0,1.259,1.3h.04a1.3,1.3,0,0,0,1.3-1.3V171.4A.382.382,0,0,0,114.6,171.015Z" transform="translate(-109.25 -171.015)"/>
          </g>
        </g>
        <g id="Grupo_1227878" data-name="Grupo 1227878" transform="translate(29.823 25.207)">
          <g id="Grupo_1227877" data-name="Grupo 1227877">
            <path id="Trazado_1307753" data-name="Trazado 1307753" d="M200.6,171.017a.382.382,0,0,0-.382.382v10.386a.531.531,0,0,1-.162.384.535.535,0,0,1-.907-.384v-7.752a1.031,1.031,0,1,0-2.062,0v7.752a.53.53,0,0,1-.162.384.535.535,0,0,1-.907-.384V171.4a.382.382,0,1,0-.764,0v10.386a1.3,1.3,0,1,0,2.6,0v-7.752a.267.267,0,1,1,.535,0v7.752a1.292,1.292,0,0,0,1.259,1.3h.04a1.3,1.3,0,0,0,1.3-1.3V171.4a.382.382,0,0,0-.382-.382Z" transform="translate(-195.25 -171.017)"/>
          </g>
        </g>
        <g id="Grupo_1227880" data-name="Grupo 1227880" transform="translate(3.551 25.207)">
          <g id="Grupo_1227879" data-name="Grupo 1227879">
            <path id="Trazado_1307754" data-name="Trazado 1307754" d="M28.6,171.017a.382.382,0,0,0-.382.382v10.386a.535.535,0,1,1-1.069,0v-7.752a1.031,1.031,0,1,0-2.062,0v7.752a.535.535,0,1,1-1.069,0V171.4a.382.382,0,1,0-.764,0v10.386a1.3,1.3,0,1,0,2.6,0v-7.752a.267.267,0,0,1,.535,0v7.752a1.3,1.3,0,0,0,1.3,1.3h.04a1.292,1.292,0,0,0,1.259-1.3V171.4A.382.382,0,0,0,28.6,171.017Z" transform="translate(-23.25 -171.017)"/>
          </g>
        </g>
        <g id="Grupo_1227882" data-name="Grupo 1227882" transform="translate(16.833 34.524)">
          <g id="Grupo_1227881" data-name="Grupo 1227881">
            <path id="Trazado_1307755" data-name="Trazado 1307755" d="M112.136,232.017H110.59a.382.382,0,1,0,0,.764h1.547a.382.382,0,0,0,0-.764Z" transform="translate(-110.208 -232.017)"/>
          </g>
        </g>
        <g id="Grupo_1227884" data-name="Grupo 1227884" transform="translate(19.971 34.524)">
          <g id="Grupo_1227883" data-name="Grupo 1227883">
            <path id="Trazado_1307756" data-name="Trazado 1307756" d="M132.678,232.017h-1.546a.382.382,0,0,0,0,.764h1.546a.382.382,0,1,0,0-.764Z" transform="translate(-130.75 -232.017)"/>
          </g>
        </g>
        <g id="Grupo_1227886" data-name="Grupo 1227886" transform="translate(29.937 34.524)">
          <g id="Grupo_1227885" data-name="Grupo 1227885">
            <path id="Trazado_1307757" data-name="Trazado 1307757" d="M197.938,232.017h-1.556a.382.382,0,0,0,0,.764h1.556a.382.382,0,1,0,0-.764Z" transform="translate(-196 -232.017)"/>
          </g>
        </g>
        <g id="Grupo_1227888" data-name="Grupo 1227888" transform="translate(33.113 34.524)">
          <g id="Grupo_1227887" data-name="Grupo 1227887">
            <path id="Trazado_1307758" data-name="Trazado 1307758" d="M218.731,232.017h-1.556a.382.382,0,1,0,0,.764h1.556a.382.382,0,1,0,0-.764Z" transform="translate(-216.793 -232.017)"/>
          </g>
        </g>
        <g id="Grupo_1227890" data-name="Grupo 1227890" transform="translate(6.773 34.524)">
          <g id="Grupo_1227889" data-name="Grupo 1227889">
            <path id="Trazado_1307759" data-name="Trazado 1307759" d="M46.358,232.017H44.726a.382.382,0,0,0,0,.764h1.632a.382.382,0,1,0,0-.764Z" transform="translate(-44.344 -232.017)"/>
          </g>
        </g>
        <g id="Grupo_1227892" data-name="Grupo 1227892" transform="translate(3.651 34.524)">
          <g id="Grupo_1227891" data-name="Grupo 1227891">
            <path id="Trazado_1307760" data-name="Trazado 1307760" d="M25.911,232.017H24.288a.382.382,0,1,0,0,.764h1.623a.382.382,0,1,0,0-.764Z" transform="translate(-23.906 -232.017)"/>
          </g>
        </g>
      </g>
    </g>
  </g>
</svg>
