<svg xmlns="http://www.w3.org/2000/svg" xmlns:xlink="http://www.w3.org/1999/xlink" width="108.914" height="108.914" viewBox="0 0 108.914 108.914">
  <defs>
    <filter id="Trazado_1289138" x="0" y="0" width="108.914" height="108.914" filterUnits="userSpaceOnUse">
      <feOffset dy="3" input="SourceAlpha"/>
      <feGaussianBlur stdDeviation="3" result="blur"/>
      <feFlood flood-opacity="0.161"/>
      <feComposite operator="in" in2="blur"/>
      <feComposite in="SourceGraphic"/>
    </filter>
  </defs>
  <g id="Grupo_1228023" data-name="Grupo 1228023" transform="translate(-268.376 -1333.648)">
    <g transform="matrix(1, 0, 0, 1, 268.38, 1333.65)" filter="url(#Trazado_1289138)">
      <g id="Trazado_1289138-2" data-name="Trazado 1289138" transform="translate(9 6)" fill="#d7d9de" opacity="0.859">
        <path d="M 45.45676803588867 89.41407012939453 C 39.52198028564453 89.41407012939453 33.76551818847656 88.25206756591797 28.34726715087891 85.96034240722656 C 23.11311721801758 83.74648284912109 18.41204261779785 80.57682800292969 14.37464332580566 76.5394287109375 C 10.33724308013916 72.50202941894531 7.167593002319336 67.80095672607422 4.953730583190918 62.56679534912109 C 2.662005424499512 57.14855575561523 1.500005483627319 51.39208221435547 1.500005483627319 45.45729446411133 C 1.500005483627319 39.52198028564453 2.662005424499512 33.76551818847656 4.953730583190918 28.34726905822754 C 7.167593002319336 23.11310577392578 10.33724308013916 18.41203117370605 14.37464332580566 14.37464332580566 C 18.41204261779785 10.33724403381348 23.11311721801758 7.167593955993652 28.34726715087891 4.953731060028076 C 33.76551818847656 2.662006139755249 39.52198028564453 1.500006198883057 45.45676803588867 1.500006198883057 C 51.39155578613281 1.500006198883057 57.14802932739258 2.662006139755249 62.56626892089844 4.953731060028076 C 67.80043029785156 7.167593955993652 72.50150299072266 10.33724403381348 76.53890228271484 14.37464332580566 C 80.57630920410156 18.41203117370605 83.74595642089844 23.11310577392578 85.95981597900391 28.34726905822754 C 88.25154113769531 33.76551818847656 89.41354370117188 39.52198028564453 89.41354370117188 45.45676803588867 C 89.41354370117188 51.39208221435547 88.25154113769531 57.14855575561523 85.95981597900391 62.56679534912109 C 83.74595642089844 67.80095672607422 80.57630920410156 72.50202941894531 76.53890228271484 76.5394287109375 C 72.50150299072266 80.57682800292969 67.80043029785156 83.74648284912109 62.56626892089844 85.96034240722656 C 57.14802932739258 88.25206756591797 51.39155578613281 89.41407012939453 45.45676803588867 89.41407012939453 Z" stroke="none"/>
        <path d="M 45.45676803588867 3 C 39.72381210327148 3 34.1639404296875 4.12213134765625 28.93159484863281 6.335227966308594 C 23.87622833251953 8.473472595214844 19.33542633056641 11.53517150878906 15.43529510498047 15.435302734375 C 11.53517150878906 19.33543395996094 8.473464965820312 23.87622833251953 6.335227966308594 28.93160247802734 C 4.122123718261719 34.16394424438477 3 39.72381591796875 3 45.4572868347168 C 3 51.19024658203125 4.122123718261719 56.75011825561523 6.335227966308594 61.98246002197266 C 8.473464965820312 67.03782653808594 11.53517150878906 71.57862854003906 15.43529510498047 75.478759765625 C 19.33542633056641 79.37889099121094 23.87622833251953 82.44058990478516 28.93159484863281 84.57883453369141 C 34.1639404296875 86.79193115234375 39.72381210327148 87.9140625 45.45676803588867 87.9140625 C 51.18972396850586 87.9140625 56.74959564208984 86.79193115234375 61.98194122314453 84.57883453369141 C 67.03730773925781 82.44058990478516 71.57810974121094 79.37889099121094 75.47824096679688 75.478759765625 C 79.37837219238281 71.57862854003906 82.44007110595703 67.03782653808594 84.57830810546875 61.98246002197266 C 86.79141235351562 56.75011825561523 87.91353607177734 51.19024658203125 87.91353607177734 45.4567756652832 C 87.91353607177734 39.72381591796875 86.79141235351562 34.16394424438477 84.57830810546875 28.93160247802734 C 82.44007110595703 23.87622833251953 79.37837219238281 19.33543395996094 75.47824096679688 15.435302734375 C 71.57810974121094 11.53517150878906 67.03730773925781 8.473472595214844 61.98194122314453 6.335227966308594 C 56.74959564208984 4.12213134765625 51.18972396850586 3 45.45676803588867 3 M 45.45676803588867 0 C 70.56185150146484 0 90.91353607177734 20.35169219970703 90.91353607177734 45.4567756652832 L 90.91353607177734 45.4572868347168 C 90.91353607177734 70.5623779296875 70.56185150146484 90.9140625 45.45676803588867 90.9140625 C 20.3516845703125 90.9140625 0 70.5623779296875 0 45.4572868347168 L 0 45.4567756652832 C 0 20.35169219970703 20.3516845703125 0 45.45676803588867 0 Z" stroke="none" fill="#fff"/>
      </g>
    </g>
    <g id="Grupo_1227717" data-name="Grupo 1227717" transform="translate(299.448 1358.7)">
      <g id="Grupo_1227715" data-name="Grupo 1227715" transform="translate(0.687 0.708)">
        <g id="Grupo_1227711" data-name="Grupo 1227711" transform="translate(0 34.119)">
          <path id="Trazado_1307579" data-name="Trazado 1307579" d="M69.11,387.07l-3.125-1.348-.888-2.665,2.006-2.006,2.773,1.3,1.24,2.715Z" transform="translate(-59.838 -381.051)" fill="#565f64"/>
          <path id="Trazado_1307580" data-name="Trazado 1307580" d="M66.384,384.5l2.006-2.006,1.973.923-.487-1.067-2.773-1.3L65.1,383.057l.888,2.665.942.406Z" transform="translate(-59.838 -381.051)" fill="#464f54"/>
          <path id="Trazado_1307581" data-name="Trazado 1307581" d="M8.768,401.061a4.256,4.256,0,0,1,0-6.019l3.009-3.009,6.019,6.019-3.009,3.009A4.256,4.256,0,0,1,8.768,401.061Z" transform="translate(-7.521 -391.03)" fill="#f6a96c"/>
          <path id="Trazado_1307582" data-name="Trazado 1307582" d="M8.768,397.783l1.911-1.911a1.553,1.553,0,0,1,2.2,0l3.551,3.551,1.37-1.37-6.019-6.019-3.009,3.009a4.256,4.256,0,0,0-1.021,4.38,4.239,4.239,0,0,1,1.021-1.639Z" transform="translate(-7.522 -391.03)" fill="#ea9b58"/>
        </g>
        <circle id="Elipse_13804" data-name="Elipse 13804" cx="21.28" cy="21.28" r="21.28" transform="translate(2.837 0)" fill="#565f64"/>
        <path id="Trazado_1307583" data-name="Trazado 1307583" d="M40.411,28.8A21.28,21.28,0,0,1,60.777,7.541a21.28,21.28,0,1,0,0,42.521A21.28,21.28,0,0,1,40.411,28.8Z" transform="translate(-35.747 -7.522)" fill="#464f54"/>
        <circle id="Elipse_13805" data-name="Elipse 13805" cx="18.443" cy="18.443" r="18.443" transform="translate(5.675 2.837)" fill="#eaf6ff"/>
        <path id="Trazado_1307584" data-name="Trazado 1307584" d="M71.473,57.028A18.443,18.443,0,0,1,89,38.608q-.454-.022-.913-.022a18.443,18.443,0,1,0,0,36.885q.459,0,.913-.022A18.443,18.443,0,0,1,71.473,57.028Z" transform="translate(-63.971 -35.749)" fill="#d8ecfe"/>
        <g id="Grupo_1227714" data-name="Grupo 1227714" transform="translate(10.955 9.116)">
          <g id="Grupo_1227713" data-name="Grupo 1227713">
            <path id="Trazado_1307585" data-name="Trazado 1307585" d="M147.557,115.261a4.34,4.34,0,0,0-1.659-7.176,14.2,14.2,0,0,0-18.288,9.722,4.339,4.339,0,0,0,5,5.378h0a4.316,4.316,0,0,0,3.375-3.106,5.509,5.509,0,0,1,7.064-3.79A4.384,4.384,0,0,0,147.557,115.261Z" transform="translate(-127.457 -107.324)" fill="#6fd7a3"/>
            <g id="Grupo_1227712" data-name="Grupo 1227712" transform="translate(0 0)">
              <path id="Trazado_1307586" data-name="Trazado 1307586" d="M129.437,117.807a14.194,14.194,0,0,1,12.783-10.453,14.193,14.193,0,0,0-14.61,10.453,4.339,4.339,0,0,0,5,5.378h0l.093-.019a4.339,4.339,0,0,1-3.271-5.359Z" transform="translate(-127.457 -107.325)" fill="#3ec3a4"/>
            </g>
            <circle id="Elipse_13806" data-name="Elipse 13806" cx="1.411" cy="1.411" r="1.411" transform="translate(4.633 7.545)" fill="#ffcd50"/>
            <path id="Trazado_1307587" data-name="Trazado 1307587" d="M180.008,191.331a1.407,1.407,0,0,1,.5-1.075,1.411,1.411,0,1,0,0,2.15A1.408,1.408,0,0,1,180.008,191.331Z" transform="translate(-173.548 -182.376)" fill="#f4b537"/>
          </g>
          <circle id="Elipse_13807" data-name="Elipse 13807" cx="2.128" cy="2.128" r="2.128" transform="translate(24.149 13.156)" fill="#ffcd50"/>
          <path id="Trazado_1307588" data-name="Trazado 1307588" d="M393.662,253.483a2.128,2.128,0,0,1,1.215-1.922,2.128,2.128,0,1,0,0,3.845A2.128,2.128,0,0,1,393.662,253.483Z" transform="translate(-367.686 -238.199)" fill="#f4b537"/>
          <path id="Trazado_1307589" data-name="Trazado 1307589" d="M225.927,327.582a1.6,1.6,0,0,1,2.151-.7l2.206,1.12a1.6,1.6,0,1,1-1.448,2.854l-2.206-1.12A1.6,1.6,0,0,1,225.927,327.582Z" transform="translate(-216.775 -306.667)" fill="#ffcd50"/>
          <path id="Trazado_1307590" data-name="Trazado 1307590" d="M228.457,329.733a1.6,1.6,0,0,1-.175-2.751l-.2-.1a1.6,1.6,0,1,0-1.448,2.854l2.206,1.12a1.6,1.6,0,0,0,1.624-.1Z" transform="translate(-216.775 -306.667)" fill="#f4b537"/>
        </g>
      </g>
      <g id="Grupo_1227716" data-name="Grupo 1227716" transform="translate(0 0.023)">
        <path id="Trazado_1307591" data-name="Trazado 1307591" d="M24.8.023A21.971,21.971,0,0,0,6.98,34.831L5.946,35.864l-.519-.519a.685.685,0,0,0-.969,0L2.5,37.3a.685.685,0,0,0,.969.969L4.943,36.8l5.05,5.05L7.468,44.374a3.572,3.572,0,0,1-5.776-4A.685.685,0,1,0,.445,39.8a4.942,4.942,0,0,0,7.992,5.541l3.009-3.009a.685.685,0,0,0,0-.969l-.519-.519,1.033-1.033A21.958,21.958,0,0,0,29.6,43.428a.685.685,0,0,0-.3-1.337,20.582,20.582,0,1,1,2.892-.872.685.685,0,0,0,.492,1.279A21.968,21.968,0,0,0,24.8.023ZM10.868,38.968l-.909.909L6.915,36.833l.909-.909a22.436,22.436,0,0,0,3.044,3.044Z" transform="translate(0 -0.023)"/>
        <path id="Trazado_1307592" data-name="Trazado 1307592" d="M67.776,36.661a19.1,19.1,0,1,0,2.371-2.007.685.685,0,0,0,.8,1.114,17.774,17.774,0,1,1-2.2,1.864.685.685,0,1,0-.967-.971Z" transform="translate(-56.469 -28.249)"/>
        <path id="Trazado_1307593" data-name="Trazado 1307593" d="M103.044,82.138,101.636,81a.685.685,0,0,0-.859,1.067l1.366,1.1A14.908,14.908,0,0,0,100.6,85.54l-1.349-.8a.685.685,0,1,0-.7,1.179l1.467.869a13.3,13.3,0,0,0-.676,2.112H97.856a.685.685,0,1,0,0,1.37h1.416a4.96,4.96,0,0,0,.616,2.006l-1.219,1.045a.686.686,0,0,0,.446,1.205c.424,0,.514-.285,1.6-1.155a5.045,5.045,0,0,0,1.353.974l-.585,1.357a.685.685,0,1,0,1.258.543l.633-1.468a5.048,5.048,0,0,0,1.922-.023v1.014a.685.685,0,0,0,1.37,0V94.258a5.074,5.074,0,0,0,1.2-.9l.9.743a.685.685,0,1,0,.87-1.058l-.951-.782a14.521,14.521,0,0,0,.7-1.816l.81.719a.685.685,0,1,0,.91-1.025l-.974-.865a4.829,4.829,0,0,1,2.422-1.519l.234,1.128a.685.685,0,1,0,1.342-.278l-.208-1.007a23.445,23.445,0,0,1,2.508.492v1.068a.685.685,0,0,0,1.37,0V88.054a4.984,4.984,0,0,0,2.077-.855l.657,1.029a.685.685,0,1,0,1.155-.738l-.8-1.249a4.989,4.989,0,0,0,1.045-2.373h1.453a.685.685,0,0,0,0-1.37h-1.433a5.057,5.057,0,0,0-.983-2.44l1.171-1.151a.685.685,0,0,0-.96-.977l-1.181,1.161a6.574,6.574,0,0,0-2.518-1.075l.658-1.358a.685.685,0,1,0-1.233-.6l-.809,1.67a14.908,14.908,0,0,0-2.347-.181l.2-1.459A.685.685,0,0,0,112.6,75.9l-.238,1.715a14.945,14.945,0,0,0-2.558.473l-.168-1.707a.685.685,0,0,0-1.364.134l.2,2.012a14.792,14.792,0,0,0-2.407,1.18l-.634-1.4a.685.685,0,0,0-1.249.564l.73,1.616a14.986,14.986,0,0,0-1.868,1.651Zm15.112-2.494a3.657,3.657,0,1,1-2.406,6.906,6.171,6.171,0,0,0-7.943,4.263,3.659,3.659,0,0,1-6.481,1.172,3.611,3.611,0,0,1-.576-3.089A13.514,13.514,0,0,1,118.157,79.645Z" transform="translate(-88.295 -68.435)"/>
        <path id="Trazado_1307594" data-name="Trazado 1307594" d="M172.778,186.611a2.1,2.1,0,1,0-2.1-2.1A2.1,2.1,0,0,0,172.778,186.611Zm0-2.821a.725.725,0,1,1-.725.725A.726.726,0,0,1,172.778,183.79Z" transform="translate(-155.092 -165.759)"/>
        <path id="Trazado_1307595" data-name="Trazado 1307595" d="M159.984,240.979a.685.685,0,1,0-.685-.685A.685.685,0,0,0,159.984,240.979Z" transform="translate(-144.748 -217.725)"/>
        <path id="Trazado_1307596" data-name="Trazado 1307596" d="M265.308,137.326a.685.685,0,1,0-.806-.538A.685.685,0,0,0,265.308,137.326Z" transform="translate(-240.329 -123.551)"/>
        <path id="Trazado_1307597" data-name="Trazado 1307597" d="M287.791,144.482a2.639,2.639,0,0,0,2.737-.848,3.241,3.241,0,0,0,.631-1.254.685.685,0,0,0-1.337-.3,1.366,1.366,0,0,1-1.732,1.063.685.685,0,1,0-.3,1.337Z" transform="translate(-261.017 -128.619)"/>
        <path id="Trazado_1307598" data-name="Trazado 1307598" d="M221.246,152.726c1.329.7,1.415.841,1.716.841a.686.686,0,0,0,.328-1.287l-1.389-.757a.685.685,0,0,0-.656,1.2Z" transform="translate(-200.712 -137.609)"/>
        <path id="Trazado_1307599" data-name="Trazado 1307599" d="M384.335,246.668a2.813,2.813,0,1,0,2.813-2.813A2.816,2.816,0,0,0,384.335,246.668Zm4.256,0a1.443,1.443,0,1,1-1.443-1.443A1.445,1.445,0,0,1,388.591,246.668Z" transform="translate(-349.229 -221.583)"/>
        <path id="Trazado_1307600" data-name="Trazado 1307600" d="M362.192,326.179a.685.685,0,1,0,.688.685A.686.686,0,0,0,362.192,326.179Z" transform="translate(-328.488 -296.387)"/>
        <path id="Trazado_1307601" data-name="Trazado 1307601" d="M416.084,183.1a.685.685,0,1,0-.685-.685A.687.687,0,0,0,416.084,183.1Z" transform="translate(-377.455 -165.136)"/>
        <circle id="Elipse_13808" data-name="Elipse 13808" cx="0.685" cy="0.685" r="0.685" transform="translate(18.082 35.683)"/>
        <path id="Trazado_1307602" data-name="Trazado 1307602" d="M155.425,337.041a.685.685,0,1,0,.686.685A.686.686,0,0,0,155.425,337.041Z" transform="translate(-140.605 -306.257)"/>
        <path id="Trazado_1307603" data-name="Trazado 1307603" d="M260.774,281.1a.685.685,0,1,0-.685-.685A.686.686,0,0,0,260.774,281.1Z" transform="translate(-236.332 -254.182)"/>
        <path id="Trazado_1307604" data-name="Trazado 1307604" d="M315.351,260.783a3.241,3.241,0,0,0,.631-1.254.685.685,0,0,0-1.337-.3,1.366,1.366,0,0,1-1.732,1.063.685.685,0,0,0-.3,1.337A2.639,2.639,0,0,0,315.351,260.783Z" transform="translate(-283.572 -235.066)"/>
        <path id="Trazado_1307605" data-name="Trazado 1307605" d="M310,369.085l-1.254.964a.685.685,0,1,0,.835,1.087l1.254-.964a.685.685,0,1,0-.835-1.087Z" transform="translate(-280.303 -335.245)"/>
        <path id="Trazado_1307606" data-name="Trazado 1307606" d="M218.5,320.452a2.284,2.284,0,0,0,1,3.072c2.021.956,2.354,1.367,3.237,1.367a2.285,2.285,0,0,0,1.038-4.323l-2.206-1.12A2.284,2.284,0,0,0,218.5,320.452Zm5.06,2.568a.916.916,0,0,1-1.23.4l-2.206-1.12a.915.915,0,1,1,.828-1.632l2.206,1.12A.916.916,0,0,1,223.557,323.02Z" transform="translate(-198.313 -290.045)"/>
      </g>
    </g>
  </g>
</svg>
