<svg xmlns="http://www.w3.org/2000/svg" xmlns:xlink="http://www.w3.org/1999/xlink" width="108.914" height="108.914" viewBox="0 0 108.914 108.914">
  <defs>
    <filter id="Trazado_1289136" x="0" y="0" width="108.914" height="108.914" filterUnits="userSpaceOnUse">
      <feOffset dy="3" input="SourceAlpha"/>
      <feGaussianBlur stdDeviation="3" result="blur"/>
      <feFlood flood-opacity="0.161"/>
      <feComposite operator="in" in2="blur"/>
      <feComposite in="SourceGraphic"/>
    </filter>
  </defs>
  <g id="Grupo_1228024" data-name="Grupo 1228024" transform="translate(-582.624 -1333.877)">
    <g transform="matrix(1, 0, 0, 1, 582.62, 1333.88)" filter="url(#Trazado_1289136)">
      <g id="Trazado_1289136-2" data-name="Trazado 1289136" transform="translate(9 6)" fill="#d7d9de" opacity="0.859">
        <path d="M 45.45676803588867 89.41407012939453 C 39.52198028564453 89.41407012939453 33.76551818847656 88.25206756591797 28.34726715087891 85.96034240722656 C 23.11311721801758 83.74648284912109 18.41204261779785 80.57682800292969 14.37464332580566 76.5394287109375 C 10.33724308013916 72.50202941894531 7.167593002319336 67.80095672607422 4.953730583190918 62.56679534912109 C 2.662005424499512 57.14855575561523 1.500005483627319 51.39208221435547 1.500005483627319 45.45729446411133 C 1.500005483627319 39.52198028564453 2.662005424499512 33.76551818847656 4.953730583190918 28.34726905822754 C 7.167593002319336 23.11310577392578 10.33724308013916 18.41203117370605 14.37464332580566 14.37464332580566 C 18.41204261779785 10.33724403381348 23.11311721801758 7.167593955993652 28.34726715087891 4.953731060028076 C 33.76551818847656 2.662006139755249 39.52198028564453 1.500006198883057 45.45676803588867 1.500006198883057 C 51.39155578613281 1.500006198883057 57.14802932739258 2.662006139755249 62.56626892089844 4.953731060028076 C 67.80043029785156 7.167593955993652 72.50150299072266 10.33724403381348 76.53890228271484 14.37464332580566 C 80.57630920410156 18.41203117370605 83.74595642089844 23.11310577392578 85.95981597900391 28.34726905822754 C 88.25154113769531 33.76551818847656 89.41354370117188 39.52198028564453 89.41354370117188 45.45676803588867 C 89.41354370117188 51.39208221435547 88.25154113769531 57.14855575561523 85.95981597900391 62.56679534912109 C 83.74595642089844 67.80095672607422 80.57630920410156 72.50202941894531 76.53890228271484 76.5394287109375 C 72.50150299072266 80.57682800292969 67.80043029785156 83.74648284912109 62.56626892089844 85.96034240722656 C 57.14802932739258 88.25206756591797 51.39155578613281 89.41407012939453 45.45676803588867 89.41407012939453 Z" stroke="none"/>
        <path d="M 45.45676803588867 3 C 39.72381210327148 3 34.1639404296875 4.12213134765625 28.93159484863281 6.335227966308594 C 23.87622833251953 8.473472595214844 19.33542633056641 11.53517150878906 15.43529510498047 15.435302734375 C 11.53517150878906 19.33543395996094 8.473464965820312 23.87622833251953 6.335227966308594 28.93160247802734 C 4.122123718261719 34.16394424438477 3 39.72381591796875 3 45.4572868347168 C 3 51.19024658203125 4.122123718261719 56.75011825561523 6.335227966308594 61.98246002197266 C 8.473464965820312 67.03782653808594 11.53517150878906 71.57862854003906 15.43529510498047 75.478759765625 C 19.33542633056641 79.37889099121094 23.87622833251953 82.44058990478516 28.93159484863281 84.57883453369141 C 34.1639404296875 86.79193115234375 39.72381210327148 87.9140625 45.45676803588867 87.9140625 C 51.18972396850586 87.9140625 56.74959564208984 86.79193115234375 61.98194122314453 84.57883453369141 C 67.03730773925781 82.44058990478516 71.57810974121094 79.37889099121094 75.47824096679688 75.478759765625 C 79.37837219238281 71.57862854003906 82.44007110595703 67.03782653808594 84.57830810546875 61.98246002197266 C 86.79141235351562 56.75011825561523 87.91353607177734 51.19024658203125 87.91353607177734 45.4567756652832 C 87.91353607177734 39.72381591796875 86.79141235351562 34.16394424438477 84.57830810546875 28.93160247802734 C 82.44007110595703 23.87622833251953 79.37837219238281 19.33543395996094 75.47824096679688 15.435302734375 C 71.57810974121094 11.53517150878906 67.03730773925781 8.473472595214844 61.98194122314453 6.335227966308594 C 56.74959564208984 4.12213134765625 51.18972396850586 3 45.45676803588867 3 M 45.45676803588867 0 C 70.56185150146484 0 90.91353607177734 20.35169219970703 90.91353607177734 45.4567756652832 L 90.91353607177734 45.4572868347168 C 90.91353607177734 70.5623779296875 70.56185150146484 90.9140625 45.45676803588867 90.9140625 C 20.3516845703125 90.9140625 0 70.5623779296875 0 45.4572868347168 L 0 45.4567756652832 C 0 20.35169219970703 20.3516845703125 0 45.45676803588867 0 Z" stroke="none" fill="#fff"/>
      </g>
    </g>
    <g id="XMLID_1364_" transform="translate(565.815 1363.724)">
      <path id="XMLID_326_" d="M79.267,300.924l-8.047,13.938-1.562-5.828-5.85,1.567,8.055-13.952Z" transform="translate(-9.113 -270.331)" fill="#adeefa"/>
      <path id="XMLID_324_" d="M281.287,296.65l8.055,13.952-5.85-1.567-1.562,5.828-8.047-13.938Z" transform="translate(-200.55 -270.331)" fill="#adeefa"/>
      <path id="XMLID_1369_" d="M90.189,10.289A4.25,4.25,0,0,1,95.16,11.62a4.25,4.25,0,0,0,2.788,1.61,4.25,4.25,0,0,1,3.639,3.639,4.25,4.25,0,0,0,1.61,2.788,4.25,4.25,0,0,1,1.332,4.971,4.25,4.25,0,0,0,0,3.22,4.25,4.25,0,0,1-1.332,4.971,4.25,4.25,0,0,0-1.61,2.788,4.25,4.25,0,0,1-3.639,3.639,4.25,4.25,0,0,0-2.788,1.61,4.25,4.25,0,0,1-4.971,1.332,4.25,4.25,0,0,0-3.22,0A4.25,4.25,0,0,1,82,40.855a4.251,4.251,0,0,0-2.788-1.61,4.25,4.25,0,0,1-3.639-3.639,4.25,4.25,0,0,0-1.61-2.788,4.25,4.25,0,0,1-1.332-4.971,4.25,4.25,0,0,0,0-3.22,4.25,4.25,0,0,1,1.332-4.971,4.25,4.25,0,0,0,1.61-2.788,4.25,4.25,0,0,1,3.639-3.639A4.25,4.25,0,0,0,82,11.62a4.25,4.25,0,0,1,4.971-1.332,4.25,4.25,0,0,0,3.22,0Z" transform="translate(-16.864 -9.088)" fill="#ffec80"/>
      <circle id="XMLID_1366_" cx="10.647" cy="10.647" r="10.647" transform="translate(61.097 6.802)" fill="#fff"/>
      <g id="XMLID_320_" transform="translate(65.551 12.464)">
        <path id="XMLID_322_" d="M191.336,150.457l-5.177-5.177,2.761-2.76,2.417,2.417,4.448-4.448,2.76,2.76Z" transform="translate(-186.159 -140.488)" fill="#ff7d97"/>
      </g>
      <g id="XMLID_141_" transform="translate(53.808 -0.001)">
        <path id="XMLID_162_" d="M89.561,39.827l-5.746-9.952A5.14,5.14,0,0,0,85.6,26.638a3.343,3.343,0,0,1,1.274-2.206,5.152,5.152,0,0,0,1.61-6.008,3.343,3.343,0,0,1,0-2.547,5.152,5.152,0,0,0-1.61-6.008A3.343,3.343,0,0,1,85.6,7.662a5.152,5.152,0,0,0-4.4-4.4A3.343,3.343,0,0,1,79,1.99,5.152,5.152,0,0,0,72.99.38a3.343,3.343,0,0,1-2.547,0,5.152,5.152,0,0,0-6.008,1.61,3.344,3.344,0,0,1-2.206,1.274,5.152,5.152,0,0,0-4.4,4.4,3.344,3.344,0,0,1-1.274,2.206,5.152,5.152,0,0,0-1.61,6.008,3.343,3.343,0,0,1,0,2.547,5.152,5.152,0,0,0,1.61,6.008,3.344,3.344,0,0,1,1.274,2.206,5.14,5.14,0,0,0,1.825,3.268l-5.728,9.921a.887.887,0,0,0,1,1.3l4.993-1.338,1.332,4.971a.887.887,0,0,0,1.625.214L69.056,34.27a5.1,5.1,0,0,0,1.387-.35,3.343,3.343,0,0,1,2.547,0,5.1,5.1,0,0,0,1.447.357l6.177,10.7a.887.887,0,0,0,1.625-.214l1.332-4.971,4.993,1.338a.887.887,0,0,0,1-1.3ZM62.409,42.233,61.4,38.474a.887.887,0,0,0-1.087-.627L56.535,38.86,61.2,30.785a5.1,5.1,0,0,0,1.031.252,3.344,3.344,0,0,1,2.206,1.274,5.129,5.129,0,0,0,2.668,1.8Zm7.361-9.955a3.373,3.373,0,0,1-3.933-1.054,5.108,5.108,0,0,0-3.37-1.946A3.372,3.372,0,0,1,59.588,26.4a5.108,5.108,0,0,0-1.946-3.37A3.373,3.373,0,0,1,56.588,19.1a5.107,5.107,0,0,0,0-3.892,3.373,3.373,0,0,1,1.054-3.933A5.108,5.108,0,0,0,59.588,7.9a3.373,3.373,0,0,1,2.879-2.879,5.108,5.108,0,0,0,3.37-1.946A3.369,3.369,0,0,1,69.77,2.022a5.108,5.108,0,0,0,3.892,0,3.372,3.372,0,0,1,3.933,1.054,5.108,5.108,0,0,0,3.37,1.946A3.373,3.373,0,0,1,83.844,7.9a5.108,5.108,0,0,0,1.946,3.37A3.372,3.372,0,0,1,86.844,15.2a5.108,5.108,0,0,0,0,3.892,3.373,3.373,0,0,1-1.054,3.933,5.108,5.108,0,0,0-1.946,3.37,3.373,3.373,0,0,1-2.879,2.879,5.107,5.107,0,0,0-3.37,1.946,3.372,3.372,0,0,1-3.933,1.054A5.108,5.108,0,0,0,69.77,32.278Zm13.4,5.569a.887.887,0,0,0-1.087.627l-1.007,3.759-4.7-8.142A5.128,5.128,0,0,0,79,32.31,3.343,3.343,0,0,1,81.2,31.037a5.1,5.1,0,0,0,1.077-.269l4.672,8.092Z" transform="translate(-53.808 0.001)"/>
        <path id="XMLID_1190_" d="M179.18,132.779l-2.76,2.76a.887.887,0,0,0,0,1.255l5.177,5.177a.887.887,0,0,0,1.255,0l7.209-7.209a.887.887,0,0,0,0-1.255l-2.76-2.76a.887.887,0,0,0-1.255,0l-3.821,3.821-1.789-1.789a.888.888,0,0,0-1.255,0Zm2.417,3.672a.887.887,0,0,0,1.255,0l3.821-3.821,1.506,1.506-5.954,5.954-3.923-3.923,1.506-1.506Z" transform="translate(-165.304 -118.91)"/>
        <path id="XMLID_1191_" d="M149.03,85.863a11.538,11.538,0,0,0-7.284-10.726.887.887,0,0,0-.654,1.65,9.76,9.76,0,1,1-7.191,0,.887.887,0,1,0-.654-1.65A11.535,11.535,0,1,0,149.03,85.863Z" transform="translate(-119.56 -68.413)"/>
        <path id="XMLID_1218_" d="M246.848,68.44a.888.888,0,1,0-.627-.26A.89.89,0,0,0,246.848,68.44Z" transform="translate(-228.912 -60.751)"/>
      </g>
    </g>
  </g>
</svg>
