<svg xmlns="http://www.w3.org/2000/svg" xmlns:xlink="http://www.w3.org/1999/xlink" width="102" height="102" viewBox="0 0 102 102">
  <defs>
    <filter id="Elipse_11494" x="0" y="0" width="102" height="102" filterUnits="userSpaceOnUse">
      <feOffset dy="3" input="SourceAlpha"/>
      <feGaussianBlur stdDeviation="3" result="blur"/>
      <feFlood flood-opacity="0.161"/>
      <feComposite operator="in" in2="blur"/>
      <feComposite in="SourceGraphic"/>
    </filter>
  </defs>
  <g id="Grupo_1228041" data-name="Grupo 1228041" transform="translate(-169.949 -6588.229)">
    <g id="Grupo_1224538" data-name="Grupo 1224538" transform="translate(178.949 6594.229)">
      <g transform="matrix(1, 0, 0, 1, -9, -6)" filter="url(#Elipse_11494)">
        <g id="Elipse_11494-2" data-name="Elipse 11494" transform="translate(9 6)" fill="#e1e7fb" stroke="#fff" stroke-width="4">
          <circle cx="42" cy="42" r="42" stroke="none"/>
          <circle cx="42" cy="42" r="40" fill="none"/>
        </g>
      </g>
    </g>
    <g id="Grupo_1227926" data-name="Grupo 1227926" transform="translate(198.398 6561.842)">
      <g id="Grupo_1227913" data-name="Grupo 1227913" transform="translate(0.631 63.438)">
        <path id="Trazado_1307824" data-name="Trazado 1307824" d="M7.524,125.944,7.5,149.895a3.069,3.069,0,0,0,3.065,3.061H46.274a3.069,3.069,0,0,0,3.065-3.061l-.027-23.951H7.524Z" transform="translate(-7.5 -125.944)" fill="#e8eaea" fill-rule="evenodd"/>
      </g>
      <g id="Grupo_1227914" data-name="Grupo 1227914" transform="translate(0.631 60.776)">
        <path id="Trazado_1307825" data-name="Trazado 1307825" d="M7.5,97.376v23.555a3.071,3.071,0,0,1,3.065-3.058h2.03a.452.452,0,0,0,.452-.449V94.767a.453.453,0,0,0-.452-.449h-2.03A3.072,3.072,0,0,0,7.5,97.376Z" transform="translate(-7.5 -94.318)" fill="#ade194" fill-rule="evenodd"/>
      </g>
      <g id="Grupo_1227915" data-name="Grupo 1227915" transform="translate(36.923 60.776)">
        <path id="Trazado_1307826" data-name="Trazado 1307826" d="M438.61,96.981v20.444a.451.451,0,0,0,.452.449h2.03a3.072,3.072,0,0,1,3.065,3.058V97.377a3.072,3.072,0,0,0-3.065-3.058h-2.03a.451.451,0,0,0-.452.449Z" transform="translate(-438.61 -94.319)" fill="#ade194" fill-rule="evenodd"/>
      </g>
      <g id="Grupo_1227916" data-name="Grupo 1227916" transform="translate(36.923 60.776)">
        <path id="Trazado_1307827" data-name="Trazado 1307827" d="M438.61,117.426a.451.451,0,0,0,.452.449h2.03a3.072,3.072,0,0,1,3.065,3.058V97.377a3.072,3.072,0,0,0-3.065-3.058h-.128a3.052,3.052,0,0,1,1.045,2.3v18.958c0,.313.056.446-.216.382a3.062,3.062,0,0,0-.7-.082H438.61Z" transform="translate(-438.61 -94.319)" fill="#80d261" fill-rule="evenodd"/>
      </g>
      <g id="Grupo_1227917" data-name="Grupo 1227917" transform="translate(9.253 65.992)">
        <path id="Trazado_1307828" data-name="Trazado 1307828" d="M115.509,157.487a6.079,6.079,0,0,0-1.591.658l-.458-.459a.569.569,0,0,0-.8,0l-1.33,1.33a.563.563,0,0,0,0,.794l.46.459a5.925,5.925,0,0,0-.66,1.587h-.649a.563.563,0,0,0-.564.56V164.3a.565.565,0,0,0,.564.563h.649a5.943,5.943,0,0,0,.66,1.585l-.46.459a.566.566,0,0,0,0,.8l1.33,1.327a.569.569,0,0,0,.8,0l.458-.459a6.079,6.079,0,0,0,1.591.658v.648a.565.565,0,0,0,.564.563h1.881a.564.564,0,0,0,.564-.563v-.648a5.953,5.953,0,0,0,1.591-.658l.46.459a.566.566,0,0,0,.8,0l1.33-1.327a.561.561,0,0,0,0-.8l-.458-.459a6.123,6.123,0,0,0,.66-1.585h.649a.565.565,0,0,0,.561-.563v-1.879a.562.562,0,0,0-.561-.56H122.9a6.1,6.1,0,0,0-.66-1.587l.46-.459a.561.561,0,0,0,0-.794l-1.33-1.33a.566.566,0,0,0-.8,0l-.46.459a6.042,6.042,0,0,0-1.591-.658v-.648a.565.565,0,0,0-.564-.563h-1.881a.567.567,0,0,0-.564.563Z" transform="translate(-109.92 -156.277)" fill="#737a93" fill-rule="evenodd"/>
      </g>
      <g id="Grupo_1227918" data-name="Grupo 1227918" transform="translate(12.754 69.488)">
        <path id="Trazado_1307829" data-name="Trazado 1307829" d="M151.509,201.388A3.593,3.593,0,1,0,155.1,197.8,3.591,3.591,0,0,0,151.509,201.388Z" transform="translate(-151.509 -197.805)" fill="#e8eaea" fill-rule="evenodd"/>
      </g>
      <g id="Grupo_1227919" data-name="Grupo 1227919" transform="translate(16.875 69.591)">
        <path id="Trazado_1307830" data-name="Trazado 1307830" d="M201.128,201.97a12.3,12.3,0,0,1-.668,4.09,3.584,3.584,0,0,0,.338-7.026A12.918,12.918,0,0,1,201.128,201.97Z" transform="translate(-200.46 -199.034)" fill="#cecece" fill-rule="evenodd"/>
      </g>
      <g id="Grupo_1227920" data-name="Grupo 1227920" transform="translate(14.864 65.992)">
        <path id="Trazado_1307831" data-name="Trazado 1307831" d="M178.918,159.876a3.584,3.584,0,0,1-.338,7.026,7.084,7.084,0,0,1-2.011,3.122.566.566,0,0,0,.543.411h1.881a.564.564,0,0,0,.564-.563v-.648c.753-.191,1.072-.523,1.4-.547.189-.016.378.072.654.348a.566.566,0,0,0,.8,0l1.33-1.327a.561.561,0,0,0,0-.8l-.458-.459a6.124,6.124,0,0,0,.66-1.585h.649a.565.565,0,0,0,.561-.563v-1.879a.562.562,0,0,0-.561-.56h-.649a6.105,6.105,0,0,0-.66-1.587l.46-.459a.561.561,0,0,0,0-.794l-1.33-1.33a.566.566,0,0,0-.8,0l-.46.459a6.042,6.042,0,0,0-1.591-.658v-.648a.564.564,0,0,0-.559-.563h-1.753A8.775,8.775,0,0,1,178.918,159.876Z" transform="translate(-176.569 -156.277)" fill="#606b82" fill-rule="evenodd"/>
      </g>
      <g id="Grupo_1227921" data-name="Grupo 1227921" transform="translate(21.521 63.466)">
        <path id="Trazado_1307832" data-name="Trazado 1307832" d="M255.651,153.289h17.856a3.071,3.071,0,0,0,3.065-3.061v-.005a3.07,3.07,0,0,0-3.065-3.053h-2.03a.451.451,0,0,1-.452-.449V126.278H266.1C262.2,133.84,265.135,142.714,255.651,153.289Z" transform="translate(-255.651 -126.278)" fill="#d4d6d8" fill-rule="evenodd"/>
      </g>
      <g id="Grupo_1227922" data-name="Grupo 1227922" transform="translate(0.631 60.776)">
        <path id="Trazado_1307833" data-name="Trazado 1307833" d="M13.047,117.425a.453.453,0,0,1-.452.449h-2.03A3.071,3.071,0,0,0,7.5,120.931v-3.395c0-.52.907-1.3,2.174-1.571,1.139-.239.891.151.891-1.277V94.318h2.03a.452.452,0,0,1,.452.449v22.658Z" transform="translate(-7.5 -94.318)" fill="#80d261" fill-rule="evenodd"/>
      </g>
      <g id="Grupo_1227923" data-name="Grupo 1227923" transform="translate(24.824 58.325)">
        <path id="Trazado_1307834" data-name="Trazado 1307834" d="M297.646,86.054a4.2,4.2,0,0,0-.913,7.427c1.171.8.944-.462.944-.674V90.28a1.569,1.569,0,1,1,3.131,0v2.527c0,.212-.226,1.47.944.674a4.2,4.2,0,0,0-.913-7.427V72.894a4.2,4.2,0,0,0,.913-7.427c-1.171-.8-.944.465-.944.674v2.53a1.569,1.569,0,1,1-3.131,0v-2.53c0-.21.226-1.471-.944-.674a4.2,4.2,0,0,0,.913,7.427Z" transform="translate(-294.885 -65.206)" fill="#c1eaf4" fill-rule="evenodd"/>
      </g>
      <g id="Grupo_1227924" data-name="Grupo 1227924" transform="translate(29.394 58.325)">
        <path id="Trazado_1307835" data-name="Trazado 1307835" d="M351.371,67.8c0,1.648-.482,3.084-1.793,3.775-.543.284-.391.377-.391,1.075v13.4c0,.427-.08.531.271.7,1.4.664,1.913,2.134,1.913,3.833a4.179,4.179,0,0,1-.865,2.548c-.008.406.09.948.96.356a4.2,4.2,0,0,0-.913-7.427V72.894a4.2,4.2,0,0,0,.913-7.427c-.527-.358-.771-.3-.881-.109A4.17,4.17,0,0,1,351.371,67.8Z" transform="translate(-349.167 -65.206)" fill="#99cfe0" fill-rule="evenodd"/>
      </g>
      <g id="Grupo_1227925" data-name="Grupo 1227925" transform="translate(0 57.693)">
        <path id="Trazado_1307836" data-name="Trazado 1307836" d="M120.75,356.7H119.2a.631.631,0,0,0,0,1.263h1.548a.631.631,0,0,0,0-1.263Z" transform="translate(-108.588 -331.525)"/>
        <path id="Trazado_1307837" data-name="Trazado 1307837" d="M179.971,356.7a.631.631,0,0,0,0,1.263h6.353a.631.631,0,0,0,0-1.263Z" transform="translate(-164.243 -331.525)"/>
        <path id="Trazado_1307838" data-name="Trazado 1307838" d="M179.971,393.211h6.353a.631.631,0,0,0,0-1.263h-6.353a.631.631,0,1,0,0,1.263Z" transform="translate(-164.243 -363.81)"/>
        <path id="Trazado_1307839" data-name="Trazado 1307839" d="M120.75,391.948H119.2a.631.631,0,0,0,0,1.263h1.548a.631.631,0,0,0,0-1.263Z" transform="translate(-108.588 -363.81)"/>
        <path id="Trazado_1307840" data-name="Trazado 1307840" d="M111.085,164.2a1.2,1.2,0,0,0,1.2-1.194v-.175a6.568,6.568,0,0,0,.847-.351l.126.126a1.2,1.2,0,0,0,1.687,0l1.33-1.327a1.193,1.193,0,0,0,0-1.689l-.125-.126a6.761,6.761,0,0,0,.35-.841h.179a1.2,1.2,0,0,0,1.193-1.194v-1.879a1.193,1.193,0,0,0-1.193-1.191H116.5a6.721,6.721,0,0,0-.35-.842l.126-.126a1.192,1.192,0,0,0,0-1.687l-1.331-1.33a1.2,1.2,0,0,0-1.687,0l-.127.127a6.649,6.649,0,0,0-.847-.351v-.176a1.2,1.2,0,0,0-1.2-1.194H109.2a1.2,1.2,0,0,0-1.2,1.194v.176a6.722,6.722,0,0,0-.845.351l-.129-.129a1.206,1.206,0,0,0-1.688,0l-1.33,1.329a1.194,1.194,0,0,0,0,1.688l.125.125a6.56,6.56,0,0,0-.35.844h-.177a1.2,1.2,0,0,0-1.2,1.191v1.879a1.2,1.2,0,0,0,1.2,1.194h.178a6.569,6.569,0,0,0,.35.841l-.128.127a1.2,1.2,0,0,0,0,1.687l1.333,1.33a1.206,1.206,0,0,0,1.689,0l.125-.125a6.712,6.712,0,0,0,.845.351v.176a1.2,1.2,0,0,0,1.2,1.194Zm-2.29-2.454a5.458,5.458,0,0,1-1.426-.59.632.632,0,0,0-.767.1l-.409.411-1.234-1.231.411-.41a.631.631,0,0,0,.1-.771,5.308,5.308,0,0,1-.59-1.416.631.631,0,0,0-.612-.475h-.582V155.62h.582a.631.631,0,0,0,.612-.476,5.291,5.291,0,0,1,.589-1.418.631.631,0,0,0-.1-.772l-.41-.409,1.233-1.233.409.411a.631.631,0,0,0,.767.1,5.456,5.456,0,0,1,1.426-.59.631.631,0,0,0,.477-.612v-.579h1.746v.579a.631.631,0,0,0,.477.612,5.405,5.405,0,0,1,1.424.59.631.631,0,0,0,.767-.1l.412-.411,1.233,1.233-.409.408a.631.631,0,0,0-.1.769,5.47,5.47,0,0,1,.591,1.423.631.631,0,0,0,.611.473h.579v1.739h-.579a.631.631,0,0,0-.611.472,5.489,5.489,0,0,1-.592,1.421.631.631,0,0,0,.1.768l.41.412-1.233,1.23-.412-.411a.632.632,0,0,0-.769-.1,5.323,5.323,0,0,1-1.422.588.631.631,0,0,0-.477.612v.579h-1.746v-.579A.632.632,0,0,0,108.795,161.745Z" transform="translate(-93.797 -141.11)"/>
        <path id="Trazado_1307841" data-name="Trazado 1307841" d="M152.457,194.52a4.224,4.224,0,1,0-4.223,4.217A4.224,4.224,0,0,0,152.457,194.52Zm-7.185,0a2.961,2.961,0,1,1,2.963,2.955A2.961,2.961,0,0,1,145.272,194.52Z" transform="translate(-131.886 -179.141)"/>
        <path id="Trazado_1307842" data-name="Trazado 1307842" d="M39.405,60.145h-2.03a1.083,1.083,0,0,0-1.084,1.08v1.582H34.114a4.768,4.768,0,0,0,.059-.744,4.84,4.84,0,0,0-2.125-4,1.453,1.453,0,0,0-1.441-.247c-.512.267-.47.823-.493,1.392,0,.024,0,2.581,0,2.581a.939.939,0,1,1-1.868,0s0-2.557,0-2.581c-.01-.619.079-1.061-.493-1.392a1.4,1.4,0,0,0-1.442.248,4.84,4.84,0,0,0-2.125,4,4.779,4.779,0,0,0,.059.744H6.81V61.224a1.083,1.083,0,0,0-1.084-1.08H3.7A3.7,3.7,0,0,0,0,63.834V87.389a3.7,3.7,0,0,0,3.7,3.692h8.933a.631.631,0,0,0,0-1.263H3.7a2.428,2.428,0,1,1,0-4.856h2.03a1.083,1.083,0,0,0,1.084-1.08V64.07H24.634a4.88,4.88,0,0,0,2.32,2.361V78.756a4.83,4.83,0,0,0-.636,8.366,1.842,1.842,0,0,0,.974.372.921.921,0,0,0,.468-.124c.572-.33.477-1,.493-1.391,0-.024,0-2.58,0-2.58a.939.939,0,1,1,1.868,0s0,2.557,0,2.581c.007.613-.084,1.059.488,1.39a1.406,1.406,0,0,0,1.442-.248,4.83,4.83,0,0,0-.637-8.366v-4.05a.631.631,0,1,0-1.263,0v4.467a.631.631,0,0,0,.411.592,3.569,3.569,0,0,1,.813,6.288c0-.054.006-2.654.006-2.654a2.315,2.315,0,0,0-2.156-2.3.656.656,0,0,0-.084,0,2.314,2.314,0,0,0-2.153,2.3s0,2.6.006,2.654a3.569,3.569,0,0,1,.813-6.288.631.631,0,0,0,.412-.592V66.013a.631.631,0,0,0-.413-.592,3.569,3.569,0,0,1-.812-6.288c0,.054-.006,2.657-.006,2.657a2.314,2.314,0,0,0,2.153,2.3.643.643,0,0,0,.084,0,2.315,2.315,0,0,0,2.156-2.3l-.006-2.657a3.569,3.569,0,0,1-.812,6.288.631.631,0,0,0-.412.592v5.449a.631.631,0,1,0,1.263,0V66.431a4.884,4.884,0,0,0,2.32-2.361h2.56V83.882a1.083,1.083,0,0,0,1.084,1.08h2.03a2.428,2.428,0,1,1,0,4.856H15.88a.631.631,0,1,0,0,1.263H39.405a3.7,3.7,0,0,0,3.7-3.692V63.834a3.7,3.7,0,0,0-3.7-3.689ZM5.547,83.7H3.7a3.684,3.684,0,0,0-2.433.914V63.834A2.433,2.433,0,0,1,3.7,61.407H5.547Zm36.292.914a3.684,3.684,0,0,0-2.433-.914H37.555V61.407h1.851a2.433,2.433,0,0,1,2.433,2.426v20.78Z" transform="translate(0 -57.693)"/>
      </g>
    </g>
  </g>
</svg>
