<svg xmlns="http://www.w3.org/2000/svg" xmlns:xlink="http://www.w3.org/1999/xlink" width="102" height="102" viewBox="0 0 102 102">
  <defs>
    <filter id="Elipse_11494" x="0" y="0" width="102" height="102" filterUnits="userSpaceOnUse">
      <feOffset dy="3" input="SourceAlpha"/>
      <feGaussianBlur stdDeviation="3" result="blur"/>
      <feFlood flood-opacity="0.161"/>
      <feComposite operator="in" in2="blur"/>
      <feComposite in="SourceGraphic"/>
    </filter>
    <clipPath id="clip-path">
      <path id="path3522" d="M0-682.665H44.665V-638H0Z" transform="translate(0 682.665)"/>
    </clipPath>
  </defs>
  <g id="Grupo_1228044" data-name="Grupo 1228044" transform="translate(-169.949 -6964.229)">
    <g id="Grupo_1227312" data-name="Grupo 1227312" transform="translate(178.949 6970.229)">
      <g transform="matrix(1, 0, 0, 1, -9, -6)" filter="url(#Elipse_11494)">
        <g id="Elipse_11494-2" data-name="Elipse 11494" transform="translate(9 6)" fill="#e1e7fb" stroke="#fff" stroke-width="4">
          <circle cx="42" cy="42" r="42" stroke="none"/>
          <circle cx="42" cy="42" r="40" fill="none"/>
        </g>
      </g>
    </g>
    <g id="g3516" transform="translate(198.617 7672.562)">
      <g id="g3518" transform="translate(0 -682.665)">
        <g id="g3520" transform="translate(0 0)" clip-path="url(#clip-path)">
          <g id="g3526" transform="translate(35.02 2.674)">
            <path id="path3528" d="M-61.5-127.927h-3.869a.436.436,0,0,1-.436-.436v-8.083a.436.436,0,0,1,.436-.436H-61.5a.436.436,0,0,1,.436.436v8.083a.436.436,0,0,1-.436.436" transform="translate(65.801 136.882)" fill="#00f3a7"/>
          </g>
          <g id="g3530" transform="translate(35.02 2.674)">
            <path id="path3532" d="M-48.053-103.863a.436.436,0,0,1-.436-.436v-6.835h-2.492a.436.436,0,0,0-.436.436v8.083a.436.436,0,0,0,.436.436h3.869a.436.436,0,0,0,.436-.436v-1.248Z" transform="translate(51.417 111.134)" fill="#05e39c"/>
          </g>
          <g id="g3534" transform="translate(35.02 2.674)">
            <path id="path3536" d="M-67.725-40.312V-42.7a.436.436,0,0,0-.436-.436H-72.03a.436.436,0,0,0-.436.436v8.083a.436.436,0,0,0,.436.436h3.869a.436.436,0,0,0,.436-.436v-2.644" transform="translate(72.466 43.135)" fill="none" stroke="#000" stroke-linecap="round" stroke-linejoin="round" stroke-miterlimit="10" stroke-width="1"/>
          </g>
          <g id="g3538" transform="translate(35.02 14.79)">
            <path id="path3540" d="M-61.5-127.925h-3.869a.436.436,0,0,1-.436-.436v-8.083a.436.436,0,0,1,.436-.436H-61.5a.436.436,0,0,1,.436.436v8.083a.436.436,0,0,1-.436.436" transform="translate(65.801 136.881)" fill="#fed402"/>
          </g>
          <g id="g3542" transform="translate(35.02 14.79)">
            <path id="path3544" d="M-48.053-103.863a.436.436,0,0,1-.436-.436v-6.835h-2.492a.436.436,0,0,0-.436.436v8.083a.436.436,0,0,0,.436.436h3.869a.436.436,0,0,0,.436-.436v-1.248Z" transform="translate(51.417 111.134)" fill="#fac600"/>
          </g>
          <g id="g3546" transform="translate(35.02 14.79)">
            <path id="path3548" d="M-61.5-127.925h-3.869a.436.436,0,0,1-.436-.436v-8.083a.436.436,0,0,1,.436-.436H-61.5a.436.436,0,0,1,.436.436v8.083A.436.436,0,0,1-61.5-127.925Z" transform="translate(65.801 136.881)" fill="none" stroke="#000" stroke-linejoin="round" stroke-miterlimit="10" stroke-width="1"/>
          </g>
          <g id="g3550" transform="translate(35.02 26.907)">
            <path id="path3552" d="M-61.5-127.927h-3.869a.436.436,0,0,1-.436-.436v-8.083a.436.436,0,0,1,.436-.436H-61.5a.436.436,0,0,1,.436.436v8.083a.436.436,0,0,1-.436.436" transform="translate(65.801 136.882)" fill="#fd8087"/>
          </g>
          <g id="g3554" transform="translate(35.02 26.907)">
            <path id="path3556" d="M-48.053-103.863a.436.436,0,0,1-.436-.436v-6.835h-2.492a.436.436,0,0,0-.436.436v8.083a.436.436,0,0,0,.436.436h3.869a.436.436,0,0,0,.436-.436v-1.248Z" transform="translate(51.417 111.134)" fill="#fe646f"/>
          </g>
          <g id="g3558" transform="translate(35.02 26.907)">
            <path id="path3560" d="M-61.5-127.927h-3.869a.436.436,0,0,1-.436-.436v-8.083a.436.436,0,0,1,.436-.436H-61.5a.436.436,0,0,1,.436.436v8.083A.436.436,0,0,1-61.5-127.927Z" transform="translate(65.801 136.882)" fill="none" stroke="#000" stroke-linejoin="round" stroke-miterlimit="10" stroke-width="1"/>
          </g>
          <g id="g3562" transform="translate(8.416 0.654)">
            <path id="path3564" d="M-401.335-525.5h-28.1v-36.789h27.657a.439.439,0,0,1,.439.439Z" transform="translate(429.431 562.288)" fill="#c4e2ff"/>
          </g>
          <path id="path3566" d="M128.63-635.876h5.186v-36.789H128.63Z" transform="translate(-120.214 673.319)" fill="#b3dafe"/>
          <g id="g3568" transform="translate(8.416 0.654)">
            <path id="path3570" d="M-401.335-556.381l-28.1-.7v-38.253h27.657a.439.439,0,0,1,.439.439Z" transform="translate(429.431 595.332)" fill="none" stroke="#000" stroke-linejoin="round" stroke-miterlimit="10" stroke-width="1"/>
          </g>
          <g id="g3572" transform="translate(15.141 7.547)">
            <path id="path3574" d="M-245.589-133.736v-1.532a.643.643,0,0,0-.643-.643h-1.13a.643.643,0,0,1-.615-.458,6.438,6.438,0,0,0-.5-1.2.643.643,0,0,1,.111-.76l.8-.8a.643.643,0,0,0,0-.91l-1.083-1.083a.643.643,0,0,0-.91,0l-.8.8a.643.643,0,0,1-.76.11,6.44,6.44,0,0,0-1.2-.5.643.643,0,0,1-.458-.615v-1.13a.643.643,0,0,0-.643-.643h-1.532a.643.643,0,0,0-.643.643v1.13a.643.643,0,0,1-.458.615,6.434,6.434,0,0,0-1.2.5.643.643,0,0,1-.761-.11l-.8-.8a.643.643,0,0,0-.91,0l-1.083,1.083a.644.644,0,0,0,0,.91l.8.8a.643.643,0,0,1,.11.76,6.435,6.435,0,0,0-.5,1.2.643.643,0,0,1-.615.458h-1.13a.643.643,0,0,0-.643.643v1.532a.643.643,0,0,0,.643.643h.456a1.6,1.6,0,0,1,1.481,1q.026.065.054.13a1.6,1.6,0,0,1-.335,1.762l-.322.322a.643.643,0,0,0,0,.91l1.083,1.083a.643.643,0,0,0,.91,0l.281-.281a1.7,1.7,0,0,1,1.858-.354l.021.009a1.693,1.693,0,0,1,1.058,1.562v.4a.643.643,0,0,0,.643.643h1.532a.643.643,0,0,0,.643-.643v-1.13a.643.643,0,0,1,.458-.615,6.438,6.438,0,0,0,1.2-.5.643.643,0,0,1,.76.11l.8.8a.643.643,0,0,0,.91,0l1.083-1.083a.643.643,0,0,0,0-.91l-.8-.8a.643.643,0,0,1-.111-.761,6.435,6.435,0,0,0,.5-1.2.643.643,0,0,1,.615-.458h1.13a.643.643,0,0,0,.643-.643" transform="translate(262.782 143.098)" fill="#cbc4cb"/>
          </g>
          <g id="g3576" transform="translate(15.141 7.547)">
            <path id="path3578" d="M-70.184-122.794a7.422,7.422,0,0,1,5.092-7.045v-.908a.643.643,0,0,0-.643-.643h-1.532a.643.643,0,0,0-.643.643v1.13a.643.643,0,0,1-.458.615,6.438,6.438,0,0,0-1.2.5.643.643,0,0,1-.761-.11l-.8-.8a.643.643,0,0,0-.91,0l-1.083,1.083a.643.643,0,0,0,0,.91l.8.8a.643.643,0,0,1,.11.76,6.439,6.439,0,0,0-.5,1.2.643.643,0,0,1-.615.458h-1.13a.643.643,0,0,0-.643.643v1.532a.643.643,0,0,0,.643.643H-74a1.6,1.6,0,0,1,1.481,1q.026.065.054.129a1.6,1.6,0,0,1-.335,1.762l-.322.322a.643.643,0,0,0,0,.91l1.083,1.083a.643.643,0,0,0,.91,0l.281-.281a1.7,1.7,0,0,1,1.858-.354l.021.009a1.693,1.693,0,0,1,1.058,1.562v.4a.643.643,0,0,0,.643.643h1.532a.643.643,0,0,0,.643-.643v-.908a7.422,7.422,0,0,1-5.092-7.045" transform="translate(75.097 131.39)" fill="#b5adb6"/>
          </g>
          <g id="g3580" transform="translate(15.141 7.547)">
            <path id="path3582" d="M-245.589-133.736v-1.532a.643.643,0,0,0-.643-.643h-1.13a.643.643,0,0,1-.615-.458,6.438,6.438,0,0,0-.5-1.2.643.643,0,0,1,.111-.76l.8-.8a.643.643,0,0,0,0-.91l-1.083-1.083a.643.643,0,0,0-.91,0l-.8.8a.643.643,0,0,1-.76.11,6.44,6.44,0,0,0-1.2-.5.643.643,0,0,1-.458-.615v-1.13a.643.643,0,0,0-.643-.643h-1.532a.643.643,0,0,0-.643.643v1.13a.643.643,0,0,1-.458.615,6.434,6.434,0,0,0-1.2.5.643.643,0,0,1-.761-.11l-.8-.8a.643.643,0,0,0-.91,0l-1.083,1.083a.644.644,0,0,0,0,.91l.8.8a.643.643,0,0,1,.11.76,6.435,6.435,0,0,0-.5,1.2.643.643,0,0,1-.615.458h-1.13a.643.643,0,0,0-.643.643v1.532a.643.643,0,0,0,.643.643h.456a1.6,1.6,0,0,1,1.481,1q.026.065.054.13a1.6,1.6,0,0,1-.335,1.762l-.322.322a.643.643,0,0,0,0,.91l1.083,1.083a.643.643,0,0,0,.91,0l.281-.281a1.7,1.7,0,0,1,1.858-.354l.021.009a1.693,1.693,0,0,1,1.058,1.562v.4a.643.643,0,0,0,.643.643h1.532a.643.643,0,0,0,.643-.643v-1.13a.643.643,0,0,1,.458-.615,6.438,6.438,0,0,0,1.2-.5.643.643,0,0,1,.76.11l.8.8a.643.643,0,0,0,.91,0l1.083-1.083a.643.643,0,0,0,0-.91l-.8-.8a.643.643,0,0,1-.111-.761,6.435,6.435,0,0,0,.5-1.2.643.643,0,0,1,.615-.458h1.13A.643.643,0,0,0-245.589-133.736Z" transform="translate(262.782 143.098)" fill="none" stroke="#000" stroke-linejoin="round" stroke-miterlimit="10" stroke-width="1"/>
          </g>
          <g id="g3584" transform="translate(19.709 12.116)">
            <path id="path3586" d="M-115.077-57.538A4.028,4.028,0,0,1-119.1-53.51a4.028,4.028,0,0,1-4.028-4.028,4.028,4.028,0,0,1,4.028-4.028,4.028,4.028,0,0,1,4.028,4.028" transform="translate(123.133 61.567)" fill="#fff"/>
          </g>
          <g id="g3588" transform="translate(19.709 12.116)">
            <path id="path3590" d="M-31.241-57.538a4.029,4.029,0,0,1,2.935-3.877,4.029,4.029,0,0,0-1.094-.152,4.028,4.028,0,0,0-4.028,4.028A4.028,4.028,0,0,0-29.4-53.51a4.029,4.029,0,0,0,1.094-.152,4.029,4.029,0,0,1-2.935-3.877" transform="translate(33.428 61.567)" fill="#f2fbff"/>
          </g>
          <g id="g3592" transform="translate(19.709 12.116)">
            <path id="path3594" d="M-110.953-78.924a4.015,4.015,0,0,0,.289-1.5,4.028,4.028,0,0,0-4.028-4.028,4.028,4.028,0,0,0-4.028,4.028,4.028,4.028,0,0,0,4.028,4.028,4.013,4.013,0,0,0,1.615-.338" transform="translate(118.721 84.449)" fill="none" stroke="#000" stroke-linecap="round" stroke-linejoin="round" stroke-miterlimit="10" stroke-width="1"/>
          </g>
          <g id="g3596" transform="translate(22.056 14.463)">
            <path id="path3598" d="M-48.027-24.013a1.681,1.681,0,0,1-1.681,1.681,1.681,1.681,0,0,1-1.681-1.681,1.681,1.681,0,0,1,1.681-1.681,1.681,1.681,0,0,1,1.681,1.681" transform="translate(51.389 25.695)" fill="#cbc4cb"/>
          </g>
          <g id="g3600" transform="translate(22.056 14.463)">
            <path id="path3602" d="M-20.716-24.013a1.68,1.68,0,0,1,.956-1.515,1.672,1.672,0,0,0-.725-.166,1.681,1.681,0,0,0-1.681,1.681,1.681,1.681,0,0,0,1.681,1.681,1.672,1.672,0,0,0,.725-.166,1.68,1.68,0,0,1-.956-1.515" transform="translate(22.167 25.695)" fill="#b5adb6"/>
          </g>
          <g id="g3604" transform="translate(22.056 14.463)">
            <path id="path3606" d="M-48.027-24.013a1.681,1.681,0,0,1-1.681,1.681,1.681,1.681,0,0,1-1.681-1.681,1.681,1.681,0,0,1,1.681-1.681A1.681,1.681,0,0,1-48.027-24.013Z" transform="translate(51.389 25.695)" fill="none" stroke="#000" stroke-linejoin="round" stroke-miterlimit="10" stroke-width="1"/>
          </g>
          <g id="g3608" transform="translate(16.884 27.691)">
            <path id="path3610" d="M-214.454-41.378h-14.577a.436.436,0,0,1-.436-.436v-2.024a.436.436,0,0,1,.436-.436h14.577a.436.436,0,0,1,.436.436v2.024a.436.436,0,0,1-.436.436" transform="translate(229.467 44.275)" fill="#27a5fe"/>
          </g>
          <g id="g3612" transform="translate(16.884 27.691)">
            <path id="path3614" d="M-88.914-35.149v-2.024a.436.436,0,0,1,.436-.436H-94.7a.436.436,0,0,0-.436.436v2.024a.436.436,0,0,0,.436.436h6.225a.436.436,0,0,1-.436-.436" transform="translate(95.138 37.609)" fill="#0593fc"/>
          </g>
          <g id="g3616" transform="translate(16.884 27.691)">
            <path id="path3618" d="M-214.454-41.378h-14.577a.436.436,0,0,1-.436-.436v-2.024a.436.436,0,0,1,.436-.436h14.577a.436.436,0,0,1,.436.436v2.024A.436.436,0,0,1-214.454-41.378Z" transform="translate(229.467 44.275)" fill="none" stroke="#000" stroke-linejoin="round" stroke-miterlimit="10" stroke-width="1"/>
          </g>
          <g id="g3620" transform="translate(4.904 0.654)">
            <path id="path3622" d="M-86.538-525.5-92.6-523.48v-36.789a2.019,2.019,0,0,1,2.019-2.019h4.039Z" transform="translate(92.596 562.288)" fill="#27a5fe"/>
          </g>
          <g id="g3624" transform="translate(4.904 0.654)">
            <path id="path3626" d="M-31.576-28.846a2.019,2.019,0,0,1,2.019-2.019h-2.21a2.019,2.019,0,0,0-2.02,2.019V7.943l2.211-.737Z" transform="translate(33.787 30.865)" fill="#0593fc"/>
          </g>
          <g id="g3628" transform="translate(4.904 0.654)">
            <path id="path3630" d="M-86.538-525.5-92.6-523.48v-36.789a2.019,2.019,0,0,1,2.019-2.019h4.039Z" transform="translate(92.596 562.288)" fill="none" stroke="#000" stroke-linejoin="round" stroke-miterlimit="10" stroke-width="1"/>
          </g>
          <g id="g3632" transform="translate(24.527 5.438)">
            <path id="path3634" d="M-135.209-67.6a4.733,4.733,0,0,1-4.733,4.733,4.733,4.733,0,0,1-4.733-4.733,4.733,4.733,0,0,1,4.733-4.733,4.733,4.733,0,0,1,4.733,4.733" transform="translate(144.674 72.336)" fill="#27a5fe"/>
          </g>
          <g id="g3636" transform="translate(24.527 5.438)">
            <path id="path3638" d="M-42.173-67.6a4.734,4.734,0,0,1,3.257-4.5,4.725,4.725,0,0,0-1.476-.236A4.733,4.733,0,0,0-45.125-67.6a4.733,4.733,0,0,0,4.733,4.733,4.728,4.728,0,0,0,1.476-.236,4.734,4.734,0,0,1-3.257-4.5" transform="translate(45.125 72.336)" fill="#0593fc"/>
          </g>
          <g id="g3640" transform="translate(24.527 5.438)">
            <path id="path3642" d="M-135.209-67.6a4.733,4.733,0,0,1-4.733,4.733,4.733,4.733,0,0,1-4.733-4.733,4.733,4.733,0,0,1,4.733-4.733A4.733,4.733,0,0,1-135.209-67.6Z" transform="translate(144.674 72.336)" fill="none" stroke="#000" stroke-linejoin="round" stroke-miterlimit="10" stroke-width="1"/>
          </g>
          <g id="g3644" transform="translate(29.26 9.451)">
            <path id="path3646" d="M0-48.709v-3.41" transform="translate(0 52.119)" fill="none" stroke="#000" stroke-linejoin="round" stroke-miterlimit="10" stroke-width="1"/>
          </g>
          <g id="g3648" transform="translate(29.26 7.485)">
            <path id="path3650" d="M0,0V1.309" transform="translate(0)" fill="none" stroke="#000" stroke-linejoin="round" stroke-miterlimit="10" stroke-width="1"/>
          </g>
          <g id="g3652" transform="translate(4.904 37.443)">
            <path id="path3654" d="M-28.846-57.692H.307a.436.436,0,0,0,.436-.436v-3.6H-28.846a2.019,2.019,0,0,0-2.019,2.019,2.019,2.019,0,0,0,2.019,2.019" transform="translate(30.865 61.731)" fill="#eaf6ff"/>
          </g>
          <g id="g3656" transform="translate(4.904 37.443)">
            <path id="path3658" d="M-63.285-28.846h0a2.019,2.019,0,0,1,2.019-2.019H-65.7a2.019,2.019,0,0,0-2.019,2.019A2.019,2.019,0,0,0-65.7-26.826h4.43a2.019,2.019,0,0,1-2.019-2.019" transform="translate(67.716 30.865)" fill="#d8ecfe"/>
          </g>
          <g id="g3660" transform="translate(4.904 37.443)">
            <path id="path3662" d="M-287.582,0H-305.7a2.019,2.019,0,0,0-2.019,2.019A2.019,2.019,0,0,0-305.7,4.039h29.153a.436.436,0,0,0,.436-.436V0h-8.422" transform="translate(307.715)" fill="none" stroke="#000" stroke-linecap="round" stroke-linejoin="round" stroke-miterlimit="10" stroke-width="1"/>
          </g>
          <g id="g3664" transform="translate(7.301 39.435)">
            <path id="path3666" d="M-51.423-61.581v-4.311h-3.6v4.311a.263.263,0,0,0,.424.209l1.376-1.059,1.376,1.059a.263.263,0,0,0,.424-.209" transform="translate(55.023 65.892)" fill="#fd8087"/>
          </g>
          <g id="g3668" transform="translate(7.301 39.435)">
            <path id="path3670" d="M-20.315,0h-1.422V4.311a.263.263,0,0,0,.424.209l1-.768Z" transform="translate(21.737)" fill="#fe646f"/>
          </g>
          <g id="g3672" transform="translate(7.301 39.435)">
            <path id="path3674" d="M-51.423-61.581v-4.311h-3.6v4.311a.263.263,0,0,0,.424.209l1.376-1.059,1.376,1.059A.263.263,0,0,0-51.423-61.581Z" transform="translate(55.023 65.892)" fill="none" stroke="#000" stroke-linecap="round" stroke-linejoin="round" stroke-miterlimit="10" stroke-width="1"/>
          </g>
          <g id="g3676" transform="translate(7.301 39.435)">
            <path id="path3678" d="M0,0H11.542" transform="translate(0 0)" fill="#fff" stroke="#000" stroke-linecap="round" stroke-linejoin="round" stroke-miterlimit="10" stroke-width="1"/>
          </g>
          <g id="g3680" transform="translate(15.141 26.286)">
            <path id="path3682" d="M-81.5-40.751A2.853,2.853,0,0,1-84.355-37.9a2.853,2.853,0,0,1-2.853-2.853A2.853,2.853,0,0,1-84.355-43.6,2.853,2.853,0,0,1-81.5-40.751" transform="translate(87.208 43.604)" fill="#00f3a7"/>
          </g>
          <g id="g3684" transform="translate(15.141 26.286)">
            <path id="path3686" d="M-31.193-40.751a2.853,2.853,0,0,1,1.761-2.636,2.844,2.844,0,0,0-1.092-.217,2.853,2.853,0,0,0-2.853,2.853A2.853,2.853,0,0,0-30.524-37.9a2.844,2.844,0,0,0,1.092-.217,2.853,2.853,0,0,1-1.761-2.636" transform="translate(33.377 43.604)" fill="#05e39c"/>
          </g>
          <g id="g3688" transform="translate(15.141 26.286)">
            <path id="path3690" d="M-81.5-40.751A2.853,2.853,0,0,1-84.355-37.9a2.853,2.853,0,0,1-2.853-2.853A2.853,2.853,0,0,1-84.355-43.6,2.853,2.853,0,0,1-81.5-40.751Z" transform="translate(87.208 43.604)" fill="none" stroke="#000" stroke-linejoin="round" stroke-miterlimit="10" stroke-width="1"/>
          </g>
          <g id="g3692" transform="translate(32.626 39.435)">
            <path id="path3694" d="M0,0H3.886" transform="translate(0 0)" fill="#fff" stroke="#000" stroke-linecap="round" stroke-linejoin="round" stroke-miterlimit="10" stroke-width="1"/>
          </g>
        </g>
      </g>
    </g>
  </g>
</svg>
