<svg xmlns="http://www.w3.org/2000/svg" xmlns:xlink="http://www.w3.org/1999/xlink" width="102" height="102" viewBox="0 0 102 102">
  <defs>
    <filter id="Elipse_11494" x="0" y="0" width="102" height="102" filterUnits="userSpaceOnUse">
      <feOffset dy="3" input="SourceAlpha"/>
      <feGaussianBlur stdDeviation="3" result="blur"/>
      <feFlood flood-opacity="0.161"/>
      <feComposite operator="in" in2="blur"/>
      <feComposite in="SourceGraphic"/>
    </filter>
  </defs>
  <g id="Grupo_1228045" data-name="Grupo 1228045" transform="translate(-589.949 -6964.229)">
    <g id="Grupo_1227313" data-name="Grupo 1227313" transform="translate(598.949 6970.229)">
      <g transform="matrix(1, 0, 0, 1, -9, -6)" filter="url(#Elipse_11494)">
        <g id="Elipse_11494-2" data-name="Elipse 11494" transform="translate(9 6)" fill="#e1e7fb" stroke="#fff" stroke-width="4">
          <circle cx="42" cy="42" r="42" stroke="none"/>
          <circle cx="42" cy="42" r="40" fill="none"/>
        </g>
      </g>
    </g>
    <g id="_x35_6_Secure_File" transform="translate(595.429 6985.118)">
      <g id="Grupo_1227929" data-name="Grupo 1227929" transform="translate(27.758 6.712)">
        <path id="Trazado_1307861" data-name="Trazado 1307861" d="M64.735,18.407v35.7a2.125,2.125,0,0,1-2.125,2.125H39.1a2.125,2.125,0,0,1-2.125-2.125v-35.7A2.125,2.125,0,0,1,39.1,16.282H62.61A2.125,2.125,0,0,1,64.735,18.407Z" transform="translate(-36.548 -15.859)" fill="#e8f1f8"/>
        <path id="Trazado_1307862" data-name="Trazado 1307862" d="M64.712,18.407v35.7a2.126,2.126,0,0,1-2.125,2.125H39.073a2.126,2.126,0,0,1-2.125-2.125v-.684a25.629,25.629,0,0,0,24.7-25.614V16.282h.943a2.126,2.126,0,0,1,2.125,2.125Z" transform="translate(-36.525 -15.859)" opacity="0.12"/>
        <path id="Trazado_1307863" data-name="Trazado 1307863" d="M86.472,65.958A3.469,3.469,0,1,1,83,62.491,3.469,3.469,0,0,1,86.472,65.958Z" transform="translate(-75.563 -58.217)" fill="#f14f4a"/>
        <path id="Trazado_1307864" data-name="Trazado 1307864" d="M86.472,189.658A3.469,3.469,0,1,1,83,186.191,3.469,3.469,0,0,1,86.472,189.658Z" transform="translate(-75.563 -171.609)" fill="#475da9"/>
        <path id="Trazado_1307865" data-name="Trazado 1307865" d="M86.472,313.357A3.469,3.469,0,1,1,83,309.89,3.469,3.469,0,0,1,86.472,313.357Z" transform="translate(-75.563 -285)" fill="#0e9c4a"/>
        <path id="Trazado_1307866" data-name="Trazado 1307866" d="M282.7,272.306c-.353,6.28-3.146,12.768-8.079,15.8a1.268,1.268,0,0,1-1.324,0c-4.93-3.035-7.723-9.523-8.076-15.8a1.289,1.289,0,0,1,1.429-1.345,10.909,10.909,0,0,0,6.659-1.346,1.318,1.318,0,0,1,1.3,0,10.919,10.919,0,0,0,6.662,1.346A1.289,1.289,0,0,1,282.7,272.306Z" transform="translate(-245.774 -247.924)" fill="#f78721"/>
        <path id="Trazado_1307867" data-name="Trazado 1307867" d="M298.857,288.923c-.353,6.277-3.145,12.767-8.079,15.8a1.263,1.263,0,0,1-1.326,0,16.875,16.875,0,0,1-6.609-8.7,8.108,8.108,0,0,0,12.873-4.012,24.475,24.475,0,0,0,.88-4.382c.276-.008.552-.03.833-.06A1.292,1.292,0,0,1,298.857,288.923Z" transform="translate(-261.93 -264.539)" opacity="0.12"/>
        <path id="Trazado_1307868" data-name="Trazado 1307868" d="M308.66,320.012c-2.862-2.243-4.934-6.318-5.586-10.953a13.709,13.709,0,0,0,5.587-1.366,13.72,13.72,0,0,0,5.588,1.366C313.6,313.7,311.523,317.77,308.66,320.012Z" transform="translate(-280.474 -282.986)" fill="#fdcf17"/>
        <path id="Trazado_1307869" data-name="Trazado 1307869" d="M355.938,346.318a1.419,1.419,0,1,1-1.417-1.42A1.419,1.419,0,0,1,355.938,346.318Z" transform="translate(-326.332 -317.091)" fill="#f78721"/>
        <path id="Trazado_1307870" data-name="Trazado 1307870" d="M104.626,92.026l1.543-1.543a.425.425,0,1,0-.6-.6l-1.243,1.243-.279-.279a.425.425,0,0,0-.6.6C103.752,91.672,104.181,92.471,104.626,92.026Z" transform="translate(-97.367 -83.211)"/>
        <path id="Trazado_1307871" data-name="Trazado 1307871" d="M182.872,85.786H194.54a.425.425,0,1,0,0-.85H182.872a.425.425,0,1,0,0,.85Z" transform="translate(-169.899 -78.792)"/>
        <path id="Trazado_1307872" data-name="Trazado 1307872" d="M182.872,113.95h5.667a.425.425,0,1,0,0-.85h-5.667a.425.425,0,1,0,0,.85Z" transform="translate(-169.899 -104.609)"/>
        <path id="Trazado_1307873" data-name="Trazado 1307873" d="M104.025,215.726a.425.425,0,0,0,.6,0l1.543-1.543a.425.425,0,1,0-.6-.6l-1.243,1.243-.279-.279a.425.425,0,1,0-.6.6Z" transform="translate(-97.367 -196.603)"/>
        <path id="Trazado_1307874" data-name="Trazado 1307874" d="M182.872,209.486H194.54a.425.425,0,0,0,0-.85H182.872a.425.425,0,1,0,0,.85Z" transform="translate(-169.899 -192.184)"/>
        <path id="Trazado_1307875" data-name="Trazado 1307875" d="M182.872,237.65h5.667a.425.425,0,1,0,0-.85h-5.667a.425.425,0,1,0,0,.85Z" transform="translate(-169.899 -218.001)"/>
        <path id="Trazado_1307876" data-name="Trazado 1307876" d="M104.025,339.425a.425.425,0,0,0,.6,0l1.543-1.543a.425.425,0,1,0-.6-.6l-1.243,1.243-.279-.279a.425.425,0,0,0-.6.6Z" transform="translate(-97.367 -309.994)"/>
        <path id="Trazado_1307877" data-name="Trazado 1307877" d="M182.872,333.186H187.2a.425.425,0,1,0,0-.85h-4.324a.425.425,0,1,0,0,.85Z" transform="translate(-169.899 -305.576)"/>
        <path id="Trazado_1307878" data-name="Trazado 1307878" d="M182.872,361.35H187.2a.425.425,0,0,0,0-.85h-4.324a.425.425,0,0,0,0,.85Z" transform="translate(-169.899 -331.393)"/>
        <path id="Trazado_1307879" data-name="Trazado 1307879" d="M78.328,312.578a3.894,3.894,0,1,0-3.893-3.9A3.9,3.9,0,0,0,78.328,312.578Zm0-6.937a3.044,3.044,0,1,1-3.043,3.042A3.047,3.047,0,0,1,78.328,305.641Z" transform="translate(-70.888 -280.326)"/>
        <path id="Trazado_1307880" data-name="Trazado 1307880" d="M78.328,188.879a3.894,3.894,0,1,0-3.893-3.9A3.9,3.9,0,0,0,78.328,188.879Zm0-6.938a3.044,3.044,0,1,1-3.043,3.042A3.047,3.047,0,0,1,78.328,181.942Z" transform="translate(-70.888 -166.935)"/>
        <path id="Trazado_1307881" data-name="Trazado 1307881" d="M31.867,13.75v35.7A2.553,2.553,0,0,0,34.417,52H57.931a2.558,2.558,0,0,0,1.176-.292c.02.013.04.028.06.041a1.7,1.7,0,0,0,1.77,0c4.711-2.9,7.884-9.084,8.281-16.141a1.714,1.714,0,0,0-1.9-1.792,10.544,10.544,0,0,1-6.409-1.294,1.763,1.763,0,0,0-.43-.173V13.75a2.553,2.553,0,0,0-2.55-2.55H34.417a2.553,2.553,0,0,0-2.55,2.55ZM60.494,33.261a11.39,11.39,0,0,0,6.915,1.4.864.864,0,0,1,.961.9c-.376,6.681-3.468,12.751-7.878,15.465a.844.844,0,0,1-.879,0c-4.409-2.714-7.5-8.785-7.875-15.465a.864.864,0,0,1,.961-.9,11.372,11.372,0,0,0,6.913-1.4A.9.9,0,0,1,60.494,33.261ZM59.631,13.75v18.6a1.764,1.764,0,0,0-.437.174,10.549,10.549,0,0,1-6.406,1.293,1.713,1.713,0,0,0-1.9,1.792c.37,6.582,3.156,12.4,7.351,15.51a1.7,1.7,0,0,1-.31.032H34.417a1.7,1.7,0,0,1-1.7-1.7V13.75a1.7,1.7,0,0,1,1.7-1.7H57.931a1.7,1.7,0,0,1,1.7,1.7Z" transform="translate(-31.867 -11.2)"/>
        <path id="Trazado_1307882" data-name="Trazado 1307882" d="M78.328,65.179a3.894,3.894,0,1,0-3.893-3.9A3.9,3.9,0,0,0,78.328,65.179Zm0-6.938a3.044,3.044,0,1,1-3.043,3.042A3.047,3.047,0,0,1,78.328,58.242Z" transform="translate(-70.888 -53.543)"/>
        <path id="Trazado_1307883" data-name="Trazado 1307883" d="M297.976,304.446c.666,4.733,2.814,8.931,5.745,11.228a.425.425,0,0,0,.524,0c2.933-2.3,5.081-6.494,5.747-11.228a.425.425,0,0,0-.408-.484,13.324,13.324,0,0,1-5.416-1.324.424.424,0,0,0-.369,0,13.31,13.31,0,0,1-5.415,1.324A.425.425,0,0,0,297.976,304.446Zm6.008-.955a14.15,14.15,0,0,0,5.1,1.3c-.682,4.187-2.561,7.874-5.1,10-2.535-2.13-4.413-5.816-5.1-10A14.136,14.136,0,0,0,303.984,303.491Z" transform="translate(-275.797 -278.313)"/>
        <path id="Trazado_1307884" data-name="Trazado 1307884" d="M349.422,344.262a.425.425,0,0,0,.85,0v-.827a1.845,1.845,0,1,0-.85,0Zm-.569-2.619a.994.994,0,1,1,1,1A1,1,0,0,1,348.853,341.643Z" transform="translate(-321.659 -312.416)"/>
      </g>
      <g id="Grupo_1227930" data-name="Grupo 1227930" transform="translate(27.385 6.304)">
        <path id="Trazado_1307885" data-name="Trazado 1307885" d="M60.909,13.654V50.067a2.167,2.167,0,0,1-2.167,2.167H34.759a2.167,2.167,0,0,1-2.167-2.167V13.654a2.167,2.167,0,0,1,2.167-2.167H58.742A2.167,2.167,0,0,1,60.909,13.654Z" transform="translate(-32.158 -11.055)" fill="#e8f1f8"/>
        <path id="Trazado_1307886" data-name="Trazado 1307886" d="M60.886,13.654V50.067a2.168,2.168,0,0,1-2.167,2.167H34.734a2.168,2.168,0,0,1-2.167-2.167v-.7a26.142,26.142,0,0,0,25.19-26.126V11.487h.962A2.168,2.168,0,0,1,60.886,13.654Z" transform="translate(-32.135 -11.055)" opacity="0.12"/>
        <path id="Trazado_1307887" data-name="Trazado 1307887" d="M83.083,62.158a3.538,3.538,0,1,1-3.539-3.537A3.539,3.539,0,0,1,83.083,62.158Z" transform="translate(-71.955 -54.261)" fill="#f14f4a"/>
        <path id="Trazado_1307888" data-name="Trazado 1307888" d="M83.083,188.332a3.538,3.538,0,1,1-3.539-3.537A3.539,3.539,0,0,1,83.083,188.332Z" transform="translate(-71.955 -169.921)" fill="#475da9"/>
        <path id="Trazado_1307889" data-name="Trazado 1307889" d="M83.083,314.5a3.538,3.538,0,1,1-3.539-3.537A3.539,3.539,0,0,1,83.083,314.5Z" transform="translate(-71.955 -285.58)" fill="#0e9c4a"/>
        <path id="Trazado_1307890" data-name="Trazado 1307890" d="M283.234,272.632c-.36,6.406-3.209,13.023-8.241,16.119a1.293,1.293,0,0,1-1.351,0c-5.029-3.1-7.878-9.713-8.238-16.119a1.314,1.314,0,0,1,1.458-1.372,11.127,11.127,0,0,0,6.792-1.373,1.345,1.345,0,0,1,1.326,0,11.139,11.139,0,0,0,6.8,1.373,1.314,1.314,0,0,1,1.458,1.372Z" transform="translate(-245.569 -247.762)" fill="#f78721"/>
        <path id="Trazado_1307891" data-name="Trazado 1307891" d="M299.715,289.582c-.36,6.4-3.208,13.022-8.241,16.117a1.288,1.288,0,0,1-1.352,0,17.212,17.212,0,0,1-6.741-8.869,8.27,8.27,0,0,0,13.13-4.092,24.966,24.966,0,0,0,.9-4.469c.282-.009.564-.03.85-.061A1.317,1.317,0,0,1,299.715,289.582Z" transform="translate(-262.049 -264.71)" opacity="0.12"/>
        <path id="Trazado_1307892" data-name="Trazado 1307892" d="M309.713,321.293c-2.919-2.288-5.032-6.444-5.7-11.171a13.984,13.984,0,0,0,5.7-1.394,14,14,0,0,0,5.7,1.394C314.747,314.85,312.633,319.006,309.713,321.293Z" transform="translate(-280.963 -283.527)" fill="#fdcf17"/>
        <path id="Trazado_1307893" data-name="Trazado 1307893" d="M357.937,348.125a1.447,1.447,0,1,1-1.445-1.449A1.447,1.447,0,0,1,357.937,348.125Z" transform="translate(-327.739 -318.313)" fill="#f78721"/>
        <path id="Trazado_1307894" data-name="Trazado 1307894" d="M101.6,88.746l1.574-1.574a.433.433,0,0,0-.613-.613l-1.268,1.268-.285-.285a.433.433,0,0,0-.613.613C100.708,88.385,101.145,89.2,101.6,88.746Z" transform="translate(-94.195 -79.755)"/>
        <path id="Trazado_1307895" data-name="Trazado 1307895" d="M181.409,82.382h11.9a.433.433,0,1,0,0-.867h-11.9a.433.433,0,1,0,0,.867Z" transform="translate(-168.177 -75.248)"/>
        <path id="Trazado_1307896" data-name="Trazado 1307896" d="M181.409,111.109h5.78a.433.433,0,0,0,0-.867h-5.78a.433.433,0,1,0,0,.867Z" transform="translate(-168.177 -101.581)"/>
        <path id="Trazado_1307897" data-name="Trazado 1307897" d="M100.986,214.92a.433.433,0,0,0,.613,0l1.574-1.574a.433.433,0,0,0-.613-.613L101.293,214l-.285-.285a.433.433,0,0,0-.613.613Z" transform="translate(-94.195 -195.415)"/>
        <path id="Trazado_1307898" data-name="Trazado 1307898" d="M181.409,208.555h11.9a.433.433,0,1,0,0-.867h-11.9a.433.433,0,0,0,0,.867Z" transform="translate(-168.177 -190.907)"/>
        <path id="Trazado_1307899" data-name="Trazado 1307899" d="M181.409,237.283h5.78a.434.434,0,0,0,0-.867h-5.78a.434.434,0,0,0,0,.867Z" transform="translate(-168.177 -217.241)"/>
        <path id="Trazado_1307900" data-name="Trazado 1307900" d="M100.986,341.094a.433.433,0,0,0,.613,0l1.574-1.574a.433.433,0,1,0-.613-.613l-1.268,1.268-.285-.285a.433.433,0,0,0-.613.613Z" transform="translate(-94.195 -311.075)"/>
        <path id="Trazado_1307901" data-name="Trazado 1307901" d="M181.409,334.729h4.41a.433.433,0,0,0,0-.867h-4.41a.433.433,0,1,0,0,.867Z" transform="translate(-168.177 -306.566)"/>
        <path id="Trazado_1307902" data-name="Trazado 1307902" d="M181.409,363.457h4.41a.433.433,0,0,0,0-.867h-4.41a.433.433,0,1,0,0,.867Z" transform="translate(-168.177 -332.901)"/>
        <path id="Trazado_1307903" data-name="Trazado 1307903" d="M74.774,313.71a3.972,3.972,0,1,0-3.97-3.973A3.977,3.977,0,0,0,74.774,313.71Zm0-7.076a3.1,3.1,0,1,1-3.1,3.1A3.108,3.108,0,0,1,74.774,306.634Z" transform="translate(-67.186 -280.813)"/>
        <path id="Trazado_1307904" data-name="Trazado 1307904" d="M74.774,187.536a3.972,3.972,0,1,0-3.97-3.973A3.978,3.978,0,0,0,74.774,187.536Zm0-7.076a3.1,3.1,0,1,1-3.1,3.1,3.108,3.108,0,0,1,3.1-3.1Z" transform="translate(-67.186 -165.153)"/>
        <path id="Trazado_1307905" data-name="Trazado 1307905" d="M27.385,8.9V45.318a2.6,2.6,0,0,0,2.6,2.6H53.971a2.61,2.61,0,0,0,1.2-.3c.021.013.04.028.061.041a1.736,1.736,0,0,0,1.806,0c4.805-2.957,8.041-9.265,8.446-16.464a1.748,1.748,0,0,0-1.936-1.828,10.755,10.755,0,0,1-6.537-1.32,1.8,1.8,0,0,0-.439-.176V8.9a2.6,2.6,0,0,0-2.6-2.6H29.986a2.6,2.6,0,0,0-2.6,2.6Zm29.2,19.9a11.618,11.618,0,0,0,7.053,1.427.881.881,0,0,1,.98.916c-.384,6.815-3.537,13.006-8.036,15.774a.862.862,0,0,1-.9,0c-4.5-2.769-7.65-8.96-8.033-15.774a.881.881,0,0,1,.98-.916,11.6,11.6,0,0,0,7.051-1.427A.918.918,0,0,1,56.585,28.806ZM55.7,8.9V27.874a1.8,1.8,0,0,0-.446.178,10.76,10.76,0,0,1-6.534,1.319A1.748,1.748,0,0,0,46.789,31.2c.377,6.714,3.219,12.652,7.5,15.821a1.728,1.728,0,0,1-.316.032H29.986a1.736,1.736,0,0,1-1.734-1.734V8.9a1.736,1.736,0,0,1,1.734-1.734H53.971A1.736,1.736,0,0,1,55.7,8.9Z" transform="translate(-27.385 -6.304)"/>
        <path id="Trazado_1307906" data-name="Trazado 1307906" d="M74.774,61.362a3.972,3.972,0,1,0-3.97-3.973A3.978,3.978,0,0,0,74.774,61.362Zm0-7.076a3.1,3.1,0,1,1-3.1,3.1A3.108,3.108,0,0,1,74.774,54.286Z" transform="translate(-67.186 -49.493)"/>
        <path id="Trazado_1307907" data-name="Trazado 1307907" d="M298.816,305.414c.68,4.828,2.87,9.109,5.86,11.452a.433.433,0,0,0,.535,0c2.991-2.342,5.183-6.624,5.862-11.452a.433.433,0,0,0-.416-.494,13.591,13.591,0,0,1-5.524-1.351.433.433,0,0,0-.377,0,13.576,13.576,0,0,1-5.523,1.351A.433.433,0,0,0,298.816,305.414Zm6.128-.974a14.432,14.432,0,0,0,5.2,1.324c-.7,4.271-2.612,8.032-5.2,10.2-2.586-2.172-4.5-5.932-5.2-10.2A14.417,14.417,0,0,0,304.944,304.44Z" transform="translate(-276.194 -278.759)"/>
        <path id="Trazado_1307908" data-name="Trazado 1307908" d="M351.29,346.028a.433.433,0,0,0,.867,0v-.844a1.882,1.882,0,1,0-.867,0v.845Zm-.58-2.671a1.013,1.013,0,1,1,1.015,1.015A1.016,1.016,0,0,1,350.71,343.357Z" transform="translate(-322.973 -313.545)"/>
      </g>
    </g>
  </g>
</svg>
