<svg xmlns="http://www.w3.org/2000/svg" xmlns:xlink="http://www.w3.org/1999/xlink" width="102" height="102" viewBox="0 0 102 102">
  <defs>
    <filter id="Elipse_11494" x="0" y="0" width="102" height="102" filterUnits="userSpaceOnUse">
      <feOffset dy="3" input="SourceAlpha"/>
      <feGaussianBlur stdDeviation="3" result="blur"/>
      <feFlood flood-opacity="0.161"/>
      <feComposite operator="in" in2="blur"/>
      <feComposite in="SourceGraphic"/>
    </filter>
  </defs>
  <g id="Grupo_1228021" data-name="Grupo 1228021" transform="translate(-591 -3670.11)">
    <g id="Grupo_1227307" data-name="Grupo 1227307" transform="translate(600 3676.11)">
      <g transform="matrix(1, 0, 0, 1, -9, -6)" filter="url(#Elipse_11494)">
        <g id="Elipse_11494-2" data-name="Elipse 11494" transform="translate(9 6)" fill="#e1e7fb" stroke="#fff" stroke-width="4">
          <circle cx="42" cy="42" r="42" stroke="none"/>
          <circle cx="42" cy="42" r="40" fill="none"/>
        </g>
      </g>
    </g>
    <g id="Page-1" transform="translate(615.125 3700.001)">
      <g id="_012---Measuring-Jug" data-name="012---Measuring-Jug" transform="translate(0.006 -0.001)">
        <g id="Icons_copy" transform="translate(0.859 0.863)">
          <path id="Shape" d="M41.395,1,40.86,6.174l-.742,7.279c-1.432.707-1.966,2.208-4.208,2.208-2.941,0-2.941-2.587-5.873-2.587-2.967,0-2.932,2.6-5.89,2.561-2.958.043-2.923-2.561-5.89-2.561-2.932,0-2.932,2.587-5.873,2.587-2.656,0-2.915-2.1-5.105-2.51L6.934,9.77a.855.855,0,0,0-.423-.664l-5.148-3A2.731,2.731,0,0,1,.1,3.035,2.832,2.832,0,0,1,2.872,1Z" transform="translate(-0.002 -0.999)" fill="#00bcd4"/>
          <path id="Shape-2" data-name="Shape" d="M46.072,13.453l.742-7.279L47.349,1H44.762l-.535,5.174-.96,9.422Z" transform="translate(-5.956 -0.999)" fill="#00838f"/>
          <path id="Shape-3" data-name="Shape" d="M41.28,15.379,39.417,33.55a4.312,4.312,0,0,1-4.286,3.872h-20.5a4.312,4.312,0,0,1-4.286-3.872L8.44,15.078c2.19.405,2.449,2.51,5.105,2.51,2.941,0,2.941-2.587,5.873-2.587,2.967,0,2.932,2.6,5.89,2.561C28.266,17.6,28.232,15,31.2,15c2.932,0,2.932,2.587,5.873,2.587,2.242,0,2.777-1.5,4.208-2.208Z" transform="translate(-1.163 -2.926)" fill="#3f51b5"/>
          <path id="Shape-4" data-name="Shape" d="M42.339,17.389,40.676,33.61a4.312,4.312,0,0,1-4.286,3.872h2.587a4.312,4.312,0,0,0,4.286-3.872l1.863-18.17c-1.068.527-1.638,1.495-2.787,1.949Z" transform="translate(-5.009 -2.987)" fill="#283593"/>
          <path id="Shape-5" data-name="Shape" d="M56.539,8.761v13.8a2.587,2.587,0,1,1-5.174,0V8.761a2.587,2.587,0,0,0-2.587-2.587h-1.4L47.915,1h.862A7.761,7.761,0,0,1,56.539,8.761Z" transform="translate(-6.522 -0.999)" fill="#00838f"/>
        </g>
        <g id="Icons">
          <path id="Shape-6" data-name="Shape" d="M19.218,36.459H16.3l-.269-2.614a.862.862,0,1,0-1.716.172l.269,2.614A1.725,1.725,0,0,0,16.3,38.184h2.913a.862.862,0,1,0,0-1.725Z" transform="translate(-1.975 -5.412)" fill="#fff"/>
          <g id="Grupo_1228009" data-name="Grupo 1228009">
            <path id="Shape-7" data-name="Shape" d="M43.12,1H3.735A3.675,3.675,0,0,0,.125,3.673,3.614,3.614,0,0,0,1.792,7.711l5.147,3.008L9.188,32.573a5.162,5.162,0,0,0,5.148,4.647H34.829a5.16,5.16,0,0,0,5.147-4.647L42.506,7.9h.614a1.725,1.725,0,0,1,1.725,1.725v13.8a3.45,3.45,0,0,0,6.9,0V9.624A8.633,8.633,0,0,0,43.12,1ZM38.26,32.4a3.441,3.441,0,0,1-3.431,3.1H14.335A3.44,3.44,0,0,1,10.9,32.4l-1.749-17c.191.144.379.3.582.478a4.844,4.844,0,0,0,7.022-.007A3.178,3.178,0,0,1,19.12,14.8a2.773,2.773,0,0,1,1.9.674A.862.862,0,0,0,22.1,14.124a4.493,4.493,0,0,0-2.978-1.05,4.851,4.851,0,0,0-3.5,1.507,3.149,3.149,0,0,1-4.743,0,5.8,5.8,0,0,0-1.93-1.234l-.288-2.8a1.718,1.718,0,0,0-.848-1.328l-5.147-3a1.864,1.864,0,0,1-.869-2.111A1.983,1.983,0,0,1,3.735,2.725H41.3L40.169,13.778a8.365,8.365,0,0,0-1.027.806,3.152,3.152,0,0,1-4.743,0,4.887,4.887,0,0,0-3.322-1.5.835.835,0,0,0-.893.833.862.862,0,0,0,.836.888,3.218,3.218,0,0,1,2.238,1.072,4.877,4.877,0,0,0,3.515,1.507,4.571,4.571,0,0,0,3.149-1.2Zm11.759-8.975a1.725,1.725,0,0,1-3.45,0V9.624a3.45,3.45,0,0,0-3.45-3.45h-.437l.354-3.45h.084a6.907,6.907,0,0,1,6.9,6.9Z" transform="translate(-0.006 -0.999)"/>
            <path id="Shape-8" data-name="Shape" d="M32.312,6.725a.862.862,0,1,0,0-1.725h-3.45A.862.862,0,0,0,28,5.862v27.6a.862.862,0,0,0,.862.862h3.45a.862.862,0,1,0,0-1.725H29.725V30.871H31.45a.862.862,0,0,0,0-1.725H29.725V27.422h2.587a.862.862,0,1,0,0-1.725H29.725V23.972H31.45a.862.862,0,0,0,0-1.725H29.725V20.523h2.587a.862.862,0,1,0,0-1.725H29.725V17.073H31.45a.862.862,0,0,0,0-1.725H29.725V13.624h2.587a.862.862,0,1,0,0-1.725H29.725V10.174H31.45a.862.862,0,0,0,0-1.725H29.725V6.725Z" transform="translate(-3.858 -1.55)"/>
          </g>
        </g>
      </g>
    </g>
  </g>
</svg>
