<svg xmlns="http://www.w3.org/2000/svg" xmlns:xlink="http://www.w3.org/1999/xlink" width="108.914" height="108.914" viewBox="0 0 108.914 108.914">
  <defs>
    <filter id="Trazado_1289140" x="0" y="0" width="108.914" height="108.914" filterUnits="userSpaceOnUse">
      <feOffset dy="3" input="SourceAlpha"/>
      <feGaussianBlur stdDeviation="3" result="blur"/>
      <feFlood flood-opacity="0.161"/>
      <feComposite operator="in" in2="blur"/>
      <feComposite in="SourceGraphic"/>
    </filter>
    <clipPath id="clip-path">
      <path id="path1842" d="M0-682.665H48.767V-633.9H0Z" transform="translate(0 682.665)"/>
    </clipPath>
  </defs>
  <g id="Grupo_1228017" data-name="Grupo 1228017" transform="translate(-591.394 -4077.624)">
    <g id="Trazado_1289139" data-name="Trazado 1289139" transform="translate(600 4083.396)" fill="none">
      <path d="M45.457,0A45.457,45.457,0,0,1,90.914,45.457h0A45.457,45.457,0,0,1,0,45.457H0A45.457,45.457,0,0,1,45.457,0Z" stroke="none"/>
      <path d="M 45.45676803588867 3 C 39.72381210327148 3 34.1639404296875 4.12213134765625 28.93159484863281 6.335227966308594 C 23.87622833251953 8.473472595214844 19.33542633056641 11.53517150878906 15.43529510498047 15.435302734375 C 11.53517150878906 19.33543395996094 8.473464965820312 23.87622833251953 6.335227966308594 28.93160247802734 C 4.122123718261719 34.16394424438477 3 39.72381591796875 3 45.4572868347168 C 3 51.19024658203125 4.122123718261719 56.75011825561523 6.335227966308594 61.98246002197266 C 8.473464965820312 67.03782653808594 11.53517150878906 71.57862854003906 15.43529510498047 75.478759765625 C 19.33542633056641 79.37889099121094 23.87622833251953 82.44058990478516 28.93159484863281 84.57883453369141 C 34.1639404296875 86.79193115234375 39.72381210327148 87.9140625 45.45676803588867 87.9140625 C 51.18972396850586 87.9140625 56.74959564208984 86.79193115234375 61.98194122314453 84.57883453369141 C 67.03730773925781 82.44058990478516 71.57810974121094 79.37889099121094 75.47824096679688 75.478759765625 C 79.37837219238281 71.57862854003906 82.44007110595703 67.03782653808594 84.57830810546875 61.98246002197266 C 86.79141235351562 56.75011825561523 87.91353607177734 51.19024658203125 87.91353607177734 45.4567756652832 C 87.91353607177734 39.72381591796875 86.79141235351562 34.16394424438477 84.57830810546875 28.93160247802734 C 82.44007110595703 23.87622833251953 79.37837219238281 19.33543395996094 75.47824096679688 15.435302734375 C 71.57810974121094 11.53517150878906 67.03730773925781 8.473472595214844 61.98194122314453 6.335227966308594 C 56.74959564208984 4.12213134765625 51.18972396850586 3 45.45676803588867 3 M 45.45676803588867 0 C 70.56185150146484 0 90.91353607177734 20.35169219970703 90.91353607177734 45.4567756652832 L 90.91353607177734 45.4572868347168 C 90.91353607177734 70.5623779296875 70.56185150146484 90.9140625 45.45676803588867 90.9140625 C 20.3516845703125 90.9140625 0 70.5623779296875 0 45.4572868347168 L 0 45.4567756652832 C 0 20.35169219970703 20.3516845703125 0 45.45676803588867 0 Z" stroke="none" fill="#fff"/>
    </g>
    <g transform="matrix(1, 0, 0, 1, 591.39, 4077.62)" filter="url(#Trazado_1289140)">
      <g id="Trazado_1289140-2" data-name="Trazado 1289140" transform="translate(9 6)" fill="#d7d9de" opacity="0.859">
        <path d="M 45.45676803588867 89.41407012939453 C 39.52198028564453 89.41407012939453 33.76551818847656 88.25206756591797 28.34726715087891 85.96034240722656 C 23.11311721801758 83.74648284912109 18.41204261779785 80.57682800292969 14.37464332580566 76.5394287109375 C 10.33724308013916 72.50202941894531 7.167593002319336 67.80095672607422 4.953730583190918 62.56679534912109 C 2.662005424499512 57.14855575561523 1.500005483627319 51.39208221435547 1.500005483627319 45.45729446411133 C 1.500005483627319 39.52198028564453 2.662005424499512 33.76551818847656 4.953730583190918 28.34726905822754 C 7.167593002319336 23.11310577392578 10.33724308013916 18.41203117370605 14.37464332580566 14.37464332580566 C 18.41204261779785 10.33724403381348 23.11311721801758 7.167593955993652 28.34726715087891 4.953731060028076 C 33.76551818847656 2.662006139755249 39.52198028564453 1.500006198883057 45.45676803588867 1.500006198883057 C 51.39155578613281 1.500006198883057 57.14802932739258 2.662006139755249 62.56626892089844 4.953731060028076 C 67.80043029785156 7.167593955993652 72.50150299072266 10.33724403381348 76.53890228271484 14.37464332580566 C 80.57630920410156 18.41203117370605 83.74595642089844 23.11310577392578 85.95981597900391 28.34726905822754 C 88.25154113769531 33.76551818847656 89.41354370117188 39.52198028564453 89.41354370117188 45.45676803588867 C 89.41354370117188 51.39208221435547 88.25154113769531 57.14855575561523 85.95981597900391 62.56679534912109 C 83.74595642089844 67.80095672607422 80.57630920410156 72.50202941894531 76.53890228271484 76.5394287109375 C 72.50150299072266 80.57682800292969 67.80043029785156 83.74648284912109 62.56626892089844 85.96034240722656 C 57.14802932739258 88.25206756591797 51.39155578613281 89.41407012939453 45.45676803588867 89.41407012939453 Z" stroke="none"/>
        <path d="M 45.45676803588867 3 C 39.72381210327148 3 34.1639404296875 4.12213134765625 28.93159484863281 6.335227966308594 C 23.87622833251953 8.473472595214844 19.33542633056641 11.53517150878906 15.43529510498047 15.435302734375 C 11.53517150878906 19.33543395996094 8.473464965820312 23.87622833251953 6.335227966308594 28.93160247802734 C 4.122123718261719 34.16394424438477 3 39.72381591796875 3 45.4572868347168 C 3 51.19024658203125 4.122123718261719 56.75011825561523 6.335227966308594 61.98246002197266 C 8.473464965820312 67.03782653808594 11.53517150878906 71.57862854003906 15.43529510498047 75.478759765625 C 19.33542633056641 79.37889099121094 23.87622833251953 82.44058990478516 28.93159484863281 84.57883453369141 C 34.1639404296875 86.79193115234375 39.72381210327148 87.9140625 45.45676803588867 87.9140625 C 51.18972396850586 87.9140625 56.74959564208984 86.79193115234375 61.98194122314453 84.57883453369141 C 67.03730773925781 82.44058990478516 71.57810974121094 79.37889099121094 75.47824096679688 75.478759765625 C 79.37837219238281 71.57862854003906 82.44007110595703 67.03782653808594 84.57830810546875 61.98246002197266 C 86.79141235351562 56.75011825561523 87.91353607177734 51.19024658203125 87.91353607177734 45.4567756652832 C 87.91353607177734 39.72381591796875 86.79141235351562 34.16394424438477 84.57830810546875 28.93160247802734 C 82.44007110595703 23.87622833251953 79.37837219238281 19.33543395996094 75.47824096679688 15.435302734375 C 71.57810974121094 11.53517150878906 67.03730773925781 8.473472595214844 61.98194122314453 6.335227966308594 C 56.74959564208984 4.12213134765625 51.18972396850586 3 45.45676803588867 3 M 45.45676803588867 0 C 70.56185150146484 0 90.91353607177734 20.35169219970703 90.91353607177734 45.4567756652832 L 90.91353607177734 45.4572868347168 C 90.91353607177734 70.5623779296875 70.56185150146484 90.9140625 45.45676803588867 90.9140625 C 20.3516845703125 90.9140625 0 70.5623779296875 0 45.4572868347168 L 0 45.4567756652832 C 0 20.35169219970703 20.3516845703125 0 45.45676803588867 0 Z" stroke="none" fill="#fff"/>
      </g>
    </g>
    <g id="g1836" transform="translate(621.467 4787.134)">
      <g id="g1838" transform="translate(0 -682.665)">
        <g id="g1840" clip-path="url(#clip-path)">
          <g id="g1846" transform="translate(28.81 19.791)">
            <path id="path1848" d="M-109.992-82.59a1.491,1.491,0,0,0-2.108,0l-.414.414v-5.277A1.491,1.491,0,0,0-114-88.944a1.491,1.491,0,0,0-1.491,1.491v5.277l-.414-.414a1.491,1.491,0,0,0-2.108,0,1.491,1.491,0,0,0,0,2.108l2.959,2.959a1.51,1.51,0,0,0,2.11,0l2.956-2.956a1.491,1.491,0,0,0,0-2.108" transform="translate(118.453 88.944)" fill="#8dcafc"/>
          </g>
          <g id="g1850" transform="translate(8.111 0.715)">
            <path id="path1852" d="M-173.06-400.012v-26.336a4.438,4.438,0,0,0-4.438-4.438,4.438,4.438,0,0,0-4.438,4.438v26.336a8.872,8.872,0,0,0-4.438,7.657,8.9,8.9,0,0,0,8.749,8.906,8.876,8.876,0,0,0,9-8.875,8.872,8.872,0,0,0-4.438-7.688" transform="translate(186.374 430.786)" fill="#f3f0f3"/>
          </g>
          <g id="g1854" transform="translate(8.111 0.715)">
            <path id="path1856" d="M-38.458-499.548a8.872,8.872,0,0,1,4.438-7.657v-26.336a4.44,4.44,0,0,1,2.959-4.185,4.43,4.43,0,0,0-1.479-.253,4.438,4.438,0,0,0-4.438,4.438v26.336a8.872,8.872,0,0,0-4.438,7.657,8.9,8.9,0,0,0,8.749,8.906,8.934,8.934,0,0,0,1.609-.122,8.914,8.914,0,0,1-7.4-8.783" transform="translate(41.417 537.979)" fill="#e2dee2"/>
          </g>
          <g id="g1858" transform="translate(12.507 6.466)">
            <path id="path1860" d="M-77.457-370.208v-27a1.479,1.479,0,0,0-1.479-1.479,1.479,1.479,0,0,0-1.479,1.479v27a4.481,4.481,0,0,0-3,4.318,4.5,4.5,0,0,0,4.3,4.388,4.48,4.48,0,0,0,4.654-4.476,4.481,4.481,0,0,0-3-4.23" transform="translate(83.416 398.688)" fill="#8dcafc"/>
          </g>
          <g id="g1862" transform="translate(25.863 6.632)">
            <path id="path1864" d="M-192.289-96.145a7.4,7.4,0,0,1-7.4,7.4,7.4,7.4,0,0,1-7.4-7.4,7.4,7.4,0,0,1,7.4-7.4,7.4,7.4,0,0,1,7.4,7.4" transform="translate(207.082 103.541)" fill="#f3f0f3"/>
          </g>
          <g id="g1866" transform="translate(25.863 6.632)">
            <path id="path1868" d="M-37.142-96.145a7.4,7.4,0,0,1,5.968-7.259,7.431,7.431,0,0,0-1.429-.138,7.4,7.4,0,0,0-7.4,7.4,7.4,7.4,0,0,0,7.4,7.4,7.431,7.431,0,0,0,1.429-.138,7.4,7.4,0,0,1-5.968-7.259" transform="translate(40 103.541)" fill="#e2dee2"/>
          </g>
          <g id="g1870" transform="translate(28.81 21.274)">
            <path id="path1872" d="M-77.21,0V5.284l.413-.413a1.49,1.49,0,0,1,2.109,0,1.49,1.49,0,0,1,0,2.108l-2.956,2.956a1.51,1.51,0,0,1-2.111,0l-2.958-2.958a1.49,1.49,0,0,1,0-2.108,1.489,1.489,0,0,1,2.108,0l.414.413V0" transform="translate(83.149)" fill="none" stroke="#000" stroke-linecap="round" stroke-linejoin="round" stroke-miterlimit="10" stroke-width="2"/>
          </g>
          <g id="g1874" transform="translate(12.507 6.466)">
            <path id="path1876" d="M-77.465-196.682v13.35a4.481,4.481,0,0,1,3,4.229,4.481,4.481,0,0,1-4.655,4.477,4.5,4.5,0,0,1-4.3-4.388,4.481,4.481,0,0,1,3-4.318v-27a1.474,1.474,0,0,1,.433-1.046,1.476,1.476,0,0,1,1.046-.433,1.48,1.48,0,0,1,1.48,1.479V-199.8" transform="translate(83.425 211.813)" fill="none" stroke="#000" stroke-linecap="round" stroke-linejoin="round" stroke-miterlimit="10" stroke-width="2"/>
          </g>
          <g id="g1878" transform="translate(8.111 0.714)">
            <path id="path1880" d="M-229.665-484.09a8.883,8.883,0,0,0-4.355-6.468v-26.335a4.438,4.438,0,0,0-4.439-4.439,4.425,4.425,0,0,0-3.137,1.3,4.421,4.421,0,0,0-1.3,3.138v26.335a8.872,8.872,0,0,0-4.438,7.658A8.9,8.9,0,0,0-238.584-474a8.877,8.877,0,0,0,8.8-6.982" transform="translate(247.333 521.332)" fill="none" stroke="#000" stroke-linecap="round" stroke-linejoin="round" stroke-miterlimit="10" stroke-width="2"/>
          </g>
          <g id="g1882" transform="translate(8.111 8.111)">
            <path id="path1884" d="M-57.687,0h-4.438" transform="translate(62.125 0)" fill="none" stroke="#000" stroke-linecap="round" stroke-linejoin="round" stroke-miterlimit="10" stroke-width="2"/>
          </g>
          <g id="g1886" transform="translate(9.59 11.07)">
            <path id="path1888" d="M0,0H2.917" transform="translate(0 0)" fill="none" stroke="#000" stroke-linecap="round" stroke-linejoin="round" stroke-miterlimit="10" stroke-width="2"/>
          </g>
          <g id="g1890" transform="translate(8.111 14.028)">
            <path id="path1892" d="M-57.687,0h-4.438" transform="translate(62.125 0)" fill="none" stroke="#000" stroke-linecap="round" stroke-linejoin="round" stroke-miterlimit="10" stroke-width="2"/>
          </g>
          <g id="g1894" transform="translate(9.59 16.987)">
            <path id="path1896" d="M0,0H2.917" transform="translate(0 0)" fill="none" stroke="#000" stroke-linecap="round" stroke-linejoin="round" stroke-miterlimit="10" stroke-width="2"/>
          </g>
          <g id="g1898" transform="translate(8.111 19.945)">
            <path id="path1900" d="M-57.687,0h-4.438" transform="translate(62.125 0)" fill="none" stroke="#000" stroke-linecap="round" stroke-linejoin="round" stroke-miterlimit="10" stroke-width="2"/>
          </g>
          <g id="g1902" transform="translate(9.59 22.904)">
            <path id="path1904" d="M0,0H2.917" transform="translate(0 0)" fill="none" stroke="#000" stroke-linecap="round" stroke-linejoin="round" stroke-miterlimit="10" stroke-width="2"/>
          </g>
          <g id="g1906" transform="translate(8.111 25.863)">
            <path id="path1908" d="M-57.687,0h-4.438" transform="translate(62.125 0)" fill="none" stroke="#000" stroke-linecap="round" stroke-linejoin="round" stroke-miterlimit="10" stroke-width="2"/>
          </g>
          <g id="g1910" transform="translate(9.59 28.821)">
            <path id="path1912" d="M0,0H2.917" transform="translate(0 0)" fill="none" stroke="#000" stroke-linecap="round" stroke-linejoin="round" stroke-miterlimit="10" stroke-width="2"/>
          </g>
          <g id="g1914" transform="translate(25.863 6.632)">
            <path id="path1916" d="M-189.872-117.605a7.4,7.4,0,0,1-7.21,5.745,7.4,7.4,0,0,1-7.4-7.4,7.4,7.4,0,0,1,7.4-7.4,7.4,7.4,0,0,1,7.251,5.935" transform="translate(204.479 126.653)" fill="none" stroke="#000" stroke-linecap="round" stroke-linejoin="round" stroke-miterlimit="10" stroke-width="2"/>
          </g>
          <g id="g1918" transform="translate(33.259 9.59)">
            <path id="path1920" d="M0,0V8.876" transform="translate(0)" fill="none" stroke="#000" stroke-linecap="round" stroke-linejoin="round" stroke-miterlimit="10" stroke-width="2"/>
          </g>
          <g id="g1922" transform="translate(28.821 14.028)">
            <path id="path1924" d="M0,0H8.876" transform="translate(0 0)" fill="none" stroke="#000" stroke-linecap="round" stroke-linejoin="round" stroke-miterlimit="10" stroke-width="2"/>
          </g>
          <g id="g1926" transform="translate(31.167 11.936)">
            <path id="path1928" d="M-54.388,0l-4.184,4.184" transform="translate(58.572)" fill="none" stroke="#000" stroke-linecap="round" stroke-linejoin="round" stroke-miterlimit="10" stroke-width="2"/>
          </g>
          <g id="g1930" transform="translate(31.167 11.936)">
            <path id="path1932" d="M0,0,4.184,4.184" fill="none" stroke="#000" stroke-linecap="round" stroke-linejoin="round" stroke-miterlimit="10" stroke-width="2"/>
          </g>
        </g>
      </g>
    </g>
  </g>
</svg>
