<svg xmlns="http://www.w3.org/2000/svg" xmlns:xlink="http://www.w3.org/1999/xlink" width="108.914" height="108.914" viewBox="0 0 108.914 108.914">
  <defs>
    <filter id="Trazado_1289140" x="0" y="0" width="108.914" height="108.914" filterUnits="userSpaceOnUse">
      <feOffset dy="3" input="SourceAlpha"/>
      <feGaussianBlur stdDeviation="3" result="blur"/>
      <feFlood flood-opacity="0.161"/>
      <feComposite operator="in" in2="blur"/>
      <feComposite in="SourceGraphic"/>
    </filter>
  </defs>
  <g id="Grupo_1228019" data-name="Grupo 1228019" transform="translate(-1219.089 -4077.624)">
    <g id="Trazado_1289139" data-name="Trazado 1289139" transform="translate(1227.696 4083.396)" fill="none">
      <path d="M45.457,0A45.457,45.457,0,0,1,90.914,45.457h0A45.457,45.457,0,0,1,0,45.457H0A45.457,45.457,0,0,1,45.457,0Z" stroke="none"/>
      <path d="M 45.45676803588867 3 C 39.72381210327148 3 34.1639404296875 4.12213134765625 28.93159484863281 6.335227966308594 C 23.87622833251953 8.473472595214844 19.33542633056641 11.53517150878906 15.43529510498047 15.435302734375 C 11.53517150878906 19.33543395996094 8.473464965820312 23.87622833251953 6.335227966308594 28.93160247802734 C 4.122123718261719 34.16394424438477 3 39.72381591796875 3 45.4572868347168 C 3 51.19024658203125 4.122123718261719 56.75011825561523 6.335227966308594 61.98246002197266 C 8.473464965820312 67.03782653808594 11.53517150878906 71.57862854003906 15.43529510498047 75.478759765625 C 19.33542633056641 79.37889099121094 23.87622833251953 82.44058990478516 28.93159484863281 84.57883453369141 C 34.1639404296875 86.79193115234375 39.72381210327148 87.9140625 45.45676803588867 87.9140625 C 51.18972396850586 87.9140625 56.74959564208984 86.79193115234375 61.98194122314453 84.57883453369141 C 67.03730773925781 82.44058990478516 71.57810974121094 79.37889099121094 75.47824096679688 75.478759765625 C 79.37837219238281 71.57862854003906 82.44007110595703 67.03782653808594 84.57830810546875 61.98246002197266 C 86.79141235351562 56.75011825561523 87.91353607177734 51.19024658203125 87.91353607177734 45.4567756652832 C 87.91353607177734 39.72381591796875 86.79141235351562 34.16394424438477 84.57830810546875 28.93160247802734 C 82.44007110595703 23.87622833251953 79.37837219238281 19.33543395996094 75.47824096679688 15.435302734375 C 71.57810974121094 11.53517150878906 67.03730773925781 8.473472595214844 61.98194122314453 6.335227966308594 C 56.74959564208984 4.12213134765625 51.18972396850586 3 45.45676803588867 3 M 45.45676803588867 0 C 70.56185150146484 0 90.91353607177734 20.35169219970703 90.91353607177734 45.4567756652832 L 90.91353607177734 45.4572868347168 C 90.91353607177734 70.5623779296875 70.56185150146484 90.9140625 45.45676803588867 90.9140625 C 20.3516845703125 90.9140625 0 70.5623779296875 0 45.4572868347168 L 0 45.4567756652832 C 0 20.35169219970703 20.3516845703125 0 45.45676803588867 0 Z" stroke="none" fill="#fff"/>
    </g>
    <g transform="matrix(1, 0, 0, 1, 1219.09, 4077.62)" filter="url(#Trazado_1289140)">
      <g id="Trazado_1289140-2" data-name="Trazado 1289140" transform="translate(9 6)" fill="#d7d9de" opacity="0.859">
        <path d="M 45.45676803588867 89.41407012939453 C 39.52198028564453 89.41407012939453 33.76551818847656 88.25206756591797 28.34726715087891 85.96034240722656 C 23.11311721801758 83.74648284912109 18.41204261779785 80.57682800292969 14.37464332580566 76.5394287109375 C 10.33724308013916 72.50202941894531 7.167593002319336 67.80095672607422 4.953730583190918 62.56679534912109 C 2.662005424499512 57.14855575561523 1.500005483627319 51.39208221435547 1.500005483627319 45.45729446411133 C 1.500005483627319 39.52198028564453 2.662005424499512 33.76551818847656 4.953730583190918 28.34726905822754 C 7.167593002319336 23.11310577392578 10.33724308013916 18.41203117370605 14.37464332580566 14.37464332580566 C 18.41204261779785 10.33724403381348 23.11311721801758 7.167593955993652 28.34726715087891 4.953731060028076 C 33.76551818847656 2.662006139755249 39.52198028564453 1.500006198883057 45.45676803588867 1.500006198883057 C 51.39155578613281 1.500006198883057 57.14802932739258 2.662006139755249 62.56626892089844 4.953731060028076 C 67.80043029785156 7.167593955993652 72.50150299072266 10.33724403381348 76.53890228271484 14.37464332580566 C 80.57630920410156 18.41203117370605 83.74595642089844 23.11310577392578 85.95981597900391 28.34726905822754 C 88.25154113769531 33.76551818847656 89.41354370117188 39.52198028564453 89.41354370117188 45.45676803588867 C 89.41354370117188 51.39208221435547 88.25154113769531 57.14855575561523 85.95981597900391 62.56679534912109 C 83.74595642089844 67.80095672607422 80.57630920410156 72.50202941894531 76.53890228271484 76.5394287109375 C 72.50150299072266 80.57682800292969 67.80043029785156 83.74648284912109 62.56626892089844 85.96034240722656 C 57.14802932739258 88.25206756591797 51.39155578613281 89.41407012939453 45.45676803588867 89.41407012939453 Z" stroke="none"/>
        <path d="M 45.45676803588867 3 C 39.72381210327148 3 34.1639404296875 4.12213134765625 28.93159484863281 6.335227966308594 C 23.87622833251953 8.473472595214844 19.33542633056641 11.53517150878906 15.43529510498047 15.435302734375 C 11.53517150878906 19.33543395996094 8.473464965820312 23.87622833251953 6.335227966308594 28.93160247802734 C 4.122123718261719 34.16394424438477 3 39.72381591796875 3 45.4572868347168 C 3 51.19024658203125 4.122123718261719 56.75011825561523 6.335227966308594 61.98246002197266 C 8.473464965820312 67.03782653808594 11.53517150878906 71.57862854003906 15.43529510498047 75.478759765625 C 19.33542633056641 79.37889099121094 23.87622833251953 82.44058990478516 28.93159484863281 84.57883453369141 C 34.1639404296875 86.79193115234375 39.72381210327148 87.9140625 45.45676803588867 87.9140625 C 51.18972396850586 87.9140625 56.74959564208984 86.79193115234375 61.98194122314453 84.57883453369141 C 67.03730773925781 82.44058990478516 71.57810974121094 79.37889099121094 75.47824096679688 75.478759765625 C 79.37837219238281 71.57862854003906 82.44007110595703 67.03782653808594 84.57830810546875 61.98246002197266 C 86.79141235351562 56.75011825561523 87.91353607177734 51.19024658203125 87.91353607177734 45.4567756652832 C 87.91353607177734 39.72381591796875 86.79141235351562 34.16394424438477 84.57830810546875 28.93160247802734 C 82.44007110595703 23.87622833251953 79.37837219238281 19.33543395996094 75.47824096679688 15.435302734375 C 71.57810974121094 11.53517150878906 67.03730773925781 8.473472595214844 61.98194122314453 6.335227966308594 C 56.74959564208984 4.12213134765625 51.18972396850586 3 45.45676803588867 3 M 45.45676803588867 0 C 70.56185150146484 0 90.91353607177734 20.35169219970703 90.91353607177734 45.4567756652832 L 90.91353607177734 45.4572868347168 C 90.91353607177734 70.5623779296875 70.56185150146484 90.9140625 45.45676803588867 90.9140625 C 20.3516845703125 90.9140625 0 70.5623779296875 0 45.4572868347168 L 0 45.4567756652832 C 0 20.35169219970703 20.3516845703125 0 45.45676803588867 0 Z" stroke="none" fill="#fff"/>
      </g>
    </g>
    <g id="Grupo_1228015" data-name="Grupo 1228015" transform="translate(1249.027 4104.333)">
      <path id="Trazado_1308148" data-name="Trazado 1308148" d="M29.818,26.278a17.655,17.655,0,0,1-7.494-5.23L21.256,19.78a1.493,1.493,0,0,1,.181-2.1h0a1.541,1.541,0,0,0,.187-2.172L12.357,4.495a1.517,1.517,0,0,1,.184-2.138h0a1.517,1.517,0,0,1,2.138.184l15.53,18.453,2.934,3.49L37.5,26.291Z" transform="translate(-2.655 -0.241)" fill="#e2e7f7"/>
      <path id="Trazado_1308149" data-name="Trazado 1308149" d="M34.229,25.367c.332,0,.67-.006,1.01-.019l-2.095-.869-2.936-3.487L14.678,2.54a1.517,1.517,0,1,0-2.322,1.954L21.624,15.5a1.54,1.54,0,0,1,.011,1.968C23.162,19.792,27.506,25.332,34.229,25.367Z" transform="translate(-2.655 -0.241)" fill="#f6f8ff"/>
      <rect id="Rectángulo_739463" data-name="Rectángulo 739463" width="45.521" height="3.035" rx="1.517" transform="translate(1.758 39.693)" fill="#f6f8ff"/>
      <path id="Trazado_1308150" data-name="Trazado 1308150" d="M46.486,56l-.567,3.284a1.558,1.558,0,0,1-1.552,1.268H6.12a1.558,1.558,0,0,1-1.552-1.268L4,56Z" transform="translate(-0.725 -13.273)" fill="#e2e7f7"/>
      <path id="Trazado_1308151" data-name="Trazado 1308151" d="M29,47.656V35.517A1.574,1.574,0,0,1,30.626,34H50.134a1.574,1.574,0,0,1,1.626,1.517V47.656Z" transform="translate(-6.758 -7.963)" fill="#ffc239"/>
      <path id="Trazado_1308152" data-name="Trazado 1308152" d="M19.308,48.38,23,38.008a1.517,1.517,0,0,1,1.938-.92l.715.254a1.517,1.517,0,0,1,.921,1.938l-3.239,9.1Z" transform="translate(-4.419 -8.688)" fill="#ffd55d"/>
      <path id="Trazado_1308153" data-name="Trazado 1308153" d="M7.657,48.424a1.512,1.512,0,0,1,.359-.858l8.421-9.852a1.517,1.517,0,0,1,2.139-.167l.577.493a1.517,1.517,0,0,1,.167,2.139l-7.047,8.245Z" transform="translate(-1.607 -8.732)" fill="#ffc239"/>
      <path id="Trazado_1308154" data-name="Trazado 1308154" d="M42.069,30.622a5.648,5.648,0,0,1-6.025-4.535c-.448-3.155,2.617-5.648,5.285-6.032a5.8,5.8,0,0,1,2.778.3,1.113,1.113,0,0,1,.669,1.41l-.009.028a1.149,1.149,0,0,1-1.491.714,3.016,3.016,0,0,0-1.448-.2c-1.778.22-3.822,1.644-3.523,3.447a3.115,3.115,0,0,0,2.161,2.38,13.822,13.822,0,0,1,3.909,1.94l.729.549Z" transform="translate(-8.447 -4.586)" fill="#ffe693"/>
      <path id="Trazado_1308155" data-name="Trazado 1308155" d="M52.484,35.517A1.574,1.574,0,0,0,50.858,34H32v5.468a5.912,5.912,0,0,0,5.912,5.912H52.484Z" transform="translate(-7.482 -7.963)" fill="#ffd55d"/>
      <path id="Trazado_1308156" data-name="Trazado 1308156" d="M45.761,38.934V27.554a2.335,2.335,0,0,0-2.385-2.276H36.91l-.527-.4a14.415,14.415,0,0,0-4.12-2.048,2.378,2.378,0,0,1-1.656-1.786,1.542,1.542,0,0,1,.338-1.2,3.912,3.912,0,0,1,2.531-1.371,2.244,2.244,0,0,1,1.084.161,1.879,1.879,0,0,0,1.476-.058,1.951,1.951,0,0,0,1.013-1.149,1.878,1.878,0,0,0-1.132-2.369,6.477,6.477,0,0,0-3.142-.341,7.308,7.308,0,0,0-5.638,4.355L12.607,1.81A2.276,2.276,0,1,0,9.125,4.742l9.263,11.009a.782.782,0,0,1-.091,1.105,2.255,2.255,0,0,0-.272,3.174L19.092,21.3a18.456,18.456,0,0,0,4.721,3.989,2.328,2.328,0,0,0-2.329,2.268v.385l-.711-.254a2.276,2.276,0,0,0-2.743,1.037l-.567-.486a2.276,2.276,0,0,0-3.209.251L5.831,38.342a2.294,2.294,0,0,0-.366.592H3.275a2.269,2.269,0,0,0-.658,4.444L3.1,46.141a2.311,2.311,0,0,0,2.3,1.9H43.642a2.311,2.311,0,0,0,2.3-1.9l.478-2.763a2.269,2.269,0,0,0-.658-4.444ZM32.99,16.221a5.007,5.007,0,0,1,2.416.269.362.362,0,0,1,.2.478.4.4,0,0,1-.212.237.371.371,0,0,1-.291.012,3.735,3.735,0,0,0-1.811-.248,5.44,5.44,0,0,0-3.56,1.968,3.045,3.045,0,0,0-.619,2.356,3.885,3.885,0,0,0,2.666,2.974,16.075,16.075,0,0,1,2.378,1.011H32.94a4.838,4.838,0,0,1-4.591-3.883C27.96,18.659,30.79,16.537,32.99,16.221Zm-12.741,4.1-1.067-1.266a.734.734,0,0,1,.089-1.035,2.3,2.3,0,0,0,.278-3.242L10.282,3.765a.759.759,0,0,1,1.161-.978L26.8,21.034a5.139,5.139,0,0,0,.044.575,5.859,5.859,0,0,0,2.144,3.669H27.308a16.914,16.914,0,0,1-7.059-4.961Zm3.62,6.478H43.377a.819.819,0,0,1,.867.759v11.38H23V27.554A.819.819,0,0,1,23.868,26.8ZM21.484,38.934H19.991l1.493-4.194Zm-1.22-9.82.715.256a.759.759,0,0,1,.461.969l-3.059,8.6H15.964l3.331-9.359A.759.759,0,0,1,20.264,29.114Zm-7.951,9.82,3.5-4.09-1.457,4.09Zm3.1-9.458a.759.759,0,0,1,1.07-.083l.577.492a.759.759,0,0,1,.083,1.07l-6.822,7.979h-3ZM43.642,46.521H5.4a.8.8,0,0,1-.8-.638l-.414-2.4H44.86l-.413,2.4A.8.8,0,0,1,43.642,46.521Zm2.12-4.552H3.275a.759.759,0,0,1,0-1.517H45.761a.759.759,0,0,1,0,1.517Z" transform="translate(0 0)"/>
    </g>
  </g>
</svg>
