<svg xmlns="http://www.w3.org/2000/svg" xmlns:xlink="http://www.w3.org/1999/xlink" width="102" height="102" viewBox="0 0 102 102">
  <defs>
    <filter id="Elipse_11494" x="0" y="0" width="102" height="102" filterUnits="userSpaceOnUse">
      <feOffset dy="3" input="SourceAlpha"/>
      <feGaussianBlur stdDeviation="3" result="blur"/>
      <feFlood flood-opacity="0.161"/>
      <feComposite operator="in" in2="blur"/>
      <feComposite in="SourceGraphic"/>
    </filter>
  </defs>
  <g id="Grupo_1228044" data-name="Grupo 1228044" transform="translate(-171 -1007)">
    <g id="Grupo_1224538" data-name="Grupo 1224538" transform="translate(180 1013)">
      <g transform="matrix(1, 0, 0, 1, -9, -6)" filter="url(#Elipse_11494)">
        <g id="Elipse_11494-2" data-name="Elipse 11494" transform="translate(9 6)" fill="#e1e7fb" stroke="#fff" stroke-width="4">
          <circle cx="42" cy="42" r="42" stroke="none"/>
          <circle cx="42" cy="42" r="40" fill="none"/>
        </g>
      </g>
    </g>
    <g id="Grupo_1227974" data-name="Grupo 1227974" transform="translate(134.392 1029.293)">
      <g id="Grupo_1227973" data-name="Grupo 1227973" transform="translate(65.376 1.103)">
        <g id="Grupo_1227964" data-name="Grupo 1227964" transform="translate(5.59 33.765)">
          <path id="Trazado_1307991" data-name="Trazado 1307991" d="M145.533,353.472a2.477,2.477,0,0,0-1.829-2.058c-12.084-3.1-5.661-3.995-17.349.881l3.571,8.639,3.213-1.7c10.279,3.995,12.2,1.1,22.182-2.233,4.043-1.347,2-7.459-2.038-6.112Z" transform="translate(-126.355 -348.863)" fill="#ffcebf" fill-rule="evenodd"/>
        </g>
        <g id="Grupo_1227965" data-name="Grupo 1227965" transform="translate(0 35.099)">
          <path id="Trazado_1307992" data-name="Trazado 1307992" d="M0,0H5.105V13.58H0Z" transform="matrix(0.924, -0.382, 0.382, 0.924, 0, 1.95)" fill="#26a6fe" fill-rule="evenodd"/>
        </g>
        <g id="Grupo_1227966" data-name="Grupo 1227966" transform="translate(13.455 2.888)">
          <path id="Trazado_1307993" data-name="Trazado 1307993" d="M218.88,46.94a10.536,10.536,0,0,0,6.268-9.9c0-.39-.02-.776-.056-1.155h-18.95c-.037.378-.059.765-.059,1.155a10.539,10.539,0,0,0,6.27,9.9,7.247,7.247,0,0,1,.144,3.213,10.508,10.508,0,0,0-6.414,9.952c0,.39.023.776.059,1.155h18.95c.037-.378.056-.765.056-1.155a10.506,10.506,0,0,0-6.412-9.952,7.213,7.213,0,0,1-.116-1.3A7.05,7.05,0,0,1,218.88,46.94Z" transform="translate(-206.082 -35.887)" fill="#e8f0fe" fill-rule="evenodd"/>
        </g>
        <g id="Grupo_1227967" data-name="Grupo 1227967" transform="translate(11.185)">
          <path id="Trazado_1307994" data-name="Trazado 1307994" d="M184.518,9.5H205.24a1.444,1.444,0,0,0,0-2.888H184.518a1.444,1.444,0,0,0,0,2.888Z" transform="translate(-183.075 -6.611)" fill="#6354b1" fill-rule="evenodd"/>
        </g>
        <g id="Grupo_1227968" data-name="Grupo 1227968" transform="translate(11.185 28.261)">
          <path id="Trazado_1307995" data-name="Trazado 1307995" d="M184.518,295.958H205.24a1.444,1.444,0,0,0,0-2.888H184.518a1.444,1.444,0,0,0,0,2.888Z" transform="translate(-183.075 -293.07)" fill="#6354b1" fill-rule="evenodd"/>
        </g>
        <g id="Grupo_1227969" data-name="Grupo 1227969" transform="translate(16.005 18.786)">
          <path id="Trazado_1307996" data-name="Trazado 1307996" d="M231.924,204.146h13.969a9.367,9.367,0,0,0-1.66-4.15,7.134,7.134,0,0,0-3.879-2.781,5.785,5.785,0,0,0-2.891,0A7.134,7.134,0,0,0,233.584,200,9.367,9.367,0,0,0,231.924,204.146Z" transform="translate(-231.924 -197.031)" fill="#ffd54f" fill-rule="evenodd"/>
        </g>
        <g id="Grupo_1227970" data-name="Grupo 1227970" transform="translate(17.445 7.202)">
          <path id="Trazado_1307997" data-name="Trazado 1307997" d="M246.519,81.489a7.229,7.229,0,0,0,4.1,3.1,5.785,5.785,0,0,0,2.891,0,7.149,7.149,0,0,0,3.879-2.781,8.961,8.961,0,0,0,.819-1.375C253.888,77.732,253.436,82.63,246.519,81.489Z" transform="translate(-246.519 -79.608)" fill="#ffd54f" fill-rule="evenodd"/>
        </g>
        <g id="Grupo_1227971" data-name="Grupo 1227971" transform="translate(22.411 18.786)">
          <path id="Trazado_1307998" data-name="Trazado 1307998" d="M302.082,204.146h2.338a9.367,9.367,0,0,0-1.66-4.15,7.134,7.134,0,0,0-3.879-2.781,5.778,5.778,0,0,0-1.445-.184,5.644,5.644,0,0,0-.579.028,7.31,7.31,0,0,1,3.6,2.894A10.408,10.408,0,0,1,302.082,204.146Z" transform="translate(-296.856 -197.031)" fill="#ffc328" fill-rule="evenodd"/>
        </g>
        <g id="Grupo_1227972" data-name="Grupo 1227972" transform="translate(18.181 7.527)">
          <path id="Trazado_1307999" data-name="Trazado 1307999" d="M253.988,85.421a6.887,6.887,0,0,0,3.362,2.14,5.785,5.785,0,0,0,2.891,0,7.149,7.149,0,0,0,3.879-2.781,8.964,8.964,0,0,0,.819-1.375,6.608,6.608,0,0,0-.946-.5,8.956,8.956,0,0,1-.678,1.09,7.128,7.128,0,0,1-3.876,2.781,5.785,5.785,0,0,1-2.891,0A6.537,6.537,0,0,1,253.988,85.421Z" transform="translate(-253.988 -82.905)" fill="#ffc328" fill-rule="evenodd"/>
        </g>
      </g>
      <path id="Trazado_1308000" data-name="Trazado 1308000" d="M102.392,38.371a3.742,3.742,0,0,0-4.877-2.458L90.54,38.241a3.118,3.118,0,0,0-2.1-1.819c-3.068-.787-4.939-1.436-6.177-1.865-2.868-.994-3.05-.977-6.507.608-1.027.471-2.4,1.1-4.269,1.891l-.591-1.43a.69.69,0,0,0-.9-.374l-4.664,1.929a.689.689,0,0,0-.374.9l5.13,12.406a.689.689,0,0,0,.9.374l4.664-1.929a.689.689,0,0,0,.374-.9l-.5-1.216,2.345-1.245a23.063,23.063,0,0,0,8.22,1.844c2.967,0,5.366-.938,8.578-2.2,1.517-.594,3.237-1.266,5.3-1.956A3.74,3.74,0,0,0,102.392,38.371ZM71.1,49.323l-4.6-11.132,3.39-1.4,2.563,6.2,1.561,3.776,0,.006.476,1.152ZM99.53,41.956c-2.1.7-3.837,1.38-5.369,1.98-5.715,2.236-8.324,3.257-16.091.237a.688.688,0,0,0-.573.034l-2.506,1.33-1.434-3.469L72.012,38.33c1.9-.8,3.28-1.437,4.317-1.912a11.5,11.5,0,0,1,3.007-1.15,6.226,6.226,0,0,1,2.473.592c1.26.437,3.163,1.1,6.285,1.9a1.771,1.771,0,0,1,1.3,1.461h0a1.711,1.711,0,0,1-.038.662,1.748,1.748,0,0,1-2.125,1.256l-6.453-1.655a.689.689,0,0,0-.342,1.335l6.453,1.655a3.125,3.125,0,0,0,3.8-2.248,3.066,3.066,0,0,0,.094-.612l7.171-2.393a2.5,2.5,0,0,1,1.579,4.735ZM95.9,26.694a9.956,9.956,0,0,0-1.765-4.407,7.7,7.7,0,0,0-4.22-3.012A6.343,6.343,0,0,0,89,19.109V14.065a6.353,6.353,0,0,0,.914-.166,7.731,7.731,0,0,0,4.219-3.012,9.585,9.585,0,0,0,.872-1.465.689.689,0,0,0-.256-.882c-2.491-1.559-3.978-.83-5.552-.058a9.022,9.022,0,0,1-6.256,1.005.689.689,0,0,0-.687,1.06A7.8,7.8,0,0,0,86.713,13.9a6.424,6.424,0,0,0,.911.165V19.11a6.4,6.4,0,0,0-.913.165,7.719,7.719,0,0,0-4.22,3.011,9.984,9.984,0,0,0-1.765,4.408.689.689,0,0,0,.682.789h13.81a.689.689,0,0,0,.682-.789ZM84.423,11.024a10.214,10.214,0,0,0,5.385-1.3c1.322-.648,2.175-1.067,3.656-.326-.137.235-.285.464-.445.685a6.351,6.351,0,0,1-3.45,2.487,5.053,5.053,0,0,1-2.511,0A5.933,5.933,0,0,1,84.423,11.024ZM82.242,26.1A8.471,8.471,0,0,1,83.608,23.1a6.341,6.341,0,0,1,3.449-2.487,5.05,5.05,0,0,1,2.513,0A6.326,6.326,0,0,1,93.02,23.1,8.431,8.431,0,0,1,94.385,26.1Zm-6.287,4.449a2.119,2.119,0,0,0,2.116,2.118H98.556a2.117,2.117,0,0,0,0-4.234h-.138c.006-.15.009-.3.009-.452a11.144,11.144,0,0,0-6.406-10.328,6.735,6.735,0,0,1-.047-.791,6.462,6.462,0,0,1,.15-1.395,11.2,11.2,0,0,0,6.3-10.285c0-.151,0-.3-.009-.452h.138a2.117,2.117,0,0,0,0-4.234H78.071a2.117,2.117,0,0,0,0,4.234h.14c-.006.151-.009.3-.009.452a11.2,11.2,0,0,0,6.3,10.285,6.453,6.453,0,0,1,.15,1.395,6.578,6.578,0,0,1-.047.79A11.142,11.142,0,0,0,78.2,27.985c0,.15,0,.3.009.452h-.14A2.118,2.118,0,0,0,75.955,30.553Zm23.338,0a.739.739,0,0,1-.737.74H78.071a.738.738,0,0,1,0-1.476H98.556a.737.737,0,0,1,.737.737ZM77.334,2.618a.739.739,0,0,1,.737-.74H98.556a.738.738,0,0,1,0,1.476H78.071A.738.738,0,0,1,77.334,2.618Zm2.247,25.367a9.7,9.7,0,0,1,5.895-9.194.689.689,0,0,0,.432-.52,7.852,7.852,0,0,0,.126-1.4,7.756,7.756,0,0,0-.279-2.08.689.689,0,0,0-.407-.455,9.76,9.76,0,0,1-5.767-9.146c0-.149,0-.3.01-.452H97.039c.006.15.01.3.01.452a9.763,9.763,0,0,1-5.767,9.146.689.689,0,0,0-.406.455,7.757,7.757,0,0,0-.279,2.08,8.1,8.1,0,0,0,.122,1.4.689.689,0,0,0,.433.525,9.7,9.7,0,0,1,5.9,9.194c0,.151,0,.3-.01.452H79.591c-.006-.152-.01-.3-.01-.452Z"/>
    </g>
  </g>
</svg>
