<svg xmlns="http://www.w3.org/2000/svg" xmlns:xlink="http://www.w3.org/1999/xlink" width="102" height="102" viewBox="0 0 102 102">
  <defs>
    <filter id="Elipse_11494" x="0" y="0" width="102" height="102" filterUnits="userSpaceOnUse">
      <feOffset dy="3" input="SourceAlpha"/>
      <feGaussianBlur stdDeviation="3" result="blur"/>
      <feFlood flood-opacity="0.161"/>
      <feComposite operator="in" in2="blur"/>
      <feComposite in="SourceGraphic"/>
    </filter>
  </defs>
  <g id="Grupo_1228045" data-name="Grupo 1228045" transform="translate(-486 -1007)">
    <g id="Grupo_1227245" data-name="Grupo 1227245" transform="translate(495 1013)">
      <g transform="matrix(1, 0, 0, 1, -9, -6)" filter="url(#Elipse_11494)">
        <g id="Elipse_11494-2" data-name="Elipse 11494" transform="translate(9 6)" fill="#e1e7fb" stroke="#fff" stroke-width="4">
          <circle cx="42" cy="42" r="42" stroke="none"/>
          <circle cx="42" cy="42" r="40" fill="none"/>
        </g>
      </g>
    </g>
    <g id="Grupo_1227977" data-name="Grupo 1227977" transform="translate(505.449 972.768)">
      <g id="Grupo_1227975" data-name="Grupo 1227975" transform="translate(7.5 65.165)">
        <path id="Trazado_1308001" data-name="Trazado 1308001" d="M39.914,127.742H9.827A2.327,2.327,0,0,0,7.5,130.069v17.068a2.327,2.327,0,0,0,2.327,2.327H31.905l8.009-7.5Z" transform="translate(-7.5 -123.087)" fill="#ffe09c"/>
        <path id="Trazado_1308002" data-name="Trazado 1308002" d="M295.059,159a5.433,5.433,0,0,1-.728,2.715l-3.676,6.367h6.732V151.79h-2.327Z" transform="translate(-263.251 -144.808)" fill="#ffd18d"/>
        <path id="Trazado_1308003" data-name="Trazado 1308003" d="M31.254,301.511H9.827A2.327,2.327,0,0,1,7.5,299.183v-3.1H36.249l.3,3.145Z" transform="translate(-7.5 -275.133)" fill="#fbbd80"/>
        <path id="Trazado_1308004" data-name="Trazado 1308004" d="M9.827,301.511H41.636V296.08H36.249l-1.12,1.94a2.335,2.335,0,0,1-2.015,1.164H7.5A2.328,2.328,0,0,0,9.827,301.511Z" transform="translate(-7.5 -275.133)" fill="#f4aa73"/>
        <circle id="Elipse_13835" data-name="Elipse 13835" cx="2.327" cy="2.327" r="2.327" transform="translate(14.741 0)" fill="#ff5f7a"/>
        <circle id="Elipse_13836" data-name="Elipse 13836" cx="1.552" cy="1.552" r="1.552" transform="translate(8.534 1.552)" fill="#ff5f7a"/>
        <circle id="Elipse_13837" data-name="Elipse 13837" cx="1.552" cy="1.552" r="1.552" transform="translate(22.499 1.552)" fill="#ff5f7a"/>
        <path id="Trazado_1308005" data-name="Trazado 1308005" d="M39.309,127.742H9.827A2.327,2.327,0,0,0,7.5,130.069v3.1a2.327,2.327,0,0,1,4.655,0v2.244a1.609,1.609,0,0,0,1.291,1.613,1.553,1.553,0,0,0,1.812-1.53v-3.1a1.552,1.552,0,0,1,3.1,0v5.3a2.416,2.416,0,0,0,2.2,2.456,2.328,2.328,0,0,0,2.453-2.324V132.4a1.552,1.552,0,0,1,3.1,0v3.02a1.609,1.609,0,0,0,1.291,1.613,1.553,1.553,0,0,0,1.812-1.53v-2.327a2.327,2.327,0,0,1,4.655,0v2.244a1.609,1.609,0,0,0,1.291,1.613,1.553,1.553,0,0,0,1.812-1.53v-2.327a2.327,2.327,0,0,1,4.655,0v-3.1A2.327,2.327,0,0,0,39.309,127.742Z" transform="translate(-7.5 -123.087)" fill="#ff7e92"/>
        <path id="Trazado_1308006" data-name="Trazado 1308006" d="M179.354,81.973a2.327,2.327,0,0,0-2.327-2.327,2.3,2.3,0,0,0-.732.129,2.95,2.95,0,0,0,.981,1.9.387.387,0,0,1,0,.593,2.951,2.951,0,0,0-.981,1.9,2.3,2.3,0,0,0,.732.129A2.327,2.327,0,0,0,179.354,81.973Z" transform="translate(-159.959 -79.646)" fill="#fb4455"/>
        <path id="Trazado_1308007" data-name="Trazado 1308007" d="M338.488,133.173v-3.1a2.327,2.327,0,0,0-2.327-2.327v3.1A2.327,2.327,0,0,1,338.488,133.173Z" transform="translate(-304.352 -123.087)" fill="#ff5f7a"/>
        <path id="Trazado_1308008" data-name="Trazado 1308008" d="M271.673,233.116l-9.406,16.292a2.328,2.328,0,0,0,2.016,3.491H283.1a2.328,2.328,0,0,0,2.016-3.491L275.7,233.116A2.328,2.328,0,0,0,271.673,233.116Z" transform="translate(-237.325 -217.211)" fill="#ff5f7a"/>
        <path id="Trazado_1308009" data-name="Trazado 1308009" d="M285.13,249.437l-9.406-16.292a2.4,2.4,0,0,0-3.245-.851l2.01,3.481L266,250.548h-4.03a2.374,2.374,0,0,0,2.329,2.381h18.813A2.327,2.327,0,0,0,285.13,249.437Z" transform="translate(-237.344 -217.241)" fill="#fb4455"/>
        <path id="Trazado_1308010" data-name="Trazado 1308010" d="M307.981,272.033,299.918,286h16.126Z" transform="translate(-271.617 -253.413)" fill="#ffe077"/>
        <path id="Trazado_1308011" data-name="Trazado 1308011" d="M352.529,332.732l-2.016,3.492a1.164,1.164,0,0,0,1.008,1.746h4.032a1.164,1.164,0,0,0,1.008-1.746l-2.016-3.492A1.164,1.164,0,0,0,352.529,332.732Z" transform="translate(-317.173 -307.712)" fill="#ffefac"/>
      </g>
      <g id="Grupo_1227976" data-name="Grupo 1227976" transform="translate(7.5 63.613)">
        <path id="Trazado_1308012" data-name="Trazado 1308012" d="M271.673,233.116l-9.406,16.292a2.328,2.328,0,0,0,2.016,3.491H283.1a2.328,2.328,0,0,0,2.016-3.491L275.7,233.116A2.328,2.328,0,0,0,271.673,233.116Z" transform="translate(-237.325 -215.66)" fill="none" stroke="#000" stroke-linecap="round" stroke-linejoin="round" stroke-miterlimit="10" stroke-width="1"/>
        <path id="Trazado_1308013" data-name="Trazado 1308013" d="M307.98,272.032,299.917,286h16.126Z" transform="translate(-271.616 -251.861)" fill="none" stroke="#000" stroke-linecap="round" stroke-linejoin="round" stroke-miterlimit="10" stroke-width="1"/>
        <line id="Línea_3924" data-name="Línea 3924" y2="2.701" transform="translate(36.364 25.602)" fill="none" stroke="#000" stroke-linecap="round" stroke-linejoin="round" stroke-miterlimit="10" stroke-width="1"/>
        <line id="Línea_3925" data-name="Línea 3925" transform="translate(36.364 31.033)" fill="none" stroke="#000" stroke-linecap="round" stroke-linejoin="round" stroke-miterlimit="10" stroke-width="1"/>
        <path id="Trazado_1308014" data-name="Trazado 1308014" d="M31.92,149.465H9.827A2.327,2.327,0,0,1,7.5,147.138V130.069a2.327,2.327,0,0,1,2.327-2.327H39.309a2.327,2.327,0,0,1,2.327,2.327v4.983" transform="translate(-7.5 -121.535)" fill="none" stroke="#000" stroke-linecap="round" stroke-linejoin="round" stroke-miterlimit="10" stroke-width="1"/>
        <path id="Trazado_1308015" data-name="Trazado 1308015" d="M119.726,164.462v2.2a2.416,2.416,0,0,0,2.2,2.456,2.328,2.328,0,0,0,2.453-2.324v-5.434a1.552,1.552,0,0,1,1.552-1.552h0a1.552,1.552,0,0,1,1.552,1.552v3.02a1.609,1.609,0,0,0,1.291,1.613,1.553,1.553,0,0,0,1.812-1.53v-2.327a2.327,2.327,0,0,1,2.327-2.327h0a2.327,2.327,0,0,1,2.327,2.327v2.244a1.609,1.609,0,0,0,1.291,1.613,1.553,1.553,0,0,0,1.812-1.53v-2.327a2.327,2.327,0,0,1,2.327-2.327h0A2.327,2.327,0,0,1,143,162.134" transform="translate(-108.864 -150.497)" fill="none" stroke="#000" stroke-linecap="round" stroke-linejoin="round" stroke-miterlimit="10" stroke-width="1"/>
        <path id="Trazado_1308016" data-name="Trazado 1308016" d="M7.5,162.134a2.327,2.327,0,0,1,2.327-2.327h0a2.327,2.327,0,0,1,2.327,2.327v2.244a1.609,1.609,0,0,0,1.291,1.613,1.553,1.553,0,0,0,1.812-1.53v-3.1a1.552,1.552,0,0,1,1.552-1.552h0a1.552,1.552,0,0,1,1.552,1.552" transform="translate(-7.5 -150.496)" fill="none" stroke="#000" stroke-linecap="round" stroke-linejoin="round" stroke-miterlimit="10" stroke-width="1"/>
        <line id="Línea_3926" data-name="Línea 3926" x2="27.154" transform="translate(0 22.499)" fill="none" stroke="#000" stroke-linecap="round" stroke-linejoin="round" stroke-miterlimit="10" stroke-width="1"/>
        <circle id="Elipse_13838" data-name="Elipse 13838" cx="2.327" cy="2.327" r="2.327" transform="translate(14.741 1.552)" fill="none" stroke="#000" stroke-linecap="round" stroke-linejoin="round" stroke-miterlimit="10" stroke-width="1"/>
        <circle id="Elipse_13839" data-name="Elipse 13839" cx="1.552" cy="1.552" r="1.552" transform="translate(8.534 3.103)" fill="none" stroke="#000" stroke-linecap="round" stroke-linejoin="round" stroke-miterlimit="10" stroke-width="1"/>
        <circle id="Elipse_13840" data-name="Elipse 13840" cx="1.552" cy="1.552" r="1.552" transform="translate(22.499 3.103)" fill="none" stroke="#000" stroke-linecap="round" stroke-linejoin="round" stroke-miterlimit="10" stroke-width="1"/>
        <line id="Línea_3927" data-name="Línea 3927" x1="0.776" y1="1.552" transform="translate(16.292 0)" fill="none" stroke="#000" stroke-linecap="round" stroke-linejoin="round" stroke-miterlimit="10" stroke-width="1"/>
        <line id="Línea_3928" data-name="Línea 3928" y1="1.552" x2="0.776" transform="translate(24.05 1.552)" fill="none" stroke="#000" stroke-linecap="round" stroke-linejoin="round" stroke-miterlimit="10" stroke-width="1"/>
        <line id="Línea_3929" data-name="Línea 3929" x1="0.776" y1="1.552" transform="translate(9.31 1.552)" fill="none" stroke="#000" stroke-linecap="round" stroke-linejoin="round" stroke-miterlimit="10" stroke-width="1"/>
      </g>
    </g>
  </g>
</svg>
