<svg xmlns="http://www.w3.org/2000/svg" xmlns:xlink="http://www.w3.org/1999/xlink" width="102" height="102" viewBox="0 0 102 102">
  <defs>
    <filter id="Elipse_11494" x="0" y="0" width="102" height="102" filterUnits="userSpaceOnUse">
      <feOffset dy="3" input="SourceAlpha"/>
      <feGaussianBlur stdDeviation="3" result="blur"/>
      <feFlood flood-opacity="0.161"/>
      <feComposite operator="in" in2="blur"/>
      <feComposite in="SourceGraphic"/>
    </filter>
  </defs>
  <g id="Grupo_1228047" data-name="Grupo 1228047" transform="translate(-1116 -1007)">
    <g id="Grupo_1227248" data-name="Grupo 1227248" transform="translate(1125 1013)">
      <g transform="matrix(1, 0, 0, 1, -9, -6)" filter="url(#Elipse_11494)">
        <g id="Elipse_11494-2" data-name="Elipse 11494" transform="translate(9 6)" fill="#e1e7fb" stroke="#fff" stroke-width="4">
          <circle cx="42" cy="42" r="42" stroke="none"/>
          <circle cx="42" cy="42" r="40" fill="none"/>
        </g>
      </g>
    </g>
    <g id="Grupo_1227993" data-name="Grupo 1227993" transform="translate(1141.47 952.911)">
      <path id="Trazado_1308034" data-name="Trazado 1308034" d="M354.755,221.082l-1.84,1.851a.5.5,0,0,0,0,.709l1.455,1.463a.5.5,0,0,0,.7,0l1.84-1.851Z" transform="translate(-317.52 -123.905)" fill="#ff9f3d"/>
      <g id="Grupo_1227987" data-name="Grupo 1227987" transform="translate(1.801 84.171)">
        <path id="Trazado_1308035" data-name="Trazado 1308035" d="M268.77,317.546a2,2,0,0,0-.544.076c0-.038.005-.076.005-.115a1.505,1.505,0,0,0-1.5-1.51,1.484,1.484,0,0,0-.908.31l1.386,3.571a.313.313,0,0,1-.156.436h3.571a2.013,2.013,0,0,0-1.853-2.769Z" transform="translate(-241.061 -293.508)" fill="#b1e8ff"/>
        <path id="Trazado_1308036" data-name="Trazado 1308036" d="M32.087,287.892l1.5-3.865a2.013,2.013,0,0,0-2.6.833,2.354,2.354,0,0,0-2.529-1.8c.008-.078.012-.157.012-.237a2.36,2.36,0,1,0-4.649.567c-.024,0-.047,0-.071,0a2.363,2.363,0,0,0-2.36,2.366c0,.038,0,.075.006.113H19.817a1.8,1.8,0,0,0-1.673,2.461h14.1A.313.313,0,0,1,32.087,287.892Z" transform="translate(-18.019 -261.52)" fill="#b1e8ff"/>
        <path id="Trazado_1308037" data-name="Trazado 1308037" d="M102.212,93.123a2.156,2.156,0,1,1-2.155-2.2A2.179,2.179,0,0,1,102.212,93.123Z" transform="translate(-89.92 -90.922)" fill="#b1e8ff"/>
      </g>
      <path id="Trazado_1308038" data-name="Trazado 1308038" d="M374.8,151.028l7.653-7.7a1.1,1.1,0,0,0,0-1.551l-.617-.621a1.089,1.089,0,0,0-1.542,0l-7.653,7.7Z" transform="translate(-335.402 -51.679)" fill="#ffbb4a"/>
      <path id="Trazado_1308039" data-name="Trazado 1308039" d="M170.6,313.591l-1.778-4.58H160.3l-1.778,4.58a.319.319,0,0,0,.319.466h11.442A.319.319,0,0,0,170.6,313.591Z" transform="translate(-142.656 -203.048)" fill="#ffcfab"/>
      <g id="Grupo_1227988" data-name="Grupo 1227988" transform="translate(15.837 105.963)" opacity="0.1">
        <path id="Trazado_1308040" data-name="Trazado 1308040" d="M160.708,313.591l1.778-4.58H160.3l-1.778,4.58a.319.319,0,0,0,.319.466h2.184A.319.319,0,0,1,160.708,313.591Z" transform="translate(-158.493 -309.011)"/>
      </g>
      <path id="Trazado_1308041" data-name="Trazado 1308041" d="M188.3,261.775a.99.99,0,0,0,.145-.515v-1.042a1,1,0,0,0-1-1h-5.7a1,1,0,0,0-1,1v1.042a.99.99,0,0,0,.145.515Z" transform="translate(-162.69 -158.23)" fill="#ffbb4a"/>
      <path id="Trazado_1308042" data-name="Trazado 1308042" d="M183.054,261.775a.99.99,0,0,1-.145-.515v-1.042a1,1,0,0,1,1-1H181.75a1,1,0,0,0-1,1v1.042a.99.99,0,0,0,.145.515Z" transform="translate(-162.69 -158.23)" opacity="0.1"/>
      <path id="Trazado_1308043" data-name="Trazado 1308043" d="M177.527,286.726a.5.5,0,0,1-.5.5H167.6a.5.5,0,0,1-.5-.5v-1.419a.5.5,0,0,1,.5-.5h9.422a.5.5,0,0,1,.5.5Z" transform="translate(-150.407 -181.262)" fill="#ff9f3d"/>
      <g id="Grupo_1227989" data-name="Grupo 1227989" transform="translate(16.698 103.545)" opacity="0.1">
        <path id="Trazado_1308044" data-name="Trazado 1308044" d="M169.3,286.726v-1.419a.5.5,0,0,1,.5-.5H167.6a.5.5,0,0,0-.5.5v1.419a.5.5,0,0,0,.5.5H169.8A.5.5,0,0,1,169.3,286.726Z" transform="translate(-167.105 -284.807)"/>
      </g>
      <path id="Trazado_1308045" data-name="Trazado 1308045" d="M302.451,359.2a.6.6,0,0,1,.588.91l-.757,1.675H310V359.7a.5.5,0,0,1,.5-.5Z" transform="translate(-272.077 -248.225)" fill="#abccd3"/>
      <path id="Trazado_1308046" data-name="Trazado 1308046" d="M391.534,359.2H380.048a.5.5,0,0,0-.5.5v3.16a.5.5,0,0,0,.5.5h11.486a.5.5,0,0,0,.5-.5V359.7A.5.5,0,0,0,391.534,359.2Z" transform="translate(-341.622 -248.225)" fill="#ffbb4a"/>
      <g id="Grupo_1227990" data-name="Grupo 1227990" transform="translate(0.75 110.979)">
        <path id="Trazado_1308047" data-name="Trazado 1308047" d="M381.891,359.2h-1.843a.5.5,0,0,0-.5.5v3.16a.5.5,0,0,0,.5.5h1.843V359.2Z" transform="translate(-342.372 -359.204)" fill="#78a7af"/>
        <path id="Trazado_1308048" data-name="Trazado 1308048" d="M35.74,364.476a1.688,1.688,0,0,1-1.411.911H10.961a1.688,1.688,0,0,1-1.411-.911l-1.971-4.361a.6.6,0,0,1,.588-.91H37.123a.6.6,0,0,1,.588.91Z" transform="translate(-7.498 -359.204)" fill="#78a7af"/>
      </g>
      <g id="Grupo_1227991" data-name="Grupo 1227991" transform="translate(0.75 110.979)" opacity="0.1">
        <path id="Trazado_1308049" data-name="Trazado 1308049" d="M12.833,364.476l-1.971-4.361a.6.6,0,0,1,.588-.91H8.168a.6.6,0,0,0-.588.91l1.971,4.361a1.688,1.688,0,0,0,1.411.911h3.282A1.688,1.688,0,0,1,12.833,364.476Z" transform="translate(-7.499 -359.204)"/>
      </g>
      <ellipse id="Elipse_13841" data-name="Elipse 13841" cx="4.313" cy="4.39" rx="4.313" ry="4.39" transform="translate(0.886 90.878)" fill="#d7f7ff"/>
      <g id="Grupo_1227992" data-name="Grupo 1227992" transform="translate(0.886 91.432)" opacity="0.1">
        <path id="Trazado_1308050" data-name="Trazado 1308050" d="M14.79,170.206a4.351,4.351,0,0,1-4.313-4.39,4.428,4.428,0,0,1,.6-2.233,4.4,4.4,0,0,0-2.215,3.835,4.351,4.351,0,0,0,4.313,4.39,4.3,4.3,0,0,0,3.713-2.157A4.234,4.234,0,0,1,14.79,170.206Z" transform="translate(-8.863 -163.583)"/>
      </g>
      <path id="Trazado_1308051" data-name="Trazado 1308051" d="M132.418,183.066a.275.275,0,0,1-.262-.2c-.431-1.405-.726-1.706-2.109-2.144a.281.281,0,0,1,0-.533c1.383-.438,1.679-.738,2.109-2.144a.273.273,0,0,1,.525,0c.431,1.405.726,1.706,2.109,2.144a.281.281,0,0,1,0,.533c-1.383.438-1.678.738-2.109,2.144A.275.275,0,0,1,132.418,183.066Z" transform="translate(-116.877 -84.995)" fill="#ff9f3d"/>
      <path id="Trazado_1308052" data-name="Trazado 1308052" d="M93.307,89.323a2.951,2.951,0,1,0-2.9-2.951A2.931,2.931,0,0,0,93.307,89.323Zm0-4.4A1.452,1.452,0,1,1,91.9,86.372,1.431,1.431,0,0,1,93.307,84.921Z" transform="translate(-81.368)"/>
      <path id="Trazado_1308053" data-name="Trazado 1308053" d="M49.911,155.159H47.6a.749.749,0,0,0,0,1.5h2.064v2.66H41.018v-2.66H44a.749.749,0,0,0,0-1.5H32.259a2.76,2.76,0,0,0-2.653-2.742,2.258,2.258,0,0,0-1.84-1.529,1.241,1.241,0,0,0,.1-.455h3a3.511,3.511,0,0,0,2.235-.93l3.025-3.043.2.2a1.247,1.247,0,0,0,1.767,0l4.5-4.53a.749.749,0,1,0-1.063-1.057l-2.133,2.145-1.1-1.109,7.128-7.17a.34.34,0,0,1,.479,0l.617.621a.355.355,0,0,1,0,.494l-2.407,2.421a.749.749,0,0,0,1.063,1.057l2.407-2.421a1.854,1.854,0,0,0,0-2.608l-.617-.621a1.838,1.838,0,0,0-2.6,0l-9.493,9.549a1.255,1.255,0,0,0,0,1.766l.2.2-3.031,3.049a2.066,2.066,0,0,1-1.172.488h-3a1.25,1.25,0,0,0-1.247-1.209h-.114v-.808a1.751,1.751,0,0,0-1.749-1.749h-5.7a1.751,1.751,0,0,0-1.749,1.749v.808H17.2a1.25,1.25,0,0,0-1.249,1.249v1.419a1.245,1.245,0,0,0,.046.331,2.775,2.775,0,0,0-1.016.421,3.1,3.1,0,0,0-2.014-1.225,3.109,3.109,0,0,0-6.18.391,3.123,3.123,0,0,0-2.3,2.387H3.6a2.552,2.552,0,0,0-2.546,2.5,1.331,1.331,0,0,0-.849.571,1.4,1.4,0,0,0-.056,1.358l1.971,4.361a2.429,2.429,0,0,0,2.094,1.351H9.028a.749.749,0,0,0,0-1.5H4.212a.954.954,0,0,1-.728-.47l-1.9-4.214H30.212l-1.9,4.213a.955.955,0,0,1-.728.47H13.125a.749.749,0,0,0,0,1.5H27.58a2.429,2.429,0,0,0,2.094-1.351l1.015-2.246h6.487v.325a1.25,1.25,0,0,0,1.249,1.249H49.911a1.25,1.25,0,0,0,1.249-1.249v-3.16A1.25,1.25,0,0,0,49.911,155.159ZM37.235,143.169l1.1,1.109L37.2,145.42l-1.1-1.109ZM18.16,151.642h7.5l1.365,3.516h-1.7V153.6a.749.749,0,1,0-1.5,0v1.557H22.561V153.6a.749.749,0,1,0-1.5,0v1.557H19.992V153.6a.749.749,0,1,0-1.5,0v1.557h-1.7Zm10.062,1.483c0,.017,0,.033,0,.05v.014a.75.75,0,0,0,.952.771,1.249,1.249,0,0,1,1.59,1.2H28.631l-1.083-2.789A.758.758,0,0,1,28.221,153.125Zm-9.411-6.209a.253.253,0,0,1,.25-.25h5.7a.253.253,0,0,1,.25.25v.808h-6.2Zm-1.364,2.307H26.37v.92H17.447ZM3.6,154.2H5.178a.75.75,0,0,0,.748-.792l0-.042c0-.01,0-.02,0-.027a1.616,1.616,0,0,1,1.6-1.616c.02,0,.073,0,.078,0a1.624,1.624,0,0,1,1.478,1.154.749.749,0,0,0,1.437-.427,3.134,3.134,0,0,0-2.227-2.132,1.609,1.609,0,0,1,3.217.092c0,.053,0,.107-.008.165a.749.749,0,0,0,.821.818,1.578,1.578,0,0,1,.161-.008,1.6,1.6,0,0,1,1.486,1,2.765,2.765,0,0,0-.213,1.067.749.749,0,1,0,1.5,0,1.268,1.268,0,0,1,.165-.626h0l.005-.008a1.279,1.279,0,0,1,.922-.63l-1.155,2.976H2.555A1.052,1.052,0,0,1,3.6,154.2Zm27.767,3.547.279-.617a1.681,1.681,0,0,0,.119-.372c.022-.032.043-.065.064-.1h5.348v1.086Zm7.309,1.574v-2.66h.844v2.66Z" transform="translate(0 -44.929)"/>
      <path id="Trazado_1308054" data-name="Trazado 1308054" d="M6.425,160.81a5.14,5.14,0,0,0,0-10.278,5.14,5.14,0,0,0,0,10.278Zm0-8.779a3.641,3.641,0,0,1,0,7.281,3.641,3.641,0,0,1,0-7.281Z" transform="translate(-1.226 -60.404)"/>
      <path id="Trazado_1308055" data-name="Trazado 1308055" d="M124.688,171.079c-.36,1.176-.466,1.284-1.619,1.649a1.03,1.03,0,0,0,0,1.962c1.152.365,1.258.473,1.618,1.647a1.023,1.023,0,0,0,1.958,0c.361-1.176.466-1.284,1.618-1.649a1.03,1.03,0,0,0,0-1.963c-1.152-.365-1.258-.473-1.618-1.648a1.023,1.023,0,0,0-1.958,0Zm.979,1.591a2.455,2.455,0,0,0,1.035,1.039,2.457,2.457,0,0,0-1.035,1.039,2.457,2.457,0,0,0-1.035-1.039A2.457,2.457,0,0,0,125.667,172.67Z" transform="translate(-110.127 -78.245)"/>
    </g>
  </g>
</svg>
