<svg xmlns="http://www.w3.org/2000/svg" width="85" height="85" viewBox="0 0 85 85">
  <g id="Grupo_1227911" data-name="Grupo 1227911" transform="translate(-1227.051 -2666)">
    <rect id="Rectángulo_403132" data-name="Rectángulo 403132" width="85" height="85" transform="translate(1227.051 2666)" fill="none"/>
    <g id="meat_grinder_1_" transform="translate(1238.051 2644.656)">
      <path id="Trazado_1307811" data-name="Trazado 1307811" d="M12.672,402.672H30.906v6.639H12.672Z" transform="translate(-11.152 -321.504)" fill="#ffce54"/>
      <path id="Trazado_1307812" data-name="Trazado 1307812" d="M247.14,230.672H229.626l-7.436.8-2.48,2.881-5.038,19.193v3.278l4.157.319,26.393.4,4.238-1.76V236.349Z" transform="translate(-188.92 -170.137)" fill="#48cfad"/>
      <path id="Trazado_1307813" data-name="Trazado 1307813" d="M405.957,228.3,396,228v5.458l12.476.36.56-1.818Z" transform="translate(-348.496 -167.785)" fill="#f5f7fa"/>
      <path id="Trazado_1307814" data-name="Trazado 1307814" d="M306.319,287.159A2.159,2.159,0,1,1,304.159,285,2.16,2.16,0,0,1,306.319,287.159Z" transform="translate(-265.772 -217.947)" fill="#656d78"/>
      <path id="Trazado_1307815" data-name="Trazado 1307815" d="M131.739,262.776h-14.4V252.25H135Z" transform="translate(-103.268 -189.126)" fill="#ccd1d9"/>
      <path id="Trazado_1307816" data-name="Trazado 1307816" d="M153.75,110.344h9.437v15.994H153.75Z" transform="translate(-135.306 -64.243)" fill="#aab2bc"/>
      <path id="Trazado_1307817" data-name="Trazado 1307817" d="M117.344,48h33.427v6.4H117.344Z" transform="translate(-103.268 -9.378)" fill="#ccd1d9"/>
      <g id="Grupo_1227910" data-name="Grupo 1227910" transform="translate(0 37.344)">
        <path id="Trazado_1307818" data-name="Trazado 1307818" d="M0,396.7a4.661,4.661,0,0,0,4.319,2.879H17.435a4.661,4.661,0,0,0,4.319-2.879v-7.355H0Zm2.56-4.8H19.193v4.178a2.39,2.39,0,0,1-.247.313,1.935,1.935,0,0,1-1.511.63H4.319a1.927,1.927,0,0,1-1.425-.544,2.3,2.3,0,0,1-.334-.4Z" transform="translate(0 -347.118)"/>
        <path id="Trazado_1307819" data-name="Trazado 1307819" d="M150.178,59.094H129.7a6.974,6.974,0,0,0-5.143,2.56h-2.534V51.417l.853-5.117H141.22a1.28,1.28,0,0,0,1.28-1.278v-6.4H123.307a1.279,1.279,0,0,0-1.28-1.278H111.791a1.279,1.279,0,0,0-1.28,1.278h-3.839v6.4a1.28,1.28,0,0,0,1.28,1.278h2.986l.853,5.117V61.654h-2.56a1.279,1.279,0,0,0-2.558,0V74.449a1.279,1.279,0,1,0,2.558,0h11.351l-2.38,9.124a3.765,3.765,0,0,0,3.826,4.952,1.279,1.279,0,0,0,2.558,0H148.9a1.279,1.279,0,0,0,2.558,0,1.519,1.519,0,0,0-.009-.161,5.134,5.134,0,0,0,3.848-4.956V64.215a5.134,5.134,0,0,0-5.117-5.121Zm-1.348,2.56h1.348a2.573,2.573,0,0,1,2.558,2.56H142.5v-2.56h6.33Zm-39.6-17.915V41.183H139.94v2.557H109.23ZM114.316,51l-.784-4.7h6.753L119.5,51l-.034.21V61.654h-5.119V51.207ZM109.23,69.332a1.28,1.28,0,0,0,0-2.56,1.278,1.278,0,1,0,0-2.557h2.56v7.677h-2.56a1.28,1.28,0,0,0,0-2.56Zm5.119,2.56V64.215h8.9l-2,7.677Zm37.633,13.319a2.532,2.532,0,0,1-1.805.753H122.027a1.239,1.239,0,0,1-1.35-1.747l5.093-19.523a4.477,4.477,0,0,1,3.934-3.04H139.94v5.117h12.8V83.408A2.538,2.538,0,0,1,151.983,85.211Z" transform="translate(-93.876 -37.344)"/>
        <path id="Trazado_1307820" data-name="Trazado 1307820" d="M286.3,265.183a1.323,1.323,0,0,0-.212.019,3.333,3.333,0,0,0-.171-.412,1.145,1.145,0,0,0,.163-.139,1.279,1.279,0,1,0-1.809-1.809,1.416,1.416,0,0,0-.137.163,3.951,3.951,0,0,0-.412-.169,1.346,1.346,0,0,0,.019-.214,1.279,1.279,0,0,0-2.559,0,1.346,1.346,0,0,0,.019.214,3.963,3.963,0,0,0-.412.169,1.4,1.4,0,0,0-.137-.163,1.279,1.279,0,0,0-1.809,1.809,1.142,1.142,0,0,0,.163.139,3.333,3.333,0,0,0-.171.412,1.327,1.327,0,0,0-.214-.019,1.278,1.278,0,0,0,0,2.557,1.327,1.327,0,0,0,.214-.019,3.331,3.331,0,0,0,.171.412,1.143,1.143,0,0,0-.163.139,1.279,1.279,0,1,0,1.809,1.809,1.416,1.416,0,0,0,.137-.163,3.942,3.942,0,0,0,.412.169,1.346,1.346,0,0,0-.019.214,1.279,1.279,0,0,0,2.559,0,1.346,1.346,0,0,0-.019-.214,3.953,3.953,0,0,0,.412-.169,1.393,1.393,0,0,0,.137.163,1.279,1.279,0,1,0,1.809-1.809,1.142,1.142,0,0,0-.163-.139,3.331,3.331,0,0,0,.171-.412,1.323,1.323,0,0,0,.212.019,1.278,1.278,0,1,0,0-2.557Zm-3.839,2.557a1.278,1.278,0,1,1,1.28-1.278A1.28,1.28,0,0,1,282.458,267.739Z" transform="translate(-244.072 -234.473)"/>
        <path id="Trazado_1307821" data-name="Trazado 1307821" d="M416,241.278A1.28,1.28,0,1,0,417.28,240a1.281,1.281,0,0,0-1.28,1.278Z" transform="translate(-366.097 -215.69)"/>
        <path id="Trazado_1307822" data-name="Trazado 1307822" d="M447.438,241.278a1.279,1.279,0,1,0,1.28-1.278,1.281,1.281,0,0,0-1.28,1.278Z" transform="translate(-393.764 -215.69)"/>
        <path id="Trazado_1307823" data-name="Trazado 1307823" d="M392.958,400H385.28a1.28,1.28,0,1,0,0,2.56h7.677a1.28,1.28,0,0,0,0-2.56Z" transform="translate(-337.936 -356.496)"/>
      </g>
    </g>
  </g>
</svg>
