<svg xmlns="http://www.w3.org/2000/svg" width="85" height="85" viewBox="0 0 85 85">
  <g id="Grupo_1227960" data-name="Grupo 1227960" transform="translate(-919.051 -3090)">
    <rect id="Rectángulo_403131" data-name="Rectángulo 403131" width="85" height="85" transform="translate(919.051 3090)" fill="none"/>
    <g id="_03-Olive_Oil" data-name="03-Olive Oil" transform="translate(930.052 3100)">
      <path id="Trazado_1307962" data-name="Trazado 1307962" d="M44.55,9.45c1.54,1.55-1.25,6.85-2.8,8.39a3.953,3.953,0,1,1-5.59-5.59C37.7,10.7,43,7.91,44.55,9.45Z" fill="#a5e887"/>
      <path id="Trazado_1307963" data-name="Trazado 1307963" d="M41.75,14.84a3.961,3.961,0,0,1-6.456-1.3,3.955,3.955,0,0,0,6.456,4.3c1.5-1.49,4.149-6.492,2.923-8.218A14.834,14.834,0,0,1,41.75,14.84Z" fill="#86c983"/>
      <path id="Trazado_1307964" data-name="Trazado 1307964" d="M52.84,24.25a3.953,3.953,0,1,1-5.59,5.59c-1.55-1.54-4.34-6.84-2.8-8.39S51.3,22.7,52.84,24.25Z" fill="#a5e887"/>
      <path id="Trazado_1307965" data-name="Trazado 1307965" d="M52.84,26.84a3.941,3.941,0,0,1-5.59,0,14.834,14.834,0,0,1-2.923-5.218C43.1,23.348,45.75,28.35,47.25,29.84a3.955,3.955,0,0,0,6.456-4.295A3.938,3.938,0,0,1,52.84,26.84Z" fill="#86c983"/>
      <path id="Trazado_1307966" data-name="Trazado 1307966" d="M40,47H60V57H40Z" fill="#f2f6fc"/>
      <path id="Trazado_1307967" data-name="Trazado 1307967" d="M57,35a2,2,0,0,1,0,4H43a2,2,0,1,1,0-4Z" fill="#ffc247"/>
      <path id="Trazado_1307968" data-name="Trazado 1307968" d="M58.41,36.41A1.955,1.955,0,0,1,57,37H43a2,2,0,0,1-1.721-1A1.963,1.963,0,0,0,41,37a2.006,2.006,0,0,0,2,2H57a1.984,1.984,0,0,0,1.721-3,1.938,1.938,0,0,1-.311.41Z" fill="#ff9500"/>
      <path id="Trazado_1307969" data-name="Trazado 1307969" d="M60,57v4a2.006,2.006,0,0,1-2,2H42a2.006,2.006,0,0,1-2-2V57Z" fill="#fff04a"/>
      <path id="Trazado_1307970" data-name="Trazado 1307970" d="M57,39v3a2.938,2.938,0,0,1,3,3v2H40V45a2.938,2.938,0,0,1,3-3V39Z" fill="#fff04a"/>
      <path id="Trazado_1307971" data-name="Trazado 1307971" d="M56,47h4V57H56Z" fill="#dce1eb"/>
      <path id="Trazado_1307972" data-name="Trazado 1307972" d="M56,57v4a2.006,2.006,0,0,1-2,2h4a2.006,2.006,0,0,0,2-2V57Z" fill="#ffc247"/>
      <path id="Trazado_1307973" data-name="Trazado 1307973" d="M57,42V39H53v3a2.938,2.938,0,0,1,3,3v2h4V45a2.938,2.938,0,0,0-3-3Z" fill="#ffc247"/>
      <path id="Trazado_1307974" data-name="Trazado 1307974" d="M27,1,26,5H20L19,1Z" fill="#966857"/>
      <path id="Trazado_1307975" data-name="Trazado 1307975" d="M24,1,23,5h3l1-4Z" fill="#8d5c4d"/>
      <path id="Trazado_1307976" data-name="Trazado 1307976" d="M16,60H30v3H16Z" fill="#96e8ff"/>
      <path id="Trazado_1307977" data-name="Trazado 1307977" d="M29,5a2,2,0,1,1,0,4H17a2,2,0,1,1,0-4Z" fill="#b5efff"/>
      <path id="Trazado_1307978" data-name="Trazado 1307978" d="M7,15H18.78A17.471,17.471,0,0,1,19,18H9a.979.979,0,0,0-1,1c0,.83,4.77,6.43,6.43,8.35-.63.99-1.26,2.04-1.84,3.18C10.81,28.52,4,20.61,4,18a2.938,2.938,0,0,1,3-3Z" fill="#96e8ff"/>
      <path id="Trazado_1307979" data-name="Trazado 1307979" d="M32,41c0,8-1,15-3,15H17c-2,0-3-7-3-15s6-15,6-15h6S32,33,32,41Z" fill="#fff04a"/>
      <path id="Trazado_1307980" data-name="Trazado 1307980" d="M26,26H23s6,7,6,15-1,15-3,15h3c2,0,3-7,3-15S26,26,26,26Z" fill="#ffda45"/>
      <path id="Trazado_1307981" data-name="Trazado 1307981" d="M20,26h3s-6,7-6,15,1,15,3,15H17c-2,0-3-7-3-15S20,26,20,26Z" fill="#ffff9c"/>
      <path id="Trazado_1307982" data-name="Trazado 1307982" d="M18.78,15C18.27,11.87,17,11.39,17,9H29c0,3-2,3-2,9s9,11,9,23c0,9-1,19-6,19H16c-5,0-6-10-6-19a22.337,22.337,0,0,1,2.59-10.47c.58-1.14,1.21-2.19,1.84-3.18C16.71,23.8,19,21.03,19,18a17.471,17.471,0,0,0-.22-3ZM29,56c2,0,3-7,3-15s-6-15-6-15H20s-6,7-6,15,1,15,3,15Z" fill="#cff9ff"/>
      <path id="Trazado_1307983" data-name="Trazado 1307983" d="M32.343,15H43.657v2H32.343Z" transform="translate(-0.184 31.556) rotate(-45)" fill="#98ba5c"/>
      <path id="Trazado_1307984" data-name="Trazado 1307984" d="M50,22.343h2V33.657H50Z" transform="translate(-4.861 44.263) rotate(-45)" fill="#98ba5c"/>
      <path id="Trazado_1307985" data-name="Trazado 1307985" d="M27,18c0-6,2-6,2-9H26c0,3-2,3-2,9s9,11,9,23c0,9-1,19-6,19h3c5,0,6-10,6-19C36,29,27,24,27,18Z" fill="#96e8ff"/>
      <path id="Trazado_1307986" data-name="Trazado 1307986" d="M28,18a11.436,11.436,0,0,1,1.159-5.75,7.581,7.581,0,0,0,.78-2.413,2.864,2.864,0,0,0,1.169-.711A2.944,2.944,0,0,0,32,7a3,3,0,0,0-3-3H27.281l.689-2.757A1,1,0,0,0,27,0H19a1,1,0,0,0-.97,1.243L18.719,4H17a2.992,2.992,0,0,0-.939,5.835,7.542,7.542,0,0,0,.777,2.408A11.244,11.244,0,0,1,17.528,14H7a3.887,3.887,0,0,0-4,4c0,2.749,5.562,9.45,8.4,12.694A22.992,22.992,0,0,0,9,41c0,12.464,1.968,18.984,6,19.881V63a1,1,0,0,0,1,1H30a1,1,0,0,0,1-1V60.881c4.032-.9,6-7.417,6-19.881,0-7.333-3.224-12.164-5.815-16.045C29.476,22.394,28,20.182,28,18ZM20.281,2h5.438l-.5,2H20.781ZM16.306,6.288A.957.957,0,0,1,17,6H29a1,1,0,0,1,1,1,.974.974,0,0,1-.306.712A.957.957,0,0,1,29,8H17a1,1,0,0,1-1-1,.974.974,0,0,1,.306-.712ZM14.8,24.971c-.155.231-.318.483-.476.721A63.007,63.007,0,0,1,9.06,19h8.832c-.357,1.869-1.634,3.794-3.092,5.971ZM7,16H17.9q.049.469.072,1H9a1.959,1.959,0,0,0-2,2c0,.438.018,1.263,6.193,8.444-.289.468-.554.914-.8,1.344C8.058,23.764,5,19.326,5,18a1.882,1.882,0,0,1,2-2ZM17,62V61H29v1Zm13-3H16c-3.224,0-5-6.393-5-18a21.233,21.233,0,0,1,2.481-10.017c.487-.956,1.057-1.94,1.79-3.092.4-.626.8-1.226,1.193-1.808C18.361,23.246,20,20.8,20,18a18.476,18.476,0,0,0-.233-3.161,11.761,11.761,0,0,0-1.12-3.449A6.926,6.926,0,0,1,18.119,10h9.762a6.937,6.937,0,0,1-.531,1.4A13.311,13.311,0,0,0,26,18c0,2.788,1.632,5.233,3.521,8.065C32.089,29.913,35,34.273,35,41c0,11.607-1.776,18-5,18Z"/>
      <path id="Trazado_1307987" data-name="Trazado 1307987" d="M26,25H20a1,1,0,0,0-.759.349C18.986,25.646,13,32.725,13,41c0,7.3.694,16,4,16H29c3.306,0,4-8.7,4-16,0-8.275-5.986-15.354-6.241-15.651A1,1,0,0,0,26,25Zm3,30-11.95.009C16.408,54.707,15,50.76,15,41c0-6.549,4.321-12.52,5.478-14h5.044C26.679,28.48,31,34.451,31,41,31,50.76,29.592,54.707,29,55Z"/>
      <path id="Trazado_1307988" data-name="Trazado 1307988" d="M58,41.126v-1.31A2.993,2.993,0,0,0,57,34H43a2.993,2.993,0,0,0-1,5.816v1.31A3.788,3.788,0,0,0,39,45V61a3,3,0,0,0,3,3H58a3,3,0,0,0,3-3V45A3.788,3.788,0,0,0,58,41.126ZM43,36H57a1,1,0,0,1,0,2H43a1,1,0,0,1,0-2Zm0,7a1,1,0,0,0,1-1V40H56v2a1,1,0,0,0,1,1,1.882,1.882,0,0,1,2,2v1H41V45a1.882,1.882,0,0,1,2-2Zm16,5v8H41V48ZM58,62H42a1,1,0,0,1-1-1V58H59v3A1,1,0,0,1,58,62Z"/>
      <path id="Trazado_1307989" data-name="Trazado 1307989" d="M45.256,8.744c-2.26-2.263-8.236,1.228-9.8,2.8a4.952,4.952,0,0,0-.635,6.228L33.3,19.3l1.414,1.414,1.524-1.524a4.952,4.952,0,0,0,6.228-.635c1.565-1.571,5.055-7.546,2.793-9.807ZM37.713,17.7l4.994-4.994-1.414-1.414-5,5a2.92,2.92,0,0,1,.577-3.342c1.347-1.348,4.814-2.979,6.347-2.979a.878.878,0,0,1,.629.182c.8.8-1.2,5.379-2.8,6.976a3.033,3.033,0,0,1-3.333.571Z"/>
      <path id="Trazado_1307990" data-name="Trazado 1307990" d="M46.541,30.548a4.952,4.952,0,0,0,6.228.635l1.524,1.524,1.414-1.414-1.524-1.524a4.952,4.952,0,0,0-.635-6.228c-1.568-1.569-7.543-5.055-9.8-2.8s1.224,8.239,2.793,9.807Zm-1.383-8.39a.883.883,0,0,1,.629-.182c1.533,0,5,1.632,6.347,2.979a2.92,2.92,0,0,1,.577,3.342l-5-5L46.3,24.711l4.99,4.989a3.031,3.031,0,0,1-3.332-.567C46.357,27.537,44.359,22.957,45.158,22.158Z"/>
    </g>
  </g>
</svg>
