<svg xmlns="http://www.w3.org/2000/svg" width="85" height="85" viewBox="0 0 85 85">
  <g id="Grupo_1227962" data-name="Grupo 1227962" transform="translate(-1230.051 -3090)">
    <rect id="Rectángulo_403132" data-name="Rectángulo 403132" width="85" height="85" transform="translate(1230.051 3090)" fill="none"/>
    <g id="_x30_2__Olive_Oil_x2C__food_and_restaurant_x2C__healthy_food_x2C__bottle" transform="translate(1207.051 3097)">
      <g id="Grupo_1227961" data-name="Grupo 1227961" transform="translate(36 1)">
        <g id="XMLID_221_" transform="translate(0 0)">
          <path id="XMLID_382_" d="M78.282,129.281,70,121H56.471l-8.281,8.281A4.059,4.059,0,0,0,47,132.152v36.2a4.059,4.059,0,0,0,4.059,4.059H75.412a4.059,4.059,0,0,0,4.059-4.059v-36.2A4.059,4.059,0,0,0,78.282,129.281Z" transform="translate(-45.512 -104.765)" fill="#fed841"/>
          <path id="XMLID_335_" d="M87,211h21.647v33.824H87Z" transform="translate(-80.1 -182.588)" fill="#86e5e0"/>
          <path id="XMLID_331_" d="M130.53,71v6.765H117V71Z" transform="translate(-106.041 -61.529)" fill="#f9851c"/>
          <path id="XMLID_328_" d="M111.883,11a4.059,4.059,0,0,1,0,8.118H101.059a4.059,4.059,0,1,1,0-8.118Z" transform="translate(-88.747 -9.647)" fill="#99490f"/>
          <path id="XMLID_323_" d="M137.863,285.025a5.431,5.431,0,0,1-10.863,0c0-3,5.431-11.465,5.431-11.465S137.863,282.025,137.863,285.025Z" transform="translate(-114.688 -236.684)" fill="#fdb118"/>
          <path id="XMLID_320_" d="M388.242,371c3.362,0,6.088,3.937,6.088,8.794s-2.726,8.794-6.088,8.794a4.921,4.921,0,0,1-3.514-1.611,5.457,5.457,0,0,0,2.837-4.477c0-2.312-1.862-4.324-4.605-5.355a10.177,10.177,0,0,0,2.09-4.841A4.784,4.784,0,0,1,388.242,371Z" transform="translate(-336.018 -320.94)" fill="#0dca63"/>
          <path id="XMLID_314_" d="M299.983,411.733a11.979,11.979,0,0,0-4.189-.733c-4.857,0-8.794,2.726-8.794,6.088s3.937,6.088,8.794,6.088a11.152,11.152,0,0,0,5.957-1.611,5.457,5.457,0,0,0,2.837-4.477C304.588,414.776,302.727,412.764,299.983,411.733Z" transform="translate(-253.041 -355.529)" fill="#65ff78"/>
          <path id="XMLID_305_" d="M300.783,339.439a5.178,5.178,0,0,1,1.291,4.411,10.177,10.177,0,0,1-2.09,4.841,11.979,11.979,0,0,0-4.189-.733c-4.857,0-8.794,2.726-8.794,6.088v-5.722a10.317,10.317,0,0,1,3.259-6.972C293.693,337.918,298.405,337.06,300.783,339.439Z" transform="translate(-253.041 -292.486)" fill="#b0ffb9"/>
          <path id="XMLID_278_" d="M99,201H77.353A1.353,1.353,0,0,0,76,202.353v33.824a1.353,1.353,0,0,0,1.353,1.353H99a1.353,1.353,0,0,0,1.353-1.353V202.353A1.353,1.353,0,0,0,99,201Zm-1.353,33.824H78.706V203.706H97.647Z" transform="translate(-70.588 -173.941)"/>
          <path id="XMLID_272_" d="M122.784,283.161a6.792,6.792,0,0,0,6.784-6.784c0-3.233-4.7-10.727-5.645-12.2a1.354,1.354,0,0,0-2.278,0c-.943,1.47-5.645,8.964-5.645,12.2A6.792,6.792,0,0,0,122.784,283.161Zm0-15.676c1.96,3.283,4.078,7.4,4.078,8.892a4.078,4.078,0,0,1-8.157,0C118.706,274.882,120.825,270.769,122.784,267.485Z" transform="translate(-105.176 -228.035)"/>
          <path id="XMLID_224_" d="M86.151,50.049A5.877,5.877,0,0,0,84.564,47,6.622,6.622,0,0,0,78.5,45.4a12.743,12.743,0,0,0-7.322,4.563V28.387a5.376,5.376,0,0,0-1.585-3.827l-7.886-7.886V11.1A5.41,5.41,0,0,0,59,1H48.177a5.41,5.41,0,0,0-2.706,10.1v5.579l-7.886,7.886A5.376,5.376,0,0,0,36,28.387v36.2A5.418,5.418,0,0,0,41.412,70H65.765a5.416,5.416,0,0,0,4.789-2.9C73.948,70.336,80.1,70.862,84.4,68.69A5.973,5.973,0,0,0,88.089,70c4.709,0,7.441-5.316,7.441-10.147,0-6.953-4.773-11.466-9.379-9.8Zm-7.168-1.988a4.018,4.018,0,0,1,3.667.849c1.4,1.4,1.209,4.172-.38,6.7a12.947,12.947,0,0,0-11.093,1.87v-.64C71.177,53.09,74.964,48.792,78.983,48.061ZM48.177,3.706H59a2.706,2.706,0,1,1,0,5.412H48.177a2.706,2.706,0,0,1,0-5.412ZM59,11.824v4.059H48.177V11.824Zm9.471,52.765A2.709,2.709,0,0,1,65.765,67.3H41.412a2.709,2.709,0,0,1-2.706-2.706v-36.2a2.688,2.688,0,0,1,.793-1.913l7.886-7.886H59.793l7.886,7.886a2.688,2.688,0,0,1,.793,1.913Zm2.706-2.029c0-2.567,3.408-4.735,7.441-4.735s7.441,2.169,7.441,4.735S82.652,67.3,78.618,67.3,71.177,65.126,71.177,62.56ZM86.79,67c3.15-3.115,2.573-7.8-1.986-10.354a11.13,11.13,0,0,0,1.34-3.549,3.317,3.317,0,0,1,1.944-.682c2.567,0,4.735,3.408,4.735,7.441C92.824,64.573,89.847,68.423,86.79,67Z" transform="translate(-36 -1)"/>
          <circle id="XMLID_222_" cx="1.5" cy="1.5" r="1.5" transform="translate(43 60)"/>
        </g>
      </g>
    </g>
  </g>
</svg>
