<svg xmlns="http://www.w3.org/2000/svg" width="65.871" height="41.173" viewBox="0 0 65.871 41.173">
  <g id="Grupo_1227997" data-name="Grupo 1227997" transform="translate(0 -95.986)">
    <g id="Grupo_1227995" data-name="Grupo 1227995" transform="translate(0.965 96.951)">
      <path id="Trazado_1308057" data-name="Trazado 1308057" d="M70.807,142.729H8.134a.634.634,0,0,1-.634-.634V104.12a.634.634,0,0,1,.634-.634H70.807a.634.634,0,0,1,.634.634v37.975A.634.634,0,0,1,70.807,142.729Z" transform="translate(-7.5 -103.486)" fill="#ffeacb"/>
      <path id="Trazado_1308058" data-name="Trazado 1308058" d="M478.044,103.486h-3.178a.634.634,0,0,1,.634.634v37.975a.634.634,0,0,1-.634.634h3.178a.634.634,0,0,0,.634-.634V104.12A.634.634,0,0,0,478.044,103.486Z" transform="translate(-414.738 -103.486)" fill="#ffcd80"/>
    </g>
    <g id="Grupo_1227996" data-name="Grupo 1227996" transform="translate(0 95.986)">
      <path id="Trazado_1308059" data-name="Trazado 1308059" d="M137.8,95.986H84.625a.965.965,0,1,0,0,1.93h52.213v37.313h-8.617a.965.965,0,0,0,0,1.93H137.8a.965.965,0,0,0,.965-.965V96.951A.965.965,0,0,0,137.8,95.986Z" transform="translate(-72.897 -95.986)"/>
      <path id="Trazado_1308060" data-name="Trazado 1308060" d="M51.593,135.229H1.93V97.916H8a.965.965,0,1,0,0-1.93H.965A.965.965,0,0,0,0,96.951v39.243a.965.965,0,0,0,.965.965H51.593a.965.965,0,1,0,0-1.93Z" transform="translate(0 -95.986)"/>
    </g>
  </g>
</svg>
