<svg xmlns="http://www.w3.org/2000/svg" width="67.248" height="60.518" viewBox="0 0 67.248 60.518">
  <g id="_039---Corrosive" data-name="039---Corrosive" transform="translate(0.003 0.001)">
    <g id="Icons" transform="translate(1.12 1.127)">
      <path id="Shape" d="M61,58.275H6a5.067,5.067,0,0,1-4.315-7.609l27.5-48.145a4.958,4.958,0,0,1,8.629,0l27.5,48.145A5.067,5.067,0,0,1,61,58.275Z" transform="translate(-0.999 -0.005)" fill="#fec108"/>
      <path id="Shape-2" data-name="Shape" d="M57.639,58.243H6a5.067,5.067,0,0,1-4.315-7.609l27.5-48.145A4.812,4.812,0,0,1,31.819.27a4.812,4.812,0,0,1,2.634,2.219l27.5,48.145a5.067,5.067,0,0,1-4.315,7.609Z" transform="translate(-0.999 0.027)" fill="#ffdc00"/>
      <g id="Grupo_1227902" data-name="Grupo 1227902" transform="translate(11.096 15.913)">
        <path id="Shape-3" data-name="Shape" d="M19.758,23.382a2.69,2.69,0,0,1,1.649-3.42L37.7,14.268a1.121,1.121,0,0,1,1.428.688l1.032,2.953a1.121,1.121,0,0,1-.688,1.428l-16.29,5.694a2.69,2.69,0,0,1-3.42-1.649Z" transform="translate(-9.849 -14.205)" fill="#607d8b"/>
        <path id="Shape-4" data-name="Shape" d="M44.379,30.463a4.67,4.67,0,0,1-4.4,4.864,4.656,4.656,0,0,1-4.4-4.864c0-1.809,1.987-5.132,2.97-6.646a1.67,1.67,0,0,1,2.869,0C42.7,25.835,44.379,28.794,44.379,30.463Z" transform="translate(-7.923 -13.143)" fill="#607d8b"/>
        <path id="Shape-5" data-name="Shape" d="M51.357,34.663V46.318a1.431,1.431,0,0,1-1.412,1.457H47.782a10.573,10.573,0,0,0-1.009.841c-2.2,2.522-6,2.522-6,2.522H23.833a2.248,2.248,0,0,1-1.67-3.732,2.069,2.069,0,0,1,1.558-.717c14.088-.034,6.37-.034-7.7-.034a2.227,2.227,0,0,1,0-4.449c20.06-.024,18.339-.034-2.88-.034a2.241,2.241,0,1,1,0-4.483h2.835a2.241,2.241,0,0,1,0-4.483c17.273,0,16.648.141,18.312-.392a1.515,1.515,0,0,0,.594-2.409,10.439,10.439,0,0,0-1.872-1.647c-2.118-1.479-4.068-3.183-4.068-4.662s1.412-2.959,2.824-1.479c1.289,1.345,4.763,2.88,8.035,4.259a9.566,9.566,0,0,0-1.255,3.709,4.656,4.656,0,0,0,4.4,4.864,4.426,4.426,0,0,0,4.124-3.194,4.091,4.091,0,0,0,2.869.953,1.431,1.431,0,0,1,1.412,1.457Z" transform="translate(-10.9 -13.264)" fill="#607d8b"/>
      </g>
    </g>
    <g id="Layer_2" transform="translate(-0.003 -0.001)">
      <path id="Shape-6" data-name="Shape" d="M67.413,52.236,39.909,4.089a6.071,6.071,0,0,0-10.577,0L1.829,52.236a6.184,6.184,0,0,0,5.289,9.282H62.125a6.185,6.185,0,0,0,5.289-9.282Zm-5.289,7.04H7.117a3.944,3.944,0,0,1-3.342-5.928L31.279,5.2a3.829,3.829,0,0,1,6.684,0l27.5,48.147a3.943,3.943,0,0,1-3.342,5.928Z" transform="translate(-0.997 -0.999)"/>
      <path id="Shape-7" data-name="Shape" d="M51.057,35.148a3.056,3.056,0,0,1-1.579-.327,6.481,6.481,0,0,0,.112-1.18c0-1.531-1.059-3.966-3.146-7.241a2.783,2.783,0,0,0-4.756,0c-.479.75-.9,1.449-1.265,2.11a33.9,33.9,0,0,1-6.311-3.238L42,22.514a2.241,2.241,0,0,0,1.376-2.856l-1.032-2.952a2.241,2.241,0,0,0-2.856-1.377L23.2,21.027a3.81,3.81,0,1,0,2.511,7.185c3.613-1.266,3.223-1.167,3.223-1.055,0,1.663,1.4,3.384,4.552,5.585a9.312,9.312,0,0,1,1.666,1.464.408.408,0,0,1-.1.6c-1.409.448-.355.336-17.971.336a3.353,3.353,0,0,0-3.066,4.492,3.371,3.371,0,0,0,.069,6.717,3.334,3.334,0,0,0,3.043,4.483h4.66a3.362,3.362,0,0,0,3.152,4.483H41.89c.176,0,4.338-.032,6.819-2.881a6.656,6.656,0,0,1,.56-.481h1.787A2.559,2.559,0,0,0,53.59,49.38V37.725a2.559,2.559,0,0,0-2.533-2.578ZM40.229,17.441,41.262,20.4l-1.831.64-5.69-1.325ZM24.972,26.094a1.569,1.569,0,0,1-1.032-2.953L29.79,21.1l5.69,1.326Zm18.6,1.513a.547.547,0,0,1,.979,0c1.748,2.743,2.793,5,2.793,6.035a3.564,3.564,0,0,1-3.284,3.748,3.542,3.542,0,0,1-3.282-3.749c0-1.036,1.041-3.291,2.793-6.034ZM51.348,49.38a.313.313,0,0,1-.291.336c-2.372,0-2.449-.063-2.832.224a10.708,10.708,0,0,0-1.185,1.009,7.7,7.7,0,0,1-5.151,2.129H24.924a1.121,1.121,0,0,1-.806-1.873.965.965,0,0,1,.721-.352H32.3a1.135,1.135,0,0,0,1.115-1.137A1.121,1.121,0,0,0,32.3,48.6H17.133a1.055,1.055,0,0,1-1-1.1,1.072,1.072,0,0,1,1-1.121h14.04A1.135,1.135,0,0,0,32.3,45.234a1.121,1.121,0,0,0-1.121-1.121H14.254a1.126,1.126,0,0,1,0-2.241H31.176a1.121,1.121,0,0,0,0-2.241H17.087a1.121,1.121,0,0,1,0-2.241c16.726,0,16.674.191,18.684-.455a2.636,2.636,0,0,0,1.06-4.214,11.543,11.543,0,0,0-2.069-1.82c-3.237-2.263-3.586-3.373-3.586-3.743a1.135,1.135,0,0,1,.462-.963c.094-.039.282.1.433.259,1.3,1.352,4.244,2.737,7.336,4.059a8.23,8.23,0,0,0-.866,3.128,5.777,5.777,0,0,0,5.524,5.99,5.426,5.426,0,0,0,4.617-2.719c1.882.848,2.667.129,2.667.814Z" transform="translate(0.207 0.715)"/>
    </g>
  </g>
</svg>
