<svg xmlns="http://www.w3.org/2000/svg" width="49.318" height="54.893" viewBox="0 0 49.318 54.893">
  <g id="Grupo_1227896" data-name="Grupo 1227896" transform="translate(-35 -9)">
    <g id="Grupo_1227894" data-name="Grupo 1227894" transform="translate(36 10)">
      <path id="Trazado_1307761" data-name="Trazado 1307761" d="M220.308,22.21,224.6,22.2V14.3a4.3,4.3,0,1,0-8.6,0v7.918Z" transform="translate(-196.65 -10)" fill="#fff" fill-rule="evenodd"/>
      <path id="Trazado_1307762" data-name="Trazado 1307762" d="M202.511,146.462a2.15,2.15,0,1,1-2.15,2.15,2.15,2.15,0,0,1,2.15-2.15Zm4.294-22.951-4.294.007-4.307.007v20.285a6.45,6.45,0,1,0,8.6-.012V123.511Z" transform="translate(-178.854 -111.308)" fill="#ff5d7d" fill-rule="evenodd"/>
      <circle id="Elipse_13816" data-name="Elipse 13816" cx="2.15" cy="2.15" r="2.15" transform="translate(20.85 38.468) rotate(-67.5)" fill="#ff9eb1"/>
      <path id="Trazado_1307763" data-name="Trazado 1307763" d="M41.107,157.633l14.245-24.7v-9.409a5.867,5.867,0,0,0-.744,1.017L37,155.067a5.859,5.859,0,0,0,4.85,9.134H77.465a5.863,5.863,0,0,0,5.051-8.785l-17.767-30.8a5.817,5.817,0,0,0-.8-1.1v9.4l14.373,24.92a1.023,1.023,0,0,1-.86,1.53H41.852C40.9,159.363,40.593,158.393,41.107,157.633Z" transform="translate(-36.001 -111.308)" fill="#ffda8f" fill-rule="evenodd"/>
      <path id="Trazado_1307764" data-name="Trazado 1307764" d="M95.681,210.982l-14.245,24.7c-.514.76-.211,1.73.745,1.73h35.613a1.023,1.023,0,0,0,.86-1.53l-14.373-24.92v10.887a6.45,6.45,0,1,1-8.6.012Z" transform="translate(-76.33 -189.355)" fill="#ffc144" fill-rule="evenodd"/>
    </g>
    <g id="Grupo_1227895" data-name="Grupo 1227895" transform="translate(36 10)">
      <path id="Trazado_1307765" data-name="Trazado 1307765" d="M55.351,123.525l8.6-.015a5.814,5.814,0,0,1,.8,1.1l17.767,30.8a5.863,5.863,0,0,1-5.051,8.785H41.851A5.859,5.859,0,0,1,37,155.066l17.606-30.524A5.874,5.874,0,0,1,55.351,123.525Z" transform="translate(-36 -111.307)" fill="none" stroke="#000" stroke-linecap="round" stroke-linejoin="round" stroke-miterlimit="22.926" stroke-width="2" fill-rule="evenodd"/>
      <path id="Trazado_1307766" data-name="Trazado 1307766" d="M95.653,211.435,81.436,236.083c-.514.76-.211,1.73.745,1.73h35.613a1.023,1.023,0,0,0,.86-1.53L104.31,211.411" transform="translate(-76.33 -189.758)" fill="none" stroke="#000" stroke-linecap="round" stroke-linejoin="round" stroke-miterlimit="22.926" stroke-width="2" fill-rule="evenodd"/>
      <path id="Trazado_1307767" data-name="Trazado 1307767" d="M206.805,42.491a6.45,6.45,0,1,1-8.6.012V14.3a4.313,4.313,0,0,1,4.3-4.3h0a4.313,4.313,0,0,1,4.3,4.3Z" transform="translate(-178.854 -10)" fill="none" stroke="#000" stroke-linecap="round" stroke-linejoin="round" stroke-miterlimit="22.926" stroke-width="2" fill-rule="evenodd"/>
      <circle id="Elipse_13817" data-name="Elipse 13817" cx="2.15" cy="2.15" r="2.15" transform="translate(21.508 35.154)" fill="none" stroke="#000" stroke-linecap="round" stroke-linejoin="round" stroke-miterlimit="22.926" stroke-width="2"/>
      <path id="Trazado_1307768" data-name="Trazado 1307768" d="M256.061,80.854v-8.44m0-9.675V50" transform="translate(-232.403 -45.7)" fill="none" stroke="#000" stroke-linecap="round" stroke-linejoin="round" stroke-miterlimit="22.926" stroke-width="2" fill-rule="evenodd"/>
      <line id="Línea_3885" data-name="Línea 3885" y2="0.001" transform="translate(23.658 21.877)" fill="none" stroke="#000" stroke-linecap="round" stroke-linejoin="round" stroke-miterlimit="2.613" stroke-width="2"/>
    </g>
  </g>
</svg>
