<svg xmlns="http://www.w3.org/2000/svg" width="60.513" height="60.518" viewBox="0 0 60.513 60.518">
  <g id="Grupo_1227900" data-name="Grupo 1227900" transform="translate(-9.011 -8.991)">
    <g id="Grupo_1227899" data-name="Grupo 1227899" transform="translate(9.867 9.85)">
      <g id="Grupo_1227897" data-name="Grupo 1227897" transform="translate(0 7.196)">
        <path id="Trazado_1307769" data-name="Trazado 1307769" d="M47.66,76.044l26.782,46.389a2.608,2.608,0,0,1-2.259,3.912H18.618a2.608,2.608,0,0,1-2.259-3.912L43.142,76.044a2.608,2.608,0,0,1,4.518,0Z" transform="translate(-16 -74.74)" fill="#636c77" fill-rule="evenodd"/>
        <path id="Trazado_1307770" data-name="Trazado 1307770" d="M77.389,113.448,52.454,156.636h49.87Z" transform="translate(-47.988 -108.706)" fill="#fdcd56" fill-rule="evenodd"/>
        <path id="Trazado_1307771" data-name="Trazado 1307771" d="M191.148,233.146h7.746l-3.7,6.164h7.855l-10.019,13.613,2.35-8.822h-6.794l2.9-6.164H184.26l5.154-10.955h5.155Z" transform="translate(-163.648 -208.332)" fill="#636c77" fill-rule="evenodd"/>
      </g>
      <g id="Grupo_1227898" data-name="Grupo 1227898" transform="translate(32.469 0)">
        <path id="Trazado_1307772" data-name="Trazado 1307772" d="M295.224,16.584l11.994,20.774a1.168,1.168,0,0,1-1.012,1.752H282.219a1.168,1.168,0,0,1-1.012-1.752L293.2,16.584a1.168,1.168,0,0,1,2.023,0Z" transform="translate(-281.047 -16)" fill="#f76c82" fill-rule="evenodd"/>
        <path id="Trazado_1307773" data-name="Trazado 1307773" d="M309.4,34.465,298.351,53.6h22.093Z" transform="translate(-296.231 -32.203)" fill="#fdcd56" fill-rule="evenodd"/>
      </g>
    </g>
    <path id="Trazado_1307774" data-name="Trazado 1307774" d="M54.521,28.533a.98.98,0,1,1,.98.98A.98.98,0,0,1,54.521,28.533Zm.122-2.807V16.319a.858.858,0,0,1,1.715,0v9.407a.858.858,0,1,1-1.715,0ZM36.616,41.444a.858.858,0,0,0,.75,1.274H43.6l-2.92,4.865a.857.857,0,0,0,.735,1.3h6.16l-6.33,8.6,1.184-4.445a.859.859,0,0,0-.829-1.078H36.153l2.326-4.942a.859.859,0,0,0-.777-1.223H31.829l4.347-9.239h3.154Zm4.171-6.606H35.632a.86.86,0,0,0-.777.493L29.7,46.286a.856.856,0,0,0,.775,1.222h5.874L34.027,52.45a.857.857,0,0,0,.775,1.222h5.679l-2.063,7.745a.858.858,0,0,0,.458.993.845.845,0,0,0,.37.085.857.857,0,0,0,.691-.349L49.957,48.532a.858.858,0,0,0-.69-1.366h-6.34l2.92-4.864a.857.857,0,0,0-.735-1.3H38.823l2.715-4.89a.858.858,0,0,0-.75-1.274ZM67.572,66.921a1.748,1.748,0,0,0-.006-1.753l-18.1-31.351H47.2l17.742,30.73a.846.846,0,0,1,0,.858.865.865,0,0,1-.743.429H14.332a.858.858,0,0,1-.743-1.286L38.524,21.359a.857.857,0,0,1,1.485,0L43.6,27.579l1.132-1.96-3.949-6.841a1.749,1.749,0,0,0-3.033,0L10.968,65.168a1.747,1.747,0,0,0,1.515,2.627H66.05A1.743,1.743,0,0,0,67.572,66.921ZM41.752,32.805a2,2,0,0,1,0-2.026l.858-1.485L39.266,23.5,15.817,64.119h46.9l-17.492-30.3H43.507A2,2,0,0,1,41.752,32.805Zm13.48-21.942L43.238,31.636a.309.309,0,0,0,.27.466H67.5a.305.305,0,0,0,.265-.466L55.769,10.863a.308.308,0,0,0-.537,0ZM51.445,33.817H67.5a2.025,2.025,0,0,0,1.752-3.038L57.255,10.005a2.024,2.024,0,0,0-3.509,0L45.722,23.9l-3.455-5.983a3.463,3.463,0,0,0-6,0L9.482,64.31a3.462,3.462,0,0,0,3,5.2H66.05a3.465,3.465,0,0,0,3-5.2Z" fill-rule="evenodd"/>
  </g>
</svg>
