<svg xmlns="http://www.w3.org/2000/svg" width="85" height="85" viewBox="0 0 85 85">
  <g id="Grupo_1227903" data-name="Grupo 1227903" transform="translate(-285.051 -2666)">
    <rect id="Rectángulo_402373" data-name="Rectángulo 402373" width="85" height="85" transform="translate(285.051 2666)" fill="none"/>
    <g id="Layer_30" data-name="Layer 30" transform="translate(296.051 2676)">
      <path id="Trazado_1307779" data-name="Trazado 1307779" d="M53,31h6v4H53Z" fill="#79828a"/>
      <path id="Trazado_1307780" data-name="Trazado 1307780" d="M61,35H51a2,2,0,0,0-2,2V49a8,8,0,0,1-8,8H61a2,2,0,0,0,2-2V37A2,2,0,0,0,61,35Z" fill="#b0c6d9"/>
      <path id="Trazado_1307781" data-name="Trazado 1307781" d="M61,35H60V46a8,8,0,0,1-8,8H47.24A7.984,7.984,0,0,1,41,57H61a2,2,0,0,0,2-2V37A2,2,0,0,0,61,35Z" fill="#95b0c4"/>
      <rect id="Rectángulo_739425" data-name="Rectángulo 739425" width="62" height="6" rx="2" transform="translate(1 57)" fill="#79828a"/>
      <path id="Trazado_1307782" data-name="Trazado 1307782" d="M61,57H60v1a2,2,0,0,1-2,2H1v1a2,2,0,0,0,2,2H61a2,2,0,0,0,2-2V59A2,2,0,0,0,61,57Z" fill="#5f6a72"/>
      <path id="Trazado_1307783" data-name="Trazado 1307783" d="M7,3V13a2,2,0,0,0,2,2H41a8,8,0,0,1,8,8v6a2,2,0,0,0,2,2H61a2,2,0,0,0,2-2V9a8,8,0,0,0-8-8H9A2,2,0,0,0,7,3Z" fill="#b0c6d9"/>
      <path id="Trazado_1307784" data-name="Trazado 1307784" d="M58.951,2.049A7.959,7.959,0,0,1,60,6V20a8,8,0,0,1-8,8H49v1a2,2,0,0,0,2,2H61a2,2,0,0,0,2-2V9a7.993,7.993,0,0,0-4.048-6.95Z" fill="#95b0c4"/>
      <path id="Trazado_1307785" data-name="Trazado 1307785" d="M22,19h4V30H22Z" fill="#79828a"/>
      <path id="Trazado_1307786" data-name="Trazado 1307786" d="M18,15H30v2a2,2,0,0,1-2,2H20a2,2,0,0,1-2-2Z" fill="#79828a"/>
      <path id="Trazado_1307787" data-name="Trazado 1307787" d="M31.414,35a8.006,8.006,0,0,0-6.476-4.94,9.989,9.989,0,0,0-.938.8A10.02,10.02,0,0,1,26.541,35Z" fill="#b0c6d9"/>
      <path id="Trazado_1307788" data-name="Trazado 1307788" d="M24,30.864a9.989,9.989,0,0,0-.938-.8A8.006,8.006,0,0,0,16.586,35h4.873A10.02,10.02,0,0,1,24,30.864Z" fill="#b0c6d9"/>
      <path id="Trazado_1307789" data-name="Trazado 1307789" d="M26.541,35A10.02,10.02,0,0,0,24,30.864,10.02,10.02,0,0,0,21.459,35Z" fill="#e6e6e6"/>
      <path id="Trazado_1307790" data-name="Trazado 1307790" d="M44.95,35H3.05c-.015.334-.05.662-.05,1a21,21,0,0,0,42,0C45,35.662,44.965,35.334,44.95,35Z" fill="#f37882"/>
      <path id="Trazado_1307791" data-name="Trazado 1307791" d="M44.95,35H41.9A20.99,20.99,0,0,1,7.73,49.27,21,21,0,0,0,45,36c0-.338-.035-.666-.05-1Z" fill="#e06170"/>
      <circle id="Elipse_13818" data-name="Elipse 13818" cx="3" cy="3" r="3" transform="translate(53 47)" fill="#f8d54f"/>
      <path id="Trazado_1307792" data-name="Trazado 1307792" d="M61,32a3,3,0,0,0,3-3V9a9.01,9.01,0,0,0-9-9H9A3,3,0,0,0,6,3V13a3,3,0,0,0,3,3h8v1a3,3,0,0,0,3,3h1v9.537A8.969,8.969,0,0,0,15.963,34H3.05a1,1,0,0,0-1,.953l-.02.334C2.015,35.523,2,35.76,2,36A22.025,22.025,0,0,0,14.852,56H3a3,3,0,0,0-3,3v2a3,3,0,0,0,3,3H61a3,3,0,0,0,3-3V59a2.981,2.981,0,0,0-.78-2A2.981,2.981,0,0,0,64,55V37a3,3,0,0,0-3-3H60V32ZM8,13V12H58V10H8V3A1,1,0,0,1,9,2H55a7.008,7.008,0,0,1,7,7v1H60v2h2V29a1,1,0,0,1-1,1H51a1,1,0,0,1-1-1V23a9.01,9.01,0,0,0-9-9H9A1,1,0,0,1,8,13ZM51,34a3,3,0,0,0-3,3V49a7.008,7.008,0,0,1-7,7H33.148A22.025,22.025,0,0,0,46,36c0-.24-.015-.477-.031-.713l-.02-.334a1,1,0,0,0-1-.953H32.037A8.969,8.969,0,0,0,27,29.537V20h1a3,3,0,0,0,3-3V16H41a7.008,7.008,0,0,1,7,7v6a3,3,0,0,0,3,3h1v2Zm-27.815-.433c.064-.111.122-.226.19-.335.137-.217.288-.425.443-.631.056-.074.1-.153.163-.225L24,32.355l.019.021c.059.073.108.153.164.228.155.2.3.412.442.628.068.109.127.224.19.336q.122.213.231.432H22.954C23.027,33.854,23.1,33.709,23.185,33.567ZM27.248,34c-.032-.081-.079-.154-.113-.234-.129-.307-.275-.6-.431-.9-.08-.15-.153-.3-.239-.448a11.209,11.209,0,0,0-.715-1.058c-.039-.052-.069-.111-.11-.163a6.991,6.991,0,0,1,4.1,2.8ZM19,17V16H29v1a1,1,0,0,1-1,1H20A1,1,0,0,1,19,17Zm6,3v9H23V20ZM22.36,31.2c-.041.052-.071.111-.11.163a11.209,11.209,0,0,0-.715,1.058c-.086.146-.159.3-.239.448-.156.294-.3.592-.431.9-.034.08-.081.153-.113.234H18.259a6.991,6.991,0,0,1,4.1-2.8ZM4,36H44A20,20,0,0,1,4,36ZM62,61a1,1,0,0,1-1,1H3a1,1,0,0,1-1-1V59a1,1,0,0,1,1-1H61a1,1,0,0,1,1,1Zm0-24V55a1,1,0,0,1-1,1H46.651A8.989,8.989,0,0,0,50,49V37a1,1,0,0,1,1-1H61A1,1,0,0,1,62,37Zm-4-3H54V32h4Z"/>
      <path id="Trazado_1307793" data-name="Trazado 1307793" d="M6.281,39.176A18.036,18.036,0,0,0,9.452,46.59l1.615-1.18A16.009,16.009,0,0,1,8.25,38.824Z" fill="#fff"/>
      <path id="Trazado_1307794" data-name="Trazado 1307794" d="M11.262,48.706a18.051,18.051,0,0,0,2.149,1.842l1.178-1.615a16.206,16.206,0,0,1-1.91-1.639Z" fill="#fff"/>
      <path id="Trazado_1307795" data-name="Trazado 1307795" d="M56,46a4,4,0,1,0,4,4A4,4,0,0,0,56,46Zm0,6a2,2,0,1,1,2-2A2,2,0,0,1,56,52Z"/>
      <path id="Trazado_1307796" data-name="Trazado 1307796" d="M54,42h4v2H54Z"/>
      <path id="Trazado_1307797" data-name="Trazado 1307797" d="M54,38h4v2H54Z"/>
      <path id="Trazado_1307798" data-name="Trazado 1307798" d="M19,16H29v1H19Z" fill="#5f6a72"/>
    </g>
  </g>
</svg>
