<svg xmlns="http://www.w3.org/2000/svg" width="85" height="85" viewBox="0 0 85 85">
  <g id="Grupo_1228000" data-name="Grupo 1228000" transform="translate(-1230.051 -2211)">
    <rect id="Rectángulo_403132" data-name="Rectángulo 403132" width="85" height="85" transform="translate(1230.051 2211)" fill="none"/>
    <g id="Grupo_1227999" data-name="Grupo 1227999" transform="translate(-7.147 -5.999)">
      <g id="Layer_2_00000100365325810776642000000000653009987484912261_" transform="translate(1242.198 2234)">
        <g id="up_arrow" transform="translate(0 0)">
          <path id="Trazado_1308063" data-name="Trazado 1308063" d="M92.866,51.883A3.372,3.372,0,0,1,89.5,48.516v-27.3l-6.542-.01a3.364,3.364,0,0,1-2.373-5.741L95.1.939a3.355,3.355,0,0,1,4.757,0L114.4,15.483a3.362,3.362,0,0,1-2.383,5.741h-6.836V48.506a3.372,3.372,0,0,1-3.367,3.367H92.866Z" transform="translate(-79.6 0.05)"/>
          <path id="Trazado_1308064" data-name="Trazado 1308064" d="M104.665,10.667,90.151,25.191a2.353,2.353,0,0,0,1.663,4.016l7.556.01V57.524a2.355,2.355,0,0,0,2.353,2.353h8.966a2.355,2.355,0,0,0,2.353-2.353v-28.3h7.85a2.352,2.352,0,0,0,1.663-4.016L107.992,10.667a2.345,2.345,0,0,0-3.327,0Z" transform="translate(-88.458 -8.958)" fill="#ffeacb"/>
        </g>
      </g>
      <g id="Layer_2_00000100365325810776642000000000653009987484912261_2" data-name="Layer_2_00000100365325810776642000000000653009987484912261_" transform="translate(1316.429 2285.933) rotate(180)">
        <g id="up_arrow-2" data-name="up_arrow" transform="translate(0 0)">
          <path id="Trazado_1308063-2" data-name="Trazado 1308063" d="M13.266,51.933A3.372,3.372,0,0,1,9.9,48.566v-27.3l-6.542-.01A3.364,3.364,0,0,1,.984,15.513L15.5.989a3.355,3.355,0,0,1,4.757,0L34.8,15.533a3.362,3.362,0,0,1-2.383,5.741H25.579V48.556a3.372,3.372,0,0,1-3.367,3.367H13.266Z"/>
          <path id="Trazado_1308064-2" data-name="Trazado 1308064" d="M15.208.692.694,15.216a2.353,2.353,0,0,0,1.663,4.016l7.556.01V47.549A2.355,2.355,0,0,0,12.266,49.9h8.966a2.355,2.355,0,0,0,2.353-2.353v-28.3h7.85A2.352,2.352,0,0,0,33.1,15.236L18.534.692a2.345,2.345,0,0,0-3.327,0Z" transform="translate(1 1.017)" fill="#ffeacb"/>
        </g>
      </g>
    </g>
  </g>
</svg>
