<svg xmlns="http://www.w3.org/2000/svg" width="85" height="85" viewBox="0 0 85 85">
  <g id="Grupo_1227952" data-name="Grupo 1227952" transform="translate(-282.051 -3090)">
    <rect id="Rectángulo_402373" data-name="Rectángulo 402373" width="85" height="85" transform="translate(282.051 3090)" fill="none"/>
    <g id="Grupo_1227951" data-name="Grupo 1227951" transform="translate(285.551 3093.5)">
      <g id="Grupo_1227947" data-name="Grupo 1227947" transform="translate(7.5 7.5)">
        <g id="Grupo_1227945" data-name="Grupo 1227945" transform="translate(4.382 0)">
          <path id="Trazado_1307931" data-name="Trazado 1307931" d="M43.268,326.282H63.226a.879.879,0,0,0,.879-.879v-5.777a.879.879,0,0,0-.879-.879H43.268a.879.879,0,0,0-.879.879V325.4A.879.879,0,0,0,43.268,326.282Z" transform="translate(-42.389 -279.658)" fill="#ffe177"/>
          <path id="Trazado_1307932" data-name="Trazado 1307932" d="M236.679,231.234H205.108a.879.879,0,0,1-.879-.879V210.4a.879.879,0,0,1,.879-.879h31.571a.879.879,0,0,1,.879.879v19.958A.879.879,0,0,1,236.679,231.234Z" transform="translate(-183.904 -184.147)" fill="#ffc344"/>
          <path id="Trazado_1307933" data-name="Trazado 1307933" d="M436.379,209.518h-3.768a.879.879,0,0,1,.879.879v19.958a.879.879,0,0,1-.879.879h3.768a.879.879,0,0,0,.879-.879V210.4A.879.879,0,0,0,436.379,209.518Z" transform="translate(-383.603 -184.147)" fill="#feb237"/>
          <path id="Trazado_1307934" data-name="Trazado 1307934" d="M167.155,104.511l5.378,5.378a.461.461,0,0,1,0,.652l-10.726,10.726a12.255,12.255,0,0,1-13.213,2.714h0a.461.461,0,0,1-.155-.755Z" transform="translate(-135.002 -92.327)" fill="#e7efff"/>
          <path id="Trazado_1307935" data-name="Trazado 1307935" d="M193.069,109.889l-5.378-5.378-1.884,1.884,2.488,2.488a1.884,1.884,0,0,1,0,2.664l-9.72,9.72a12.244,12.244,0,0,1-6.786,3.443,12.255,12.255,0,0,0,10.554-3.443l10.726-10.726A.461.461,0,0,0,193.069,109.889Z" transform="translate(-155.538 -92.327)" fill="#d3dbfe"/>
          <path id="Trazado_1307936" data-name="Trazado 1307936" d="M83.886,326.282H91.5c0-.021,0-.042-.006-.064l-1.1-7.471H82.78Z" transform="translate(-77.707 -279.658)" fill="#ffd15b"/>
          <path id="Trazado_1307937" data-name="Trazado 1307937" d="M99.647,216.872l2.9,19.746a.879.879,0,0,0,1,.742l5.716-.839a.879.879,0,0,0,.742-1l-2.9-19.746a.879.879,0,0,0-1-.742l-5.716.839A.879.879,0,0,0,99.647,216.872Z" transform="translate(-92.448 -188.963)" fill="#ffc344"/>
          <path id="Trazado_1307938" data-name="Trazado 1307938" d="M131.032,235.523l-2.9-19.746a.879.879,0,0,0-1-.742l-2.883.423a.877.877,0,0,1,.113.319l2.9,19.746a.879.879,0,0,1-.742,1l-2.833.416a.879.879,0,0,0,.885.423l5.716-.839A.879.879,0,0,0,131.032,235.523Z" transform="translate(-113.479 -188.963)" fill="#feb237"/>
          <path id="Trazado_1307939" data-name="Trazado 1307939" d="M314.039,8.4h0a3.074,3.074,0,0,0-4.348,0L298.408,19.683l4.348,4.348,11.283-11.283A3.074,3.074,0,0,0,314.039,8.4Z" transform="translate(-266.255 -7.5)" fill="#c86d36"/>
          <path id="Trazado_1307940" data-name="Trazado 1307940" d="M331.192,8.41h0a3.073,3.073,0,0,0-4.058-.253,3.088,3.088,0,0,1,.29.253h0a3.074,3.074,0,0,1,0,4.348l-9.4,9.4,1.884,1.884,11.283-11.283A3.074,3.074,0,0,0,331.192,8.41Z" transform="translate(-283.408 -7.509)" fill="#ac5e2e"/>
        </g>
        <g id="Grupo_1227946" data-name="Grupo 1227946" transform="translate(0 46.139)">
          <path id="Trazado_1307941" data-name="Trazado 1307941" d="M150.365,437.028h-32.5a1.256,1.256,0,0,1-1.256-1.256v-8.435h35.012v8.435A1.256,1.256,0,0,1,150.365,437.028Z" transform="translate(-102.906 -420.749)" fill="#e7efff"/>
          <rect id="Rectángulo_739459" data-name="Rectángulo 739459" width="35.012" height="7.39" transform="translate(13.703 6.588)" fill="#d3dbfe"/>
          <path id="Trazado_1307942" data-name="Trazado 1307942" d="M60.209,385.091h-43A9.708,9.708,0,0,1,7.5,375.382h0a.5.5,0,0,1,.5-.5H69.415a.5.5,0,0,1,.5.5h0A9.708,9.708,0,0,1,60.209,385.091Z" transform="translate(-7.5 -374.88)" fill="#e7efff"/>
          <path id="Trazado_1307943" data-name="Trazado 1307943" d="M410.172,374.88H406.4a.5.5,0,0,1,.5.5h0a9.708,9.708,0,0,1-9.708,9.708h3.768a9.708,9.708,0,0,0,9.708-9.708h0A.5.5,0,0,0,410.172,374.88Z" transform="translate(-348.256 -374.88)" fill="#d3dbfe"/>
        </g>
      </g>
      <g id="Grupo_1227950" data-name="Grupo 1227950" transform="translate(7.5 7.5)">
        <g id="Grupo_1227948" data-name="Grupo 1227948" transform="translate(4.382 0)">
          <line id="Línea_3920" data-name="Línea 3920" x1="3.869" transform="translate(16.456 39.09)" fill="none" stroke="#000" stroke-linecap="round" stroke-linejoin="round" stroke-miterlimit="10" stroke-width="1"/>
          <path id="Trazado_1307944" data-name="Trazado 1307944" d="M42.483,325.8a.863.863,0,0,1-.093-.393v-5.777a.878.878,0,0,1,.879-.879H51.23" transform="translate(-42.39 -279.66)" fill="none" stroke="#000" stroke-linecap="round" stroke-linejoin="round" stroke-miterlimit="10" stroke-width="1"/>
          <path id="Trazado_1307945" data-name="Trazado 1307945" d="M284.24,209.52h22.4a.878.878,0,0,1,.879.879v19.888" transform="translate(-253.866 -184.148)" fill="none" stroke="#000" stroke-linecap="round" stroke-linejoin="round" stroke-miterlimit="10" stroke-width="1"/>
          <line id="Línea_3921" data-name="Línea 3921" y1="13.806" transform="translate(20.325 32.333)" fill="none" stroke="#000" stroke-linecap="round" stroke-linejoin="round" stroke-miterlimit="10" stroke-width="1"/>
          <line id="Línea_3922" data-name="Línea 3922" x1="7.74" y2="7.74" transform="translate(15.022 21.575)" fill="none" stroke="#000" stroke-linecap="round" stroke-linejoin="round" stroke-miterlimit="10" stroke-width="1"/>
          <path id="Trazado_1307946" data-name="Trazado 1307946" d="M165.41,124.557a12.253,12.253,0,0,0,11.356-3.29l10.725-10.725a.461.461,0,0,0,0-.653l-5.378-5.378-6.276,6.276" transform="translate(-149.96 -92.327)" fill="none" stroke="#000" stroke-linecap="round" stroke-linejoin="round" stroke-miterlimit="10" stroke-width="1"/>
          <path id="Trazado_1307947" data-name="Trazado 1307947" d="M109.937,235.1,107.1,215.777a.88.88,0,0,0-1-.742l-5.716.839a.88.88,0,0,0-.742,1l2.676,18.23" transform="translate(-92.446 -188.962)" fill="none" stroke="#000" stroke-linecap="round" stroke-linejoin="round" stroke-miterlimit="10" stroke-width="1"/>
          <path id="Trazado_1307948" data-name="Trazado 1307948" d="M314.039,8.4h0a3.074,3.074,0,0,0-4.348,0L298.408,19.683l4.348,4.348,11.283-11.283A3.074,3.074,0,0,0,314.039,8.4Z" transform="translate(-266.255 -7.5)" fill="none" stroke="#000" stroke-linecap="round" stroke-linejoin="round" stroke-miterlimit="10" stroke-width="1"/>
        </g>
        <g id="Grupo_1227949" data-name="Grupo 1227949" transform="translate(0 46.139)">
          <path id="Trazado_1307949" data-name="Trazado 1307949" d="M151.622,456.18v4.813a1.256,1.256,0,0,1-1.256,1.256h-32.5a1.256,1.256,0,0,1-1.256-1.256V456.18" transform="translate(-102.907 -445.97)" fill="none" stroke="#000" stroke-linecap="round" stroke-linejoin="round" stroke-miterlimit="10" stroke-width="1"/>
          <path id="Trazado_1307950" data-name="Trazado 1307950" d="M49.937,374.88H69.415a.5.5,0,0,1,.5.5h0a9.708,9.708,0,0,1-9.708,9.708h-43A9.708,9.708,0,0,1,7.5,375.382h0a.5.5,0,0,1,.5-.5H45.541" transform="translate(-7.5 -374.88)" fill="none" stroke="#000" stroke-linecap="round" stroke-linejoin="round" stroke-miterlimit="10" stroke-width="1"/>
        </g>
      </g>
    </g>
  </g>
</svg>
