<svg xmlns="http://www.w3.org/2000/svg" xmlns:xlink="http://www.w3.org/1999/xlink" width="102" height="102" viewBox="0 0 102 102">
  <defs>
    <filter id="Elipse_11494" x="0" y="0" width="102" height="102" filterUnits="userSpaceOnUse">
      <feOffset dy="3" input="SourceAlpha"/>
      <feGaussianBlur stdDeviation="3" result="blur"/>
      <feFlood flood-opacity="0.161"/>
      <feComposite operator="in" in2="blur"/>
      <feComposite in="SourceGraphic"/>
    </filter>
  </defs>
  <g id="Grupo_1228028" data-name="Grupo 1228028" transform="translate(-486 -3600.751)">
    <g id="Grupo_1227245" data-name="Grupo 1227245" transform="translate(495 3606.751)">
      <g transform="matrix(1, 0, 0, 1, -9, -6)" filter="url(#Elipse_11494)">
        <g id="Elipse_11494-2" data-name="Elipse 11494" transform="translate(9 6)" fill="#e1e7fb" stroke="#fff" stroke-width="4">
          <circle cx="42" cy="42" r="42" stroke="none"/>
          <circle cx="42" cy="42" r="40" fill="none"/>
        </g>
      </g>
    </g>
    <g id="Grupo_1227778" data-name="Grupo 1227778" transform="translate(280.929 3464.7)">
      <g id="Grupo_1227749" data-name="Grupo 1227749" transform="translate(51.56 81.701)">
        <path id="Trazado_1307675" data-name="Trazado 1307675" d="M219.73,87.86a2.446,2.446,0,0,0-2.447-2.445H198.462a2.446,2.446,0,0,0-2.447,2.445v7.508a.489.489,0,0,0,.49.489H219.24a.489.489,0,0,0,.49-.489Z" fill="#fee17d" fill-rule="evenodd"/>
      </g>
      <g id="Grupo_1227750" data-name="Grupo 1227750" transform="translate(51.56 81.701)">
        <path id="Trazado_1307676" data-name="Trazado 1307676" d="M219.73,87.86a2.446,2.446,0,0,0-2.447-2.445H198.462a2.447,2.447,0,0,0-2.447,2.445v7.508a.489.489,0,0,0,.49.489H219.24a.489.489,0,0,0,.49-.489Z" fill="#f0c020" fill-rule="evenodd"/>
      </g>
      <g id="Grupo_1227751" data-name="Grupo 1227751" transform="translate(5.447 3.915)">
        <path id="Trazado_1307677" data-name="Trazado 1307677" d="M242.13,166.957h23.713v3.472H242.13Z" fill="#b34f33" fill-rule="evenodd"/>
      </g>
      <g id="Grupo_1227752" data-name="Grupo 1227752" transform="translate(5.447 3.915)">
        <path id="Trazado_1307678" data-name="Trazado 1307678" d="M242.13,166.957h23.713v3.472H242.13Z" fill="#b34f33" fill-rule="evenodd"/>
      </g>
      <g id="Grupo_1227753" data-name="Grupo 1227753" transform="translate(131.529 35.35)">
        <path id="Trazado_1307679" data-name="Trazado 1307679" d="M120.54,134.69a1.437,1.437,0,0,0-1.108.573,3.433,3.433,0,0,0,0,3.928,1.357,1.357,0,0,0,2.216,0,3.433,3.433,0,0,0,0-3.928A1.437,1.437,0,0,0,120.54,134.69Z" fill="#fb5e3d" fill-rule="evenodd"/>
      </g>
      <g id="Grupo_1227754" data-name="Grupo 1227754" transform="translate(138.835 35.35)">
        <path id="Trazado_1307680" data-name="Trazado 1307680" d="M120.54,134.69a1.437,1.437,0,0,0-1.108.573,3.433,3.433,0,0,0,0,3.928,1.357,1.357,0,0,0,2.216,0,3.433,3.433,0,0,0,0-3.928A1.437,1.437,0,0,0,120.54,134.69Z" fill="#fb5e3d" fill-rule="evenodd"/>
      </g>
      <g id="Grupo_1227755" data-name="Grupo 1227755" transform="translate(146.14 35.35)">
        <path id="Trazado_1307681" data-name="Trazado 1307681" d="M120.54,134.69a1.437,1.437,0,0,0-1.108.573,3.433,3.433,0,0,0,0,3.928,1.357,1.357,0,0,0,2.216,0,3.433,3.433,0,0,0,0-3.928A1.437,1.437,0,0,0,120.54,134.69Z" fill="#fb5e3d" fill-rule="evenodd"/>
      </g>
      <g id="Grupo_1227756" data-name="Grupo 1227756" transform="translate(5.447 3.915)">
        <path id="Trazado_1307682" data-name="Trazado 1307682" d="M263.823,163.34a2.446,2.446,0,0,1,.627,1.635v7.515a.49.49,0,0,1-.49.49H242.13v.286a.489.489,0,0,0,.49.49h22.734a.49.49,0,0,0,.49-.49v-7.515a2.447,2.447,0,0,0-2.021-2.41Z" fill="#e5b40f" fill-rule="evenodd"/>
      </g>
      <g id="Grupo_1227757" data-name="Grupo 1227757" transform="translate(-17.707 -12.271)">
        <path id="Trazado_1307683" data-name="Trazado 1307683" d="M290.465,190.433v0a1.57,1.57,0,0,0-1.57-1.57H265.089a1.57,1.57,0,0,0-1.57,1.57v0a1.57,1.57,0,0,0,1.57,1.57H288.9a1.57,1.57,0,0,0,1.57-1.57Z" fill="#e8f9fc" fill-rule="evenodd"/>
      </g>
      <g id="Grupo_1227758" data-name="Grupo 1227758" transform="translate(5.447 3.915)">
        <path id="Trazado_1307684" data-name="Trazado 1307684" d="M265.856,172.776a1.567,1.567,0,0,1,.216.8v0a1.571,1.571,0,0,1-1.57,1.571h-23.78a1.6,1.6,0,0,0,.244.314,1.571,1.571,0,0,0,1.111.46H265.9a1.571,1.571,0,0,0,1.571-1.57v0a1.571,1.571,0,0,0-1.571-1.57Z" fill="#bbedf6" fill-rule="evenodd"/>
      </g>
      <g id="Grupo_1227759" data-name="Grupo 1227759" transform="translate(5.447 3.915)">
        <path id="Trazado_1307685" data-name="Trazado 1307685" d="M264.449,166.957h1.394v3.472h-1.394Z" fill="#97432b" fill-rule="evenodd"/>
      </g>
      <g id="Grupo_1227760" data-name="Grupo 1227760" transform="translate(58.866 292.666)">
        <path id="Trazado_1307686" data-name="Trazado 1307686" d="M200.564-126.182a1.958,1.958,0,0,0,1.725-2.114,2.8,2.8,0,0,0-.314-1.133,9.756,9.756,0,0,0-1.03-1.609.488.488,0,0,0-.382-.184.488.488,0,0,0-.382.184,9.756,9.756,0,0,0-1.03,1.609,2.8,2.8,0,0,0-.314,1.133A1.958,1.958,0,0,0,200.564-126.182Z" fill="#f56c61" fill-rule="evenodd"/>
      </g>
      <g id="Grupo_1227761" data-name="Grupo 1227761" transform="translate(165.536 155.617)">
        <path id="Trazado_1307687" data-name="Trazado 1307687" d="M96.1,34.683l-.236.01H92.855a.4.4,0,0,0,0,.808h3.084a1.971,1.971,0,0,0,.23-.013L100,35.329a2.015,2.015,0,0,0,1.33-.575l2.78-2.724.078-.132,1.311-2.517a2.02,2.02,0,0,0-1.1-2.832l-.258-.094a2.021,2.021,0,0,0-2.427.872l-2.976,5.036a1.212,1.212,0,0,1-.709.548l-.573.165-.292.36-.011.137s-.009.116,0,0A1.212,1.212,0,0,1,96.1,34.683Z" fill="#fedecf" fill-rule="evenodd"/>
      </g>
      <g id="Grupo_1227762" data-name="Grupo 1227762" transform="translate(165.536 155.617)">
        <path id="Trazado_1307688" data-name="Trazado 1307688" d="M97.608,34.62a2.018,2.018,0,0,0,.345-.978l.087-1.1a2.019,2.019,0,0,0-1.908-2.178l-9.5-.5a2.016,2.016,0,0,0-1.538.592l-5.446,5.471a.4.4,0,0,0,0,.574l7.4,7.22a.4.4,0,0,0,.557.006l3.12-2.894a1.221,1.221,0,0,1,.646-.31l10.549-1.567a2.023,2.023,0,0,0,1.18-.621l4.947-5.3A2.019,2.019,0,0,0,107.737,30l-.211-.148a2.02,2.02,0,0,0-2.57.214l-4.193,4.109a1.209,1.209,0,0,1-.8.345Z" fill="#fedecf" fill-rule="evenodd"/>
      </g>
      <g id="Grupo_1227763" data-name="Grupo 1227763" transform="translate(165.536 155.617)">
        <path id="Trazado_1307689" data-name="Trazado 1307689" d="M107.458,29.808a2.02,2.02,0,0,1-.313,2.314l-4.947,5.3a2.023,2.023,0,0,1-1.18.621L90.469,39.612a1.216,1.216,0,0,0-.646.31L86.7,42.817l.913.913,3.12-2.894a1.221,1.221,0,0,1,.646-.31l10.549-1.567a2.023,2.023,0,0,0,1.18-.621l4.947-5.3A2.019,2.019,0,0,0,107.737,30l-.211-.148-.068-.045Z" fill="#fdad87" fill-rule="evenodd"/>
      </g>
      <g id="Grupo_1227764" data-name="Grupo 1227764" transform="matrix(0.716, 0.698, -0.698, 0.716, 256.143, -173.608)">
        <path id="Trazado_1307690" data-name="Trazado 1307690" d="M260.226,270.717a2.02,2.02,0,0,0-2.02-2.02H247a2.02,2.02,0,0,0-2.02,2.02v6.4a.4.4,0,0,0,.4.4h14.435a.4.4,0,0,0,.4-.4Z" fill="#5c9cee" fill-rule="evenodd"/>
      </g>
      <g id="Grupo_1227765" data-name="Grupo 1227765" transform="translate(165.536 155.617)">
        <path id="Trazado_1307691" data-name="Trazado 1307691" d="M87.825,43.342l-1.252-1.223a2.021,2.021,0,0,1-.178,2.613l-4.471,4.584a.623.623,0,0,1-.488.124l1.382,1.349a.4.4,0,0,0,.278.115h.01a.4.4,0,0,0,.284-.122L87.86,46.2a2.019,2.019,0,0,0-.036-2.856Z" fill="#267be8" fill-rule="evenodd"/>
      </g>
      <g id="Grupo_1227766" data-name="Grupo 1227766" transform="translate(268.147 -190.353) rotate(45)">
        <circle id="Elipse_13810" data-name="Elipse 13810" cx="2.203" cy="2.203" r="2.203" transform="translate(254.464 288.188)" fill="#fff"/>
      </g>
      <g id="Grupo_1227767" data-name="Grupo 1227767" transform="translate(165.522 155.617)">
        <path id="Trazado_1307692" data-name="Trazado 1307692" d="M97.707,34.458a2,2,0,0,0,.246-.816l.087-1.1a2.02,2.02,0,0,0-.494-1.492.4.4,0,1,0-.608.532,1.207,1.207,0,0,1,.3.894l-.087,1.1A1.212,1.212,0,0,1,96.1,34.683l-.236.01H92.855a.4.4,0,0,0,0,.808h3.1c.078,0,4.059-.172,4.059-.172a2.017,2.017,0,0,0,1.33-.575l2.78-2.724.078-.132,1.31-2.517a2.02,2.02,0,0,0-.826-2.707c.017.036.032.073.047.11a2.018,2.018,0,0,1-.09,1.666l-1.311,2.517-.078.133-2.779,2.723a2.022,2.022,0,0,1-1.33.576Z" fill="#fdad87" fill-rule="evenodd"/>
      </g>
      <g id="Grupo_1227768" data-name="Grupo 1227768" transform="translate(5.447 3.915)">
        <path id="Trazado_1307693" data-name="Trazado 1307693" d="M247.2,163.3v-.789a.49.49,0,0,0-.979,0v.789a.49.49,0,0,0,.979,0Zm14.557,0v-.789a.49.49,0,0,0-.979,0v.789a.49.49,0,0,0,.979,0Zm-7.278,0v-.789a.489.489,0,1,0-.979,0v.789a.489.489,0,1,0,.979,0Z" fill-rule="evenodd"/>
      </g>
      <g id="Grupo_1227769" data-name="Grupo 1227769" transform="translate(51.56 292.666)">
        <path id="Trazado_1307694" data-name="Trazado 1307694" d="M200.564-126.182a1.958,1.958,0,0,0,1.725-2.114,2.8,2.8,0,0,0-.314-1.133,9.756,9.756,0,0,0-1.03-1.609.488.488,0,0,0-.382-.184.488.488,0,0,0-.382.184,9.756,9.756,0,0,0-1.03,1.609,2.8,2.8,0,0,0-.314,1.133A1.958,1.958,0,0,0,200.564-126.182Z" fill="#f56c61" fill-rule="evenodd"/>
      </g>
      <g id="Grupo_1227770" data-name="Grupo 1227770" transform="translate(66.171 292.666)">
        <path id="Trazado_1307695" data-name="Trazado 1307695" d="M200.564-126.182a1.958,1.958,0,0,0,1.725-2.114,2.8,2.8,0,0,0-.314-1.133,9.756,9.756,0,0,0-1.03-1.609.488.488,0,0,0-.382-.184.488.488,0,0,0-.382.184,9.756,9.756,0,0,0-1.03,1.609,2.8,2.8,0,0,0-.314,1.133A1.958,1.958,0,0,0,200.564-126.182Z" fill="#f56c61" fill-rule="evenodd"/>
      </g>
      <g id="Grupo_1227776" data-name="Grupo 1227776" transform="translate(5.447 3.915)">
        <g id="Grupo_1227771" data-name="Grupo 1227771">
          <path id="Trazado_1307696" data-name="Trazado 1307696" d="M246.8,157.634a8.756,8.756,0,0,1,.747,1.233,2.8,2.8,0,0,1,.315,1.133,1.958,1.958,0,0,1-1.726,2.114,1.461,1.461,0,0,1-.794-.243,1.643,1.643,0,0,0,1.339.788,1.958,1.958,0,0,0,1.726-2.114,2.821,2.821,0,0,0-.314-1.133,9.78,9.78,0,0,0-1.03-1.609A.488.488,0,0,0,246.8,157.634Z" fill="#dd1d0e" fill-rule="evenodd"/>
        </g>
        <g id="Grupo_1227772" data-name="Grupo 1227772">
          <path id="Trazado_1307697" data-name="Trazado 1307697" d="M254.1,157.634a8.663,8.663,0,0,1,.748,1.233,2.8,2.8,0,0,1,.314,1.133,1.958,1.958,0,0,1-1.725,2.114,1.464,1.464,0,0,1-.795-.243,1.643,1.643,0,0,0,1.34.788,1.959,1.959,0,0,0,1.726-2.114,2.808,2.808,0,0,0-.315-1.133,9.806,9.806,0,0,0-1.029-1.609.5.5,0,0,0-.264-.168Z" fill="#dd1d0e" fill-rule="evenodd"/>
        </g>
        <g id="Grupo_1227773" data-name="Grupo 1227773">
          <path id="Trazado_1307698" data-name="Trazado 1307698" d="M261.413,157.634a8.759,8.759,0,0,1,.747,1.233,2.8,2.8,0,0,1,.315,1.133,1.958,1.958,0,0,1-1.726,2.114,1.467,1.467,0,0,1-.795-.243,1.645,1.645,0,0,0,1.34.788,1.958,1.958,0,0,0,1.726-2.114,2.808,2.808,0,0,0-.315-1.133,9.736,9.736,0,0,0-1.029-1.609.488.488,0,0,0-.263-.168Z" fill="#dd1d0e" fill-rule="evenodd"/>
        </g>
        <g id="Grupo_1227774" data-name="Grupo 1227774">
          <path id="Trazado_1307699" data-name="Trazado 1307699" d="M241.641,165.751v6.582a2.061,2.061,0,0,0-1.624,1.977v.067a2.059,2.059,0,0,0,2.061,2.033H265.9a2.061,2.061,0,0,0,2.061-2.06v0a2.063,2.063,0,0,0-1.624-2.014v-6.582a2.936,2.936,0,0,0-2.937-2.937h-1.031a2.689,2.689,0,0,0,1.144-2.269,3.3,3.3,0,0,0-.363-1.343,10.334,10.334,0,0,0-1.089-1.705.979.979,0,0,0-1.527,0,8.724,8.724,0,0,0-1.089,1.705,3.3,3.3,0,0,0-.363,1.343,2.689,2.689,0,0,0,1.144,2.269h-5.165a2.691,2.691,0,0,0,1.144-2.269,3.3,3.3,0,0,0-.363-1.343,10.407,10.407,0,0,0-1.089-1.705h0a.978.978,0,0,0-1.526,0,8.677,8.677,0,0,0-1.089,1.705,3.3,3.3,0,0,0-.363,1.343,2.69,2.69,0,0,0,1.143,2.269h-5.164a2.69,2.69,0,0,0,1.143-2.269,3.311,3.311,0,0,0-.362-1.343,10.379,10.379,0,0,0-1.09-1.705.978.978,0,0,0-1.526,0h0a10.406,10.406,0,0,0-1.089,1.705,3.3,3.3,0,0,0-.362,1.343,2.69,2.69,0,0,0,1.143,2.269h-1.03a2.935,2.935,0,0,0-2.937,2.937Zm25.338,8.6a1.081,1.081,0,0,1-1.082,1.081H242.077A1.08,1.08,0,0,1,241,174.374v-.054a1.08,1.08,0,0,1,1.082-1.054H265.9a1.081,1.081,0,0,1,1.082,1.08Zm-24.359-3.431v1.369h22.734v-1.369H262.8l-.017.022a1.845,1.845,0,0,1-2.972,0l-.017-.022h-4.272v-.037l-.047.059a1.844,1.844,0,0,1-2.971,0l-.018-.022h-4.3l-.018.022a1.844,1.844,0,0,1-2.971,0l-.018-.022Zm4.059-4.3a.96.96,0,0,1,.73.4,2.951,2.951,0,0,1,0,3.305.871.871,0,0,1-1.46,0,2.951,2.951,0,0,1,0-3.305A.96.96,0,0,1,246.679,166.616Zm7.308,0a.959.959,0,0,1,.729.4,2.946,2.946,0,0,1,0,3.305.871.871,0,0,1-1.46,0,2.951,2.951,0,0,1,0-3.305A.96.96,0,0,1,253.987,166.616Zm7.307,0a.96.96,0,0,1,.73.4,2.951,2.951,0,0,1,0,3.305.872.872,0,0,1-1.461,0,2.951,2.951,0,0,1,0-3.305A.96.96,0,0,1,261.294,166.616Zm-2.034.83h-3.239a4.186,4.186,0,0,1-.018,2.493h3.274a4.186,4.186,0,0,1-.018-2.493Zm-7.308,0h-3.238a4.2,4.2,0,0,1-.019,2.493h3.275a4.2,4.2,0,0,1-.019-2.493Zm-7.307,0H242.62v2.493h2.043a4.2,4.2,0,0,1-.019-2.493Zm18.684,0a4.186,4.186,0,0,1-.018,2.493h2.043v-2.493Zm2.026-.979v-.717a1.957,1.957,0,0,0-1.958-1.958H244.578a1.956,1.956,0,0,0-1.958,1.958v.717h2.512c.02-.027.04-.053.062-.078a1.844,1.844,0,0,1,2.971,0c.021.025.041.051.062.078h4.213c.021-.027.041-.053.062-.078a1.844,1.844,0,0,1,2.971,0c.022.025.042.051.062.078h4.213c.021-.027.041-.053.062-.078a1.845,1.845,0,0,1,2.972,0c.021.025.041.051.062.078Zm-11.367-8.359a9.194,9.194,0,0,1,.969,1.515,2.306,2.306,0,0,1,.267.921,1.283,1.283,0,1,1-2.473,0,2.306,2.306,0,0,1,.267-.921A9.068,9.068,0,0,1,253.987,158.109Zm7.337.038a8.984,8.984,0,0,1,.94,1.476,2.307,2.307,0,0,1,.267.921,1.283,1.283,0,1,1-2.473,0,2.307,2.307,0,0,1,.267-.921,9.144,9.144,0,0,1,.969-1.515C261.252,158.166,261.3,158.162,261.323,158.147Zm-14.674,0c.029.019.077.025.035-.031a9.143,9.143,0,0,1,.963,1.508,2.29,2.29,0,0,1,.267.921,1.282,1.282,0,1,1-2.472,0,2.3,2.3,0,0,1,.266-.921A9.008,9.008,0,0,1,246.649,158.147Z" fill-rule="evenodd"/>
        </g>
        <g id="Grupo_1227775" data-name="Grupo 1227775">
          <path id="Trazado_1307700" data-name="Trazado 1307700" d="M258.618,183.582a2.511,2.511,0,0,0-2.318-1.96l-9.5-.5a2.509,2.509,0,0,0-1.911.735l-4.835,4.858a2.51,2.51,0,0,0-3.318.244l-4.472,4.585a.893.893,0,0,0,.016,1.263l10.333,10.081a.9.9,0,0,0,1.264-.016l4.471-4.585a2.509,2.509,0,0,0,.363-3.032l2.5-2.314a.716.716,0,0,1,.385-.184l10.55-1.567a2.516,2.516,0,0,0,1.467-.77l4.948-5.3a2.51,2.51,0,0,0-.4-3.77c-.6-.416-.286-.2-.3-.2a2.5,2.5,0,0,0-1.571-.385,2.51,2.51,0,0,0-1.591-2.921l-.257-.094a2.51,2.51,0,0,0-3.015,1.083Zm-15.379,18.546-10.211-9.961,4.412-4.522a1.53,1.53,0,0,1,2.165-.027l8.019,7.823a1.531,1.531,0,0,1,.027,2.165Zm24.389-19.959-.272-.19a1.531,1.531,0,0,0-1.915.185l-4.193,4.11a1.7,1.7,0,0,1-1.121.485l-2.356.1a.49.49,0,0,1-.425-.766,1.53,1.53,0,0,0,.261-.741l.087-1.1a1.53,1.53,0,0,0-1.445-1.65l-9.5-.5a1.532,1.532,0,0,0-1.165.449l-4.816,4.838,7.305,7.125,2.467-2.289a1.708,1.708,0,0,1,.908-.436L262,190.222a1.532,1.532,0,0,0,.895-.47l4.948-5.3a1.531,1.531,0,0,0-.215-2.279Zm-2.593-.941.17-.326a1.531,1.531,0,0,0-.836-2.146l-.252-.091h0l-.008,0a1.532,1.532,0,0,0-1.84.661l-2.975,5.036a1.706,1.706,0,0,1-.679.644l-.033.425a2.536,2.536,0,0,1-.07.417l1.573-.065a.726.726,0,0,0,.476-.207l4.194-4.11a2.624,2.624,0,0,1,.278-.236Z" fill-rule="evenodd"/>
        </g>
      </g>
      <g id="Grupo_1227777" data-name="Grupo 1227777" transform="translate(268.147 -190.353) rotate(45)">
        <path id="Trazado_1307701" data-name="Trazado 1307701" d="M256.667,287.7a2.692,2.692,0,1,0,2.693,2.693A2.694,2.694,0,0,0,256.667,287.7Zm0,.978a1.714,1.714,0,1,1-1.713,1.715A1.715,1.715,0,0,1,256.667,288.676Z" fill-rule="evenodd"/>
      </g>
    </g>
  </g>
</svg>
