<svg xmlns="http://www.w3.org/2000/svg" xmlns:xlink="http://www.w3.org/1999/xlink" width="102" height="102" viewBox="0 0 102 102">
  <defs>
    <filter id="Elipse_11494" x="0" y="0" width="102" height="102" filterUnits="userSpaceOnUse">
      <feOffset dy="3" input="SourceAlpha"/>
      <feGaussianBlur stdDeviation="3" result="blur"/>
      <feFlood flood-opacity="0.161"/>
      <feComposite operator="in" in2="blur"/>
      <feComposite in="SourceGraphic"/>
    </filter>
  </defs>
  <g id="Grupo_1228029" data-name="Grupo 1228029" transform="translate(-801 -3600.751)">
    <g id="Grupo_1227247" data-name="Grupo 1227247" transform="translate(810 3606.751)">
      <g transform="matrix(1, 0, 0, 1, -9, -6)" filter="url(#Elipse_11494)">
        <g id="Elipse_11494-2" data-name="Elipse 11494" transform="translate(9 6)" fill="#e1e7fb" stroke="#fff" stroke-width="4">
          <circle cx="42" cy="42" r="42" stroke="none"/>
          <circle cx="42" cy="42" r="40" fill="none"/>
        </g>
      </g>
    </g>
    <g id="Grupo_1227780" data-name="Grupo 1227780" transform="translate(801.919 3620.751)">
      <path id="Trazado_1307702" data-name="Trazado 1307702" d="M304.847,28.038h1.781V31.3h-1.781Z" transform="translate(-251.468 -20.099)" fill="#a3a3cc"/>
      <path id="Trazado_1307703" data-name="Trazado 1307703" d="M180.635,61.861l3.051,1.266,1.52-1.019,3.678,3.678-1.019,1.52,1.266,3.051,1.794.354v5.2l-1.794.354-1.266,3.051,1.019,1.52-3.678,3.678-1.52-1.019-3.051,1.266-.354,1.794h-5.2l-.354-1.794-3.051-1.266-1.52,1.019-3.678-3.678,1.019-1.52-1.266-3.051-1.794-.354v-5.2l1.794-.354,1.266-3.051-1.019-1.52,3.678-3.678,1.52,1.019,3.051-1.266.354-1.794h5.2Z" transform="translate(-123.414 -49.309)" fill="#f89b00" fill-rule="evenodd"/>
      <path id="Trazado_1307704" data-name="Trazado 1307704" d="M190.245,61.861l3.413,1.416,1.393-.934,3.443,3.443-1.019,1.52,1.266,3.051,1.794.354v5.2l-1.794.354-1.266,3.051,1.019,1.52-3.443,3.443-1.393-.934-3.413,1.416-.354,1.794h-4.555l-.379-1.921-3.318-1.376-1.319.885-3.306-3.306,1.019-1.52-1.266-3.051-1.794-.354v-5.2l1.794-.354,1.266-3.051-1.019-1.52,3.306-3.306,1.319.885,3.318-1.376.379-1.921h4.555Z" transform="translate(-133.023 -49.309)" fill="#f9ac00" fill-rule="evenodd"/>
      <circle id="Elipse_13811" data-name="Elipse 13811" cx="9.061" cy="9.061" r="9.061" transform="translate(45.206 14.941)" fill="#d3d3f2"/>
      <path id="Trazado_1307705" data-name="Trazado 1307705" d="M220.733,125.772a9.06,9.06,0,1,1,8.764-9.056A9.061,9.061,0,0,1,220.733,125.772Z" transform="translate(-166.763 -92.715)" fill="#e9e9ff" fill-rule="evenodd"/>
      <path id="Trazado_1307706" data-name="Trazado 1307706" d="M305.791,202.116a.885.885,0,1,0-.885-.886A.887.887,0,0,0,305.791,202.116Z" transform="translate(-251.522 -177.243)" fill="#f9ac00" fill-rule="evenodd"/>
      <rect id="Rectángulo_739408" data-name="Rectángulo 739408" width="6.116" height="2.033" rx="1.017" transform="translate(51.212 6.44)" fill="#5d689e"/>
      <g id="Grupo_1227779" data-name="Grupo 1227779" transform="translate(29.115 6)">
        <path id="Trazado_1307707" data-name="Trazado 1307707" d="M97.064,302.093c-.061-1.076-.912-2.118-2.819-2.169a59.156,59.156,0,0,1-7.163-.546c-1.949-.238-3.558.971-5.036,2.263a38.485,38.485,0,0,1-6.817,4.812l6.388,7.311c3.151-3.3,5.047-3.6,8.237-3.535,3,.058,3.357.279,6.281-.976l12.919-6.053c3.268-1.531,1.035-4.721-1.614-3.541a59.81,59.81,0,0,1-10.532,3.4,2.1,2.1,0,0,0,.156-.963Z" transform="translate(-71.171 -273.534)" fill="#fdd7ad" fill-rule="evenodd"/>
        <path id="Trazado_1307708" data-name="Trazado 1307708" d="M146.763,303.711a2.226,2.226,0,0,0-1.776-2.02,2.421,2.421,0,0,1,.549,1.394,1.216,1.216,0,0,1-.355,1c-1.251,1.247-5.184,1.01-7.073.9-.32-.019-.6-.036-.827-.045a.745.745,0,0,0-.056,1.488c.213.008.483.024.794.043,3.139.19,6.623.26,8.214-1.327a2.688,2.688,0,0,0,.374-.464,2.1,2.1,0,0,0,.156-.963Zm-17.039,9.93.912-.906c2.939-2.74,5.545-2.662,8.366-2.607,2.463.044,3.574.453,6.045-.605l13.374-6.172c.956-.448,1.387-1.086,1.122-1.665a1.418,1.418,0,0,0-.561-.564c1.583.479,2.216,2.552-.229,3.7l-12.919,6.053c-2.923,1.255-3.282,1.033-6.281.976-3.19-.061-5.086.234-8.237,3.535l-1.593-1.741Z" transform="translate(-120.871 -275.152)" fill="#e6b17c" fill-rule="evenodd"/>
        <path id="Trazado_1307709" data-name="Trazado 1307709" d="M34.4,376.387l6.307,7.219a1.2,1.2,0,0,0,1.69.114l1.924-1.681a1.2,1.2,0,0,0,.114-1.69l-6.307-7.219a1.2,1.2,0,0,0-1.69-.114L34.518,374.7a1.2,1.2,0,0,0-.114,1.69Z" transform="translate(-33.67 -340.45)" fill="#2a92fa" fill-rule="evenodd"/>
        <path id="Trazado_1307710" data-name="Trazado 1307710" d="M94.022,442.756l1.329,1.522a1.2,1.2,0,0,0,1.69.114l1.924-1.681a1.2,1.2,0,0,0,.114-1.69l-1.549-1.773-3.509,3.509Z" transform="translate(-88.31 -401.123)" fill="#0e82f5" fill-rule="evenodd"/>
        <path id="Trazado_1307711" data-name="Trazado 1307711" d="M68.065,33.2a1.845,1.845,0,0,0-2.514-.672,61.821,61.821,0,0,1-10.4,3.384,2.378,2.378,0,0,1-.4.521c-1.627,1.621-5.755,1.371-7.973,1.237-.313-.018-.583-.035-.8-.043a.44.44,0,0,1,.034-.88c.226.009.5.025.819.045,1.932.117,5.952.361,7.3-.981a1.521,1.521,0,0,0,.443-1.229c-.047-.817-.7-1.707-2.388-1.752a59.633,59.633,0,0,1-7.2-.55c-1.8-.222-3.3.943-4.688,2.154a36.415,36.415,0,0,1-6.039,4.354l5.65,6.467c2.984-2.889,4.994-3.069,7.906-3.012.408.008.77.019,1.09.029a8.7,8.7,0,0,0,4.995-.963l12.9-6.04c1.123-.526,1.609-1.317,1.268-2.065ZM39.55,46.184a.761.761,0,0,1-.072,1.069l-1.923,1.68a.761.761,0,0,1-1.069-.072l-6.3-7.216a.76.76,0,0,1,.072-1.069l1.923-1.68a.751.751,0,0,1,.5-.186l.053,0a.754.754,0,0,1,.519.256l6.305,7.216ZM52.2,31.95c-.481-.012-.914-.025-1.313-.041a8.614,8.614,0,1,1,3.485.689A3.79,3.79,0,0,0,52.2,31.95Zm-8.546-.488-.012-.012.817-1.218a.439.439,0,0,0,.041-.414L43.239,26.77a.438.438,0,0,0-.321-.263l-1.437-.283V21.751l1.437-.284a.438.438,0,0,0,.321-.263L44.5,18.157a.439.439,0,0,0-.041-.414l-.817-1.218,3.162-3.163,1.218.817a.441.441,0,0,0,.414.042l3.048-1.265a.438.438,0,0,0,.263-.321l.284-1.438h4.473l.284,1.438a.438.438,0,0,0,.263.321L60.1,14.221a.441.441,0,0,0,.414-.042l1.218-.817,3.163,3.163-.817,1.218a.439.439,0,0,0-.04.414L65.3,21.2a.439.439,0,0,0,.321.263l1.438.284v4.473l-1.438.283a.438.438,0,0,0-.321.263l-1.264,3.047a.439.439,0,0,0,.04.414l.817,1.218-.7.7a64.58,64.58,0,0,1-8.755,2.806,2.837,2.837,0,0,0,.006-.424,2.567,2.567,0,0,0-.317-1.092A9.487,9.487,0,1,0,48.883,31.8c-1.127-.081-2.182-.2-3.793-.4a4.52,4.52,0,0,0-1.433.055ZM53.819,10.317h.9v-1.4h-.9ZM51.652,8.033h5.235V6.88H51.652ZM67.17,36.064,54.264,42.107l-.013.006a9.543,9.543,0,0,1-5.375,1.038c-.317-.01-.677-.021-1.081-.029-2.955-.058-4.666.209-7.349,2.834a1.638,1.638,0,0,1-.388,1.959L38.134,49.6a1.622,1.622,0,0,1-1.074.4c-.037,0-.075,0-.113,0a1.63,1.63,0,0,1-1.123-.555l-6.3-7.216a1.64,1.64,0,0,1,.155-2.31L31.6,38.234a1.638,1.638,0,0,1,2.031-.1,36.163,36.163,0,0,0,6.087-4.366,11.033,11.033,0,0,1,3-2.025.439.439,0,0,1,0-.487l.887-1.323-1.084-2.613-1.561-.308a.44.44,0,0,1-.355-.431v-5.2a.439.439,0,0,1,.355-.431l1.561-.308L43.6,18.037l-.887-1.323a.44.44,0,0,1,.055-.556l3.674-3.674A.44.44,0,0,1,47,12.43l1.323.887,2.612-1.083.308-1.561a.44.44,0,0,1,.431-.356h1.267v-1.4h-1.3a.871.871,0,0,1-.869-.87V6.87A.87.87,0,0,1,51.641,6H56.9a.871.871,0,0,1,.869.87V8.043a.871.871,0,0,1-.869.87H55.6v1.4h1.267a.439.439,0,0,1,.431.356l.308,1.561,2.613,1.083,1.323-.887a.44.44,0,0,1,.556.055l3.674,3.674a.44.44,0,0,1,.055.556l-.887,1.323,1.083,2.613,1.561.308a.439.439,0,0,1,.356.431v5.2a.44.44,0,0,1-.356.431l-1.561.308L64.94,29.937l.887,1.323a.44.44,0,0,1,.073.236,2.609,2.609,0,0,1,2.965,1.341c.456,1,.108,2.383-1.7,3.227ZM53.824,23.988a.446.446,0,1,0,.446-.446A.446.446,0,0,0,53.824,23.988Zm-.88,0a1.326,1.326,0,1,0,1.766-1.25V19.284a.44.44,0,0,0-.88,0v3.454a1.327,1.327,0,0,0-.886,1.25Zm-2.265-7.1a.44.44,0,1,0-.762.44l.334.579a.44.44,0,0,0,.762-.44l-.335-.579Zm-2.49,3.081-.579-.334a.44.44,0,0,0-.44.762l.579.334a.44.44,0,1,0,.44-.762Zm-.754,4.019a.44.44,0,0,0-.44-.44h-.668a.44.44,0,1,0,0,.88h.668A.44.44,0,0,0,47.435,23.987Zm.314,3.256-.578.334a.44.44,0,1,0,.439.762l.579-.335a.44.44,0,1,0-.44-.762Zm3.1,2.663a.44.44,0,0,0-.6.161l-.334.579a.44.44,0,0,0,.161.6.445.445,0,0,0,.22.059.438.438,0,0,0,.381-.22l.335-.579a.441.441,0,0,0-.161-.6Zm3.418.916a.44.44,0,0,1,.44.44v.668a.44.44,0,0,1-.88,0v-.668A.439.439,0,0,1,54.27,30.823Zm3.59.264a.439.439,0,0,0,.381.22.445.445,0,0,0,.22-.059.44.44,0,0,0,.161-.6l-.335-.579a.44.44,0,0,0-.762.44l.335.579Zm2.489-3.081.579.335a.44.44,0,0,0,.44-.762l-.579-.334a.44.44,0,1,0-.44.762Zm.755-4.018a.44.44,0,0,0,.44.44h.668a.44.44,0,1,0,0-.88h-.668A.44.44,0,0,0,61.1,23.988Zm-.534-3.2a.436.436,0,0,0,.219-.059l.579-.334a.44.44,0,0,0-.44-.762l-.579.334a.44.44,0,0,0,.221.821Zm-2.884-2.722a.445.445,0,0,0,.22.059.439.439,0,0,0,.381-.22l.335-.579a.44.44,0,1,0-.762-.44l-.335.579a.441.441,0,0,0,.161.6ZM53.83,16.712a.44.44,0,0,0,.88,0v-.668a.44.44,0,1,0-.88,0Z" transform="translate(-29.115 -6)" fill-rule="evenodd"/>
      </g>
    </g>
  </g>
</svg>
