<svg xmlns="http://www.w3.org/2000/svg" xmlns:xlink="http://www.w3.org/1999/xlink" width="102" height="102" viewBox="0 0 102 102">
  <defs>
    <filter id="Elipse_11494" x="0" y="0" width="102" height="102" filterUnits="userSpaceOnUse">
      <feOffset dy="3" input="SourceAlpha"/>
      <feGaussianBlur stdDeviation="3" result="blur"/>
      <feFlood flood-opacity="0.161"/>
      <feComposite operator="in" in2="blur"/>
      <feComposite in="SourceGraphic"/>
    </filter>
  </defs>
  <g id="Grupo_1228022" data-name="Grupo 1228022" transform="translate(-171 -3670.11)">
    <g id="Grupo_1224538" data-name="Grupo 1224538" transform="translate(180 3676.11)">
      <g transform="matrix(1, 0, 0, 1, -9, -6)" filter="url(#Elipse_11494)">
        <g id="Elipse_11494-2" data-name="Elipse 11494" transform="translate(9 6)" fill="#e1e7fb" stroke="#fff" stroke-width="4">
          <circle cx="42" cy="42" r="42" stroke="none"/>
          <circle cx="42" cy="42" r="40" fill="none"/>
        </g>
      </g>
    </g>
    <g id="Grupo_1228008" data-name="Grupo 1228008" transform="translate(192.051 3688.952)">
      <path id="Trazado_1308065" data-name="Trazado 1308065" d="M29,20.621h5.429v5.771H29Z" transform="translate(-1.714 -1.869)" fill="#758190"/>
      <path id="Trazado_1308066" data-name="Trazado 1308066" d="M33.143,20.621H29v5.771h.338A17.542,17.542,0,0,0,33.143,20.621Z" transform="translate(-1.714 -1.869)" fill="#8892a0"/>
      <path id="Trazado_1308067" data-name="Trazado 1308067" d="M42.762,17.238H17.429A5.428,5.428,0,0,1,12,11.81,1.809,1.809,0,0,1,13.81,10H46.381a1.809,1.809,0,0,1,1.81,1.81A5.428,5.428,0,0,1,42.762,17.238Z" transform="translate(-0.095 -0.857)" fill="#d5cec2"/>
      <path id="Trazado_1308068" data-name="Trazado 1308068" d="M23,18l.42.42a10.921,10.921,0,0,0,15.446,0l.42-.42" transform="translate(-1.143 -1.619)" fill="#a8b0bc"/>
      <path id="Trazado_1308069" data-name="Trazado 1308069" d="M44.762,54.952H15.81A1.809,1.809,0,0,1,14,53.143V42.286a16.286,16.286,0,1,1,32.571,0V53.143A1.809,1.809,0,0,1,44.762,54.952Z" transform="translate(-0.286 -2.381)" fill="#a8b0bc"/>
      <path id="Trazado_1308070" data-name="Trazado 1308070" d="M30.286,26A16.286,16.286,0,0,0,14,42.286V53.143a1.809,1.809,0,0,0,1.81,1.81H35.021a22.832,22.832,0,0,0,5.12-25.61A16.2,16.2,0,0,0,30.286,26Z" transform="translate(-0.286 -2.381)" fill="#c1c8d1"/>
      <path id="Trazado_1308071" data-name="Trazado 1308071" d="M20.251,29.727l-.326-.326A3.2,3.2,0,0,0,15.4,33.925l.693.693-.005,0A16.347,16.347,0,0,1,20.251,29.727Z" transform="translate(-0.33 -2.616)" fill="#8892a0"/>
      <path id="Trazado_1308072" data-name="Trazado 1308072" d="M47.292,34.623l.7-.7A3.2,3.2,0,1,0,43.466,29.4l-.326.326A16.357,16.357,0,0,1,47.3,34.616Z" transform="translate(-3.061 -2.616)" fill="#758190"/>
      <path id="Trazado_1308073" data-name="Trazado 1308073" d="M16,58v1.81a1.809,1.809,0,0,0,1.81,1.81H43.143a1.809,1.809,0,0,0,1.81-1.81V58" transform="translate(-0.476 -5.429)" fill="#f2c351"/>
      <circle id="Elipse_13845" data-name="Elipse 13845" cx="10" cy="10" r="10" transform="translate(20 29.048)" fill="#e7e4dd"/>
      <path id="Trazado_1308074" data-name="Trazado 1308074" d="M33.523,37.313l-.9-1.81A.942.942,0,0,0,31,35.5l-.9,1.81a.9.9,0,0,0,.809,1.309v2.567h1.809l0-2.567a.9.9,0,0,0,.809-1.309Z" transform="translate(-1.81 -3.242)" fill="#e47c6e"/>
      <g id="Grupo_1228005" data-name="Grupo 1228005" transform="translate(29.095 40.137)">
        <path id="Trazado_1308075" data-name="Trazado 1308075" d="M31,44.257h1.809v6.1H31Z" transform="translate(-31 -44.257)" fill="#e47c6e"/>
      </g>
      <g id="Grupo_1228006" data-name="Grupo 1228006" transform="translate(20.048 29.048)">
        <path id="Trazado_1308076" data-name="Trazado 1308076" d="M32.809,32.045c-.3-.026-.6-.045-.9-.045s-.606.019-.9.045v1.763h1.809Z" transform="translate(-21.952 -32)" fill="#c66b60"/>
        <path id="Trazado_1308077" data-name="Trazado 1308077" d="M31,53.764c.3.027.6.045.9.045s.605-.019.9-.045V52H31Z" transform="translate(-21.952 -33.905)" fill="#c66b60"/>
        <path id="Trazado_1308078" data-name="Trazado 1308078" d="M41,43.809h1.764c.026-.3.045-.6.045-.9s-.019-.606-.045-.9H41Z" transform="translate(-22.905 -32.952)" fill="#c66b60"/>
        <path id="Trazado_1308079" data-name="Trazado 1308079" d="M21.045,43.81h1.762V42H21.045c-.027.3-.045.6-.045.9S21.019,43.511,21.045,43.81Z" transform="translate(-21 -32.952)" fill="#c66b60"/>
        <path id="Trazado_1308080" data-name="Trazado 1308080" d="M40.185,49.905l-1.249-1.249-1.28,1.28L38.9,51.186A9.893,9.893,0,0,0,40.185,49.905Z" transform="translate(-22.586 -33.586)" fill="#c66b60"/>
        <path id="Trazado_1308081" data-name="Trazado 1308081" d="M23.548,35.828,24.8,37.077l1.28-1.28-1.249-1.249A10.067,10.067,0,0,0,23.548,35.828Z" transform="translate(-21.243 -32.243)" fill="#c66b60"/>
        <path id="Trazado_1308082" data-name="Trazado 1308082" d="M38.9,34.547,37.655,35.8l1.28,1.28,1.249-1.249A10.067,10.067,0,0,0,38.9,34.547Z" transform="translate(-22.586 -32.243)" fill="#c66b60"/>
        <path id="Trazado_1308083" data-name="Trazado 1308083" d="M23.548,49.9a10.008,10.008,0,0,0,1.28,1.28l1.249-1.249-1.28-1.28Z" transform="translate(-21.243 -33.586)" fill="#c66b60"/>
      </g>
      <circle id="Elipse_13846" data-name="Elipse 13846" cx="2" cy="2" r="2" transform="translate(28 37.048)" fill="#243242"/>
      <path id="Trazado_1308084" data-name="Trazado 1308084" d="M35.212,58H16v1.81a1.809,1.809,0,0,0,1.81,1.81H30.272A22.923,22.923,0,0,0,35.212,58Z" transform="translate(-0.476 -5.429)" fill="#f7d881"/>
      <path id="Trazado_1308085" data-name="Trazado 1308085" d="M23,18l.42.42a10.923,10.923,0,0,0,7.723,3.2c.294,0,.586-.02.877-.043A17.339,17.339,0,0,0,33.329,18Z" transform="translate(-1.143 -1.619)" fill="#c1c8d1"/>
      <path id="Trazado_1308086" data-name="Trazado 1308086" d="M12,11.81a5.428,5.428,0,0,0,5.429,5.429H32.282a17.5,17.5,0,0,0,.527-4.2A17.52,17.52,0,0,0,32.528,10H13.81A1.809,1.809,0,0,0,12,11.81Z" transform="translate(-0.095 -0.857)" fill="#e7e4dd"/>
      <path id="Trazado_1308087" data-name="Trazado 1308087" d="M40.9,9.238,35.586,3.919a6.553,6.553,0,0,0-9.267,0L21,9.238" transform="translate(-0.952 -0.095)" fill="#f7d881"/>
      <g id="Grupo_1228007" data-name="Grupo 1228007" transform="translate(11 1)">
        <path id="Trazado_1308088" data-name="Trazado 1308088" d="M30.857,31A10.857,10.857,0,1,0,41.713,41.857,10.869,10.869,0,0,0,30.857,31Zm9,11.762a9,9,0,0,1-2,4.817l-.6-.6-1.28,1.28.6.6a9,9,0,0,1-4.817,2V50H29.952v.859a9,9,0,0,1-4.817-2l.6-.6-1.28-1.28-.6.6a9,9,0,0,1-2-4.817h.857v-1.81h-.857a9,9,0,0,1,2-4.817l.6.6,1.28-1.28-.6-.6a9.012,9.012,0,0,1,4.817-2v.86h1.809v-.859a9,9,0,0,1,4.817,2l-.6.6,1.28,1.28.6-.6a9.012,9.012,0,0,1,2,4.817H39v1.81Z" transform="translate(-11.857 -3.857)"/>
        <path id="Trazado_1308089" data-name="Trazado 1308089" d="M32.618,39.695V38.623a.9.9,0,0,0,.81-1.309l-.9-1.81a.942.942,0,0,0-1.618,0l-.9,1.81a.9.9,0,0,0,.809,1.309V39.7a2.7,2.7,0,0,0,0,5.095v4.69h1.809V44.79a2.7,2.7,0,0,0,0-5.1Zm-.9,3.453a.9.9,0,1,1,.9-.9A.905.905,0,0,1,31.714,43.147Z" transform="translate(-12.714 -4.242)"/>
        <path id="Trazado_1308090" data-name="Trazado 1308090" d="M45.568,31.948a4.1,4.1,0,0,0-2.9-7.006,4.059,4.059,0,0,0-2.659,1A16.981,16.981,0,0,0,33.618,23.1V20.335a11.763,11.763,0,0,0,4.743-2.894l.156-.155h4.15A6.343,6.343,0,0,0,49,10.952a2.718,2.718,0,0,0-2.714-2.714H40.328L35.274,3.184a7.46,7.46,0,0,0-10.549,0L19.67,8.238H13.713A2.717,2.717,0,0,0,11,10.952a6.331,6.331,0,0,0,6.332,6.333h4.148l.156.156a11.765,11.765,0,0,0,4.745,2.894v2.769A17.089,17.089,0,0,0,20,25.952a4.068,4.068,0,0,0-5.567.2,4.108,4.108,0,0,0,0,5.8l.232.232A17.059,17.059,0,0,0,12.809,39.9V50.762a2.71,2.71,0,0,0,1.81,2.548v1.071A2.718,2.718,0,0,0,17.333,57.1H42.666a2.718,2.718,0,0,0,2.714-2.714V53.309a2.709,2.709,0,0,0,1.809-2.547V39.9a17.077,17.077,0,0,0-1.844-7.732Zm-2.9-5.2A2.286,2.286,0,0,1,44.4,30.528a17.319,17.319,0,0,0-2.25-2.779c-.226-.226-.47-.429-.707-.641a2.274,2.274,0,0,1,1.219-.356ZM26.005,4.463A5.61,5.61,0,0,1,30,2.81a5.686,5.686,0,0,1,3.993,1.655l3.775,3.774H22.231ZM14.133,14.151a4.49,4.49,0,0,1-1.324-3.2.9.9,0,0,1,.9-.9H46.286a.906.906,0,0,1,.9.9,4.53,4.53,0,0,1-4.524,4.524H17.332a4.5,4.5,0,0,1-3.2-1.325Zm21.6,3.135a9.985,9.985,0,0,1-11.465,0ZM28.19,20.754A12.009,12.009,0,0,0,30,20.9a11.89,11.89,0,0,0,1.81-.151v2.059a16.812,16.812,0,0,0-3.62,0ZM15.711,27.424a2.356,2.356,0,0,1,2.841-.309,17.31,17.31,0,0,0-2.95,3.423,2.291,2.291,0,0,1,.109-3.113ZM42.666,55.286H17.333a.905.905,0,0,1-.9-.9v-.9H43.571v.9A.906.906,0,0,1,42.666,55.286Zm2.713-4.524a.905.905,0,0,1-.9.9H15.523a.905.905,0,0,1-.9-.9V39.9a15.381,15.381,0,0,1,30.762,0V50.762Z" transform="translate(-11 -1)"/>
      </g>
    </g>
  </g>
</svg>
