<svg xmlns="http://www.w3.org/2000/svg" xmlns:xlink="http://www.w3.org/1999/xlink" width="108.914" height="108.914" viewBox="0 0 108.914 108.914">
  <defs>
    <filter id="Trazado_1289140" x="0" y="0" width="108.914" height="108.914" filterUnits="userSpaceOnUse">
      <feOffset dy="3" input="SourceAlpha"/>
      <feGaussianBlur stdDeviation="3" result="blur"/>
      <feFlood flood-opacity="0.161"/>
      <feComposite operator="in" in2="blur"/>
      <feComposite in="SourceGraphic"/>
    </filter>
  </defs>
  <g id="Grupo_1228016" data-name="Grupo 1228016" transform="translate(-276.394 -4077.624)">
    <g id="Trazado_1289139" data-name="Trazado 1289139" transform="translate(285 4083.396)" fill="none">
      <path d="M45.457,0A45.457,45.457,0,0,1,90.914,45.457h0A45.457,45.457,0,0,1,0,45.457H0A45.457,45.457,0,0,1,45.457,0Z" stroke="none"/>
      <path d="M 45.45676803588867 3 C 39.72381210327148 3 34.1639404296875 4.12213134765625 28.93159484863281 6.335227966308594 C 23.87622833251953 8.473472595214844 19.33542633056641 11.53517150878906 15.43529510498047 15.435302734375 C 11.53517150878906 19.33543395996094 8.473464965820312 23.87622833251953 6.335227966308594 28.93160247802734 C 4.122123718261719 34.16394424438477 3 39.72381591796875 3 45.4572868347168 C 3 51.19024658203125 4.122123718261719 56.75011825561523 6.335227966308594 61.98246002197266 C 8.473464965820312 67.03782653808594 11.53517150878906 71.57862854003906 15.43529510498047 75.478759765625 C 19.33542633056641 79.37889099121094 23.87622833251953 82.44058990478516 28.93159484863281 84.57883453369141 C 34.1639404296875 86.79193115234375 39.72381210327148 87.9140625 45.45676803588867 87.9140625 C 51.18972396850586 87.9140625 56.74959564208984 86.79193115234375 61.98194122314453 84.57883453369141 C 67.03730773925781 82.44058990478516 71.57810974121094 79.37889099121094 75.47824096679688 75.478759765625 C 79.37837219238281 71.57862854003906 82.44007110595703 67.03782653808594 84.57830810546875 61.98246002197266 C 86.79141235351562 56.75011825561523 87.91353607177734 51.19024658203125 87.91353607177734 45.4567756652832 C 87.91353607177734 39.72381591796875 86.79141235351562 34.16394424438477 84.57830810546875 28.93160247802734 C 82.44007110595703 23.87622833251953 79.37837219238281 19.33543395996094 75.47824096679688 15.435302734375 C 71.57810974121094 11.53517150878906 67.03730773925781 8.473472595214844 61.98194122314453 6.335227966308594 C 56.74959564208984 4.12213134765625 51.18972396850586 3 45.45676803588867 3 M 45.45676803588867 0 C 70.56185150146484 0 90.91353607177734 20.35169219970703 90.91353607177734 45.4567756652832 L 90.91353607177734 45.4572868347168 C 90.91353607177734 70.5623779296875 70.56185150146484 90.9140625 45.45676803588867 90.9140625 C 20.3516845703125 90.9140625 0 70.5623779296875 0 45.4572868347168 L 0 45.4567756652832 C 0 20.35169219970703 20.3516845703125 0 45.45676803588867 0 Z" stroke="none" fill="#fff"/>
    </g>
    <g transform="matrix(1, 0, 0, 1, 276.39, 4077.62)" filter="url(#Trazado_1289140)">
      <g id="Trazado_1289140-2" data-name="Trazado 1289140" transform="translate(9 6)" fill="#d7d9de" opacity="0.859">
        <path d="M 45.45676803588867 89.41407012939453 C 39.52198028564453 89.41407012939453 33.76551818847656 88.25206756591797 28.34726715087891 85.96034240722656 C 23.11311721801758 83.74648284912109 18.41204261779785 80.57682800292969 14.37464332580566 76.5394287109375 C 10.33724308013916 72.50202941894531 7.167593002319336 67.80095672607422 4.953730583190918 62.56679534912109 C 2.662005424499512 57.14855575561523 1.500005483627319 51.39208221435547 1.500005483627319 45.45729446411133 C 1.500005483627319 39.52198028564453 2.662005424499512 33.76551818847656 4.953730583190918 28.34726905822754 C 7.167593002319336 23.11310577392578 10.33724308013916 18.41203117370605 14.37464332580566 14.37464332580566 C 18.41204261779785 10.33724403381348 23.11311721801758 7.167593955993652 28.34726715087891 4.953731060028076 C 33.76551818847656 2.662006139755249 39.52198028564453 1.500006198883057 45.45676803588867 1.500006198883057 C 51.39155578613281 1.500006198883057 57.14802932739258 2.662006139755249 62.56626892089844 4.953731060028076 C 67.80043029785156 7.167593955993652 72.50150299072266 10.33724403381348 76.53890228271484 14.37464332580566 C 80.57630920410156 18.41203117370605 83.74595642089844 23.11310577392578 85.95981597900391 28.34726905822754 C 88.25154113769531 33.76551818847656 89.41354370117188 39.52198028564453 89.41354370117188 45.45676803588867 C 89.41354370117188 51.39208221435547 88.25154113769531 57.14855575561523 85.95981597900391 62.56679534912109 C 83.74595642089844 67.80095672607422 80.57630920410156 72.50202941894531 76.53890228271484 76.5394287109375 C 72.50150299072266 80.57682800292969 67.80043029785156 83.74648284912109 62.56626892089844 85.96034240722656 C 57.14802932739258 88.25206756591797 51.39155578613281 89.41407012939453 45.45676803588867 89.41407012939453 Z" stroke="none"/>
        <path d="M 45.45676803588867 3 C 39.72381210327148 3 34.1639404296875 4.12213134765625 28.93159484863281 6.335227966308594 C 23.87622833251953 8.473472595214844 19.33542633056641 11.53517150878906 15.43529510498047 15.435302734375 C 11.53517150878906 19.33543395996094 8.473464965820312 23.87622833251953 6.335227966308594 28.93160247802734 C 4.122123718261719 34.16394424438477 3 39.72381591796875 3 45.4572868347168 C 3 51.19024658203125 4.122123718261719 56.75011825561523 6.335227966308594 61.98246002197266 C 8.473464965820312 67.03782653808594 11.53517150878906 71.57862854003906 15.43529510498047 75.478759765625 C 19.33542633056641 79.37889099121094 23.87622833251953 82.44058990478516 28.93159484863281 84.57883453369141 C 34.1639404296875 86.79193115234375 39.72381210327148 87.9140625 45.45676803588867 87.9140625 C 51.18972396850586 87.9140625 56.74959564208984 86.79193115234375 61.98194122314453 84.57883453369141 C 67.03730773925781 82.44058990478516 71.57810974121094 79.37889099121094 75.47824096679688 75.478759765625 C 79.37837219238281 71.57862854003906 82.44007110595703 67.03782653808594 84.57830810546875 61.98246002197266 C 86.79141235351562 56.75011825561523 87.91353607177734 51.19024658203125 87.91353607177734 45.4567756652832 C 87.91353607177734 39.72381591796875 86.79141235351562 34.16394424438477 84.57830810546875 28.93160247802734 C 82.44007110595703 23.87622833251953 79.37837219238281 19.33543395996094 75.47824096679688 15.435302734375 C 71.57810974121094 11.53517150878906 67.03730773925781 8.473472595214844 61.98194122314453 6.335227966308594 C 56.74959564208984 4.12213134765625 51.18972396850586 3 45.45676803588867 3 M 45.45676803588867 0 C 70.56185150146484 0 90.91353607177734 20.35169219970703 90.91353607177734 45.4567756652832 L 90.91353607177734 45.4572868347168 C 90.91353607177734 70.5623779296875 70.56185150146484 90.9140625 45.45676803588867 90.9140625 C 20.3516845703125 90.9140625 0 70.5623779296875 0 45.4572868347168 L 0 45.4567756652832 C 0 20.35169219970703 20.3516845703125 0 45.45676803588867 0 Z" stroke="none" fill="#fff"/>
      </g>
    </g>
    <g id="Grupo_1228012" data-name="Grupo 1228012" transform="translate(307.351 4105.353)">
      <path id="Trazado_1308091" data-name="Trazado 1308091" d="M32.306,36v4.718A14.153,14.153,0,1,1,4,40.718V36Z" transform="translate(-0.823 -9.597)" fill="#e0dee0"/>
      <path id="Trazado_1308092" data-name="Trazado 1308092" d="M27.6,5.9H8.726A.726.726,0,0,1,8,5.177V3.726A.726.726,0,0,1,8.726,3H27.6a.726.726,0,0,1,.726.726V5.177A.726.726,0,0,1,27.6,5.9Z" transform="translate(-1.919 -0.548)" fill="#4e97d0"/>
      <path id="Trazado_1308093" data-name="Trazado 1308093" d="M27.871,3H9V4.452a.726.726,0,0,0,.726.726H28.6V3.726A.726.726,0,0,0,27.871,3Z" transform="translate(-2.194 -0.548)" fill="#71acd9"/>
      <path id="Trazado_1308094" data-name="Trazado 1308094" d="M55.435,6.355H46V2h9.435a2.177,2.177,0,1,1,0,4.355Z" transform="translate(-12.339 -0.274)" fill="#e0dee0"/>
      <path id="Trazado_1308095" data-name="Trazado 1308095" d="M55.588,2H47V3.854a1.775,1.775,0,0,0,1.775,1.775h7.66a2.152,2.152,0,0,0,1.128-.324,2.14,2.14,0,0,0,.281-1.554A2.271,2.271,0,0,0,55.588,2Z" transform="translate(-12.613 -0.274)" fill="#ecebec"/>
      <path id="Trazado_1308096" data-name="Trazado 1308096" d="M54,2h2.9V6.355H54Z" transform="translate(-14.532 -0.274)" fill="#4e97d0"/>
      <path id="Trazado_1308097" data-name="Trazado 1308097" d="M54,2h2.9V5.629H54Z" transform="translate(-14.532 -0.274)" fill="#71acd9"/>
      <path id="Trazado_1308098" data-name="Trazado 1308098" d="M10,7A8.71,8.71,0,1,0,27.419,7Z" transform="translate(-2.468 -1.645)" fill="#e0dee0"/>
      <path id="Trazado_1308099" data-name="Trazado 1308099" d="M12.05,7a8.688,8.688,0,0,0,11.814,7.391A8.7,8.7,0,0,0,27.981,7Z" transform="translate(-3.03 -1.645)" fill="#ecebec"/>
      <path id="Trazado_1308100" data-name="Trazado 1308100" d="M31.758,34.9H3.452a1.452,1.452,0,1,1,0-2.9H31.758a1.452,1.452,0,1,1,0,2.9Z" transform="translate(-0.274 -8.5)" fill="#4e97d0"/>
      <path id="Trazado_1308101" data-name="Trazado 1308101" d="M32.032,32H3.726a1.444,1.444,0,0,0-.6.131,1.446,1.446,0,0,0,1.321,2.047H32.758a1.444,1.444,0,0,0,.6-.131A1.446,1.446,0,0,0,32.032,32Z" transform="translate(-0.548 -8.5)" fill="#71acd9"/>
      <path id="Trazado_1308102" data-name="Trazado 1308102" d="M31.491,47.355H21.6a7.435,7.435,0,0,1-5.257-2.177A7.434,7.434,0,0,0,11.089,43H4.025a14.138,14.138,0,0,0,27.466,4.355Z" transform="translate(-0.829 -11.516)" fill="#e3f4fc"/>
      <g id="Grupo_1228010" data-name="Grupo 1228010" transform="translate(4.629 26.403)">
        <path id="Trazado_1308103" data-name="Trazado 1308103" d="M6,36v2.839a1.516,1.516,0,0,0,1.516,1.516h5.078a7.389,7.389,0,0,1,5.158,2.22,7.435,7.435,0,0,0,5.213,2.135h9.312a14.124,14.124,0,0,0,.576-3.992V36Z" transform="translate(-6 -36)" fill="#ecebec"/>
        <path id="Trazado_1308104" data-name="Trazado 1308104" d="M20.668,59.228a14.078,14.078,0,0,1-10.5-4.69,14.14,14.14,0,0,0,10.4,5.379,14.106,14.106,0,0,0,8.954-3.824A14.043,14.043,0,0,1,20.668,59.228Z" transform="translate(-7.144 -41.083)" fill="#ecebec"/>
      </g>
      <path id="Trazado_1308105" data-name="Trazado 1308105" d="M19.5,56.758a14.145,14.145,0,0,0,12.535-9.4H22.143a7.435,7.435,0,0,1-5.257-2.177A7.434,7.434,0,0,0,11.629,43H6A14.133,14.133,0,0,0,19.5,56.758Z" transform="translate(-1.371 -11.516)" fill="#f4fbfe"/>
      <g id="Grupo_1228011" data-name="Grupo 1228011" transform="translate(1 1)">
        <path id="Trazado_1308106" data-name="Trazado 1308106" d="M44.742,1H35.306a.726.726,0,0,0-.726.726V3.177H28.774a1.453,1.453,0,0,0-1.452-1.452H8.452A1.453,1.453,0,0,0,7,3.177V4.629A1.453,1.453,0,0,0,8.452,6.081h.037a9.426,9.426,0,0,0,18.8,0h.037a1.453,1.453,0,0,0,1.452-1.452h5.806V6.081a.726.726,0,0,0,.726.726h9.435a2.9,2.9,0,0,0,0-5.806ZM27.323,4.629H15.71a.726.726,0,1,0,0,1.452H25.834a7.98,7.98,0,0,1-15.894,0h2.866a.726.726,0,1,0,0-1.452H8.452V3.177H27.323ZM43.29,2.452v2.9H41.839v-2.9Zm-7.258,0h4.355v2.9H36.032Zm8.71,2.9v-2.9a1.452,1.452,0,1,1,0,2.9Z" transform="translate(-2.645 -1)"/>
        <path id="Trazado_1308107" data-name="Trazado 1308107" d="M31.484,31h-2.9a.726.726,0,1,0,0,1.452h2.9a.726.726,0,1,1,0,1.452H9.71a.726.726,0,0,0,0,1.452H30.758v3.992a13.39,13.39,0,0,1-.606,3.992h-9.38a6.663,6.663,0,0,1-4.743-1.965,8.1,8.1,0,0,0-5.769-2.39H3.9V35.355H6.791a.726.726,0,0,0,0-1.452H3.177a.726.726,0,1,1,0-1.452h22.5a.726.726,0,1,0,0-1.452H3.177a2.172,2.172,0,0,0-.726,4.221v4.125a14.879,14.879,0,1,0,29.758,0V35.221A2.172,2.172,0,0,0,31.484,31ZM17.331,52.774A13.438,13.438,0,0,1,3.958,40.435h6.3A6.663,6.663,0,0,1,15,42.4a8.1,8.1,0,0,0,5.769,2.39h8.821A13.439,13.439,0,0,1,17.331,52.774Z" transform="translate(-1 -9.226)"/>
        <path id="Trazado_1308108" data-name="Trazado 1308108" d="M15,10.726a.726.726,0,0,0,.726.726h.726a.726.726,0,0,0,0-1.452h-.726A.726.726,0,0,0,15,10.726Z" transform="translate(-4.839 -3.468)"/>
        <path id="Trazado_1308109" data-name="Trazado 1308109" d="M21.726,11.452h.726a.726.726,0,1,0,0-1.452h-.726a.726.726,0,0,0,0,1.452Z" transform="translate(-6.484 -3.468)"/>
        <path id="Trazado_1308110" data-name="Trazado 1308110" d="M24.726,15.452h.726a.726.726,0,1,0,0-1.452h-.726a.726.726,0,0,0,0,1.452Z" transform="translate(-7.306 -4.565)"/>
        <path id="Trazado_1308111" data-name="Trazado 1308111" d="M18.726,15.452h.726a.726.726,0,1,0,0-1.452h-.726a.726.726,0,0,0,0,1.452Z" transform="translate(-5.661 -4.565)"/>
        <path id="Trazado_1308112" data-name="Trazado 1308112" d="M27.726,11.452h.726a.726.726,0,1,0,0-1.452h-.726a.726.726,0,0,0,0,1.452Z" transform="translate(-8.129 -3.468)"/>
        <path id="Trazado_1308113" data-name="Trazado 1308113" d="M22.452,24.177V22.726a.726.726,0,0,0-1.452,0v1.452a.726.726,0,0,0,1.452,0Z" transform="translate(-6.484 -6.758)"/>
        <path id="Trazado_1308114" data-name="Trazado 1308114" d="M25.726,23.177a.726.726,0,0,0,.726-.726v-.726a.726.726,0,0,0-1.452,0v.726A.726.726,0,0,0,25.726,23.177Z" transform="translate(-7.581 -6.484)"/>
        <path id="Trazado_1308115" data-name="Trazado 1308115" d="M17.726,23.177a.726.726,0,0,0,.726-.726v-.726a.726.726,0,0,0-1.452,0v.726A.726.726,0,0,0,17.726,23.177Z" transform="translate(-5.387 -6.484)"/>
        <path id="Trazado_1308116" data-name="Trazado 1308116" d="M25,27.452a.726.726,0,1,0,1.452,0v-.726a.726.726,0,0,0-1.452,0Z" transform="translate(-7.581 -7.855)"/>
        <path id="Trazado_1308117" data-name="Trazado 1308117" d="M17,27.452a.726.726,0,1,0,1.452,0v-.726a.726.726,0,0,0-1.452,0Z" transform="translate(-5.387 -7.855)"/>
        <path id="Trazado_1308118" data-name="Trazado 1308118" d="M14.452,24.177V22.726a.726.726,0,0,0-1.452,0v1.452a.726.726,0,0,0,1.452,0Z" transform="translate(-4.29 -6.758)"/>
        <path id="Trazado_1308119" data-name="Trazado 1308119" d="M30.452,24.177V22.726a.726.726,0,1,0-1.452,0v1.452a.726.726,0,1,0,1.452,0Z" transform="translate(-8.677 -6.758)"/>
        <path id="Trazado_1308120" data-name="Trazado 1308120" d="M11.452,48h-.726a.726.726,0,1,0,0,1.452h.726a.726.726,0,1,0,0-1.452Z" transform="translate(-3.468 -13.887)"/>
        <path id="Trazado_1308121" data-name="Trazado 1308121" d="M16.726,49.452h.726a.726.726,0,1,0,0-1.452h-.726a.726.726,0,1,0,0,1.452Z" transform="translate(-5.113 -13.887)"/>
        <path id="Trazado_1308122" data-name="Trazado 1308122" d="M17.452,56h-.726a.726.726,0,0,0,0,1.452h.726a.726.726,0,1,0,0-1.452Z" transform="translate(-5.113 -16.081)"/>
        <path id="Trazado_1308123" data-name="Trazado 1308123" d="M23.452,56h-.726a.726.726,0,0,0,0,1.452h.726a.726.726,0,1,0,0-1.452Z" transform="translate(-6.758 -16.081)"/>
        <path id="Trazado_1308124" data-name="Trazado 1308124" d="M29.452,56h-.726a.726.726,0,1,0,0,1.452h.726a.726.726,0,0,0,0-1.452Z" transform="translate(-8.403 -16.081)"/>
        <path id="Trazado_1308125" data-name="Trazado 1308125" d="M14.452,52h-.726a.726.726,0,1,0,0,1.452h.726a.726.726,0,1,0,0-1.452Z" transform="translate(-4.29 -14.984)"/>
        <path id="Trazado_1308126" data-name="Trazado 1308126" d="M20.452,52h-.726a.726.726,0,1,0,0,1.452h.726a.726.726,0,1,0,0-1.452Z" transform="translate(-5.935 -14.984)"/>
        <path id="Trazado_1308127" data-name="Trazado 1308127" d="M26.452,52h-.726a.726.726,0,1,0,0,1.452h.726a.726.726,0,1,0,0-1.452Z" transform="translate(-7.581 -14.984)"/>
        <path id="Trazado_1308128" data-name="Trazado 1308128" d="M32.452,52h-.726a.726.726,0,1,0,0,1.452h.726a.726.726,0,1,0,0-1.452Z" transform="translate(-9.226 -14.984)"/>
      </g>
    </g>
  </g>
</svg>
