<svg xmlns="http://www.w3.org/2000/svg" xmlns:xlink="http://www.w3.org/1999/xlink" width="108.914" height="108.914" viewBox="0 0 108.914 108.914">
  <defs>
    <filter id="Trazado_1289140" x="0" y="0" width="108.914" height="108.914" filterUnits="userSpaceOnUse">
      <feOffset dy="3" input="SourceAlpha"/>
      <feGaussianBlur stdDeviation="3" result="blur"/>
      <feFlood flood-opacity="0.161"/>
      <feComposite operator="in" in2="blur"/>
      <feComposite in="SourceGraphic"/>
    </filter>
  </defs>
  <g id="Grupo_1228018" data-name="Grupo 1228018" transform="translate(-904.94 -4077.624)">
    <g id="Trazado_1289139" data-name="Trazado 1289139" transform="translate(913.546 4083.396)" fill="none">
      <path d="M45.457,0A45.457,45.457,0,0,1,90.914,45.457h0A45.457,45.457,0,0,1,0,45.457H0A45.457,45.457,0,0,1,45.457,0Z" stroke="none"/>
      <path d="M 45.45676803588867 3 C 39.72381210327148 3 34.1639404296875 4.12213134765625 28.93159484863281 6.335227966308594 C 23.87622833251953 8.473472595214844 19.33542633056641 11.53517150878906 15.43529510498047 15.435302734375 C 11.53517150878906 19.33543395996094 8.473464965820312 23.87622833251953 6.335227966308594 28.93160247802734 C 4.122123718261719 34.16394424438477 3 39.72381591796875 3 45.4572868347168 C 3 51.19024658203125 4.122123718261719 56.75011825561523 6.335227966308594 61.98246002197266 C 8.473464965820312 67.03782653808594 11.53517150878906 71.57862854003906 15.43529510498047 75.478759765625 C 19.33542633056641 79.37889099121094 23.87622833251953 82.44058990478516 28.93159484863281 84.57883453369141 C 34.1639404296875 86.79193115234375 39.72381210327148 87.9140625 45.45676803588867 87.9140625 C 51.18972396850586 87.9140625 56.74959564208984 86.79193115234375 61.98194122314453 84.57883453369141 C 67.03730773925781 82.44058990478516 71.57810974121094 79.37889099121094 75.47824096679688 75.478759765625 C 79.37837219238281 71.57862854003906 82.44007110595703 67.03782653808594 84.57830810546875 61.98246002197266 C 86.79141235351562 56.75011825561523 87.91353607177734 51.19024658203125 87.91353607177734 45.4567756652832 C 87.91353607177734 39.72381591796875 86.79141235351562 34.16394424438477 84.57830810546875 28.93160247802734 C 82.44007110595703 23.87622833251953 79.37837219238281 19.33543395996094 75.47824096679688 15.435302734375 C 71.57810974121094 11.53517150878906 67.03730773925781 8.473472595214844 61.98194122314453 6.335227966308594 C 56.74959564208984 4.12213134765625 51.18972396850586 3 45.45676803588867 3 M 45.45676803588867 0 C 70.56185150146484 0 90.91353607177734 20.35169219970703 90.91353607177734 45.4567756652832 L 90.91353607177734 45.4572868347168 C 90.91353607177734 70.5623779296875 70.56185150146484 90.9140625 45.45676803588867 90.9140625 C 20.3516845703125 90.9140625 0 70.5623779296875 0 45.4572868347168 L 0 45.4567756652832 C 0 20.35169219970703 20.3516845703125 0 45.45676803588867 0 Z" stroke="none" fill="#fff"/>
    </g>
    <g transform="matrix(1, 0, 0, 1, 904.94, 4077.62)" filter="url(#Trazado_1289140)">
      <g id="Trazado_1289140-2" data-name="Trazado 1289140" transform="translate(9 6)" fill="#d7d9de" opacity="0.859">
        <path d="M 45.45676803588867 89.41407012939453 C 39.52198028564453 89.41407012939453 33.76551818847656 88.25206756591797 28.34726715087891 85.96034240722656 C 23.11311721801758 83.74648284912109 18.41204261779785 80.57682800292969 14.37464332580566 76.5394287109375 C 10.33724308013916 72.50202941894531 7.167593002319336 67.80095672607422 4.953730583190918 62.56679534912109 C 2.662005424499512 57.14855575561523 1.500005483627319 51.39208221435547 1.500005483627319 45.45729446411133 C 1.500005483627319 39.52198028564453 2.662005424499512 33.76551818847656 4.953730583190918 28.34726905822754 C 7.167593002319336 23.11310577392578 10.33724308013916 18.41203117370605 14.37464332580566 14.37464332580566 C 18.41204261779785 10.33724403381348 23.11311721801758 7.167593955993652 28.34726715087891 4.953731060028076 C 33.76551818847656 2.662006139755249 39.52198028564453 1.500006198883057 45.45676803588867 1.500006198883057 C 51.39155578613281 1.500006198883057 57.14802932739258 2.662006139755249 62.56626892089844 4.953731060028076 C 67.80043029785156 7.167593955993652 72.50150299072266 10.33724403381348 76.53890228271484 14.37464332580566 C 80.57630920410156 18.41203117370605 83.74595642089844 23.11310577392578 85.95981597900391 28.34726905822754 C 88.25154113769531 33.76551818847656 89.41354370117188 39.52198028564453 89.41354370117188 45.45676803588867 C 89.41354370117188 51.39208221435547 88.25154113769531 57.14855575561523 85.95981597900391 62.56679534912109 C 83.74595642089844 67.80095672607422 80.57630920410156 72.50202941894531 76.53890228271484 76.5394287109375 C 72.50150299072266 80.57682800292969 67.80043029785156 83.74648284912109 62.56626892089844 85.96034240722656 C 57.14802932739258 88.25206756591797 51.39155578613281 89.41407012939453 45.45676803588867 89.41407012939453 Z" stroke="none"/>
        <path d="M 45.45676803588867 3 C 39.72381210327148 3 34.1639404296875 4.12213134765625 28.93159484863281 6.335227966308594 C 23.87622833251953 8.473472595214844 19.33542633056641 11.53517150878906 15.43529510498047 15.435302734375 C 11.53517150878906 19.33543395996094 8.473464965820312 23.87622833251953 6.335227966308594 28.93160247802734 C 4.122123718261719 34.16394424438477 3 39.72381591796875 3 45.4572868347168 C 3 51.19024658203125 4.122123718261719 56.75011825561523 6.335227966308594 61.98246002197266 C 8.473464965820312 67.03782653808594 11.53517150878906 71.57862854003906 15.43529510498047 75.478759765625 C 19.33542633056641 79.37889099121094 23.87622833251953 82.44058990478516 28.93159484863281 84.57883453369141 C 34.1639404296875 86.79193115234375 39.72381210327148 87.9140625 45.45676803588867 87.9140625 C 51.18972396850586 87.9140625 56.74959564208984 86.79193115234375 61.98194122314453 84.57883453369141 C 67.03730773925781 82.44058990478516 71.57810974121094 79.37889099121094 75.47824096679688 75.478759765625 C 79.37837219238281 71.57862854003906 82.44007110595703 67.03782653808594 84.57830810546875 61.98246002197266 C 86.79141235351562 56.75011825561523 87.91353607177734 51.19024658203125 87.91353607177734 45.4567756652832 C 87.91353607177734 39.72381591796875 86.79141235351562 34.16394424438477 84.57830810546875 28.93160247802734 C 82.44007110595703 23.87622833251953 79.37837219238281 19.33543395996094 75.47824096679688 15.435302734375 C 71.57810974121094 11.53517150878906 67.03730773925781 8.473472595214844 61.98194122314453 6.335227966308594 C 56.74959564208984 4.12213134765625 51.18972396850586 3 45.45676803588867 3 M 45.45676803588867 0 C 70.56185150146484 0 90.91353607177734 20.35169219970703 90.91353607177734 45.4567756652832 L 90.91353607177734 45.4572868347168 C 90.91353607177734 70.5623779296875 70.56185150146484 90.9140625 45.45676803588867 90.9140625 C 20.3516845703125 90.9140625 0 70.5623779296875 0 45.4572868347168 L 0 45.4567756652832 C 0 20.35169219970703 20.3516845703125 0 45.45676803588867 0 Z" stroke="none" fill="#fff"/>
      </g>
    </g>
    <g id="Grupo_1228014" data-name="Grupo 1228014" transform="translate(932.723 4105.094)">
      <path id="Trazado_1308129" data-name="Trazado 1308129" d="M55.27,19.356,44.376,8.461a1.561,1.561,0,0,0-2.206,0L21.94,28.691a1.564,1.564,0,0,0-.169,2c.91,1.3,1.908,3.632-.734,5.513l-.042.03h0l-.337-.337a2.633,2.633,0,0,0-3.723,3.723l.27.27a14.276,14.276,0,0,0-8.9,9.109,5.057,5.057,0,0,0,6.423,6.424,14.281,14.281,0,0,0,9.109-8.9l.27.27a2.633,2.633,0,1,0,3.723-3.723l-.336-.336h0c.009-.014.02-.028.03-.042,1.879-2.64,4.211-1.642,5.513-.733a1.564,1.564,0,0,0,2-.17L55.27,21.562a1.561,1.561,0,0,0,0-2.206Z" transform="translate(-7.183 -7.182)" fill="#eef7ff"/>
      <path id="Trazado_1308130" data-name="Trazado 1308130" d="M198.82,69.821,178.59,90.05a1.564,1.564,0,0,1-2,.17c-1.3-.909-3.633-1.907-5.513.733-.01.014-.021.028-.03.042s.035.036-2.78-2.779a.822.822,0,0,1,.291-1.35A38.882,38.882,0,0,0,191.88,62.357a.822.822,0,0,1,1.361-.322l5.579,5.579A1.561,1.561,0,0,1,198.82,69.821Z" transform="translate(-150.733 -55.441)" fill="#cbe3fa"/>
      <path id="Trazado_1308131" data-name="Trazado 1308131" d="M27.829,279.786l-7.17-7.17a2.633,2.633,0,1,0-3.723,3.723l.27.27a14.276,14.276,0,0,0-8.9,9.109,5.057,5.057,0,0,0,6.423,6.424,14.281,14.281,0,0,0,9.109-8.9l.27.27a2.633,2.633,0,1,0,3.723-3.723Z" transform="translate(-7.183 -243.896)" fill="#ffd9ad"/>
      <path id="Trazado_1308132" data-name="Trazado 1308132" d="M18.04,319.021l-.836-.836a14.228,14.228,0,0,0-8.9,9.109,5.035,5.035,0,0,0,2.168,5.971.819.819,0,0,0,1.152-1.065c-1.924-3.895,2.454-9.734,6.246-11.889a.819.819,0,0,0,.173-1.291Z" transform="translate(-7.181 -285.471)" fill="#ffebd2"/>
      <path id="Trazado_1308133" data-name="Trazado 1308133" d="M98.891,279.786a2.633,2.633,0,0,1-3.723,3.723L88,276.339a2.633,2.633,0,1,1,3.723-3.723Z" transform="translate(-78.246 -243.896)" fill="#ffebd2"/>
      <path id="Trazado_1308134" data-name="Trazado 1308134" d="M98.946,280.062A.835.835,0,0,1,97.72,281.2l-5.012-5.012a2.637,2.637,0,0,0-3.962.27.523.523,0,0,1-.79.059,2.621,2.621,0,0,1-.035-3.686,2.68,2.68,0,0,1,3.8.005S98.915,280.028,98.946,280.062Z" transform="translate(-78.205 -244.071)" fill="#fff3e4"/>
      <g id="Grupo_1228013" data-name="Grupo 1228013" transform="translate(0.015 0)">
        <path id="Trazado_1308135" data-name="Trazado 1308135" d="M48.668,11.592,37.775.7a2.381,2.381,0,0,0-3.369,0L14.176,20.927a2.385,2.385,0,0,0-.262,3.059c1.262,1.8,1.074,3.243-.574,4.4a.824.824,0,0,0-.234,1.094c.082.137-.34-.3,6.958,6.994a1.81,1.81,0,0,1-2.56,2.56l-4.344-4.344A.823.823,0,0,0,12,35.852l3.7,3.7a13.4,13.4,0,0,1-8.421,7.917A4.231,4.231,0,0,1,1.9,42.089a13.4,13.4,0,0,1,8.4-8.6.823.823,0,0,0,.309-1.358l-.27-.27a1.812,1.812,0,0,1,0-2.56.822.822,0,1,0-1.163-1.163,3.461,3.461,0,0,0-.515,4.229A15.079,15.079,0,0,0,.342,41.556,5.882,5.882,0,0,0,7.81,49.025,15.079,15.079,0,0,0,17,40.712a3.456,3.456,0,0,0,4.229-5.4l-6.192-6.192c1.824-1.749,1.68-4,.228-6.074a.743.743,0,0,1,.077-.953L35.569,1.861a.737.737,0,0,1,1.043,0L47.505,12.755a.737.737,0,0,1,0,1.043L27.276,34.027a.743.743,0,0,1-.952.077,6.328,6.328,0,0,0-2.047-.976.823.823,0,0,0-.4,1.595,4.7,4.7,0,0,1,1.51.73,2.386,2.386,0,0,0,3.058-.262l20.229-20.23a2.385,2.385,0,0,0,0-3.37Z" transform="translate(-0.015 0)"/>
        <path id="Trazado_1308136" data-name="Trazado 1308136" d="M226.017,232.828a.823.823,0,0,0,.823.823h1.234a.823.823,0,0,0,0-1.645H226.84A.823.823,0,0,0,226.017,232.828Z" transform="translate(-202.78 -208.151)"/>
        <path id="Trazado_1308137" data-name="Trazado 1308137" d="M198.073,202.005H196.84a.823.823,0,1,0,0,1.645h1.234a.823.823,0,0,0,0-1.645Z" transform="translate(-175.865 -181.236)"/>
        <path id="Trazado_1308138" data-name="Trazado 1308138" d="M256.017,262.828a.823.823,0,0,0,.823.823h1.234a.823.823,0,0,0,0-1.645H256.84A.823.823,0,0,0,256.017,262.828Z" transform="translate(-229.696 -235.067)"/>
        <path id="Trazado_1308139" data-name="Trazado 1308139" d="M266.017,192.828a.823.823,0,0,0,.823.823h1.234a.823.823,0,0,0,0-1.645H266.84A.823.823,0,0,0,266.017,192.828Z" transform="translate(-238.668 -172.264)"/>
        <path id="Trazado_1308140" data-name="Trazado 1308140" d="M238.073,162.005H236.84a.823.823,0,1,0,0,1.645h1.234a.823.823,0,0,0,0-1.645Z" transform="translate(-211.752 -145.348)"/>
        <path id="Trazado_1308141" data-name="Trazado 1308141" d="M296.017,222.828a.823.823,0,0,0,.823.823h1.234a.823.823,0,0,0,0-1.645H296.84A.823.823,0,0,0,296.017,222.828Z" transform="translate(-265.583 -199.179)"/>
        <path id="Trazado_1308142" data-name="Trazado 1308142" d="M306.017,152.828a.823.823,0,0,0,.823.823h1.234a.823.823,0,1,0,0-1.645H306.84A.823.823,0,0,0,306.017,152.828Z" transform="translate(-274.555 -136.377)"/>
        <path id="Trazado_1308143" data-name="Trazado 1308143" d="M278.073,122H276.84a.823.823,0,0,0,0,1.645h1.234a.823.823,0,0,0,0-1.645Z" transform="translate(-247.64 -109.461)"/>
        <path id="Trazado_1308144" data-name="Trazado 1308144" d="M336.017,182.828a.823.823,0,0,0,.823.823h1.234a.823.823,0,0,0,0-1.645H336.84A.823.823,0,0,0,336.017,182.828Z" transform="translate(-301.471 -163.292)"/>
        <path id="Trazado_1308145" data-name="Trazado 1308145" d="M348.073,113.65a.823.823,0,0,0,0-1.645H346.84a.823.823,0,1,0,0,1.645Z" transform="translate(-310.443 -100.489)"/>
        <path id="Trazado_1308146" data-name="Trazado 1308146" d="M318.073,82H316.84a.823.823,0,0,0,0,1.645h1.234a.823.823,0,0,0,0-1.645Z" transform="translate(-283.527 -73.574)"/>
        <path id="Trazado_1308147" data-name="Trazado 1308147" d="M378.073,143.65a.823.823,0,1,0,0-1.645H376.84a.823.823,0,1,0,0,1.645Z" transform="translate(-337.358 -127.405)"/>
      </g>
    </g>
  </g>
</svg>
