<svg xmlns="http://www.w3.org/2000/svg" xmlns:xlink="http://www.w3.org/1999/xlink" width="102" height="102" viewBox="0 0 102 102">
  <defs>
    <filter id="Elipse_11494" x="0" y="0" width="102" height="102" filterUnits="userSpaceOnUse">
      <feOffset dy="3" input="SourceAlpha"/>
      <feGaussianBlur stdDeviation="3" result="blur"/>
      <feFlood flood-opacity="0.161"/>
      <feComposite operator="in" in2="blur"/>
      <feComposite in="SourceGraphic"/>
    </filter>
  </defs>
  <g id="Grupo_1228042" data-name="Grupo 1228042" transform="translate(-589.949 -6588.229)">
    <g id="Grupo_1227307" data-name="Grupo 1227307" transform="translate(598.949 6594.229)">
      <g transform="matrix(1, 0, 0, 1, -9, -6)" filter="url(#Elipse_11494)">
        <g id="Elipse_11494-2" data-name="Elipse 11494" transform="translate(9 6)" fill="#e1e7fb" stroke="#fff" stroke-width="4">
          <circle cx="42" cy="42" r="42" stroke="none"/>
          <circle cx="42" cy="42" r="40" fill="none"/>
        </g>
      </g>
    </g>
    <g id="Grupo_1227928" data-name="Grupo 1227928" transform="translate(619.985 6613.264)">
      <path id="Trazado_1307843" data-name="Trazado 1307843" d="M11.016,17V41.474a4.508,4.508,0,0,0-4.573-4.508A4.568,4.568,0,0,0,2,41.409a4.508,4.508,0,0,0,4.508,4.573H40.642V17Z" transform="translate(-0.356 -5.696)" fill="#e2e7f6"/>
      <path id="Trazado_1307844" data-name="Trazado 1307844" d="M41,21H52.593v7.729H41Z" transform="translate(-14.239 -7.119)" fill="#f0ae42"/>
      <path id="Trazado_1307845" data-name="Trazado 1307845" d="M51.581,26.152V21H41v6.44h9.293A1.288,1.288,0,0,0,51.581,26.152Z" transform="translate(-14.239 -7.119)" fill="#f9d266"/>
      <path id="Trazado_1307846" data-name="Trazado 1307846" d="M55,42h4.508v7.729H55Z" transform="translate(-19.222 -14.594)" fill="#5e87ca"/>
      <path id="Trazado_1307847" data-name="Trazado 1307847" d="M55,42h2.576v6.44H55Z" transform="translate(-19.222 -14.595)" fill="#78a0d4"/>
      <path id="Trazado_1307848" data-name="Trazado 1307848" d="M52.864,49.729V42H49v7.729Z" transform="translate(-17.086 -14.595)" fill="#3b5892"/>
      <path id="Trazado_1307849" data-name="Trazado 1307849" d="M49,42h1.932v6.44H49Z" transform="translate(-17.086 -14.595)" fill="#4c6cb5"/>
      <path id="Trazado_1307850" data-name="Trazado 1307850" d="M40.457,39.44H38.525a1.288,1.288,0,0,1-1.288-1.288,1.288,1.288,0,0,0-1.288-1.288H35.3V33h-.644a1.932,1.932,0,0,0-1.932,1.932v1.932h-6.44a1.288,1.288,0,1,0,0,2.576,1.288,1.288,0,1,0,0,2.576,1.288,1.288,0,1,0,0,2.576,1.288,1.288,0,1,0,0,2.576h6.753a3.22,3.22,0,0,0,1.787-.541l.309-.206a3.22,3.22,0,0,1,1.787-.541h3.533Z" transform="translate(-8.543 -11.391)" fill="#f2b9a1"/>
      <path id="Trazado_1307851" data-name="Trazado 1307851" d="M2,38.981v-24.3a4.624,4.624,0,0,1,3.943-4.645,4.508,4.508,0,0,1,5.073,4.474V38.981a4.508,4.508,0,0,0-4.573-4.508A4.568,4.568,0,0,0,2,38.917Z" transform="translate(-0.356 -3.203)" fill="#c8cded"/>
      <g id="Grupo_1227927" data-name="Grupo 1227927" transform="translate(17.745 27.405)">
        <path id="Trazado_1307852" data-name="Trazado 1307852" d="M27,46h5.152v1.288H27Z" transform="translate(-27 -43.424)" fill="#e8a791"/>
        <path id="Trazado_1307853" data-name="Trazado 1307853" d="M27,42h5.152v1.288H27Z" transform="translate(-27 -42)" fill="#e8a791"/>
        <path id="Trazado_1307854" data-name="Trazado 1307854" d="M27,50h5.152v1.288H27Z" transform="translate(-27 -44.848)" fill="#e8a791"/>
      </g>
      <path id="Trazado_1307855" data-name="Trazado 1307855" d="M25.864,25.83V13.593L22,9.729V5.864L25.22,2V6.508L27.8,7.8l2.576-1.288V2l3.22,3.864V9.729l-3.864,3.864V25.83" transform="translate(-7.476 -0.356)" fill="#b5b5b5"/>
      <path id="Trazado_1307856" data-name="Trazado 1307856" d="M44,28h7.729v1.288H44Z" transform="translate(-15.307 -9.611)" fill="#fce797"/>
      <path id="Trazado_1307857" data-name="Trazado 1307857" d="M46,24h6.44v1.288H46Z" transform="translate(-16.019 -8.187)" fill="#fce797"/>
      <path id="Trazado_1307858" data-name="Trazado 1307858" d="M40.286,10.66H25.74l.833-.833a.644.644,0,0,0,.189-.455V5.508a.644.644,0,0,0-.149-.412l-3.22-3.864a.644.644,0,0,0-1.139.412v4.11l-1.932.966-1.932-.966V1.644a.644.644,0,0,0-1.139-.412L14.029,5.1a.644.644,0,0,0-.149.412V9.372a.644.644,0,0,0,.189.455l.833.833H11.26A5.147,5.147,0,0,0,5.508,6.191,5.245,5.245,0,0,0,1,11.472V35.778A5.152,5.152,0,0,0,6.152,40.93H40.286a.644.644,0,0,0,.644-.644V11.3a.644.644,0,0,0-.644-.644Zm-.644,1.288V26.761H31.914a.644.644,0,0,0-.644.644H29.981a.644.644,0,0,1-.644-.644,1.932,1.932,0,0,0-1.932-1.932V22.253H38.354A.644.644,0,0,0,39,21.609V13.881a.644.644,0,0,0-.644-.644H26.761a.644.644,0,0,0-.644.644v7.084a2.576,2.576,0,0,0-2.576,2.576v1.288H22.9V13.5l1.555-1.555ZM32.558,34.49v-6.44h2.576v6.44Zm3.864-6.44h3.22v6.44h-3.22Zm-5.152,5.8H28.38a3.851,3.851,0,0,0-2.143.649l-.31.206a2.565,2.565,0,0,1-1.429.433H17.745a.644.644,0,0,1,0-1.288H22.9V32.558H17.745a.644.644,0,1,1,0-1.288H22.9V29.982H17.745a.644.644,0,1,1,0-1.288H22.9V27.405H17.745a.644.644,0,1,1,0-1.288h6.44a.644.644,0,0,0,.644-.644V23.541a1.288,1.288,0,0,1,1.288-1.288v3.22a.644.644,0,0,0,.644.644h.644a.644.644,0,0,1,.644.644,1.932,1.932,0,0,0,1.932,1.932H31.27ZM27.405,20.965v-6.44h10.3v6.44ZM15.169,5.741,17.1,3.423V6.152a.644.644,0,0,0,.356.576l2.576,1.288a.644.644,0,0,0,.576,0l2.576-1.288a.644.644,0,0,0,.356-.576V3.423l1.932,2.319V9.106L21.8,12.781a.644.644,0,0,0-.189.455V24.829H19.033V13.237a.644.644,0,0,0-.189-.455L15.169,9.106ZM2.288,11.473A3.957,3.957,0,0,1,5.664,7.467a4.11,4.11,0,0,1,.493-.027,3.82,3.82,0,0,1,2.556.971,3.868,3.868,0,0,1,1.3,2.894V32.37q-.118-.133-.247-.258a5.094,5.094,0,0,0-3.69-1.486A5.152,5.152,0,0,0,2.288,32.39ZM6.152,39.642a3.864,3.864,0,0,1-3.864-3.92A3.938,3.938,0,0,1,6.1,31.914a3.788,3.788,0,0,1,2.769,1.113,3.839,3.839,0,0,1,1.15,2.751.644.644,0,0,0,1.288,0V11.948H16.19L17.745,13.5V24.829a1.924,1.924,0,0,0-1.43,3.22,1.9,1.9,0,0,0,0,2.576,1.9,1.9,0,0,0,0,2.576,1.924,1.924,0,0,0,1.43,3.22H24.5a3.851,3.851,0,0,0,2.143-.649l.31-.206a2.565,2.565,0,0,1,1.429-.433H31.27a.644.644,0,0,0,.644.644h7.729v3.864Z"/>
      <path id="Trazado_1307859" data-name="Trazado 1307859" d="M44,28h7.729v1.288H44Z" transform="translate(-15.307 -9.611)"/>
      <path id="Trazado_1307860" data-name="Trazado 1307860" d="M46,24h6.44v1.288H46Z" transform="translate(-16.019 -8.187)"/>
    </g>
  </g>
</svg>
