<svg xmlns="http://www.w3.org/2000/svg" xmlns:xlink="http://www.w3.org/1999/xlink" width="102" height="102" viewBox="0 0 102 102">
  <defs>
    <filter id="Elipse_11494" x="0" y="0" width="102" height="102" filterUnits="userSpaceOnUse">
      <feOffset dy="3" input="SourceAlpha"/>
      <feGaussianBlur stdDeviation="3" result="blur"/>
      <feFlood flood-opacity="0.161"/>
      <feComposite operator="in" in2="blur"/>
      <feComposite in="SourceGraphic"/>
    </filter>
    <clipPath id="clip-path">
      <path id="path3567" d="M0-682.665H46.366V-636.3H0Z" transform="translate(0 682.665)"/>
    </clipPath>
  </defs>
  <g id="Grupo_1228043" data-name="Grupo 1228043" transform="translate(-1009.949 -6588.229)">
    <g id="Grupo_1227309" data-name="Grupo 1227309" transform="translate(1018.949 6594.229)">
      <g transform="matrix(1, 0, 0, 1, -9, -6)" filter="url(#Elipse_11494)">
        <g id="Elipse_11494-2" data-name="Elipse 11494" transform="translate(9 6)" fill="#e1e7fb" stroke="#fff" stroke-width="4">
          <circle cx="42" cy="42" r="42" stroke="none"/>
          <circle cx="42" cy="42" r="40" fill="none"/>
        </g>
      </g>
    </g>
    <g id="g3561" transform="translate(1037.766 7296.928)">
      <g id="g3563" transform="translate(0 -682.665)">
        <g id="g3565" clip-path="url(#clip-path)">
          <g id="g3571" transform="translate(3.68 7.728)">
            <path id="path3573" d="M0-510.635a.75.75,0,0,0,.75.75h1.5a.75.75,0,0,0,.75-.75v-37.209H0Z" transform="translate(0 547.844)" fill="#e2dee2"/>
          </g>
          <g id="g3575" transform="translate(4.139 7.728)">
            <path id="path3577" d="M-6.3,0V37.209a.75.75,0,0,1-.459.691.748.748,0,0,0,.291.059h1.5a.75.75,0,0,0,.75-.75V0Z" transform="translate(6.755)" fill="#cbc4cc"/>
          </g>
          <g id="g3579" transform="translate(2.93 0.679)">
            <path id="path3581" d="M-61.766-30.883a2.25,2.25,0,0,1-2.25,2.25,2.25,2.25,0,0,1-2.25-2.25,2.25,2.25,0,0,1,2.25-2.25,2.25,2.25,0,0,1,2.25,2.25" transform="translate(66.267 33.133)" fill="#fee45a"/>
          </g>
          <g id="g3583" transform="translate(2.179 5.18)">
            <path id="path3585" d="M-61.766,0h-3a1.5,1.5,0,0,0-1.5,1.5,1.5,1.5,0,0,0,1.5,1.5h3a1.5,1.5,0,0,0,1.5-1.5,1.5,1.5,0,0,0-1.5-1.5" transform="translate(66.267)" fill="#fee45a"/>
          </g>
          <g id="g3587" transform="translate(4.139 0.679)">
            <path id="path3589" d="M-14.292,0a2.239,2.239,0,0,0-1.041.256A2.25,2.25,0,0,1-14.124,2.25a2.25,2.25,0,0,1-1.209,1.995,2.239,2.239,0,0,0,1.041.256,2.25,2.25,0,0,0,2.25-2.25A2.25,2.25,0,0,0-14.292,0" transform="translate(15.333)" fill="#fed402"/>
          </g>
          <g id="g3591" transform="translate(4.597 5.18)">
            <path id="path3593" d="M-28.584,0h-2.083a1.5,1.5,0,0,1,1.5,1.5,1.5,1.5,0,0,1-1.5,1.5h2.083a1.5,1.5,0,0,0,1.5-1.5,1.5,1.5,0,0,0-1.5-1.5" transform="translate(30.667)" fill="#fed402"/>
          </g>
          <g id="g3595" transform="translate(2.179 11.181)">
            <path id="path3597" d="M-61.766,0h-3a1.5,1.5,0,0,0-1.5,1.5,1.5,1.5,0,0,0,1.5,1.5h4.008Z" transform="translate(66.267)" fill="#62dbfb"/>
          </g>
          <g id="g3599" transform="translate(4.597 11.181)">
            <path id="path3601" d="M0-41.177H3.09l-1.007-3H0Z" transform="translate(0 44.177)" fill="#01c0fa"/>
          </g>
          <g id="g3603" transform="translate(2.179 32.185)">
            <path id="path3605" d="M-80.515,0h-4.367a1.5,1.5,0,0,0-1.5,1.5,1.5,1.5,0,0,0,1.5,1.5h3Z" transform="translate(86.382)" fill="#62dbfb"/>
          </g>
          <g id="g3607" transform="translate(4.597 32.185)">
            <path id="path3609" d="M0-41.177H2.083l1.366-3H0Z" transform="translate(0 44.177)" fill="#01c0fa"/>
          </g>
          <g id="g3611" transform="translate(6.68 8.845)">
            <path id="path3613" d="M-206.235-338.23a12,12,0,0,0-6.674-.311l-8.354,2v-24l8.354-2a12,12,0,0,1,7.995.851l4.81,2.309a12,12,0,0,0,7.995.85l6.5-1.561a1.5,1.5,0,0,1,1.85,1.459v20.918a1.5,1.5,0,0,1-1.15,1.459l-7.2,1.729a12,12,0,0,1-5.149.1Z" transform="translate(221.263 362.877)" fill="#99e6fc"/>
          </g>
          <g id="g3615" transform="translate(41.15 11.583)">
            <path id="path3617" d="M-16.285-.578l-.9.215A1.494,1.494,0,0,1-16.518.881V22.315a1.5,1.5,0,0,1-.954,1.4l1.887-.453a1.5,1.5,0,0,0,1.15-1.459V.881a1.5,1.5,0,0,0-1.85-1.459" transform="translate(17.472 0.62)" fill="#01d0fb"/>
          </g>
          <g id="g3619" transform="translate(22.433 29.043)">
            <path id="path3621" d="M-82.355-2.462v4.6h-6V-2.641Z" transform="translate(88.356 2.641)" fill="#fecec8"/>
          </g>
          <g id="g3623" transform="translate(26.351 29.16)">
            <path id="path3625" d="M0,0V4.666H2.083V.062Z" fill="#fec0b7"/>
          </g>
          <g id="g3627" transform="translate(19.433 23.996)">
            <path id="path3629" d="M-108.628-81.5l.638-.046h1.564a2.251,2.251,0,0,0,1.794-2.2v-3l-11.912-.688v3.688a2.25,2.25,0,0,0,2.25,2.25h5.665Z" transform="translate(116.544 87.434)" fill="#fecec8"/>
          </g>
          <g id="g3631" transform="translate(27.101 24.564)">
            <path id="path3633" d="M-30.883,0V3.12a2.25,2.25,0,0,1-2.25,2.25h2.083A2.25,2.25,0,0,0-28.8,3.12v-3Z" transform="translate(33.133)" fill="#fec0b7"/>
          </g>
          <g id="g3635" transform="translate(21.683 32.935)">
            <path id="path3637" d="M-102.942-51.462h-7.5v-3.025a.724.724,0,0,1,.724-.724h6.052a.725.725,0,0,1,.724.724Z" transform="translate(110.444 55.212)" fill="#f9f7f8"/>
          </g>
          <g id="g3639" transform="translate(26.377 32.935)">
            <path id="path3641" d="M-28.584,0h-2.083a.725.725,0,0,1,.724.724V3.75h2.083V.724A.725.725,0,0,0-28.584,0" transform="translate(30.667)" fill="#efedef"/>
          </g>
          <g id="g3643" transform="translate(20.183 35.935)">
            <path id="path3645" d="M-144.12-72.06v-4.5a.75.75,0,0,0-.75-.75h-9a.75.75,0,0,0-.75.75v4.5a.75.75,0,0,0,.75.75h9a.75.75,0,0,0,.75-.75" transform="translate(154.622 77.31)" fill="#ffc344"/>
          </g>
          <g id="g3647" transform="translate(27.852 35.935)">
            <path id="path3649" d="M-28.584,0h-2.083a.75.75,0,0,1,.75.75v4.5a.75.75,0,0,1-.75.75h2.083a.75.75,0,0,0,.75-.75V.75a.75.75,0,0,0-.75-.75" transform="translate(30.667)" fill="#f6ab31"/>
          </g>
          <g id="g3651" transform="translate(11.931 17.932)">
            <path id="path3653" d="M-97.8-7a1.5,1.5,0,0,0-1.125-.51h-3.109a3,3,0,0,0-2.684,1.659l-.128.256a.75.75,0,0,0,.671,1.086h1.874a.75.75,0,0,1,.671.415l.375.75a.75.75,0,0,1,0,.671l-.375.75a.75.75,0,0,1-.671.415h-1.874a.75.75,0,0,0-.671,1.086l.128.256a3,3,0,0,0,2.684,1.659h3.109A1.5,1.5,0,0,0-97.509.5a.746.746,0,0,1,.7-.506h4.769l6.814.733a1.5,1.5,0,0,0,1.309.768h3.109A3,3,0,0,0-78.126-.169L-78-.425a.75.75,0,0,0-.671-1.086h-1.874a.75.75,0,0,1-.671-.415l-.375-.75a.75.75,0,0,1,0-.671l.375-.75a.75.75,0,0,1,.671-.415h1.874A.75.75,0,0,0-78-5.6l-.128-.256A3,3,0,0,0-80.81-7.512h-3.109a1.5,1.5,0,0,0-1.413.994.746.746,0,0,1-.7.506H-97.8Z" transform="translate(104.923 7.512)" fill="#e2dee2"/>
          </g>
          <g id="g3655" transform="translate(33.102 17.932)">
            <path id="path3657" d="M-69.747-82.355h-1.874a.75.75,0,0,1-.671-.415l-.375-.75a.75.75,0,0,1,0-.671l.375-.75a.75.75,0,0,1,.671-.415h1.874a.75.75,0,0,0,.671-1.086L-69.2-86.7a3,3,0,0,0-2.684-1.659h-2.083A3,3,0,0,1-71.288-86.7l.128.256a.75.75,0,0,1-.671,1.086H-73.7a.75.75,0,0,0-.671.415l-.375.75a.75.75,0,0,0,0,.671l.375.75a.75.75,0,0,0,.671.415h1.874a.75.75,0,0,1,.671,1.086l-.128.256a3,3,0,0,1-2.684,1.659h2.083A3,3,0,0,0-69.2-81.013l.128-.256a.75.75,0,0,0-.671-1.086" transform="translate(74.83 88.356)" fill="#cbc4cc"/>
          </g>
          <g id="g3659" transform="translate(18.682 17.932)">
            <path id="path3661" d="M-123.531-20.589a1.5,1.5,0,0,0-1.5-1.5,1.5,1.5,0,0,0-1.407.98.1.1,0,0,1-.093.067.1.1,0,0,1-.093-.067,1.5,1.5,0,0,0-1.407-.98,1.5,1.5,0,0,0-1.407.98.1.1,0,0,1-.093.067.1.1,0,0,1-.093-.067,1.5,1.5,0,0,0-1.445-.979,1.549,1.549,0,0,0-1.462,1.542v1.419a1.525,1.525,0,0,0,1.4,1.535,1.5,1.5,0,0,0,1.45-.834.082.082,0,0,1,.073-.046.082.082,0,0,1,.082.082v.01a1.527,1.527,0,0,0,1.479,1.541,1.571,1.571,0,0,0,1.332-.862.1.1,0,0,1,.089-.053.1.1,0,0,1,.1.1v.064a1.493,1.493,0,0,0,.381,1h3.537v-4Z" transform="translate(132.533 22.089)" fill="#fecec8"/>
          </g>
          <g id="g3663" transform="translate(27.684 16.432)">
            <path id="path3665" d="M-41.09-84.088c0-.042.006-.084.006-.126v-4.5a1.5,1.5,0,0,0-1.5-1.5,1.5,1.5,0,0,0-1.5,1.5v4.5Z" transform="translate(44.084 90.216)" fill="#fecec8"/>
          </g>
          <g id="g3667" transform="translate(28.143 16.432)">
            <path id="path3669" d="M-14.292,0a1.494,1.494,0,0,0-1.041.422A1.5,1.5,0,0,1-14.875,1.5V6c0,.013,0,.026,0,.039l2.078.088c0-.042.006-.084.006-.126V1.5a1.5,1.5,0,0,0-1.5-1.5" transform="translate(15.333)" fill="#fec0b7"/>
          </g>
          <g id="g3671" transform="translate(25.142 17.932)">
            <path id="path3673" d="M-14.292,0a1.494,1.494,0,0,0-1.041.422A1.5,1.5,0,0,1-14.874,1.5v4h2.083v-4a1.5,1.5,0,0,0-1.5-1.5" transform="translate(15.333)" fill="#fec0b7"/>
          </g>
          <g id="g3675" transform="translate(22.142 17.932)">
            <path id="path3677" d="M-34.88-20.589a1.5,1.5,0,0,0-.092-.519v0a1.5,1.5,0,0,0-1.407-.98,1.494,1.494,0,0,0-1.038.417l0,0a1.5,1.5,0,0,1,.459,1.078v2.25a1.494,1.494,0,0,1-.451,1.071,1.467,1.467,0,0,0,1.013.429A1.571,1.571,0,0,0-35.07-17.7.1.1,0,0,1-35-17.751h0a1.5,1.5,0,0,0,.119-.587Z" transform="translate(37.421 22.089)" fill="#fec0b7"/>
          </g>
          <g id="g3679" transform="translate(19.147 17.932)">
            <path id="path3681" d="M-34.8-20.589a1.5,1.5,0,0,0-.094-.522,1.5,1.5,0,0,0-1.444-.978,1.463,1.463,0,0,0-.991.435,1.494,1.494,0,0,1,.446,1.065v1.5a1.5,1.5,0,0,1-.453,1.072,1.463,1.463,0,0,0,.93.424,1.5,1.5,0,0,0,1.45-.834l.006-.009,0,0a1.5,1.5,0,0,0,.148-.651Z" transform="translate(37.336 22.089)" fill="#fec0b7"/>
          </g>
          <g id="g3683" transform="translate(24.683 22.433)">
            <path id="path3685" d="M-74.877-43.3V-45.68l-1.226-.651-.611-.126h-1.369a2.25,2.25,0,0,0-2.25,2.25,2.25,2.25,0,0,0,2.25,2.25h2.418Z" transform="translate(80.333 46.457)" fill="#fecec8"/>
          </g>
          <g id="g3687" transform="translate(27.852 22.433)">
            <path id="path3689" d="M-28.584,0h-2.083a2.25,2.25,0,0,1,2.25,2.25,2.25,2.25,0,0,1-2.25,2.25h2.083a2.25,2.25,0,0,0,2.25-2.25A2.25,2.25,0,0,0-28.584,0" transform="translate(30.667 0)" fill="#fec0b7"/>
          </g>
          <g id="g3691" transform="translate(2.93 0.679)">
            <path id="path3693" d="M-61.766-30.883a2.25,2.25,0,0,1-2.25,2.25,2.25,2.25,0,0,1-2.25-2.25,2.25,2.25,0,0,1,2.25-2.25A2.25,2.25,0,0,1-61.766-30.883Z" transform="translate(66.267 33.133)" fill="none" stroke="#000" stroke-linecap="round" stroke-linejoin="round" stroke-miterlimit="10" stroke-width="1"/>
          </g>
          <g id="g3695" transform="translate(2.179 5.18)">
            <path id="path3697" d="M-61.766,0h-3a1.5,1.5,0,0,0-1.5,1.5,1.5,1.5,0,0,0,1.5,1.5h3a1.5,1.5,0,0,0,1.5-1.5A1.5,1.5,0,0,0-61.766,0Z" transform="translate(66.267)" fill="none" stroke="#000" stroke-linecap="round" stroke-linejoin="round" stroke-miterlimit="10" stroke-width="1"/>
          </g>
          <g id="g3699" transform="translate(3.68 8.181)">
            <path id="path3701" d="M0-41.177v-3H3V-7.421a.75.75,0,0,1-.75.75H.75A.75.75,0,0,1,0-7.421v-9.752" transform="translate(0 44.177)" fill="none" stroke="#000" stroke-linecap="round" stroke-linejoin="round" stroke-miterlimit="10" stroke-width="1"/>
          </g>
          <g id="g3703" transform="translate(3.68 14.182)">
            <path id="path3705" d="M0-29.723v-2.166" transform="translate(0 31.889)" fill="none" stroke="#000" stroke-linecap="round" stroke-linejoin="round" stroke-miterlimit="10" stroke-width="1"/>
          </g>
          <g id="g3707" transform="translate(3.68 19.517)">
            <path id="path3709" d="M0-173.842V-186.51" transform="translate(0 186.51)" fill="none" stroke="#000" stroke-linecap="round" stroke-linejoin="round" stroke-miterlimit="10" stroke-width="1"/>
          </g>
          <g id="g3711" transform="translate(2.179 11.181)">
            <path id="path3713" d="M-61.766,0h-3a1.5,1.5,0,0,0-1.5,1.5,1.5,1.5,0,0,0,1.5,1.5h3" transform="translate(66.267)" fill="none" stroke="#000" stroke-linecap="round" stroke-linejoin="round" stroke-miterlimit="10" stroke-width="1"/>
          </g>
          <g id="g3715" transform="translate(2.179 32.185)">
            <path id="path3717" d="M-61.766,0h-3a1.5,1.5,0,0,0-1.5,1.5,1.5,1.5,0,0,0,1.5,1.5h3" transform="translate(66.267)" fill="none" stroke="#000" stroke-linecap="round" stroke-linejoin="round" stroke-miterlimit="10" stroke-width="1"/>
          </g>
          <g id="g3719" transform="translate(6.68 8.845)">
            <path id="path3721" d="M-206.235-338.23a12,12,0,0,0-6.674-.311l-8.354,2v-24l8.354-2a12,12,0,0,1,7.995.851l4.81,2.309a12,12,0,0,0,7.995.85l6.5-1.561a1.5,1.5,0,0,1,1.85,1.459v20.918a1.5,1.5,0,0,1-1.15,1.459l-7.2,1.729a12,12,0,0,1-5.149.1" transform="translate(221.263 362.877)" fill="none" stroke="#000" stroke-linecap="round" stroke-linejoin="round" stroke-miterlimit="10" stroke-width="1"/>
          </g>
          <g id="g3723" transform="translate(3.68 42.687)">
            <path id="path3725" d="M0,0H3" transform="translate(0 0)" fill="none" stroke="#000" stroke-linecap="round" stroke-linejoin="round" stroke-miterlimit="10" stroke-width="1"/>
          </g>
          <g id="g3727" transform="translate(19.433 25.767)">
            <path id="path3729" d="M-61.766-57.2h-2.25a2.25,2.25,0,0,1-2.25-2.25v-1.917" transform="translate(66.267 61.364)" fill="none" stroke="#000" stroke-linecap="round" stroke-linejoin="round" stroke-miterlimit="10" stroke-width="1"/>
          </g>
          <g id="g3731" transform="translate(26.934 26.454)">
            <path id="path3733" d="M0-47.76H2.25A2.25,2.25,0,0,0,4.5-50.01v-1.23" transform="translate(0 51.24)" fill="none" stroke="#000" stroke-linecap="round" stroke-linejoin="round" stroke-miterlimit="10" stroke-width="1"/>
          </g>
          <g id="g3735" transform="translate(22.433 29.934)">
            <path id="path3737" d="M-82.355-1.545V1.343h-6v-3" transform="translate(88.356 1.657)" fill="none" stroke="#000" stroke-linecap="round" stroke-linejoin="round" stroke-miterlimit="10" stroke-width="1"/>
          </g>
          <g id="g3739" transform="translate(21.683 32.935)">
            <path id="path3741" d="M-102.942-41.178h-7.5v-2.276a.724.724,0,0,1,.724-.724h6.052a.725.725,0,0,1,.724.724Z" transform="translate(110.444 44.179)" fill="none" stroke="#000" stroke-linecap="round" stroke-linejoin="round" stroke-miterlimit="10" stroke-width="1"/>
          </g>
          <g id="g3743" transform="translate(24.683 22.433)">
            <path id="path3745" d="M-72.06,0h-3a2.25,2.25,0,0,0-2.25,2.25A2.25,2.25,0,0,0-75.06,4.5h3a2.25,2.25,0,0,0,2.25-2.25A2.25,2.25,0,0,0-72.06,0Z" transform="translate(77.31 0)" fill="none" stroke="#000" stroke-linecap="round" stroke-linejoin="round" stroke-miterlimit="10" stroke-width="1"/>
          </g>
          <g id="g3747" transform="translate(24.683 17.932)">
            <path id="path3749" d="M-41.178-61.766v-3a1.5,1.5,0,0,0-1.5-1.5,1.5,1.5,0,0,0-1.5,1.5v3a1.493,1.493,0,0,0,.381,1" transform="translate(44.179 66.267)" fill="none" stroke="#000" stroke-linecap="round" stroke-linejoin="round" stroke-miterlimit="10" stroke-width="1"/>
          </g>
          <g id="g3751" transform="translate(21.683 17.932)">
            <path id="path3753" d="M0-20.589a1.5,1.5,0,0,1,1.5-1.5,1.5,1.5,0,0,1,1.5,1.5v2.25a1.5,1.5,0,0,1-1.5,1.5,1.5,1.5,0,0,1-1.5-1.5Z" transform="translate(0 22.089)" fill="none" stroke="#000" stroke-linecap="round" stroke-linejoin="round" stroke-miterlimit="10" stroke-width="1"/>
          </g>
          <g id="g3755" transform="translate(18.682 17.932)">
            <path id="path3757" d="M0-20.589a1.5,1.5,0,0,1,1.5-1.5,1.5,1.5,0,0,1,1.5,1.5v1.5a1.5,1.5,0,0,1-1.5,1.5,1.5,1.5,0,0,1-1.5-1.5Z" transform="translate(0 22.089)" fill="none" stroke="#000" stroke-linecap="round" stroke-linejoin="round" stroke-miterlimit="10" stroke-width="1"/>
          </g>
          <g id="g3759" transform="translate(27.684 16.432)">
            <path id="path3761" d="M-41.09-84.088c0-.042.006-.084.006-.126v-4.5a1.5,1.5,0,0,0-1.5-1.5,1.5,1.5,0,0,0-1.5,1.5v4.5" transform="translate(44.084 90.216)" fill="none" stroke="#000" stroke-linecap="round" stroke-linejoin="round" stroke-miterlimit="10" stroke-width="1"/>
          </g>
          <g id="g3763" transform="translate(30.685 17.932)">
            <path id="path3765" d="M-12.926-113a1.5,1.5,0,0,0,1.308.768h3.109a3,3,0,0,0,2.684-1.659l.128-.256a.75.75,0,0,0-.671-1.086H-8.242a.75.75,0,0,1-.671-.415l-.375-.75a.75.75,0,0,1,0-.671l.375-.75a.75.75,0,0,1,.671-.415h1.874a.75.75,0,0,0,.671-1.086l-.128-.256a3,3,0,0,0-2.684-1.659h-3.109a1.5,1.5,0,0,0-1.413.994.746.746,0,0,1-.7.506h-.14" transform="translate(13.868 121.232)" fill="none" stroke="#000" stroke-linecap="round" stroke-linejoin="round" stroke-miterlimit="10" stroke-width="1"/>
          </g>
          <g id="g3767" transform="translate(11.931 17.932)">
            <path id="path3769" d="M-97.8-7a1.5,1.5,0,0,0-1.125-.51h-3.109a3,3,0,0,0-2.684,1.659l-.128.256a.75.75,0,0,0,.671,1.086h1.874a.75.75,0,0,1,.671.415l.375.75a.75.75,0,0,1,0,.671l-.375.75a.75.75,0,0,1-.671.415h-1.874a.75.75,0,0,0-.671,1.086l.128.256a3,3,0,0,0,2.684,1.659h3.109A1.5,1.5,0,0,0-97.509.5a.746.746,0,0,1,.7-.506h4.769" transform="translate(104.923 7.512)" fill="none" stroke="#000" stroke-linecap="round" stroke-linejoin="round" stroke-miterlimit="10" stroke-width="1"/>
          </g>
          <g id="g3771" transform="translate(20.183 35.935)">
            <path id="path3773" d="M-66.074-82.355h4.937a.75.75,0,0,0,.75-.75v-4.5a.75.75,0,0,0-.75-.75h-9a.75.75,0,0,0-.75.75v4.5a.75.75,0,0,0,.75.75h.895" transform="translate(70.889 88.356)" fill="none" stroke="#000" stroke-linecap="round" stroke-linejoin="round" stroke-miterlimit="10" stroke-width="1"/>
          </g>
          <g id="g3775" transform="translate(23.183 38.936)">
            <path id="path3777" d="M0,0H.75" transform="translate(0 0)" fill="none" stroke="#000" stroke-linecap="round" stroke-linejoin="round" stroke-miterlimit="10" stroke-width="1"/>
          </g>
        </g>
      </g>
    </g>
  </g>
</svg>
