<svg xmlns="http://www.w3.org/2000/svg" width="88.051" height="109.155" viewBox="0 0 88.051 109.155">
  <g id="Grupo_1227311" data-name="Grupo 1227311" transform="translate(-8.293 -2.132)">
    <g id="Grupo_1227141" data-name="Grupo 1227141" transform="translate(8.293 2.132)">
      <g id="Grupo_1227140" data-name="Grupo 1227140">
        <g id="Grupo_1227139" data-name="Grupo 1227139">
          <g id="Grupo_1227138" data-name="Grupo 1227138">
            <g id="Grupo_1227088" data-name="Grupo 1227088" transform="translate(0 79.189)" opacity="0.4">
              <g id="Grupo_1227087" data-name="Grupo 1227087" opacity="0.5">
                <path id="Trazado_1306560" data-name="Trazado 1306560" d="M42.156,72.52l-8.58,5.1a5.138,5.138,0,0,1-4.935.171L9.235,68.013a1.713,1.713,0,0,1-.119-2.993L36.5,48.371,27.156,63.354Z" transform="translate(-8.293 -48.371)" fill="#b6bcd8"/>
              </g>
            </g>
            <g id="Grupo_1227137" data-name="Grupo 1227137" transform="translate(15.492)">
              <g id="Grupo_1227136" data-name="Grupo 1227136">
                <g id="Grupo_1227132" data-name="Grupo 1227132">
                  <g id="Grupo_1227131" data-name="Grupo 1227131">
                    <g id="Grupo_1227105" data-name="Grupo 1227105">
                      <g id="Grupo_1227104" data-name="Grupo 1227104">
                        <g id="Grupo_1227103" data-name="Grupo 1227103">
                          <g id="Grupo_1227102" data-name="Grupo 1227102">
                            <g id="Grupo_1227090" data-name="Grupo 1227090" transform="translate(0.18 100.397)">
                              <g id="Grupo_1227089" data-name="Grupo 1227089">
                                <path id="Trazado_1306561" data-name="Trazado 1306561" d="M26.126,67.764,18.66,63.425a2.915,2.915,0,0,1-1.216-2.671l7.466,4.339a2.915,2.915,0,0,0,1.216,2.671Z" transform="translate(-17.444 -60.754)" fill="#a5abbf"/>
                              </g>
                            </g>
                            <g id="Grupo_1227092" data-name="Grupo 1227092" transform="translate(43.479)">
                              <g id="Grupo_1227091" data-name="Grupo 1227091">
                                <path id="Trazado_1306562" data-name="Trazado 1306562" d="M45.691,2.413l7.466,4.339a2.938,2.938,0,0,0-2.964.289L42.727,2.7a2.938,2.938,0,0,1,2.964-.289Z" transform="translate(-42.727 -2.132)" fill="#a5abbf"/>
                              </g>
                            </g>
                            <g id="Grupo_1227094" data-name="Grupo 1227094" transform="translate(0 30.468)">
                              <g id="Grupo_1227093" data-name="Grupo 1227093">
                                <path id="Trazado_1306563" data-name="Trazado 1306563" d="M24.985,94.19l-7.466-4.339-.18-69.929L24.8,24.261Z" transform="translate(-17.339 -19.922)" fill="#b2b7ce"/>
                              </g>
                            </g>
                            <g id="Grupo_1227096" data-name="Grupo 1227096" transform="translate(4.152 0.571)">
                              <g id="Grupo_1227095" data-name="Grupo 1227095">
                                <path id="Trazado_1306564" data-name="Trazado 1306564" d="M27.229,29.509,19.764,25.17,59.09,2.465,66.556,6.8Z" transform="translate(-19.764 -2.465)" fill="#b2b7ce"/>
                              </g>
                            </g>
                            <g id="Grupo_1227098" data-name="Grupo 1227098" transform="translate(0 23.276)">
                              <g id="Grupo_1227097" data-name="Grupo 1227097">
                                <path id="Trazado_1306565" data-name="Trazado 1306565" d="M24.8,27.254l-7.466-4.338a9.157,9.157,0,0,1,4.152-7.192l7.466,4.338A9.157,9.157,0,0,0,24.8,27.254Z" transform="translate(-17.339 -15.723)" fill="#a5abbf"/>
                              </g>
                            </g>
                            <g id="Grupo_1227101" data-name="Grupo 1227101" transform="translate(7.466 4.338)">
                              <g id="Grupo_1227099" data-name="Grupo 1227099">
                                <path id="Trazado_1306566" data-name="Trazado 1306566" d="M65.177,5.236c2.3-1.328,4.172-.26,4.18,2.382l.18,69.929a9.157,9.157,0,0,1-4.152,7.192L26.058,107.444c-2.3,1.328-4.172.26-4.18-2.382L21.7,35.133a9.157,9.157,0,0,1,4.152-7.192Z" transform="translate(-21.698 -4.665)" fill="#c7cbe2"/>
                              </g>
                              <g id="Grupo_1227100" data-name="Grupo 1227100" transform="translate(3.432 7.593)">
                                <path id="Trazado_1306567" data-name="Trazado 1306567" d="M64.685,74.229a5.128,5.128,0,0,1-2.569,4.453L47.542,87.091l-6.628,3.836L26.425,99.284a1.71,1.71,0,0,1-2.569-1.473L23.737,44.7,23.7,32.818l11.68-6.782,5.463-3.186.36-.206,5.84-3.391.411-.24,5.429-3.151,5.84-3.408L64.514,9.1l.069,26.956Z" transform="translate(-23.703 -9.099)" fill="#dbdcfa"/>
                              </g>
                            </g>
                          </g>
                        </g>
                      </g>
                    </g>
                    <g id="Grupo_1227130" data-name="Grupo 1227130" transform="translate(1.159 37.126)">
                      <g id="Grupo_1227118" data-name="Grupo 1227118" transform="translate(0 12.909)">
                        <g id="Grupo_1227107" data-name="Grupo 1227107" transform="translate(2.997 10.1)">
                          <g id="Grupo_1227106" data-name="Grupo 1227106">
                            <path id="Trazado_1306568" data-name="Trazado 1306568" d="M20.852,38.375l-1.086.631a1.233,1.233,0,0,0,.513-1.13l1.086-.631A1.233,1.233,0,0,1,20.852,38.375Z" transform="translate(-19.766 -37.245)" fill="#4d4d4d"/>
                          </g>
                        </g>
                        <g id="Grupo_1227109" data-name="Grupo 1227109" transform="translate(3.51 3.265)">
                          <g id="Grupo_1227108" data-name="Grupo 1227108">
                            <path id="Trazado_1306569" data-name="Trazado 1306569" d="M20.085,33.885l1.086-.631-.019,6.835-1.086.631Z" transform="translate(-20.065 -33.254)" fill="#4d4d4d"/>
                          </g>
                        </g>
                        <g id="Grupo_1227111" data-name="Grupo 1227111" transform="translate(0.532)">
                          <g id="Grupo_1227110" data-name="Grupo 1227110">
                            <path id="Trazado_1306570" data-name="Trazado 1306570" d="M18.327,32.1l1.086-.631a1.229,1.229,0,0,1,1.242.12l-1.086.631A1.229,1.229,0,0,0,18.327,32.1Z" transform="translate(-18.327 -31.347)" fill="#4d4d4d"/>
                          </g>
                        </g>
                        <g id="Grupo_1227113" data-name="Grupo 1227113" transform="translate(3.03 1.555)">
                          <g id="Grupo_1227112" data-name="Grupo 1227112">
                            <path id="Trazado_1306571" data-name="Trazado 1306571" d="M19.785,32.887l1.086-.631a3.606,3.606,0,0,1,.5,1.71l-1.086.631A3.606,3.606,0,0,0,19.785,32.887Z" transform="translate(-19.785 -32.255)" fill="#4d4d4d"/>
                          </g>
                        </g>
                        <g id="Grupo_1227115" data-name="Grupo 1227115" transform="translate(1.775 0.239)">
                          <g id="Grupo_1227114" data-name="Grupo 1227114">
                            <path id="Trazado_1306572" data-name="Trazado 1306572" d="M19.052,32.118l1.086-.631A3.665,3.665,0,0,1,21.394,32.8l-1.086.631A3.665,3.665,0,0,0,19.052,32.118Z" transform="translate(-19.052 -31.487)" fill="#4d4d4d"/>
                          </g>
                        </g>
                        <g id="Grupo_1227117" data-name="Grupo 1227117" transform="translate(0 0.631)">
                          <g id="Grupo_1227116" data-name="Grupo 1227116">
                            <path id="Trazado_1306573" data-name="Trazado 1306573" d="M19.79,31.955a3.665,3.665,0,0,1,1.256,1.317,3.606,3.606,0,0,1,.5,1.71l-.019,6.835c0,1.118-.793,1.568-1.766,1.007a3.841,3.841,0,0,1-1.744-3.033l.019-6.835c0-1.093.782-1.562,1.755-1Z" transform="translate(-18.016 -31.716)" fill="#323232"/>
                          </g>
                        </g>
                      </g>
                      <g id="Grupo_1227129" data-name="Grupo 1227129" transform="translate(0.035)">
                        <g id="Grupo_1227120" data-name="Grupo 1227120" transform="translate(2.997 10.09)">
                          <g id="Grupo_1227119" data-name="Grupo 1227119">
                            <path id="Trazado_1306574" data-name="Trazado 1306574" d="M20.872,30.831l-1.086.631a1.233,1.233,0,0,0,.513-1.13l1.086-.631A1.233,1.233,0,0,1,20.872,30.831Z" transform="translate(-19.786 -29.701)" fill="#4d4d4d"/>
                          </g>
                        </g>
                        <g id="Grupo_1227122" data-name="Grupo 1227122" transform="translate(3.51 3.28)">
                          <g id="Grupo_1227121" data-name="Grupo 1227121">
                            <path id="Trazado_1306575" data-name="Trazado 1306575" d="M20.1,26.356l1.086-.631-.019,6.81-1.086.631Z" transform="translate(-20.086 -25.725)" fill="#4d4d4d"/>
                          </g>
                        </g>
                        <g id="Grupo_1227124" data-name="Grupo 1227124" transform="translate(0.532)">
                          <g id="Grupo_1227123" data-name="Grupo 1227123">
                            <path id="Trazado_1306576" data-name="Trazado 1306576" d="M18.347,24.559l1.086-.631a1.231,1.231,0,0,1,1.242.123l-1.086.631A1.231,1.231,0,0,0,18.347,24.559Z" transform="translate(-18.347 -23.81)" fill="#4d4d4d"/>
                          </g>
                        </g>
                        <g id="Grupo_1227126" data-name="Grupo 1227126" transform="translate(1.775 0.241)">
                          <g id="Grupo_1227125" data-name="Grupo 1227125">
                            <path id="Trazado_1306577" data-name="Trazado 1306577" d="M19.072,24.582l1.086-.631a3.864,3.864,0,0,1,1.755,3.039l-1.086.631a3.864,3.864,0,0,0-1.755-3.039Z" transform="translate(-19.072 -23.95)" fill="#4d4d4d"/>
                          </g>
                        </g>
                        <g id="Grupo_1227128" data-name="Grupo 1227128" transform="translate(0 0.631)">
                          <g id="Grupo_1227127" data-name="Grupo 1227127">
                            <path id="Trazado_1306578" data-name="Trazado 1306578" d="M19.811,24.419a3.864,3.864,0,0,1,1.755,3.039l-.019,6.81c0,1.118-.793,1.568-1.766,1.006a3.841,3.841,0,0,1-1.744-3.033l.019-6.81C18.059,24.314,18.838,23.857,19.811,24.419Z" transform="translate(-18.036 -24.179)" fill="#323232"/>
                          </g>
                        </g>
                      </g>
                    </g>
                  </g>
                </g>
                <g id="Grupo_1227134" data-name="Grupo 1227134" transform="translate(37.897 4.604)">
                  <g id="Grupo_1227133" data-name="Grupo 1227133" transform="translate(0 0)">
                    <ellipse id="Elipse_13765" data-name="Elipse 13765" cx="1.887" cy="3.257" rx="1.887" ry="3.257" transform="translate(0 3.775) rotate(-89.828)" fill="#4d4d4d"/>
                  </g>
                </g>
                <g id="Grupo_1227135" data-name="Grupo 1227135" transform="translate(37.889 4.615)">
                  <path id="Trazado_1306579" data-name="Trazado 1306579" d="M45.73,7.434a2.609,2.609,0,0,0-.719-.617,5.08,5.08,0,0,0-4.607,0,2.034,2.034,0,0,0-.685.617c-.5-.685-.274-1.507.685-2.055a5.08,5.08,0,0,1,4.607,0C45.97,5.927,46.21,6.749,45.73,7.434Z" transform="translate(-39.463 -4.826)" fill="#1a1a1a"/>
                </g>
              </g>
            </g>
          </g>
        </g>
      </g>
    </g>
    <g id="Grupo_1227142" data-name="Grupo 1227142" transform="translate(51.826 23.979)">
      <path id="Trazado_1306580" data-name="Trazado 1306580" d="M40.409,82.965V83l-6.628,3.819V86.8l-.034-41.359-.034-26.717.36-.206,5.84-3.391.411-.24.034,27.23Z" transform="translate(-33.712 -14.889)" fill="#b2b7ce"/>
    </g>
    <g id="Grupo_1227143" data-name="Grupo 1227143" transform="translate(34.761 46.02)">
      <path id="Trazado_1306581" data-name="Trazado 1306581" d="M64.584,34.369,23.765,57.937l-.017-6.611L64.567,27.759Z" transform="translate(-23.748 -27.759)" fill="#b2b7ce"/>
    </g>
    <g id="Grupo_1227158" data-name="Grupo 1227158" transform="translate(36.088 49.035)">
      <g id="Grupo_1227157" data-name="Grupo 1227157" transform="translate(0)">
        <g id="Grupo_1227153" data-name="Grupo 1227153">
          <g id="Grupo_1227152" data-name="Grupo 1227152">
            <g id="Grupo_1227145" data-name="Grupo 1227145" transform="translate(3.692 3.654)">
              <g id="Grupo_1227144" data-name="Grupo 1227144">
                <path id="Trazado_1306582" data-name="Trazado 1306582" d="M34.964,35.193a7.957,7.957,0,0,1-3.613,6.261,2.551,2.551,0,0,1-2.565.249l-2.108-1.225a2.526,2.526,0,0,0,2.565-.249,8,8,0,0,0,3.624-6.261,2.547,2.547,0,0,0-1.059-2.315l2.108,1.225a2.52,2.52,0,0,1,1.049,2.316Z" transform="translate(-26.678 -31.652)" fill="#de4351"/>
              </g>
            </g>
            <g id="Grupo_1227147" data-name="Grupo 1227147" transform="translate(6.229)">
              <g id="Grupo_1227146" data-name="Grupo 1227146">
                <path id="Trazado_1306583" data-name="Trazado 1306583" d="M32.619,29.943l2.107,1.224c-1.139-.662-2.717-.571-4.459.435L28.16,30.378c1.742-1.006,3.319-1.1,4.459-.435Z" transform="translate(-28.16 -29.519)" fill="#de4351"/>
              </g>
            </g>
            <g id="Grupo_1227149" data-name="Grupo 1227149" transform="translate(0 0.859)">
              <g id="Grupo_1227148" data-name="Grupo 1227148">
                <path id="Trazado_1306584" data-name="Trazado 1306584" d="M32.921,53.238l-2.107-1.224c-.314-.36-6.28-7.2-6.292-11.182A13.76,13.76,0,0,1,30.752,30.02l2.107,1.224a13.76,13.76,0,0,0-6.229,10.811c.011,3.98,5.978,10.822,6.292,11.182Z" transform="translate(-24.523 -30.02)" fill="#de4351"/>
              </g>
            </g>
            <g id="Grupo_1227151" data-name="Grupo 1227151" transform="translate(2.106 1.227)">
              <g id="Grupo_1227150" data-name="Grupo 1227150">
                <path id="Trazado_1306585" data-name="Trazado 1306585" d="M31.986,31.1A13.708,13.708,0,0,0,25.753,41.9c.017,3.973,5.977,10.824,6.285,11.183.325-.719,6.251-14.437,6.234-18.411s-2.826-5.583-6.285-3.579Zm.034,11.372c-2,1.148-3.631.223-3.631-2.089a7.91,7.91,0,0,1,3.6-6.234c2-1.165,3.631-.24,3.648,2.055a8.016,8.016,0,0,1-3.614,6.268Z" transform="translate(-25.753 -30.235)" fill="#f1565d"/>
              </g>
            </g>
          </g>
        </g>
        <g id="Grupo_1227155" data-name="Grupo 1227155" transform="translate(2.061 1.222)" opacity="0.5">
          <g id="Grupo_1227154" data-name="Grupo 1227154">
            <path id="Trazado_1306586" data-name="Trazado 1306586" d="M25.73,41.661a12.452,12.452,0,0,1,2.5-7.359,12.207,12.207,0,0,1,2.786-2.8,6.206,6.206,0,0,1,3.678-1.271,6.588,6.588,0,0,0-3.557,1.44,12.62,12.62,0,0,0-2.689,2.785,15.587,15.587,0,0,0-1.867,3.4,12.153,12.153,0,0,0-.849,3.8Z" transform="translate(-25.726 -30.233)" fill="#fff"/>
          </g>
        </g>
        <g id="Grupo_1227156" data-name="Grupo 1227156" transform="translate(9.451 7.175)" opacity="0.5">
          <path id="Trazado_1306587" data-name="Trazado 1306587" d="M32.575,33.708a6.28,6.28,0,0,1-.892,3.536,7.023,7.023,0,0,1-1.641,1.917,8.1,8.1,0,0,0,2.523-5.331v-.077a.066.066,0,0,0,.011-.044Z" transform="translate(-30.041 -33.708)" fill="#fff"/>
        </g>
      </g>
    </g>
    <g id="Grupo_1227190" data-name="Grupo 1227190" transform="translate(34.68 14.035)">
      <g id="Grupo_1227183" data-name="Grupo 1227183" transform="translate(5.838)">
        <g id="Grupo_1227160" data-name="Grupo 1227160" transform="translate(29.187)">
          <g id="Grupo_1227159" data-name="Grupo 1227159">
            <path id="Trazado_1306588" data-name="Trazado 1306588" d="M66.078,20.505,60.241,23.9,44.152,12.475l5.837-3.392Z" transform="translate(-44.152 -9.082)" fill="#ffb850"/>
          </g>
        </g>
        <g id="Grupo_1227162" data-name="Grupo 1227162" transform="translate(23.35 3.392)">
          <g id="Grupo_1227161" data-name="Grupo 1227161">
            <path id="Trazado_1306589" data-name="Trazado 1306589" d="M62.67,22.486l-5.837,3.392L40.743,14.456l5.837-3.392Z" transform="translate(-40.743 -11.063)" fill="#4d4d4d"/>
          </g>
        </g>
        <g id="Grupo_1227164" data-name="Grupo 1227164" transform="translate(17.512 6.785)">
          <g id="Grupo_1227163" data-name="Grupo 1227163">
            <path id="Trazado_1306590" data-name="Trazado 1306590" d="M59.261,24.467l-5.837,3.392L37.335,16.436l5.837-3.392Z" transform="translate(-37.335 -13.044)" fill="#ffb850"/>
          </g>
        </g>
        <g id="Grupo_1227166" data-name="Grupo 1227166" transform="translate(11.675 10.177)">
          <g id="Grupo_1227165" data-name="Grupo 1227165">
            <path id="Trazado_1306591" data-name="Trazado 1306591" d="M55.853,26.448,50.015,29.84,33.926,18.417l5.837-3.392Z" transform="translate(-33.926 -15.025)" fill="#4d4d4d"/>
          </g>
        </g>
        <g id="Grupo_1227168" data-name="Grupo 1227168" transform="translate(5.837 13.569)">
          <g id="Grupo_1227167" data-name="Grupo 1227167">
            <path id="Trazado_1306592" data-name="Trazado 1306592" d="M52.444,28.429l-5.837,3.392L30.518,20.4l5.837-3.392Z" transform="translate(-30.518 -17.006)" fill="#ffb850"/>
          </g>
        </g>
        <g id="Grupo_1227170" data-name="Grupo 1227170" transform="translate(0 16.962)">
          <g id="Grupo_1227169" data-name="Grupo 1227169">
            <path id="Trazado_1306593" data-name="Trazado 1306593" d="M49.036,30.409,43.2,33.8,27.109,22.379l5.837-3.392Z" transform="translate(-27.109 -18.986)" fill="#4d4d4d"/>
          </g>
        </g>
        <g id="Grupo_1227172" data-name="Grupo 1227172" transform="translate(45.276 11.423)">
          <g id="Grupo_1227171" data-name="Grupo 1227171">
            <path id="Trazado_1306594" data-name="Trazado 1306594" d="M59.374,15.752l.01,3.36a6.415,6.415,0,0,1-2.915,5.049c-1.6.922-2.908.175-2.913-1.684l-.01-3.36Z" transform="translate(-53.546 -15.752)" fill="#fd9401"/>
          </g>
        </g>
        <g id="Grupo_1227174" data-name="Grupo 1227174" transform="translate(39.429 14.815)">
          <g id="Grupo_1227173" data-name="Grupo 1227173">
            <path id="Trazado_1306595" data-name="Trazado 1306595" d="M55.96,17.733l.01,3.36a6.415,6.415,0,0,1-2.915,5.049c-1.6.922-2.908.175-2.913-1.684l-.01-3.36Z" transform="translate(-50.132 -17.733)" fill="#323232"/>
          </g>
        </g>
        <g id="Grupo_1227176" data-name="Grupo 1227176" transform="translate(33.583 18.207)">
          <g id="Grupo_1227175" data-name="Grupo 1227175">
            <path id="Trazado_1306596" data-name="Trazado 1306596" d="M52.546,19.713l.01,3.36a6.415,6.415,0,0,1-2.915,5.049c-1.6.922-2.908.175-2.913-1.684l-.01-3.36Z" transform="translate(-46.718 -19.713)" fill="#fd9401"/>
          </g>
        </g>
        <g id="Grupo_1227178" data-name="Grupo 1227178" transform="translate(27.736 21.599)">
          <g id="Grupo_1227177" data-name="Grupo 1227177">
            <path id="Trazado_1306597" data-name="Trazado 1306597" d="M49.132,21.694l.01,3.36A6.415,6.415,0,0,1,46.227,30.1c-1.6.922-2.908.175-2.913-1.684l-.01-3.36Z" transform="translate(-43.304 -21.694)" fill="#323232"/>
          </g>
        </g>
        <g id="Grupo_1227180" data-name="Grupo 1227180" transform="translate(21.889 24.99)">
          <g id="Grupo_1227179" data-name="Grupo 1227179">
            <path id="Trazado_1306598" data-name="Trazado 1306598" d="M45.718,23.674l.01,3.36a6.415,6.415,0,0,1-2.915,5.049c-1.6.922-2.908.175-2.913-1.684l-.01-3.36Z" transform="translate(-39.89 -23.674)" fill="#fd9401"/>
          </g>
        </g>
        <g id="Grupo_1227182" data-name="Grupo 1227182" transform="translate(16.042 28.382)">
          <g id="Grupo_1227181" data-name="Grupo 1227181">
            <path id="Trazado_1306599" data-name="Trazado 1306599" d="M42.3,25.655l.01,3.36A6.415,6.415,0,0,1,39.4,34.064c-1.6.922-2.908.175-2.913-1.684l-.01-3.36Z" transform="translate(-36.476 -25.655)" fill="#323232"/>
          </g>
        </g>
      </g>
      <g id="Grupo_1227185" data-name="Grupo 1227185" transform="translate(0 23.746)">
        <g id="Grupo_1227184" data-name="Grupo 1227184">
          <path id="Trazado_1306600" data-name="Trazado 1306600" d="M40.03,34.4l-.023,3.643L23.73,34.831,23.7,22.948Z" transform="translate(-23.701 -22.948)" fill="#e88602"/>
        </g>
      </g>
      <g id="Grupo_1227187" data-name="Grupo 1227187" transform="translate(16.033 31.774)">
        <g id="Grupo_1227186" data-name="Grupo 1227186">
          <path id="Trazado_1306601" data-name="Trazado 1306601" d="M38.89,27.636,38.9,31a6.415,6.415,0,0,1-2.915,5.049c-1.6.922-2.908.175-2.913-1.684L33.062,31Z" transform="translate(-33.062 -27.636)" fill="#fd9401"/>
        </g>
      </g>
      <g id="Grupo_1227189" data-name="Grupo 1227189" transform="translate(0 20.354)">
        <g id="Grupo_1227188" data-name="Grupo 1227188">
          <path id="Trazado_1306602" data-name="Trazado 1306602" d="M45.627,32.39l-5.894,3.362L23.7,24.36l5.837-3.392Z" transform="translate(-23.701 -20.967)" fill="#ffb850"/>
        </g>
      </g>
    </g>
    <g id="Grupo_1227205" data-name="Grupo 1227205" transform="translate(60.15 61.11)">
      <g id="Grupo_1227204" data-name="Grupo 1227204">
        <g id="Grupo_1227200" data-name="Grupo 1227200">
          <g id="Grupo_1227199" data-name="Grupo 1227199">
            <g id="Grupo_1227192" data-name="Grupo 1227192" transform="translate(3.692 3.654)">
              <g id="Grupo_1227191" data-name="Grupo 1227191">
                <path id="Trazado_1306603" data-name="Trazado 1306603" d="M49.014,42.243A7.957,7.957,0,0,1,45.4,48.5a2.551,2.551,0,0,1-2.565.249l-2.108-1.225a2.526,2.526,0,0,0,2.565-.249,8,8,0,0,0,3.624-6.261A2.547,2.547,0,0,0,45.858,38.7l2.108,1.225a2.52,2.52,0,0,1,1.049,2.316Z" transform="translate(-40.728 -38.703)" fill="#9951e5"/>
              </g>
            </g>
            <g id="Grupo_1227194" data-name="Grupo 1227194" transform="translate(6.229)">
              <g id="Grupo_1227193" data-name="Grupo 1227193">
                <path id="Trazado_1306604" data-name="Trazado 1306604" d="M46.669,36.993l2.107,1.224c-1.139-.662-2.717-.571-4.459.435L42.21,37.428c1.742-1.006,3.319-1.1,4.459-.435Z" transform="translate(-42.21 -36.569)" fill="#8142d3"/>
              </g>
            </g>
            <g id="Grupo_1227196" data-name="Grupo 1227196" transform="translate(0 0.859)">
              <g id="Grupo_1227195" data-name="Grupo 1227195">
                <path id="Trazado_1306605" data-name="Trazado 1306605" d="M46.971,60.288l-2.107-1.224c-.314-.36-6.28-7.2-6.292-11.182A13.76,13.76,0,0,1,44.8,37.071l2.107,1.224a13.76,13.76,0,0,0-6.229,10.811c.011,3.98,5.978,10.822,6.292,11.182Z" transform="translate(-38.573 -37.071)" fill="#9951e5"/>
              </g>
            </g>
            <g id="Grupo_1227198" data-name="Grupo 1227198" transform="translate(2.106 1.226)">
              <g id="Grupo_1227197" data-name="Grupo 1227197">
                <path id="Trazado_1306606" data-name="Trazado 1306606" d="M46.036,38.147A13.707,13.707,0,0,0,39.8,48.954c.017,3.973,5.977,10.824,6.285,11.183.325-.719,6.251-14.437,6.234-18.411S49.5,36.144,46.036,38.147Zm.034,11.372c-2,1.148-3.631.223-3.631-2.089a7.91,7.91,0,0,1,3.6-6.234c2-1.165,3.631-.24,3.648,2.055a8.016,8.016,0,0,1-3.614,6.268Z" transform="translate(-39.802 -37.285)" fill="#b15cff"/>
              </g>
            </g>
          </g>
        </g>
        <g id="Grupo_1227202" data-name="Grupo 1227202" transform="translate(2.061 1.222)" opacity="0.5">
          <g id="Grupo_1227201" data-name="Grupo 1227201">
            <path id="Trazado_1306607" data-name="Trazado 1306607" d="M39.78,48.711a12.452,12.452,0,0,1,2.5-7.359,12.207,12.207,0,0,1,2.786-2.8,6.206,6.206,0,0,1,3.678-1.271,6.588,6.588,0,0,0-3.557,1.44A12.62,12.62,0,0,0,42.5,41.51a15.587,15.587,0,0,0-1.867,3.4,12.152,12.152,0,0,0-.849,3.8Z" transform="translate(-39.776 -37.283)" fill="#fff"/>
          </g>
        </g>
        <g id="Grupo_1227203" data-name="Grupo 1227203" transform="translate(9.451 7.175)" opacity="0.5">
          <path id="Trazado_1306608" data-name="Trazado 1306608" d="M46.625,40.758a6.28,6.28,0,0,1-.892,3.536,7.022,7.022,0,0,1-1.641,1.917,8.1,8.1,0,0,0,2.523-5.331V40.8a.066.066,0,0,0,.011-.044Z" transform="translate(-44.091 -40.758)" fill="#fff"/>
        </g>
      </g>
    </g>
    <g id="Grupo_1227243" data-name="Grupo 1227243" transform="translate(74.243 62.983)">
      <g id="Grupo_1227241" data-name="Grupo 1227241">
        <g id="Grupo_1227240" data-name="Grupo 1227240">
          <g id="Grupo_1227221" data-name="Grupo 1227221">
            <g id="Grupo_1227208" data-name="Grupo 1227208" transform="translate(0.082 22.35)">
              <g id="Grupo_1227207" data-name="Grupo 1227207">
                <g id="Grupo_1227206" data-name="Grupo 1227206">
                  <path id="Trazado_1306609" data-name="Trazado 1306609" d="M46.85,60.785l5.632,3.273L68.869,54.6l-4.574-3.884Z" transform="translate(-46.85 -50.713)" fill="#6db73d"/>
                </g>
              </g>
            </g>
            <g id="Grupo_1227220" data-name="Grupo 1227220">
              <g id="Grupo_1227219" data-name="Grupo 1227219">
                <g id="Grupo_1227211" data-name="Grupo 1227211" transform="translate(0 9.461)">
                  <g id="Grupo_1227210" data-name="Grupo 1227210">
                    <g id="Grupo_1227209" data-name="Grupo 1227209">
                      <path id="Trazado_1306610" data-name="Trazado 1306610" d="M46.8,43.188l.081,22.96,4.479.68-.081-22.96Z" transform="translate(-46.802 -43.188)" fill="#89de56"/>
                    </g>
                  </g>
                </g>
                <g id="Grupo_1227218" data-name="Grupo 1227218">
                  <g id="Grupo_1227213" data-name="Grupo 1227213">
                    <g id="Grupo_1227212" data-name="Grupo 1227212">
                      <path id="Trazado_1306611" data-name="Trazado 1306611" d="M46.8,47.124l4.479.68L52.435,50.4l16.387-9.461-4.474-.677-1.158-2.6Z" transform="translate(-46.802 -37.663)" fill="#6db73d"/>
                    </g>
                  </g>
                  <g id="Grupo_1227215" data-name="Grupo 1227215" transform="translate(16.066 0.998)">
                    <g id="Grupo_1227214" data-name="Grupo 1227214">
                      <path id="Trazado_1306612" data-name="Trazado 1306612" d="M60.052,40.916,56.2,43.138l-.014-4.892,1,2.236Z" transform="translate(-56.183 -38.246)" fill="#89de56"/>
                    </g>
                  </g>
                  <g id="Grupo_1227217" data-name="Grupo 1227217" transform="translate(2.083 0.998)">
                    <g id="Grupo_1227216" data-name="Grupo 1227216">
                      <path id="Trazado_1306613" data-name="Trazado 1306613" d="M62.015,43.138,51.894,48.984l-1-2.229-2.881-.442L62,38.246Z" transform="translate(-48.018 -38.246)" fill="#83d34f"/>
                    </g>
                  </g>
                </g>
              </g>
            </g>
          </g>
          <g id="Grupo_1227224" data-name="Grupo 1227224" transform="translate(4.479 10.141)">
            <g id="Grupo_1227223" data-name="Grupo 1227223">
              <g id="Grupo_1227222" data-name="Grupo 1227222">
                <path id="Trazado_1306614" data-name="Trazado 1306614" d="M49.417,43.584l.081,22.96,1.154,2.594-.081-22.96Z" transform="translate(-49.417 -43.584)" fill="#78c646"/>
              </g>
            </g>
          </g>
          <g id="Grupo_1227227" data-name="Grupo 1227227" transform="translate(5.633 3.273)">
            <g id="Grupo_1227226" data-name="Grupo 1227226">
              <g id="Grupo_1227225" data-name="Grupo 1227225">
                <path id="Trazado_1306615" data-name="Trazado 1306615" d="M50.091,49.036,50.172,72l16.387-9.461-.081-22.96Z" transform="translate(-50.091 -39.575)" fill="#83d34f"/>
              </g>
            </g>
          </g>
          <g id="Grupo_1227239" data-name="Grupo 1227239" transform="translate(9.423 8.808)">
            <g id="Grupo_1227232" data-name="Grupo 1227232" transform="translate(0)">
              <g id="Grupo_1227229" data-name="Grupo 1227229" transform="translate(0 3.888)">
                <g id="Grupo_1227228" data-name="Grupo 1227228">
                  <path id="Trazado_1306616" data-name="Trazado 1306616" d="M53.032,47.808a.693.693,0,0,1-.347-.089.851.851,0,0,1-.381-.776,2.15,2.15,0,0,1,.989-1.714.894.894,0,0,1,.82-.089.763.763,0,0,1,.414.579,1.673,1.673,0,0,1,.014.2c0,.05,0,.1-.007.149a.243.243,0,0,1,0,.062,2.187,2.187,0,0,1-.988,1.524A1.024,1.024,0,0,1,53.032,47.808Zm.781-2.232a.579.579,0,0,0-.271.087,1.654,1.654,0,0,0-.737,1.279.381.381,0,0,0,.129.341.392.392,0,0,0,.362-.063,1.676,1.676,0,0,0,.736-1.107.22.22,0,0,1,0-.036c0-.052.009-.105.009-.158a1.224,1.224,0,0,0-.009-.129.277.277,0,0,0-.129-.2A.211.211,0,0,0,53.813,45.576Z" transform="translate(-52.304 -45.076)" fill="#333"/>
                </g>
              </g>
              <g id="Grupo_1227231" data-name="Grupo 1227231" transform="translate(6.65)">
                <g id="Grupo_1227230" data-name="Grupo 1227230">
                  <path id="Trazado_1306617" data-name="Trazado 1306617" d="M56.915,45.538a.694.694,0,0,1-.347-.089.852.852,0,0,1-.381-.776,2.15,2.15,0,0,1,.989-1.714A.894.894,0,0,1,58,42.87a.763.763,0,0,1,.414.579,1.816,1.816,0,0,1,.014.2c0,.05,0,.1-.007.15a.251.251,0,0,1,0,.061,2.189,2.189,0,0,1-.987,1.524A1.026,1.026,0,0,1,56.915,45.538Zm.781-2.232a.579.579,0,0,0-.271.087,1.654,1.654,0,0,0-.737,1.279.382.382,0,0,0,.128.341.392.392,0,0,0,.362-.063,1.676,1.676,0,0,0,.735-1.109.225.225,0,0,1,0-.033V43.8c0-.05.008-.1.008-.149a1.2,1.2,0,0,0-.008-.122.28.28,0,0,0-.129-.2A.211.211,0,0,0,57.7,43.306Z" transform="translate(-56.187 -42.806)" fill="#333"/>
                </g>
              </g>
            </g>
            <g id="Grupo_1227234" data-name="Grupo 1227234" transform="translate(0.232 0.806)">
              <g id="Grupo_1227233" data-name="Grupo 1227233">
                <path id="Trazado_1306618" data-name="Trazado 1306618" d="M55.871,54.752a1.982,1.982,0,0,1-1-.259,2.58,2.58,0,0,1-1.112-2.371L53.748,49a1.2,1.2,0,0,0-.594-1.029l-.59-.343a.25.25,0,0,1,.252-.433l.59.343A1.7,1.7,0,0,1,54.249,49l.009,3.125a2.112,2.112,0,0,0,.861,1.939,2.136,2.136,0,0,0,2.132-.236,7.1,7.1,0,0,0,3.216-5.576l-.009-3.124a1.2,1.2,0,0,0-.594-1.029l-.6-.351a.25.25,0,1,1,.252-.433l.6.351a1.7,1.7,0,0,1,.843,1.461l.009,3.124A7.656,7.656,0,0,1,57.5,54.257,3.305,3.305,0,0,1,55.871,54.752Z" transform="translate(-52.439 -43.277)" fill="#fff"/>
              </g>
            </g>
            <g id="Grupo_1227236" data-name="Grupo 1227236" transform="translate(6.65 0.119)">
              <g id="Grupo_1227235" data-name="Grupo 1227235">
                <path id="Trazado_1306619" data-name="Trazado 1306619" d="M56.438,44.874a.25.25,0,0,1-.25-.25,2.15,2.15,0,0,1,.989-1.714.25.25,0,1,1,.249.434,1.654,1.654,0,0,0-.738,1.28A.25.25,0,0,1,56.438,44.874Z" transform="translate(-56.187 -42.876)" fill="#333"/>
              </g>
            </g>
            <g id="Grupo_1227238" data-name="Grupo 1227238" transform="translate(0 4.007)">
              <g id="Grupo_1227237" data-name="Grupo 1227237">
                <path id="Trazado_1306620" data-name="Trazado 1306620" d="M52.554,47.144a.25.25,0,0,1-.25-.25,2.15,2.15,0,0,1,.989-1.714.25.25,0,0,1,.249.434,1.654,1.654,0,0,0-.738,1.28A.25.25,0,0,1,52.554,47.144Z" transform="translate(-52.304 -45.146)" fill="#333"/>
              </g>
            </g>
          </g>
        </g>
      </g>
      <g id="Grupo_1227242" data-name="Grupo 1227242" transform="translate(5.633 6.839)" opacity="0.5">
        <path id="Trazado_1306621" data-name="Trazado 1306621" d="M60.248,41.657l-10.157,5.9v8.825l.943-8.266Z" transform="translate(-50.091 -41.657)" fill="#fff"/>
      </g>
    </g>
  </g>
</svg>
