<svg xmlns="http://www.w3.org/2000/svg" width="60.007" height="54" viewBox="0 0 60.007 54">
  <g id="_043---Wet-Floor" data-name="043---Wet-Floor" transform="translate(0.003 0)">
    <g id="Icons" transform="translate(0 1)">
      <path id="Shape" d="M54.54,52H5.46a4.521,4.521,0,0,1-3.85-6.79L26.15,2.25a4.424,4.424,0,0,1,7.7,0L58.39,45.21A4.521,4.521,0,0,1,54.54,52Z" fill="#fec108"/>
      <path id="Shape-2" data-name="Shape" d="M51.54,52H5.46a4.521,4.521,0,0,1-3.85-6.79L26.15,2.25A4.294,4.294,0,0,1,28.5.27a4.294,4.294,0,0,1,2.35,1.98L55.39,45.21A4.521,4.521,0,0,1,51.54,52Z" fill="#ffdc00"/>
      <path id="Shape-3" data-name="Shape" d="M44.95,28.55a2.007,2.007,0,0,0-2.41-1.5l-5.8,1.36c-1.982.477-1.488.38-1.59.38-1.724,1-.243.141-6.93,4.04L25.85,30c3.857,0,3.283.187,7.23-3.76a2,2,0,1,0-2.83-2.83L27.66,26H23.23A3,3,0,1,0,18,24a2.967,2.967,0,0,0,2.19,2.88c-.629.419.037-.034-4.45,3.038a4,4,0,0,0-1.74,3.3V37a2,2,0,0,0,2.177,1.992A2.075,2.075,0,0,0,18,36.888V33.22l2.11-1.45,5.333,6.4a4,4,0,0,0,2.886,1.43l5.331.248,5.62,3.99a2,2,0,0,0,2.22-3.33c-5.266-3.752-3.877-2.756-6.49-4.61-1.374-.063-.538-.024-3.8-.18,5.535-3.224,5.37-3.18,5.47-3.18l6.78-1.59a2,2,0,0,0,1.49-2.4Z" fill="#607d8b"/>
    </g>
    <g id="Layer_2" transform="translate(-1)">
      <path id="Shape-4" data-name="Shape" d="M60.261,45.718,35.718,2.756a5.416,5.416,0,0,0-9.436,0L1.739,45.718A5.518,5.518,0,0,0,6.458,54H55.542a5.518,5.518,0,0,0,4.719-8.282ZM55.542,52H6.458a3.519,3.519,0,0,1-2.982-5.29L28.018,3.748a3.417,3.417,0,0,1,5.964,0L58.524,46.71A3.518,3.518,0,0,1,55.542,52Z"/>
      <path id="Shape-5" data-name="Shape" d="M45.584,27.452a3,3,0,0,0-2.272-.376L35.984,28.8c-.26.045.22-.2-6.539,3.737l-.462-.552A5.033,5.033,0,0,0,32.2,30.537l2.591-2.59A3,3,0,0,0,34.78,23.7a3.062,3.062,0,0,0-4.234,0l-2.3,2.3H25.858a3.99,3.99,0,1,0-6.543,1.944L16.179,30.1A4.978,4.978,0,0,0,14,34.22V38a3,3,0,0,0,3.266,2.986A3.074,3.074,0,0,0,20,37.89V34.746l.925-.636,4.748,5.7a5.019,5.019,0,0,0,3.61,1.787l5.037.236,5.38,3.82a2.971,2.971,0,0,0,1.741.557,3.005,3.005,0,0,0,1.639-5.516c-7.248-5.166-6.471-4.767-7.443-4.812l2.4-1.4,6.646-1.558a3.007,3.007,0,0,0,.9-5.472ZM22,23a2,2,0,1,1-2,2A2,2,0,0,1,22,23Zm22.231,7.977c-7.438,1.723-6.885,1.6-7.064,1.7l-5.46,3.179a1,1,0,0,0,.455,1.864l3.508.167,6.248,4.437a1.1,1.1,0,0,1,.411,1.355,1.008,1.008,0,0,1-1.47.346c-5.987-4.265-5.734-4.154-6.152-4.173l-5.332-.25a3.009,3.009,0,0,1-2.167-1.071l-5.33-6.4a1,1,0,0,0-1.335-.185L18.434,33.4a1,1,0,0,0-.434.82v3.67a1.081,1.081,0,0,1-.916,1.1A1,1,0,0,1,16,38V34.22a2.989,2.989,0,0,1,1.3-2.475c3.16-2.155,3.981-2.721,4.082-2.807A3.873,3.873,0,0,0,24.618,28H28.66a1,1,0,0,0,.707-.293l2.591-2.59a1,1,0,0,1,1.415,1.416C29.713,30.2,30.446,30,26.85,30a1,1,0,0,0-.767,1.642l2.371,2.83a1,1,0,0,0,1.27.222l6.8-3.962,7.246-1.708a1,1,0,0,1,.465,1.953Z"/>
      <path id="Shape-6" data-name="Shape" d="M29.143,47.963a1.688,1.688,0,0,1-1.758-.716,3.747,3.747,0,0,0-1.666-1.34c-1.557-.626-2.2.1-3.126-.265a1.754,1.754,0,0,1-.774-.633,1,1,0,0,0-1.638,1.148,3.749,3.749,0,0,0,1.667,1.34c1.493.6,2.239-.088,3.125.266a1.746,1.746,0,0,1,.767.621,3.678,3.678,0,0,0,3.817,1.536,1,1,0,0,0-.414-1.957Z"/>
      <path id="Shape-7" data-name="Shape" d="M36.793,45.963a1.686,1.686,0,0,1-1.757-.716,3.762,3.762,0,0,0-1.667-1.34c-1.584-.637-2.181.111-3.125-.265a1.742,1.742,0,0,1-.774-.632,1,1,0,0,0-1.639,1.146A3.74,3.74,0,0,0,29.5,45.5c1.542.62,2.21-.1,3.125.266a1.747,1.747,0,0,1,.767.621,3.678,3.678,0,0,0,3.817,1.536,1,1,0,0,0-.414-1.957Z"/>
    </g>
  </g>
</svg>
