<svg xmlns="http://www.w3.org/2000/svg" xmlns:xlink="http://www.w3.org/1999/xlink" width="102" height="102" viewBox="0 0 102 102">
  <defs>
    <filter id="Elipse_11494" x="0" y="0" width="102" height="102" filterUnits="userSpaceOnUse">
      <feOffset dy="3" input="SourceAlpha"/>
      <feGaussianBlur stdDeviation="3" result="blur"/>
      <feFlood flood-opacity="0.161"/>
      <feComposite operator="in" in2="blur"/>
      <feComposite in="SourceGraphic"/>
    </filter>
  </defs>
  <g id="Grupo_1228046" data-name="Grupo 1228046" transform="translate(-1009.949 -6964.229)">
    <g id="Grupo_1227316" data-name="Grupo 1227316" transform="translate(1018.949 6970.229)">
      <g transform="matrix(1, 0, 0, 1, -9, -6)" filter="url(#Elipse_11494)">
        <g id="Elipse_11494-2" data-name="Elipse 11494" transform="translate(9 6)" fill="#e1e7fb" stroke="#fff" stroke-width="4">
          <circle cx="42" cy="42" r="42" stroke="none"/>
          <circle cx="42" cy="42" r="40" fill="none"/>
        </g>
      </g>
    </g>
    <g id="Grupo_1227941" data-name="Grupo 1227941" transform="translate(1037.766 6975.115)">
      <g id="Grupo_1227940" data-name="Grupo 1227940" transform="translate(0.724 16.042)">
        <g id="Grupo_1227931" data-name="Grupo 1227931" transform="translate(0 10.007)">
          <path id="Trazado_1307909" data-name="Trazado 1307909" d="M14.5,133.817a6.5,6.5,0,1,1-2.074,12.66l-3.27.876A.453.453,0,0,1,8.6,146.8l.694-2.59a6.5,6.5,0,0,1,5.2-10.391Z" transform="translate(-8 -133.817)" fill="#6cf5c2" fill-rule="evenodd"/>
          <path id="Trazado_1307910" data-name="Trazado 1307910" d="M9.294,204.925A6.47,6.47,0,0,1,8,201.033c0-.089,0-.178.006-.266a7.97,7.97,0,0,0,1.464,3.5Zm11.688-4.345a6.5,6.5,0,0,1-8.557,5.708l-3.27.876a.442.442,0,0,1-.431-.111l-.124.462a.453.453,0,0,0,.554.555l3.27-.876A6.5,6.5,0,0,0,21,201.033C21,200.881,20.992,200.73,20.982,200.58Z" transform="translate(-8 -194.534)" fill="#00e499" fill-rule="evenodd"/>
        </g>
        <g id="Grupo_1227934" data-name="Grupo 1227934" transform="translate(31.92 10.007)">
          <g id="Grupo_1227933" data-name="Grupo 1227933">
            <path id="Trazado_1307911" data-name="Trazado 1307911" d="M366.971,133.817a6.5,6.5,0,1,0,2.074,12.66l3.27.876a.453.453,0,0,0,.555-.554l-.694-2.59a6.5,6.5,0,0,0-5.2-10.391Z" transform="translate(-360.472 -133.817)" fill="#fe646f" fill-rule="evenodd"/>
            <g id="Grupo_1227932" data-name="Grupo 1227932" transform="translate(0 6.046)">
              <path id="Trazado_1307912" data-name="Trazado 1307912" d="M487.94,206.8a6.47,6.47,0,0,0,1.294-3.892c0-.089,0-.178-.006-.266a7.97,7.97,0,0,1-1.464,3.5Z" transform="translate(-476.237 -202.457)" fill="#fd4755" fill-rule="evenodd"/>
              <path id="Trazado_1307913" data-name="Trazado 1307913" d="M360.489,200.58c-.01.15-.016.3-.016.453a6.5,6.5,0,0,0,8.573,6.161l3.27.876a.453.453,0,0,0,.554-.555l-.124-.462a.442.442,0,0,1-.431.111l-3.27-.876a6.5,6.5,0,0,1-8.557-5.708Z" transform="translate(-360.473 -200.58)" fill="#fd4755" fill-rule="evenodd"/>
            </g>
          </g>
        </g>
        <g id="Grupo_1227939" data-name="Grupo 1227939" transform="translate(0 0)">
          <g id="Grupo_1227935" data-name="Grupo 1227935" transform="translate(14.082)">
            <path id="Trazado_1307914" data-name="Trazado 1307914" d="M173.329,25.74a6.049,6.049,0,0,1,1.588.658l1.987-1.439,1.59,1.59-1.439,1.988a6.052,6.052,0,0,1,.658,1.588l2.422.388v2.249l-2.422.388a6.05,6.05,0,0,1-.658,1.588l1.439,1.987-1.59,1.59-1.988-1.439a6.053,6.053,0,0,1-1.588.658l-.388,2.422h-2.249l-.388-2.422a6.046,6.046,0,0,1-1.588-.658l-1.987,1.439-1.59-1.59,1.439-1.988a6.053,6.053,0,0,1-.658-1.588l-2.422-.388V30.513l2.422-.388a6.052,6.052,0,0,1,.658-1.588l-1.439-1.987,1.59-1.59,1.987,1.439a6.052,6.052,0,0,1,1.588-.658l.388-2.422h2.249Z" transform="translate(-163.498 -23.318)" fill="#ffe177" fill-rule="evenodd"/>
            <path id="Trazado_1307915" data-name="Trazado 1307915" d="M205.014,25.34l.525-.38,1.59,1.59-1.439,1.988a6.053,6.053,0,0,1,.658,1.588l2.422.388v2.249l-2.422.388a6.05,6.05,0,0,1-.658,1.588l1.439,1.987-1.59,1.59-.525-.38,1.21-1.21-1.439-1.987a6.049,6.049,0,0,0,.658-1.588l2.422-.388V30.513l-2.422-.388a6.05,6.05,0,0,0-.658-1.588l1.439-1.988Zm-3.05.4a6.047,6.047,0,0,1,1.538.629.336.336,0,0,0,.049.029l-.382.277a10.882,10.882,0,0,0-2.111-.935l-.388-2.422h.906ZM203.5,36.9a6.048,6.048,0,0,1-1.539.63l-.388,2.422h-.906l.388-2.422a10.874,10.874,0,0,0,2.111-.935l.382.277a.331.331,0,0,0-.049.029ZM194.984,25.34l.38-.38,1.987,1.439q-.269.126-.523.277Zm2.368,11.536-1.987,1.439-.38-.38,1.845-1.335q.254.151.523.277Z" transform="translate(-192.133 -23.318)" fill="#ffd064" fill-rule="evenodd"/>
            <circle id="Elipse_13819" data-name="Elipse 13819" cx="3.586" cy="3.586" r="3.586" transform="translate(4.734 4.734)" fill="#eceff1"/>
            <path id="Trazado_1307916" data-name="Trazado 1307916" d="M219.354,75.59a3.625,3.625,0,0,1,.453.028,3.586,3.586,0,0,0,0,7.114,3.628,3.628,0,0,1-.453.028,3.586,3.586,0,1,1,0-7.171Z" transform="translate(-211.034 -70.856)" fill="#d1d1d6" fill-rule="evenodd"/>
          </g>
          <g id="Grupo_1227936" data-name="Grupo 1227936" transform="translate(0 26.591)">
            <path id="Trazado_1307917" data-name="Trazado 1307917" d="M19.31,403.66H8.906A.907.907,0,0,1,8,402.754v-4.643c0-1.359,1.211-2.131,2.588-2.473a14.146,14.146,0,0,1,7.04,0c1.374.353,2.588,1.113,2.588,2.473v4.643A.907.907,0,0,1,19.31,403.66Z" transform="translate(-8 -388.108)" fill="#80b4fb" fill-rule="evenodd"/>
            <path id="Trazado_1307918" data-name="Trazado 1307918" d="M76.415,403.661h-.906a.907.907,0,0,0,.906-.906v-4.643c0-1.36-1.214-2.12-2.588-2.473a13.983,13.983,0,0,0-3.036-.437,13.926,13.926,0,0,1,3.942.438c1.374.353,2.588,1.113,2.588,2.473v4.643A.907.907,0,0,1,76.415,403.661Z" transform="translate(-65.105 -388.109)" fill="#61a2f9" fill-rule="evenodd"/>
            <path id="Trazado_1307919" data-name="Trazado 1307919" d="M47.845,316.952a2.575,2.575,0,0,0-2.749,2.86c0,2,1.231,3.613,2.749,3.613s2.749-1.617,2.749-3.613A2.575,2.575,0,0,0,47.845,316.952Z" transform="translate(-41.737 -316.952)" fill="#ffece3" fill-rule="evenodd"/>
            <path id="Trazado_1307920" data-name="Trazado 1307920" d="M70.9,316.952a3.7,3.7,0,0,0-.453.027,2.543,2.543,0,0,1,2.3,2.833,3.467,3.467,0,0,1-2.3,3.563,2.125,2.125,0,0,0,.453.049c1.518,0,2.749-1.617,2.749-3.613A2.575,2.575,0,0,0,70.9,316.952Z" transform="translate(-64.792 -316.952)" fill="#ffddce" fill-rule="evenodd"/>
          </g>
          <g id="Grupo_1227937" data-name="Grupo 1227937" transform="translate(32.702 26.591)">
            <path id="Trazado_1307921" data-name="Trazado 1307921" d="M380.416,403.66h-10.4a.907.907,0,0,1-.906-.906v-4.643c0-1.359,1.211-2.131,2.588-2.473a14.146,14.146,0,0,1,7.04,0c1.374.353,2.588,1.113,2.588,2.473v4.643a.907.907,0,0,1-.906.906Z" transform="translate(-369.106 -388.108)" fill="#80b4fb" fill-rule="evenodd"/>
            <path id="Trazado_1307922" data-name="Trazado 1307922" d="M437.521,403.661h-.906a.907.907,0,0,0,.906-.906v-4.643c0-1.36-1.214-2.12-2.588-2.473a13.983,13.983,0,0,0-3.036-.437,13.926,13.926,0,0,1,3.941.438c1.374.353,2.588,1.113,2.588,2.473v4.643A.907.907,0,0,1,437.521,403.661Z" transform="translate(-426.211 -388.109)" fill="#61a2f9" fill-rule="evenodd"/>
            <path id="Trazado_1307923" data-name="Trazado 1307923" d="M408.951,316.952a2.575,2.575,0,0,0-2.749,2.86c0,2,1.231,3.613,2.749,3.613s2.749-1.617,2.749-3.613A2.575,2.575,0,0,0,408.951,316.952Z" transform="translate(-402.843 -316.952)" fill="#ffece3" fill-rule="evenodd"/>
            <path id="Trazado_1307924" data-name="Trazado 1307924" d="M432.006,316.952a3.7,3.7,0,0,0-.453.027,2.543,2.543,0,0,1,2.3,2.833,3.467,3.467,0,0,1-2.3,3.563,2.125,2.125,0,0,0,.453.049c1.518,0,2.749-1.617,2.749-3.613A2.575,2.575,0,0,0,432.006,316.952Z" transform="translate(-425.898 -316.952)" fill="#ffddce" fill-rule="evenodd"/>
          </g>
          <g id="Grupo_1227938" data-name="Grupo 1227938" transform="translate(16.351 26.591)">
            <path id="Trazado_1307925" data-name="Trazado 1307925" d="M199.863,403.66h-10.4a.907.907,0,0,1-.906-.906v-4.643c0-1.359,1.211-2.131,2.588-2.473a14.146,14.146,0,0,1,7.04,0c1.374.353,2.588,1.113,2.588,2.473v4.643A.907.907,0,0,1,199.863,403.66Z" transform="translate(-188.553 -388.108)" fill="#80b4fb" fill-rule="evenodd"/>
            <path id="Trazado_1307926" data-name="Trazado 1307926" d="M256.968,403.661h-.906a.907.907,0,0,0,.906-.906v-4.643c0-1.36-1.214-2.12-2.588-2.473a13.982,13.982,0,0,0-3.036-.437,13.926,13.926,0,0,1,3.942.438c1.374.353,2.588,1.113,2.588,2.473v4.643A.907.907,0,0,1,256.968,403.661Z" transform="translate(-245.658 -388.109)" fill="#61a2f9" fill-rule="evenodd"/>
            <path id="Trazado_1307927" data-name="Trazado 1307927" d="M228.4,316.952a2.575,2.575,0,0,0-2.749,2.86c0,2,1.231,3.613,2.749,3.613s2.749-1.617,2.749-3.613A2.575,2.575,0,0,0,228.4,316.952Z" transform="translate(-222.29 -316.952)" fill="#ffece3" fill-rule="evenodd"/>
            <path id="Trazado_1307928" data-name="Trazado 1307928" d="M251.453,316.952a3.7,3.7,0,0,0-.453.027,2.543,2.543,0,0,1,2.3,2.833,3.467,3.467,0,0,1-2.3,3.563,2.125,2.125,0,0,0,.453.049c1.518,0,2.749-1.617,2.749-3.613a2.575,2.575,0,0,0-2.749-2.86Z" transform="translate(-245.345 -316.952)" fill="#ffddce" fill-rule="evenodd"/>
          </g>
        </g>
      </g>
      <path id="Trazado_1307929" data-name="Trazado 1307929" d="M35.527,32.548a.782.782,0,1,1,.782.782A.782.782,0,0,1,35.527,32.548Zm5.67,0a.782.782,0,1,1,.782.782A.782.782,0,0,1,41.2,32.548Zm-2.835,0a.782.782,0,1,1,.782.782A.782.782,0,0,1,38.361,32.548Zm.782-5.774a5.774,5.774,0,1,0,1.843,11.249.721.721,0,0,1,.419-.013l2.816.754-.572-2.136a.725.725,0,0,1,.12-.622,5.775,5.775,0,0,0-4.625-9.232Zm0,13a7.229,7.229,0,0,0,2.092-.308l3.822,1.024a.725.725,0,0,0,.887-.887l-.81-3.018a7.154,7.154,0,0,0,1.231-4.034,7.224,7.224,0,1,0-7.223,7.224ZM9.575,30.726A2.356,2.356,0,0,1,8.192,32.87a.4.4,0,0,0-.244.378v.8a.724.724,0,1,1-1.449,0v-.8a1.842,1.842,0,0,1,1.1-1.7.9.9,0,1,0-1.274-.824.724.724,0,0,1-1.449,0,2.352,2.352,0,1,1,4.7,0ZM8,35.956a.782.782,0,1,1-.782-.782A.782.782,0,0,1,8,35.956Zm-.782,2.366A5.773,5.773,0,1,0,2.6,36.006a.723.723,0,0,1,.12.622l-.572,2.136,2.816-.754a.723.723,0,0,1,.418.013,5.772,5.772,0,0,0,1.843.3Zm0-13A7.225,7.225,0,0,0,1.23,36.582L.422,39.6a.724.724,0,0,0,.887.887l3.822-1.024A7.224,7.224,0,1,0,7.223,25.325Zm21.685-.166a.725.725,0,0,0-.588.536,5.332,5.332,0,0,1-.58,1.4.723.723,0,0,0,.036.794l1.077,1.487-.716.717L26.65,29.014a.722.722,0,0,0-.794-.036,5.326,5.326,0,0,1-1.4.579.724.724,0,0,0-.536.587l-.291,1.812H22.619l-.29-1.812a.724.724,0,0,0-.536-.587,5.328,5.328,0,0,1-1.4-.58.725.725,0,0,0-.8.036L18.114,30.09l-.717-.717,1.077-1.487a.723.723,0,0,0,.036-.794,5.323,5.323,0,0,1-.579-1.4.726.726,0,0,0-.587-.536l-1.813-.29V23.855l1.813-.29a.724.724,0,0,0,.587-.536,5.328,5.328,0,0,1,.579-1.4.724.724,0,0,0-.036-.795L17.4,19.35l.717-.717L19.6,19.71a.725.725,0,0,0,.795.036,5.342,5.342,0,0,1,1.4-.579.725.725,0,0,0,.536-.587l.29-1.812h1.013l.291,1.812a.724.724,0,0,0,.536.587,5.322,5.322,0,0,1,1.4.58.723.723,0,0,0,.794-.036l1.488-1.077.716.717-1.077,1.487a.723.723,0,0,0-.036.795,5.358,5.358,0,0,1,.58,1.4.724.724,0,0,0,.588.536l1.812.29v1.014ZM31.559,26.2l-1.971.315a6.884,6.884,0,0,1-.37.89l1.171,1.618a.724.724,0,0,1-.074.937l-1.59,1.59a.725.725,0,0,1-.937.075l-1.617-1.171a6.76,6.76,0,0,1-.89.369L24.965,32.8a.724.724,0,0,1-.716.61H22a.725.725,0,0,1-.716-.61l-.316-1.971a6.7,6.7,0,0,1-.89-.369l-1.617,1.171a.726.726,0,0,1-.938-.075l-1.59-1.59a.725.725,0,0,1-.075-.937l1.171-1.618a6.74,6.74,0,0,1-.369-.889L14.691,26.2a.725.725,0,0,1-.61-.716V23.238a.725.725,0,0,1,.61-.716l1.972-.316a6.733,6.733,0,0,1,.369-.89L15.861,19.7a.724.724,0,0,1,.075-.937l1.59-1.59a.725.725,0,0,1,.937-.074l1.617,1.171a6.8,6.8,0,0,1,.89-.369l.316-1.971a.724.724,0,0,1,.716-.61H24.25a.724.724,0,0,1,.716.61l.316,1.971a6.82,6.82,0,0,1,.89.369L27.788,17.1a.724.724,0,0,1,.937.074l1.59,1.59a.724.724,0,0,1,.074.937l-1.171,1.617a6.782,6.782,0,0,1,.369.89l1.971.316a.725.725,0,0,1,.61.716v2.249A.725.725,0,0,1,31.559,26.2Zm-8.434.759a2.6,2.6,0,1,0-2.6-2.6A2.6,2.6,0,0,0,23.125,26.96Zm0-6.646a4.048,4.048,0,1,0,4.048,4.048,4.052,4.052,0,0,0-4.048-4.048Zm5.441,37.147H27.24V53.913a.725.725,0,1,0-1.449,0v3.549H20.575V53.913a.724.724,0,1,0-1.449,0v3.549H17.8V52.638c0-1.03,1.112-1.531,2.044-1.772a13.511,13.511,0,0,1,6.684,0c.762.189,2.039.67,2.039,1.77Zm-5.383-14.1a1.859,1.859,0,0,1,2.024,2.136c0,1.566-.927,2.888-2.024,2.888s-2.024-1.323-2.024-2.888A1.859,1.859,0,0,1,23.183,43.358Zm3.694,6.1a15.976,15.976,0,0,0-1.8-.338,4.685,4.685,0,0,0,1.575-3.629,3.54,3.54,0,0,0-1.034-2.707,3.484,3.484,0,0,0-2.438-.877,3.484,3.484,0,0,0-2.439.877,3.54,3.54,0,0,0-1.035,2.707,4.689,4.689,0,0,0,1.568,3.624,14.9,14.9,0,0,0-1.795.345c-1.99.512-3.132,1.669-3.132,3.175v5.548a.724.724,0,0,0,.724.724H29.291a.724.724,0,0,0,.724-.724V52.637c0-1.524-1.143-2.681-3.138-3.176Zm-14.661,8H10.889V53.913a.724.724,0,1,0-1.449,0v3.549H4.224V53.913a.724.724,0,1,0-1.449,0v3.549H1.449V52.638c0-1.1,1.277-1.581,2.038-1.77a13.513,13.513,0,0,1,6.685,0c.932.24,2.044.742,2.044,1.772Zm-5.384-14.1a1.859,1.859,0,0,1,2.024,2.136c0,1.566-.927,2.888-2.024,2.888S4.808,47.06,4.808,45.494A1.859,1.859,0,0,1,6.832,43.358Zm3.7,6.1a14.779,14.779,0,0,0-1.795-.345,4.688,4.688,0,0,0,1.568-3.624,3.54,3.54,0,0,0-1.034-2.707,3.486,3.486,0,0,0-2.439-.877,3.486,3.486,0,0,0-2.439.877,3.542,3.542,0,0,0-1.034,2.707,4.686,4.686,0,0,0,1.575,3.629,15.983,15.983,0,0,0-1.8.338C1.144,49.956,0,51.114,0,52.637v5.548a.724.724,0,0,0,.724.724H12.94a.725.725,0,0,0,.725-.724V52.637c0-1.506-1.142-2.663-3.132-3.175Zm34.385,8H43.591V53.913a.725.725,0,1,0-1.449,0v3.549H36.925V53.913a.724.724,0,1,0-1.449,0v3.549H34.151V52.638c0-1.03,1.111-1.531,2.044-1.772a13.513,13.513,0,0,1,6.685,0c.761.189,2.038.67,2.038,1.77v4.824Zm-5.384-14.1a1.859,1.859,0,0,1,2.024,2.136c0,1.566-.927,2.888-2.024,2.888S37.51,47.06,37.51,45.494A1.86,1.86,0,0,1,39.534,43.358Zm3.695,6.1a15.951,15.951,0,0,0-1.8-.338,4.683,4.683,0,0,0,1.575-3.629,3.54,3.54,0,0,0-1.034-2.707,3.828,3.828,0,0,0-4.878,0,3.542,3.542,0,0,0-1.034,2.707,4.689,4.689,0,0,0,1.569,3.624,14.847,14.847,0,0,0-1.8.345c-1.991.512-3.132,1.669-3.132,3.175v5.548a.724.724,0,0,0,.724.724H45.642a.724.724,0,0,0,.724-.724V52.637c0-1.524-1.144-2.681-3.138-3.176Z" fill-rule="evenodd"/>
    </g>
  </g>
</svg>
