<svg xmlns="http://www.w3.org/2000/svg" xmlns:xlink="http://www.w3.org/1999/xlink" width="102" height="102" viewBox="0 0 102 102">
  <defs>
    <filter id="Elipse_11494" x="0" y="0" width="102" height="102" filterUnits="userSpaceOnUse">
      <feOffset dy="3" input="SourceAlpha"/>
      <feGaussianBlur stdDeviation="3" result="blur"/>
      <feFlood flood-opacity="0.161"/>
      <feComposite operator="in" in2="blur"/>
      <feComposite in="SourceGraphic"/>
    </filter>
  </defs>
  <g id="Grupo_1228046" data-name="Grupo 1228046" transform="translate(-801 -1007)">
    <g id="Grupo_1227247" data-name="Grupo 1227247" transform="translate(810 1013)">
      <g transform="matrix(1, 0, 0, 1, -9, -6)" filter="url(#Elipse_11494)">
        <g id="Elipse_11494-2" data-name="Elipse 11494" transform="translate(9 6)" fill="#e1e7fb" stroke="#fff" stroke-width="4">
          <circle cx="42" cy="42" r="42" stroke="none"/>
          <circle cx="42" cy="42" r="40" fill="none"/>
        </g>
      </g>
    </g>
    <g id="Grupo_1227986" data-name="Grupo 1227986" transform="translate(829.855 1030.249)">
      <g id="Grupo_1227985" data-name="Grupo 1227985">
        <g id="Grupo_1227984" data-name="Grupo 1227984">
          <g id="Grupo_1227979" data-name="Grupo 1227979" transform="translate(3.909 28.397)">
            <g id="Grupo_1227978" data-name="Grupo 1227978">
              <path id="Trazado_1308017" data-name="Trazado 1308017" d="M75.647,324.259v-5.767a5.411,5.411,0,0,0-3.685-5.128l-7.83-2.635a1.8,1.8,0,0,1-1.228-1.709v-2.937H54.877v2.937a1.8,1.8,0,0,1-1.228,1.709l-7.83,2.635a5.411,5.411,0,0,0-3.685,5.128v5.767a.928.928,0,0,0,.928.928H74.719A.928.928,0,0,0,75.647,324.259Z" transform="translate(-42.133 -306.082)" fill="#f8f5f9"/>
            </g>
          </g>
          <path id="Trazado_1308018" data-name="Trazado 1308018" d="M168.511,310.961l-2.082-.232a1.8,1.8,0,0,1-1.228-1.709v-2.937h-6.634v2.937a1.8,1.8,0,0,1-1.228,1.709l-.912.307,4.494,3.482Z" transform="translate(-141.913 -277.685)" fill="#f1ccbd"/>
          <path id="Trazado_1308019" data-name="Trazado 1308019" d="M236,306.083v4.329a1.8,1.8,0,0,0,1.228,1.709l.582.2,2.892-1.355-.69-.232a1.8,1.8,0,0,1-1.228-1.709v-2.937Z" transform="translate(-214.105 -277.685)" fill="#eaad9c"/>
          <g id="Grupo_1227981" data-name="Grupo 1227981">
            <path id="Trazado_1308020" data-name="Trazado 1308020" d="M134.475,161.364a11.562,11.562,0,0,1-4.013-.41,8.9,8.9,0,0,1-5.014-8.009v-5.418l8.9-4.163,8.9,4.163v5.418a8.9,8.9,0,0,1-4.758,7.879A8.158,8.158,0,0,1,134.475,161.364Z" transform="translate(-113.809 -130.063)" fill="#f1ccbd"/>
            <path id="Trazado_1308021" data-name="Trazado 1308021" d="M189.494,173.234v6.81a8.226,8.226,0,0,1-2.159,5.81c-3.088,3.238-7.623,2.25-7.843,2.2a9,9,0,0,0,3.078.855s.413.036.807.036a8.9,8.9,0,0,0,8.9-8.9v-5.418Z" transform="translate(-162.84 -157.162)" fill="#eaad9c"/>
            <path id="Trazado_1308022" data-name="Trazado 1308022" d="M317.9,211.974h-.61V208.53h.61a1.722,1.722,0,1,1,0,3.444Z" transform="translate(-287.855 -189.183)" fill="#f1ccbd"/>
            <path id="Trazado_1308023" data-name="Trazado 1308023" d="M102.038,211.974h.61V208.53h-.61a1.722,1.722,0,1,0,0,3.444Z" transform="translate(-91.009 -189.183)" fill="#eaad9c"/>
            <path id="Trazado_1308024" data-name="Trazado 1308024" fill="#fff" stroke="#000" stroke-linecap="round" stroke-linejoin="round" stroke-miterlimit="10" stroke-width="15"/>
            <path id="Trazado_1308025" data-name="Trazado 1308025" fill="#fff" stroke="#000" stroke-linecap="round" stroke-linejoin="round" stroke-miterlimit="10" stroke-width="15"/>
            <path id="Trazado_1308026" data-name="Trazado 1308026" d="M128.2,13.665a4.9,4.9,0,0,0-6.041-4.22.644.644,0,0,1-.644-.211,4.9,4.9,0,0,0-7.479,0,.644.644,0,0,1-.644.211,4.9,4.9,0,0,0-3.955,8.794.645.645,0,0,1,.267.642l-.7,5.388a63.167,63.167,0,0,1,17.8,0c-.241-1.39-.483-4.167-.724-5.557a.644.644,0,0,1,.239-.62A4.9,4.9,0,0,0,128.2,13.665Z" transform="translate(-97.368 -6.804)" fill="#f8f5f9"/>
            <g id="Grupo_1227980" data-name="Grupo 1227980" transform="translate(24.795 2.5)">
              <path id="Trazado_1308027" data-name="Trazado 1308027" d="M267.248,27.085a.188.188,0,0,0,.123.176,4.9,4.9,0,0,1,1.254,8.468.645.645,0,0,0-.242.621c.223,1.285.447,3.755.67,5.22.992.1,1.94.21,2.838.338-.242-1.39-.483-4.169-.725-5.558a.642.642,0,0,1,.24-.619,4.9,4.9,0,0,0-4.158-8.646Z" transform="translate(-267.248 -26.944)" fill="#dad9e4"/>
            </g>
          </g>
          <path id="Trazado_1308028" data-name="Trazado 1308028" d="M194.026,361.07l-7.14-2.4-8.267,3.873a3.367,3.367,0,0,0-1.938,3.049v7.3h20.1a.928.928,0,0,0,.928-.928V366.2A5.411,5.411,0,0,0,194.026,361.07Z" transform="translate(-160.288 -325.392)" fill="#dbd8ea"/>
          <path id="Trazado_1308029" data-name="Trazado 1308029" d="M262.668,362.462a5.411,5.411,0,0,1,3.685,5.128v5.3h1.856a.928.928,0,0,0,.928-.928V366.2a5.411,5.411,0,0,0-3.685-5.128l-7.14-2.4-2.9,1.359Z" transform="translate(-231.714 -325.392)" fill="#d0cde4"/>
          <g id="Grupo_1227983" data-name="Grupo 1227983" transform="translate(32.46 23.658)">
            <g id="Grupo_1227982" data-name="Grupo 1227982">
              <path id="Trazado_1308030" data-name="Trazado 1308030" d="M349.87,256.392v6.68a1.392,1.392,0,0,0,1.392,1.392h.835a1.392,1.392,0,0,1,1.392,1.392v8.35a1.392,1.392,0,0,0,1.392,1.392h1.113a1.392,1.392,0,0,0,1.392-1.392v-8.35a1.392,1.392,0,0,1,1.392-1.392h.835A1.392,1.392,0,0,0,361,263.072v-6.68A1.392,1.392,0,0,0,359.612,255h-8.35A1.392,1.392,0,0,0,349.87,256.392Z" transform="translate(-349.87 -255)" fill="#ebf4ff"/>
            </g>
            <path id="Trazado_1308031" data-name="Trazado 1308031" d="M374.629,431.662H370.8a1.075,1.075,0,0,1-1.075-1.075v-5.3a1.075,1.075,0,0,1,1.075-1.075h3.828a2.546,2.546,0,0,1,2.546,2.546v2.356A2.546,2.546,0,0,1,374.629,431.662Z" transform="translate(-367.885 -408.514)" fill="#f1ccbd"/>
            <path id="Trazado_1308032" data-name="Trazado 1308032" d="M395.349,424.214h-2.783a2.546,2.546,0,0,1,2.546,2.546v2.356a2.546,2.546,0,0,1-2.546,2.546h2.783a2.546,2.546,0,0,0,2.546-2.546V426.76A2.546,2.546,0,0,0,395.349,424.214Z" transform="translate(-388.605 -408.515)" fill="#eaad9c"/>
          </g>
        </g>
      </g>
      <path id="Trazado_1308033" data-name="Trazado 1308033" d="M42.284,41.935a.7.7,0,0,0-.7.7v4.175a.7.7,0,0,0,1.392,0V42.631A.7.7,0,0,0,42.284,41.935Zm9.153,2.319a.7.7,0,1,0,.7.7A.7.7,0,0,0,51.437,44.255Zm4.175,0a.7.7,0,1,0,.7.7A.7.7,0,0,0,55.612,44.255ZM51.437,40.08a.7.7,0,1,0,.7.7A.7.7,0,0,0,51.437,40.08Zm4.175,0a.7.7,0,1,0,.7.7A.7.7,0,0,0,55.612,40.08ZM73.618,22.962h-8.35A2.09,2.09,0,0,0,63.18,25.05v6.68a2.09,2.09,0,0,0,2.087,2.087H66.1a.7.7,0,0,1,.7.7v1.2a6.13,6.13,0,0,0-1.423-.7l-7.83-2.635a1.142,1.142,0,0,1-.754-1.218,9.606,9.606,0,0,0,4.739-7.682,2.417,2.417,0,0,0,.019-4.832c0-.136.008-1.18-.008-1.291-.1-.7-.239-1.725-.358-2.757s-.24-2.074-.363-2.788a5.579,5.579,0,0,0,2.123-5.03,5.5,5.5,0,0,0-.6-1.97.7.7,0,0,0-1.233.644,4.117,4.117,0,0,1,.447,1.474,4.2,4.2,0,0,1-1.615,3.8,1.336,1.336,0,0,0-.5,1.291c.117.675.239,1.725.357,2.74.075.646.151,1.307.229,1.885a63.855,63.855,0,0,0-16.167,0l.582-4.475a1.345,1.345,0,0,0-.559-1.316,4.192,4.192,0,0,1-1.811-3.656,4.207,4.207,0,0,1,5.2-3.89,1.333,1.333,0,0,0,1.341-.437,4.2,4.2,0,0,1,6.418,0,1.333,1.333,0,0,0,1.341.437A4.223,4.223,0,0,1,57.9,3.228a4.149,4.149,0,0,1,1.224.346A.7.7,0,1,0,59.7,2.308a5.531,5.531,0,0,0-1.635-.462,5.606,5.606,0,0,0-1.991.111,5.6,5.6,0,0,0-8.5,0,5.6,5.6,0,0,0-4.511,10.031c-.01.055-.7,5.4-.7,5.448,0,.031,0,1.186,0,1.218a2.417,2.417,0,0,0,.019,4.832,9.52,9.52,0,0,0,.655,2.935.7.7,0,1,0,1.293-.513,8.165,8.165,0,0,1-.575-3.025V18.073a62.2,62.2,0,0,1,16.407,0v4.809a8.2,8.2,0,0,1-14.24,5.556.7.7,0,0,0-1.024.943,9.588,9.588,0,0,0,2.479,1.929v.025a1.106,1.106,0,0,1-.754,1.049l-7.83,2.635a6.1,6.1,0,0,0-4.159,5.788v6a.7.7,0,0,0,1.392,0v-6a4.712,4.712,0,0,1,3.211-4.469L45.8,34.129l3.317,2.57a4.08,4.08,0,0,0-2,3.5v6.608a.7.7,0,0,0,1.392,0V40.2a2.681,2.681,0,0,1,1.538-2.419l8.015-3.755,6.875,2.313A4.732,4.732,0,0,1,66.8,37.512v1.15h-.006a1.772,1.772,0,0,0-1.77,1.77v5.3a1.772,1.772,0,0,0,1.77,1.77h3.828a3.246,3.246,0,0,0,3.242-3.242V41.9a3.245,3.245,0,0,0-1.776-2.89v-4.5a.7.7,0,0,1,.7-.7h.835a2.09,2.09,0,0,0,2.087-2.087V25.05a2.089,2.089,0,0,0-2.087-2.087ZM61.55,20.046a1.026,1.026,0,0,1,0,2.045ZM42.359,22.091a1.026,1.026,0,0,1,0-2.045Zm8.154,13.931L47.36,33.579A2.5,2.5,0,0,0,48.7,31.9a9.567,9.567,0,0,0,6.75-.086,2.5,2.5,0,0,0,.9,1.472ZM72.471,41.9V44.26a1.853,1.853,0,0,1-1.851,1.851H66.793a.379.379,0,0,1-.379-.379v-5.3a.379.379,0,0,1,.379-.379h3.828A1.853,1.853,0,0,1,72.471,41.9ZM74.314,31.73a.7.7,0,0,1-.7.7h-.835A2.09,2.09,0,0,0,70.7,34.513v4.15c-.067,0-2.432,0-2.5,0V34.513A2.09,2.09,0,0,0,66.1,32.426h-.835a.7.7,0,0,1-.7-.7V25.05a.7.7,0,0,1,.7-.7h8.35a.7.7,0,0,1,.7.7ZM51.131,9.336v3.336a.7.7,0,1,0,1.392,0V9.336a.7.7,0,1,0-1.392,0Zm4.216-.267L53.96,12.4a.7.7,0,0,0,1.285.534L56.632,9.6a.7.7,0,0,0-1.285-.534ZM56.709,22.5V21.066a.7.7,0,1,0-1.392,0V22.5a.7.7,0,1,0,1.392,0Zm9.95,3.243a.7.7,0,0,0-.7.7v3.9a.7.7,0,1,0,1.392,0v-3.9A.7.7,0,0,0,66.66,25.746ZM47.4,8.693a.7.7,0,0,0-.375.91l1.388,3.336a.7.7,0,0,0,1.285-.534L48.307,9.068a.7.7,0,0,0-.91-.375ZM69.443,25.746a.7.7,0,0,0-.7.7v3.9a.7.7,0,0,0,1.392,0v-3.9A.7.7,0,0,0,69.443,25.746Zm2.783,0a.7.7,0,0,0-.7.7v3.9a.7.7,0,1,0,1.392,0v-3.9A.7.7,0,0,0,72.226,25.746ZM52.057,27.262a2.86,2.86,0,0,0,1.555-.529.7.7,0,0,0-.806-1.135,1.464,1.464,0,0,1-1.7,0,.7.7,0,1,0-.8,1.136,3.2,3.2,0,0,0,1.76.528ZM48.591,22.5V21.066a.7.7,0,1,0-1.392,0V22.5a.7.7,0,1,0,1.392,0Z" transform="translate(-31.416 0)"/>
    </g>
  </g>
</svg>
