<svg xmlns="http://www.w3.org/2000/svg" xmlns:xlink="http://www.w3.org/1999/xlink" width="108.914" height="108.914" viewBox="0 0 108.914 108.914">
  <defs>
    <filter id="Trazado_1289140" x="0" y="0" width="108.914" height="108.914" filterUnits="userSpaceOnUse">
      <feOffset dy="3" input="SourceAlpha"/>
      <feGaussianBlur stdDeviation="3" result="blur"/>
      <feFlood flood-opacity="0.161"/>
      <feComposite operator="in" in2="blur"/>
      <feComposite in="SourceGraphic"/>
    </filter>
  </defs>
  <g id="Grupo_1228025" data-name="Grupo 1228025" transform="translate(-897.329 -1333.877)">
    <g transform="matrix(1, 0, 0, 1, 897.33, 1333.88)" filter="url(#Trazado_1289140)">
      <g id="Trazado_1289140-2" data-name="Trazado 1289140" transform="translate(9 6)" fill="#d7d9de" opacity="0.859">
        <path d="M 45.45676803588867 89.41407012939453 C 39.52198028564453 89.41407012939453 33.76551818847656 88.25206756591797 28.34726715087891 85.96034240722656 C 23.11311721801758 83.74648284912109 18.41204261779785 80.57682800292969 14.37464332580566 76.5394287109375 C 10.33724308013916 72.50202941894531 7.167593002319336 67.80095672607422 4.953730583190918 62.56679534912109 C 2.662005424499512 57.14855575561523 1.500005483627319 51.39208221435547 1.500005483627319 45.45729446411133 C 1.500005483627319 39.52198028564453 2.662005424499512 33.76551818847656 4.953730583190918 28.34726905822754 C 7.167593002319336 23.11310577392578 10.33724308013916 18.41203117370605 14.37464332580566 14.37464332580566 C 18.41204261779785 10.33724403381348 23.11311721801758 7.167593955993652 28.34726715087891 4.953731060028076 C 33.76551818847656 2.662006139755249 39.52198028564453 1.500006198883057 45.45676803588867 1.500006198883057 C 51.39155578613281 1.500006198883057 57.14802932739258 2.662006139755249 62.56626892089844 4.953731060028076 C 67.80043029785156 7.167593955993652 72.50150299072266 10.33724403381348 76.53890228271484 14.37464332580566 C 80.57630920410156 18.41203117370605 83.74595642089844 23.11310577392578 85.95981597900391 28.34726905822754 C 88.25154113769531 33.76551818847656 89.41354370117188 39.52198028564453 89.41354370117188 45.45676803588867 C 89.41354370117188 51.39208221435547 88.25154113769531 57.14855575561523 85.95981597900391 62.56679534912109 C 83.74595642089844 67.80095672607422 80.57630920410156 72.50202941894531 76.53890228271484 76.5394287109375 C 72.50150299072266 80.57682800292969 67.80043029785156 83.74648284912109 62.56626892089844 85.96034240722656 C 57.14802932739258 88.25206756591797 51.39155578613281 89.41407012939453 45.45676803588867 89.41407012939453 Z" stroke="none"/>
        <path d="M 45.45676803588867 3 C 39.72381210327148 3 34.1639404296875 4.12213134765625 28.93159484863281 6.335227966308594 C 23.87622833251953 8.473472595214844 19.33542633056641 11.53517150878906 15.43529510498047 15.435302734375 C 11.53517150878906 19.33543395996094 8.473464965820312 23.87622833251953 6.335227966308594 28.93160247802734 C 4.122123718261719 34.16394424438477 3 39.72381591796875 3 45.4572868347168 C 3 51.19024658203125 4.122123718261719 56.75011825561523 6.335227966308594 61.98246002197266 C 8.473464965820312 67.03782653808594 11.53517150878906 71.57862854003906 15.43529510498047 75.478759765625 C 19.33542633056641 79.37889099121094 23.87622833251953 82.44058990478516 28.93159484863281 84.57883453369141 C 34.1639404296875 86.79193115234375 39.72381210327148 87.9140625 45.45676803588867 87.9140625 C 51.18972396850586 87.9140625 56.74959564208984 86.79193115234375 61.98194122314453 84.57883453369141 C 67.03730773925781 82.44058990478516 71.57810974121094 79.37889099121094 75.47824096679688 75.478759765625 C 79.37837219238281 71.57862854003906 82.44007110595703 67.03782653808594 84.57830810546875 61.98246002197266 C 86.79141235351562 56.75011825561523 87.91353607177734 51.19024658203125 87.91353607177734 45.4567756652832 C 87.91353607177734 39.72381591796875 86.79141235351562 34.16394424438477 84.57830810546875 28.93160247802734 C 82.44007110595703 23.87622833251953 79.37837219238281 19.33543395996094 75.47824096679688 15.435302734375 C 71.57810974121094 11.53517150878906 67.03730773925781 8.473472595214844 61.98194122314453 6.335227966308594 C 56.74959564208984 4.12213134765625 51.18972396850586 3 45.45676803588867 3 M 45.45676803588867 0 C 70.56185150146484 0 90.91353607177734 20.35169219970703 90.91353607177734 45.4567756652832 L 90.91353607177734 45.4572868347168 C 90.91353607177734 70.5623779296875 70.56185150146484 90.9140625 45.45676803588867 90.9140625 C 20.3516845703125 90.9140625 0 70.5623779296875 0 45.4572868347168 L 0 45.4567756652832 C 0 20.35169219970703 20.3516845703125 0 45.45676803588867 0 Z" stroke="none" fill="#fff"/>
      </g>
    </g>
    <g id="Grupo_1227722" data-name="Grupo 1227722" transform="translate(873.168 1357.174)">
      <g id="Grupo_1227721" data-name="Grupo 1227721" transform="translate(58.516 1.844)">
        <g id="Grupo_1227718" data-name="Grupo 1227718" transform="translate(13.623 10.871)">
          <path id="Trazado_1307607" data-name="Trazado 1307607" d="M194.663,187.62a6.5,6.5,0,0,1,12.954,0,.451.451,0,0,1-.452.487h-12.05a.451.451,0,0,1-.452-.487Z" transform="translate(-194.661 -174.252)" fill="#72d561" fill-rule="evenodd"/>
          <path id="Trazado_1307608" data-name="Trazado 1307608" d="M239.484,181.853a6.448,6.448,0,0,1,1.744-.24,6.517,6.517,0,0,1,6.477,6.008.451.451,0,0,1-.452.487H245.86a.453.453,0,0,0,.052-.248,6.517,6.517,0,0,0-6.427-6.007Z" transform="translate(-234.75 -174.253)" fill="#42c345" fill-rule="evenodd"/>
          <path id="Trazado_1307609" data-name="Trazado 1307609" d="M226.271,118.949a3.51,3.51,0,1,0-3.51-3.51A3.517,3.517,0,0,0,226.271,118.949Z" transform="translate(-219.793 -111.928)" fill="#ffd6bd" fill-rule="evenodd"/>
          <path id="Trazado_1307610" data-name="Trazado 1307610" d="M232.713,117.038a3.511,3.511,0,1,1-4.841,4.841,3.511,3.511,0,0,0,4.841-4.841Z" transform="translate(-224.364 -116.498)" fill="#f9c6aa" fill-rule="evenodd"/>
        </g>
        <g id="Grupo_1227719" data-name="Grupo 1227719" transform="translate(15.674)">
          <path id="Trazado_1307611" data-name="Trazado 1307611" d="M218.506,17.854a4.427,4.427,0,1,0-4.427-4.427A4.436,4.436,0,0,0,218.506,17.854Z" transform="translate(-214.079 -8.999)" fill="#64b5f6" fill-rule="evenodd"/>
          <path id="Trazado_1307612" data-name="Trazado 1307612" d="M218.507,9a4.42,4.42,0,0,1,3.516,1.737,4.427,4.427,0,0,0-6.207,6.207A4.427,4.427,0,0,1,218.507,9Z" transform="translate(-214.08 -8.999)" fill="#42a5f5" fill-rule="evenodd"/>
        </g>
        <g id="Grupo_1227720" data-name="Grupo 1227720" transform="translate(0 26.926)">
          <path id="Trazado_1307613" data-name="Trazado 1307613" d="M112.682,283.988l12.127,15.06a2.115,2.115,0,0,1-2.991,2.991,2.115,2.115,0,0,1-2.991,2.991L117.2,303.4a2.115,2.115,0,0,1-2.991,2.991l-2.879-2.879a2.115,2.115,0,0,1-2.991,2.991l-11.8-11.8,2.392-10.717h13.753Z" transform="translate(-93.277 -281.871)" fill="#ffd6bd" fill-rule="evenodd"/>
          <path id="Trazado_1307614" data-name="Trazado 1307614" d="M129.028,283.99l1.666,2.069H114.813l.462-2.069Z" transform="translate(-109.623 -281.873)" fill="#f9c6aa" fill-rule="evenodd"/>
          <path id="Trazado_1307615" data-name="Trazado 1307615" d="M211.72,388.635a.856.856,0,0,1,1.211-1.211l5.826,5.826a.856.856,0,1,1-1.211,1.211Zm-6.7,5.269a.857.857,0,1,1,1.211-1.211l2.044,2.044a.856.856,0,0,1-1.211,1.211l-2.044-2.044Zm3.348-2.634,4.552,4.552a.856.856,0,0,0,1.211-1.211l-4.552-4.552a.856.856,0,0,0-1.211,1.211Z" transform="translate(-190.082 -374.158)" fill="#f9c6aa" fill-rule="evenodd"/>
          <path id="Trazado_1307616" data-name="Trazado 1307616" d="M73.13,266.735l-3.7-.737a.739.739,0,0,0-.866.579l-2.877,14.439a.739.739,0,0,0,.579.866l3.7.737a.739.739,0,0,0,.866-.579L73.708,267.6A.739.739,0,0,0,73.13,266.735Z" transform="translate(-65.671 -265.769)" fill="#64b5f6" fill-rule="evenodd"/>
          <path id="Trazado_1307617" data-name="Trazado 1307617" d="M73.13,272.306l-.471-.094-2.825,14.18a.739.739,0,0,1-.866.579l-3.231-.644-.052.259a.739.739,0,0,0,.579.866l3.7.737a.739.739,0,0,0,.866-.579l2.877-14.439a.739.739,0,0,0-.579-.866Z" transform="translate(-65.671 -271.339)" fill="#42a5f5" fill-rule="evenodd"/>
          <path id="Trazado_1307618" data-name="Trazado 1307618" d="M213.328,275.93c-.1.039-4.042-9.914-4.143-9.877-3.784,1.414-6.686,1.93-10.585-1.287a3.161,3.161,0,0,0-4.124-.106l-4.963,4.144a1.951,1.951,0,0,0-.754,1.939l1.506,6.9c3.828-.943,3.81-3.667,4.08-6.531.13-1.1,1.9-.8,4.127,1.23l9.155,9.289Z" transform="translate(-175.721 -263.945)" fill="#f9c6aa" fill-rule="evenodd"/>
          <path id="Trazado_1307619" data-name="Trazado 1307619" d="M209.519,266.773l-.01-.023-.01-.023-.01-.022-.019-.044-.009-.021-.009-.021-.009-.021h0l-.017-.039-.009-.02-.008-.019-.008-.019-.008-.019-.016-.036-.008-.018-.008-.017-.007-.017,0,0-.012-.027-.028-.063-.008-.018-.026-.057-.005-.011-.025-.053v0h0l-.022-.044,0,0a.378.378,0,0,0-.03-.051h0s-.006-.006-.007-.005l-.078.029-.007,0-.007,0-.007,0-.007,0-.007,0-.007,0-.006,0h0l-.007,0-.007,0-.007,0-.007,0-.007,0-.007,0-.007,0-.007,0-.007,0-.007,0-.014.005-.007,0-.23.084c-2.493.9-4.622,1.34-6.955.473,2.545,1.4,4.759,1.188,7.3.364,1.174,2.833,3.32,8.2,3.395,8.169l-5.625,5.625.77.781,5.7-5.7c-.085.032-2.837-6.878-3.809-9.157Zm-18.3,10.568c2.872-1.14,2.88-3.627,3.125-6.23.113-.954,1.468-.851,3.282.525h0c-2.225-2.027-4-2.327-4.127-1.23-.224,2.381-.25,4.666-2.453,5.91l-1.1-5.023a1.951,1.951,0,0,1,.754-1.939l4.963-4.144a3.014,3.014,0,0,1,2.7-.622,3.126,3.126,0,0,0-3.889.074l-4.963,4.144a1.951,1.951,0,0,0-.754,1.939l1.506,6.9.174-.045h0l.162-.045.014,0,.147-.045.023-.007.132-.044.036-.012.114-.041.043-.016.1-.041Z" transform="translate(-175.721 -263.945)" fill="#eaab92" fill-rule="evenodd"/>
          <path id="Trazado_1307620" data-name="Trazado 1307620" d="M370.688,266.735l3.7-.737a.739.739,0,0,1,.866.579l2.877,14.439a.739.739,0,0,1-.578.866l-3.7.737a.739.739,0,0,1-.866-.579L370.109,267.6a.739.739,0,0,1,.578-.866Z" transform="translate(-337.943 -265.769)" fill="#ffda2d" fill-rule="evenodd"/>
          <path id="Trazado_1307621" data-name="Trazado 1307621" d="M370.689,272.306l.471-.094,2.825,14.18a.739.739,0,0,0,.866.579l3.231-.644.052.259a.739.739,0,0,1-.579.866l-3.7.737a.739.739,0,0,1-.866-.579l-2.877-14.439a.739.739,0,0,1,.579-.866Z" transform="translate(-337.944 -271.339)" fill="#ffc700" fill-rule="evenodd"/>
        </g>
      </g>
      <path id="Trazado_1307622" data-name="Trazado 1307622" d="M76.429,6.963a.845.845,0,0,1,1.179-1.21l.433.421,1.576-1.591a.845.845,0,0,1,1.2,1.19L78.651,7.959a.844.844,0,0,1-1.19.01L76.429,6.963Zm2.189-4.274A3.582,3.582,0,1,0,82.2,6.271a3.587,3.587,0,0,0-3.583-3.582Zm0,8.854a5.272,5.272,0,1,0-5.273-5.272A5.278,5.278,0,0,0,78.618,11.544ZM94.366,44.772,91.532,30.545l3.489-.695,2.834,14.227-3.489.695Zm-4.915,3.57a1.271,1.271,0,0,1-1.8,0l-6.3-6.3a.845.845,0,0,0-1.2,1.194l6.3,6.3h0a1.27,1.27,0,0,1-1.8,1.8L83.032,49.7l-5.023-5.022a.844.844,0,0,0-1.195,1.194L81.837,50.9a1.27,1.27,0,0,1-1.8,1.8l-2.879-2.879-2.5-2.5a.845.845,0,0,0-1.195,1.195l2.5,2.5a1.269,1.269,0,0,1-1.8,1.8l-9.322-9.322,2.341-11.75h6.072l-1.5,1.249a2.776,2.776,0,0,0-1.037,2.768l1.5,6.9a.846.846,0,0,0,1.028.64c4.169-1.027,4.435-4.055,4.67-6.727.011-.134.023-.27.036-.407a5.5,5.5,0,0,1,2.713,1.622l9.039,9.171a1.281,1.281,0,0,1-.269,1.394Zm-26.581-3.57L65.7,30.545l-3.49-.695L59.38,44.077Zm15.11-8.745v0Zm-.167-5.892L72.85,34.278a1.135,1.135,0,0,0-.47,1.11l1.309,6c2.2-.868,2.353-2.629,2.56-4.973.016-.185.033-.37.05-.556,0-.006,0-.012,0-.02a1.479,1.479,0,0,1,.965-1.261c1.086-.405,2.753.311,4.57,1.967l.033.031,8.558,8.683,1.929-1.93L90.187,32.444c-2.445.736-5.592.882-9.329-2.2a2.307,2.307,0,0,0-3.045-.109ZM99.534,43.853,96.658,29.413A1.585,1.585,0,0,0,94.8,28.171l-3.7.738a1.583,1.583,0,0,0-1.243,1.86l0,.008c-2.136.674-4.722.8-7.922-1.838a3.982,3.982,0,0,0-5.2-.1l-1.444,1.206H67.354a1.575,1.575,0,0,0-1.214-1.134l-3.7-.738a1.583,1.583,0,0,0-1.86,1.242L57.7,43.853a1.585,1.585,0,0,0,1.242,1.86l3.7.737a1.53,1.53,0,0,0,.309.03,1.585,1.585,0,0,0,1.479-1.023L72.975,54a2.961,2.961,0,0,0,4.882-1.1l.989.989a2.96,2.96,0,0,0,4.889-1.124A2.959,2.959,0,0,0,88.52,50.4h.033a2.937,2.937,0,0,0,2.092-.865,2.988,2.988,0,0,0,.76-2.868l1.351-1.352a1.584,1.584,0,0,0,1.524,1.165,1.52,1.52,0,0,0,.309-.03l3.7-.737a1.584,1.584,0,0,0,1.242-1.86ZM78.618,21.136a5.46,5.46,0,0,1,5.368,4.589H73.25A5.459,5.459,0,0,1,78.618,21.136Zm0-7.576a2.548,2.548,0,1,1-2.549,2.548,2.551,2.551,0,0,1,2.549-2.548ZM72.792,27.415h11.65a1.281,1.281,0,0,0,1.279-1.379,7.159,7.159,0,0,0-4.98-6.262,4.239,4.239,0,1,0-4.246,0,7.159,7.159,0,0,0-4.981,6.262h0a1.281,1.281,0,0,0,1.279,1.378Z" fill-rule="evenodd"/>
    </g>
  </g>
</svg>
