<svg xmlns="http://www.w3.org/2000/svg" width="50.347" height="60.518" viewBox="0 0 50.347 60.518">
  <g id="Grupo_1227901" data-name="Grupo 1227901" transform="translate(-43.1)">
    <path id="Trazado_1307775" data-name="Trazado 1307775" d="M67.021,97.356c1.726-1.726,3.451-3.4,5.13-5.118-.165-.024-.3-.047-.319-.047-2.506-.449-3.641-2.931-2.139-4.125l3.936-2.813c.106-.083.213-.165.319-.26A5.3,5.3,0,0,0,74.81,79a16.375,16.375,0,0,1-4.09,3.381c-2.435,1.477-4.917,2.86-7.423,4.3-1.513.934-4.22,1.856-5.39,3.144-1.194,1.3-1.454,2.979-7.908,2.979v11.359c5.638-.106,6.123.922,7.387,1.678.13.083.26.154.39.225a.037.037,0,0,1,.024.012c4.172-1.466,4.125-2.931,4.834-4.3.792-1.525,3.156-3.12,4.385-4.421Z" transform="translate(-6.084 -69.662)" fill="#f0c8aa" fill-rule="evenodd"/>
    <path id="Trazado_1307776" data-name="Trazado 1307776" d="M218.6,116.616l-3.073,3.735c-1.253,1.7.981,4.078,3.948,3.286l14.4-3.853c.047-.083.118-.236.13-.26a5.933,5.933,0,0,0-2.789-7.837c-.106-.059-.225-.106-.331-.154a1.286,1.286,0,0,1,.012-.154,5.709,5.709,0,0,0-10.106-3.853,1.792,1.792,0,0,1-.118.154,4.768,4.768,0,0,0-4.728.626l-.012.012a2.349,2.349,0,0,1-.319.26l-3.936,2.813c-1.5,1.206-.366,3.676,2.139,4.125.012,0,.142.024.319.047l.922-.957a16.771,16.771,0,0,0,3.073-4.326c1.513,1.525,1.844,4.669.473,6.335Z" transform="translate(-148.053 -92.988)" fill="#e8f5ff" fill-rule="evenodd"/>
    <path id="Trazado_1307777" data-name="Trazado 1307777" d="M136.868,159.437h0Zm.579,3.972h-.024C137.435,163.421,137.435,163.421,137.447,163.409Zm2.553-.674a2,2,0,0,0-1.04-3.853l-2.1.567A2,2,0,0,0,135.8,155.6l-15.543,4.161c-2.967.792-5.2-1.584-3.948-3.286l3.073-3.735c1.371-1.667,1.04-4.811-.485-6.335a16.224,16.224,0,0,1-3.073,4.326c-1.962,2.057-4.019,4.031-6.052,6.075-1.217,1.3-3.593,2.9-4.4,4.432-.721,1.371-.662,2.837-4.846,4.3-.591.2-1.265.414-2.033.615.922,3.451,2.009,7.518,2.943,10.969,5.414-1.572,6.146-.7,7.565-.3,3.723,1.064,5.154.969,7.1.567l16.323-4.373a2,2,0,0,0-1.028-3.865l7.033-1.879a2,2,0,0,0-1.017-3.865Z" transform="translate(-48.852 -129.096)" fill="#f0c8aa" fill-rule="evenodd"/>
    <path id="Trazado_1307778" data-name="Trazado 1307778" d="M93.347,30.98a2.807,2.807,0,0,0-3.12-2.045,2.754,2.754,0,0,0-1.347-2.943,2.8,2.8,0,0,0-1.761-.343,6.788,6.788,0,0,0-.177-3.818,6.628,6.628,0,0,0-3.3-3.782A6.517,6.517,0,0,0,72.331,13.77a5.4,5.4,0,0,0-2.529-.13,6,6,0,0,0-.378-4.681.807.807,0,0,0-.638-.4.8.8,0,0,0-.7.3,15.517,15.517,0,0,1-3.877,3.2c-1.667,1.017-3.4,2.009-5.083,2.955q-1.152.656-2.34,1.347c-.5.307-1.147.615-1.832.946a12.538,12.538,0,0,0-3.735,2.34c-.177.2-.343.4-.508.615-.816,1.028-1.655,2.1-6.8,2.1a.817.817,0,0,0-.816.816V34.514a.769.769,0,0,0,.248.579.784.784,0,0,0,.591.236c3.711-.071,5.012.343,5.851.839-.106.035-.2.059-.319.095a.8.8,0,0,0-.5.378.828.828,0,0,0-.083.626l2.943,10.969a.818.818,0,0,0,1.017.567c4.362-1.265,5.425-.875,6.466-.508a5.423,5.423,0,0,0,.662.213,18.131,18.131,0,0,0,4.953.875,12.275,12.275,0,0,0,2.589-.307L83.843,44.7a2.756,2.756,0,0,0,1.7-1.312,2.87,2.87,0,0,0,.284-2.139,2.691,2.691,0,0,0-.567-1.076l4.574-1.229a2.756,2.756,0,0,0,1.7-1.312,2.815,2.815,0,0,0,.284-2.139,2.691,2.691,0,0,0-.567-1.076l.118-.035a2.756,2.756,0,0,0,1.7-1.312,2.682,2.682,0,0,0,.272-2.092ZM72.508,15.555a3.947,3.947,0,0,1,2,2.21.825.825,0,0,0,.768.544.8.8,0,0,0,.284-.047.825.825,0,0,0,.5-1.052,5.535,5.535,0,0,0-2.128-2.73,4.883,4.883,0,0,1,8.038,2.931,6.668,6.668,0,0,0-2.778.012.816.816,0,0,0,.343,1.6,5.127,5.127,0,0,1,3.3.4A5.107,5.107,0,0,1,85.262,26.1l-14.03,3.759a2.792,2.792,0,0,1-3.061-.827.964.964,0,0,1-.047-1.158L71.2,24.136a6,6,0,0,0-.532-7.435.817.817,0,0,0-.721-.225.856.856,0,0,0-.6.461,15.575,15.575,0,0,1-2.92,4.1c-.2.213-.414.426-.626.638a2.539,2.539,0,0,1-1.974-1.6.936.936,0,0,1,.284-1.028l3.936-2.813a2.876,2.876,0,0,0,.3-.236c.012,0,.012-.012.024-.012a3.934,3.934,0,0,1,4.149-.437ZM51.7,35.5c-.177-.106-.331-.213-.485-.319-1-.7-2.128-1.477-6.5-1.477V23.971c4.834-.118,6.123-1.253,7.269-2.719.142-.177.272-.355.426-.52a12.065,12.065,0,0,1,3.25-1.974c.721-.355,1.407-.686,1.962-1.017.78-.449,1.548-.886,2.317-1.324,1.69-.957,3.428-1.95,5.118-2.99a18.369,18.369,0,0,0,3.345-2.541,4.34,4.34,0,0,1-1.336,4.031L63.1,17.754a2.551,2.551,0,0,0-.875,2.754,3.889,3.889,0,0,0,2.281,2.47c-.756.756-1.5,1.5-2.246,2.234-.626.626-1.265,1.253-1.915,1.9-.4.426-.946.886-1.525,1.395a12.678,12.678,0,0,0-3,3.227c-.13.236-.225.485-.331.721-.426.981-.851,2-3.7,3.061A.171.171,0,0,1,51.7,35.5Zm39.23-2.648-2.577.686L74.612,37.221a.82.82,0,0,0-.579,1,.809.809,0,0,0,.792.6,1.3,1.3,0,0,0,.213-.024L88.8,35.117a1.184,1.184,0,0,1,1.442.839,1.195,1.195,0,0,1-.827,1.454L82.378,39.3l-8.723,2.3a.82.82,0,0,0-.579,1,.809.809,0,0,0,.792.6,1.3,1.3,0,0,0,.213-.024l8.7-2.329a1.184,1.184,0,0,1,1.442.839,1.2,1.2,0,0,1-.118.9,1.147,1.147,0,0,1-.709.556L67.118,47.516c-1.868.39-3.144.461-6.714-.556-.189-.059-.366-.118-.556-.189-1.147-.414-2.447-.875-6.666.248l-2.518-9.4c4.633-1.359,5.591-2.79,6.312-4.5.083-.2.177-.414.284-.615a11.954,11.954,0,0,1,2.624-2.742c.615-.532,1.182-1.028,1.619-1.489.626-.626,1.265-1.253,1.891-1.879,1.383-1.371,2.813-2.778,4.172-4.208a19.591,19.591,0,0,0,2.577-3.321,4.388,4.388,0,0,1-.236,4.243l-3.1,3.771a2.606,2.606,0,0,0-.012,3.085,4.374,4.374,0,0,0,4.834,1.477L87.177,27.28a1.183,1.183,0,0,1,.626,2.281L74.187,33.214a.82.82,0,0,0,.426,1.584l13.617-3.652,2.128-.567a1.175,1.175,0,0,1,1.442.839,1.212,1.212,0,0,1-.863,1.43Zm-4.87,20.874a.829.829,0,0,1-.189,1.147,30.274,30.274,0,0,1-35.223,0,.822.822,0,0,1,.957-1.336,28.629,28.629,0,0,0,33.309,0A.829.829,0,0,1,86.066,53.722ZM50.464,6.8a.829.829,0,0,1,.189-1.147,30.274,30.274,0,0,1,35.223,0A.822.822,0,0,1,85.4,7.139a.78.78,0,0,1-.473-.154,28.673,28.673,0,0,0-33.32-.012A.816.816,0,0,1,50.464,6.8ZM81.456,7.978a.819.819,0,0,1-.839,1.407,24.256,24.256,0,0,0-24.7,0A.76.76,0,0,1,55.5,9.5a.821.821,0,0,1-.426-1.525,25.936,25.936,0,0,1,26.382,0ZM55.074,52.54a25.936,25.936,0,0,0,26.382,0,.819.819,0,1,0-.839-1.407,24.256,24.256,0,0,1-24.7,0,.819.819,0,0,0-.839,1.407Z" transform="translate(0)" fill-rule="evenodd"/>
  </g>
</svg>
