<svg xmlns="http://www.w3.org/2000/svg" xmlns:xlink="http://www.w3.org/1999/xlink" width="108.914" height="108.914" viewBox="0 0 108.914 108.914">
  <defs>
    <filter id="Trazado_1289142" x="0" y="0" width="108.914" height="108.914" filterUnits="userSpaceOnUse">
      <feOffset dy="3" input="SourceAlpha"/>
      <feGaussianBlur stdDeviation="3" result="blur"/>
      <feFlood flood-opacity="0.161"/>
      <feComposite operator="in" in2="blur"/>
      <feComposite in="SourceGraphic"/>
    </filter>
  </defs>
  <g id="Grupo_1228026" data-name="Grupo 1228026" transform="translate(-1211.478 -1333.877)">
    <g transform="matrix(1, 0, 0, 1, 1211.48, 1333.88)" filter="url(#Trazado_1289142)">
      <g id="Trazado_1289142-2" data-name="Trazado 1289142" transform="translate(9 6)" fill="#d7d9de" opacity="0.859">
        <path d="M 45.45676803588867 89.41407012939453 C 39.52198028564453 89.41407012939453 33.76551818847656 88.25206756591797 28.34726715087891 85.96034240722656 C 23.11311721801758 83.74648284912109 18.41204261779785 80.57682800292969 14.37464332580566 76.5394287109375 C 10.33724308013916 72.50202941894531 7.167593002319336 67.80095672607422 4.953730583190918 62.56679534912109 C 2.662005424499512 57.14855575561523 1.500005483627319 51.39208221435547 1.500005483627319 45.45729446411133 C 1.500005483627319 39.52198028564453 2.662005424499512 33.76551818847656 4.953730583190918 28.34726905822754 C 7.167593002319336 23.11310577392578 10.33724308013916 18.41203117370605 14.37464332580566 14.37464332580566 C 18.41204261779785 10.33724403381348 23.11311721801758 7.167593955993652 28.34726715087891 4.953731060028076 C 33.76551818847656 2.662006139755249 39.52198028564453 1.500006198883057 45.45676803588867 1.500006198883057 C 51.39155578613281 1.500006198883057 57.14802932739258 2.662006139755249 62.56626892089844 4.953731060028076 C 67.80043029785156 7.167593955993652 72.50150299072266 10.33724403381348 76.53890228271484 14.37464332580566 C 80.57630920410156 18.41203117370605 83.74595642089844 23.11310577392578 85.95981597900391 28.34726905822754 C 88.25154113769531 33.76551818847656 89.41354370117188 39.52198028564453 89.41354370117188 45.45676803588867 C 89.41354370117188 51.39208221435547 88.25154113769531 57.14855575561523 85.95981597900391 62.56679534912109 C 83.74595642089844 67.80095672607422 80.57630920410156 72.50202941894531 76.53890228271484 76.5394287109375 C 72.50150299072266 80.57682800292969 67.80043029785156 83.74648284912109 62.56626892089844 85.96034240722656 C 57.14802932739258 88.25206756591797 51.39155578613281 89.41407012939453 45.45676803588867 89.41407012939453 Z" stroke="none"/>
        <path d="M 45.45676803588867 3 C 39.72381210327148 3 34.1639404296875 4.12213134765625 28.93159484863281 6.335227966308594 C 23.87622833251953 8.473472595214844 19.33542633056641 11.53517150878906 15.43529510498047 15.435302734375 C 11.53517150878906 19.33543395996094 8.473464965820312 23.87622833251953 6.335227966308594 28.93160247802734 C 4.122123718261719 34.16394424438477 3 39.72381591796875 3 45.4572868347168 C 3 51.19024658203125 4.122123718261719 56.75011825561523 6.335227966308594 61.98246002197266 C 8.473464965820312 67.03782653808594 11.53517150878906 71.57862854003906 15.43529510498047 75.478759765625 C 19.33542633056641 79.37889099121094 23.87622833251953 82.44058990478516 28.93159484863281 84.57883453369141 C 34.1639404296875 86.79193115234375 39.72381210327148 87.9140625 45.45676803588867 87.9140625 C 51.18972396850586 87.9140625 56.74959564208984 86.79193115234375 61.98194122314453 84.57883453369141 C 67.03730773925781 82.44058990478516 71.57810974121094 79.37889099121094 75.47824096679688 75.478759765625 C 79.37837219238281 71.57862854003906 82.44007110595703 67.03782653808594 84.57830810546875 61.98246002197266 C 86.79141235351562 56.75011825561523 87.91353607177734 51.19024658203125 87.91353607177734 45.4567756652832 C 87.91353607177734 39.72381591796875 86.79141235351562 34.16394424438477 84.57830810546875 28.93160247802734 C 82.44007110595703 23.87622833251953 79.37837219238281 19.33543395996094 75.47824096679688 15.435302734375 C 71.57810974121094 11.53517150878906 67.03730773925781 8.473472595214844 61.98194122314453 6.335227966308594 C 56.74959564208984 4.12213134765625 51.18972396850586 3 45.45676803588867 3 M 45.45676803588867 0 C 70.56185150146484 0 90.91353607177734 20.35169219970703 90.91353607177734 45.4567756652832 L 90.91353607177734 45.4572868347168 C 90.91353607177734 70.5623779296875 70.56185150146484 90.9140625 45.45676803588867 90.9140625 C 20.3516845703125 90.9140625 0 70.5623779296875 0 45.4572868347168 L 0 45.4567756652832 C 0 20.35169219970703 20.3516845703125 0 45.45676803588867 0 Z" stroke="none" fill="#fff"/>
      </g>
    </g>
    <g id="Grupo_1227747" data-name="Grupo 1227747" transform="translate(1237.906 1331.058)">
      <g id="Grupo_1227737" data-name="Grupo 1227737" transform="translate(7.5 35.039)">
        <g id="Grupo_1227736" data-name="Grupo 1227736" transform="translate(0 0)">
          <g id="Grupo_1227732" data-name="Grupo 1227732" transform="translate(2.779)">
            <g id="Grupo_1227724" data-name="Grupo 1227724" transform="translate(20.891 2.629)">
              <path id="Trazado_1307623" data-name="Trazado 1307623" d="M280.115,69.906l.01.1.095-.02a5.5,5.5,0,0,1,1.155-.123.376.376,0,0,1,.375.376v1.5l.134-.086a9.446,9.446,0,0,1,8.754-.751c.009-.141.015-.282.015-.426,0-2.891-1.922-5.235-4.293-5.235a3.692,3.692,0,0,0-2.1.667,3.693,3.693,0,0,0-2.1-.667,3.86,3.86,0,0,0-2.8,1.264A15.289,15.289,0,0,1,280.115,69.906Z" transform="translate(-279.374 -65.241)" fill="#fe646f"/>
              <g id="Grupo_1227723" data-name="Grupo 1227723" transform="translate(5.685)">
                <path id="Trazado_1307624" data-name="Trazado 1307624" d="M345.972,65.239a3.58,3.58,0,0,0-1.3.247,5.181,5.181,0,0,1,2.984,4.735,9.445,9.445,0,0,1,2.6.678c.009-.141.015-.282.015-.426C350.265,67.583,348.342,65.239,345.972,65.239Z" transform="translate(-344.669 -65.239)" fill="#fd4755"/>
              </g>
            </g>
            <g id="Grupo_1227726" data-name="Grupo 1227726" transform="translate(23.268 7.464)">
              <path id="Trazado_1307625" data-name="Trazado 1307625" d="M306.673,127.758h14.444a9.563,9.563,0,0,0-14.444-5.432Z" transform="translate(-306.673 -120.767)" fill="#8bc727"/>
              <g id="Grupo_1227725" data-name="Grupo 1227725" transform="translate(0 0.134)">
                <path id="Trazado_1307626" data-name="Trazado 1307626" d="M310.33,125.576c0-.892-.567-.892-.567-1.785a1.629,1.629,0,0,1,.033-.334,9.5,9.5,0,0,0-3.123,1.325v5.432h3.266a1.776,1.776,0,0,0,.391-1.07c0-.892-.567-.892-.567-1.784S310.33,126.468,310.33,125.576Z" transform="translate(-306.673 -123.357)" fill="#97d729"/>
                <path id="Trazado_1307627" data-name="Trazado 1307627" d="M385.06,128.094a1.77,1.77,0,0,1-.39,1.068h3.778a1.776,1.776,0,0,0,.391-1.07c0-.892-.567-.892-.567-1.784s.567-.892.567-1.785a1.592,1.592,0,0,0-.037-.353,9.515,9.515,0,0,0-4.251-1.865,1.525,1.525,0,0,0-.058.436c0,.892.567.892.567,1.785s-.567.892-.567,1.785S385.06,127.2,385.06,128.094Z" transform="translate(-377.718 -122.304)" fill="#97d729"/>
              </g>
            </g>
            <g id="Grupo_1227727" data-name="Grupo 1227727" transform="translate(0 9.187)">
              <path id="Trazado_1307628" data-name="Trazado 1307628" d="M50.833,141.969a3.9,3.9,0,0,0-2.93-1.411,3.692,3.692,0,0,0-2.1.667,3.693,3.693,0,0,0-2.1-.667c-2.371,0-4.293,2.344-4.293,5.235,0,.011,0,.022,0,.034H50.833Z" transform="translate(-39.418 -140.558)" fill="#fe646f"/>
              <path id="Trazado_1307629" data-name="Trazado 1307629" d="M48.881,142.142v2.338a.871.871,0,0,1-.871.871h-8.3a6.24,6.24,0,0,0-.289,1.888c0,.011,0,.022,0,.034H50.833v-3.858A4.113,4.113,0,0,0,48.881,142.142Z" transform="translate(-39.418 -142.004)" fill="#fd4755"/>
            </g>
            <g id="Grupo_1227731" data-name="Grupo 1227731" transform="translate(11.328)">
              <g id="Grupo_1227728" data-name="Grupo 1227728" transform="translate(1.627 0)">
                <path id="Trazado_1307630" data-name="Trazado 1307630" d="M192.519,47.75h.174a5.472,5.472,0,0,1,4.3-5.338c-.431-4.212-2.231-7.372-4.387-7.372s-3.956,3.16-4.387,7.372A5.472,5.472,0,0,1,192.519,47.75Z" transform="translate(-188.22 -35.04)" fill="#ffe177"/>
              </g>
              <g id="Grupo_1227729" data-name="Grupo 1227729" transform="translate(4.131)">
                <path id="Trazado_1307631" data-name="Trazado 1307631" d="M221.23,43.315a5.442,5.442,0,0,1,2.021-.9c-.431-4.212-2.231-7.372-4.387-7.372a2.725,2.725,0,0,0-1.882.858C219,36.407,220.654,39.373,221.23,43.315Z" transform="translate(-216.982 -35.039)" fill="#ffd15b"/>
              </g>
              <g id="Grupo_1227730" data-name="Grupo 1227730" transform="translate(0 7.159)">
                <path id="Trazado_1307632" data-name="Trazado 1307632" d="M175.545,124.567v-1.745a5.551,5.551,0,0,0-5.551-5.551h0a.463.463,0,0,0-.463.463v6.833h6.013Z" transform="translate(-169.532 -117.271)" fill="#97d729"/>
                <path id="Trazado_1307633" data-name="Trazado 1307633" d="M173.584,132.41V135.6a.871.871,0,0,1-.871.871h-3.181v1.921h6.014v-1.745A5.538,5.538,0,0,0,173.584,132.41Z" transform="translate(-169.532 -131.092)" fill="#8bc727"/>
                <path id="Trazado_1307634" data-name="Trazado 1307634" d="M244.615,124.566v-6.833a.463.463,0,0,0-.463-.463h0a5.551,5.551,0,0,0-5.551,5.551v1.745h6.013Z" transform="translate(-232.589 -117.27)" fill="#97d729"/>
                <path id="Trazado_1307635" data-name="Trazado 1307635" d="M244.153,117.271h0a5.55,5.55,0,0,0-1.505.208v4.3a.871.871,0,0,1-.871.871h-3.171c0,.059,0,.117,0,.177v1.745h6.014v-6.833A.463.463,0,0,0,244.153,117.271Z" transform="translate(-232.589 -117.271)" fill="#8bc727"/>
              </g>
            </g>
          </g>
          <rect id="Rectángulo_739406" data-name="Rectángulo 739406" width="39.178" height="4.658" transform="translate(2.046 22.555)" fill="#ea9b58"/>
          <rect id="Rectángulo_739407" data-name="Rectángulo 739407" width="3.091" height="4.658" transform="translate(38.134 22.555)" fill="#d88a55"/>
          <path id="Trazado_1307636" data-name="Trazado 1307636" d="M49.9,208.344H8.371a.871.871,0,0,1-.871-.871v-6.532a.871.871,0,0,1,.871-.871H49.9a.871.871,0,0,1,.871.871v6.532A.871.871,0,0,1,49.9,208.344Z" transform="translate(-7.5 -185.702)" fill="#f6a96c"/>
          <g id="Grupo_1227733" data-name="Grupo 1227733" transform="translate(40.18 14.368)">
            <path id="Trazado_1307637" data-name="Trazado 1307637" d="M471.22,200.07H469v8.274h2.22a.871.871,0,0,0,.871-.871v-6.532A.871.871,0,0,0,471.22,200.07Z" transform="translate(-469 -200.07)" fill="#ea9b58"/>
          </g>
          <path id="Trazado_1307638" data-name="Trazado 1307638" d="M49.9,354.868H8.371A.871.871,0,0,1,7.5,354v-6.532a.871.871,0,0,1,.871-.871H49.9a.871.871,0,0,1,.871.871V354A.871.871,0,0,1,49.9,354.868Z" transform="translate(-7.5 -319.47)" fill="#f6a96c"/>
          <path id="Trazado_1307639" data-name="Trazado 1307639" d="M49.9,346.6H47.68v4.824a.871.871,0,0,1-.871.871H7.5V354a.871.871,0,0,0,.871.871H49.9A.871.871,0,0,0,50.77,354v-6.532A.871.871,0,0,0,49.9,346.6Z" transform="translate(-7.5 -319.47)" fill="#ea9b58"/>
          <g id="Grupo_1227735" data-name="Grupo 1227735" transform="translate(9.294 17.531)">
            <path id="Trazado_1307640" data-name="Trazado 1307640" d="M124.25,237.7l-9.585,15.44a2.752,2.752,0,0,0,2.338,4.2h19.17a2.752,2.752,0,0,0,2.338-4.2l-9.585-15.44A2.752,2.752,0,0,0,124.25,237.7Z" transform="translate(-114.247 -236.398)" fill="#ffe177"/>
            <path id="Trazado_1307641" data-name="Trazado 1307641" d="M128.975,237.7a2.756,2.756,0,0,0-3.794-.888h0l9.888,15.928a1.306,1.306,0,0,1-1.11,1.995H114.3a2.754,2.754,0,0,0,2.752,2.608h19.17a2.752,2.752,0,0,0,2.338-4.2Z" transform="translate(-114.295 -236.398)" fill="#ffd15b"/>
            <g id="Grupo_1227734" data-name="Grupo 1227734" transform="translate(10.977 5.403)">
              <path id="Trazado_1307642" data-name="Trazado 1307642" d="M242.617,305.336h-1.859a.435.435,0,0,1-.435-.435v-6a.435.435,0,0,1,.435-.435h1.859a.435.435,0,0,1,.435.435v6A.435.435,0,0,1,242.617,305.336Z" transform="translate(-240.323 -298.461)" fill="#fe646f"/>
              <path id="Trazado_1307643" data-name="Trazado 1307643" d="M242.617,409.184h-1.859a.435.435,0,0,1-.435-.435v-1.859a.435.435,0,0,1,.435-.435h1.859a.435.435,0,0,1,.435.435v1.859A.435.435,0,0,1,242.617,409.184Z" transform="translate(-240.323 -397.052)" fill="#fe646f"/>
            </g>
          </g>
        </g>
      </g>
      <g id="Grupo_1227746" data-name="Grupo 1227746" transform="translate(7.5 35.039)">
        <path id="Trazado_1307644" data-name="Trazado 1307644" d="M291.392,70.8c.006-.108.01-.217.01-.327,0-2.891-1.922-5.235-4.293-5.235a3.692,3.692,0,0,0-2.1.667,3.693,3.693,0,0,0-2.1-.667,3.839,3.839,0,0,0-2.724,1.192" transform="translate(-256.452 -62.61)" fill="none" stroke="#000" stroke-linecap="round" stroke-linejoin="round" stroke-miterlimit="10" stroke-width="1"/>
        <line id="Línea_3868" data-name="Línea 3868" y1="2.48" transform="translate(28.562 0.816)" fill="none" stroke="#000" stroke-linecap="round" stroke-linejoin="round" stroke-miterlimit="10" stroke-width="1"/>
        <g id="Grupo_1227738" data-name="Grupo 1227738" transform="translate(29.137 7.598)">
          <path id="Trazado_1307645" data-name="Trazado 1307645" d="M342.394,130.126a1.582,1.582,0,0,0,.34-.983c0-.892-.567-.892-.567-1.784s.567-.892.567-1.785-.567-.892-.567-1.785a1.625,1.625,0,0,1,.033-.334" transform="translate(-342.167 -123.356)" fill="none" stroke="#000" stroke-linecap="round" stroke-linejoin="round" stroke-miterlimit="10" stroke-width="1"/>
          <path id="Trazado_1307646" data-name="Trazado 1307646" d="M384.549,122.305a1.525,1.525,0,0,0-.058.436c0,.892.567.892.567,1.785s-.567.892-.567,1.785.567.892.567,1.784a1.579,1.579,0,0,1-.339.981H388.5a1.582,1.582,0,0,0,.34-.983c0-.892-.567-.892-.567-1.784s.567-.892.567-1.785a1.6,1.6,0,0,0-.037-.353" transform="translate(-380.806 -122.305)" fill="none" stroke="#000" stroke-linecap="round" stroke-linejoin="round" stroke-miterlimit="10" stroke-width="1"/>
        </g>
        <path id="Trazado_1307647" data-name="Trazado 1307647" d="M50.758,141.874a3.873,3.873,0,0,0-2.843-1.316,3.692,3.692,0,0,0-2.1.667,3.693,3.693,0,0,0-2.1-.667c-2.356,0-4.268,2.315-4.292,5.181" transform="translate(-36.651 -131.371)" fill="none" stroke="#000" stroke-linecap="round" stroke-linejoin="round" stroke-miterlimit="10" stroke-width="1"/>
        <line id="Línea_3869" data-name="Línea 3869" y1="2.48" transform="translate(9.168 7.373)" fill="none" stroke="#000" stroke-linecap="round" stroke-linejoin="round" stroke-miterlimit="10" stroke-width="1"/>
        <path id="Trazado_1307648" data-name="Trazado 1307648" d="M215.528,42.324c-.447-4.168-2.236-7.285-4.377-7.285a3.321,3.321,0,0,0-2.618,1.755" transform="translate(-191.031 -35.039)" fill="none" stroke="#000" stroke-linecap="round" stroke-linejoin="round" stroke-miterlimit="10" stroke-width="1"/>
        <path id="Trazado_1307649" data-name="Trazado 1307649" d="M188.86,87.21a16.189,16.189,0,0,0-.527,2.743" transform="translate(-172.589 -82.668)" fill="none" stroke="#000" stroke-linecap="round" stroke-linejoin="round" stroke-miterlimit="10" stroke-width="1"/>
        <path id="Trazado_1307650" data-name="Trazado 1307650" d="M175.545,124.48v-1.658a5.551,5.551,0,0,0-5.551-5.551.463.463,0,0,0-.463.463v6.746h6.013Z" transform="translate(-155.425 -110.112)" fill="none" stroke="#000" stroke-linecap="round" stroke-linejoin="round" stroke-miterlimit="10" stroke-width="1"/>
        <path id="Trazado_1307651" data-name="Trazado 1307651" d="M244.615,124.479v-6.746a.463.463,0,0,0-.463-.463h0a5.551,5.551,0,0,0-5.551,5.551v1.658h6.013Z" transform="translate(-218.482 -110.111)" fill="none" stroke="#000" stroke-linecap="round" stroke-linejoin="round" stroke-miterlimit="10" stroke-width="1"/>
        <line id="Línea_3870" data-name="Línea 3870" x1="0.109" transform="translate(21.597 5.916)" fill="none" stroke="#000" stroke-linecap="round" stroke-linejoin="round" stroke-miterlimit="10" stroke-width="1"/>
        <line id="Línea_3871" data-name="Línea 3871" x1="0.109" transform="translate(18.534 5.916)" fill="none" stroke="#000" stroke-linecap="round" stroke-linejoin="round" stroke-miterlimit="10" stroke-width="1"/>
        <line id="Línea_3872" data-name="Línea 3872" x1="0.109" transform="translate(19.956 3.509)" fill="none" stroke="#000" stroke-linecap="round" stroke-linejoin="round" stroke-miterlimit="10" stroke-width="1"/>
        <line id="Línea_3873" data-name="Línea 3873" x2="5.657" transform="translate(11.275 22.642)" fill="none" stroke="#000" stroke-linecap="round" stroke-linejoin="round" stroke-miterlimit="10" stroke-width="1"/>
        <path id="Trazado_1307652" data-name="Trazado 1307652" d="M33.839,208.344H49.9a.871.871,0,0,0,.871-.871v-6.532a.871.871,0,0,0-.871-.871H8.371a.871.871,0,0,0-.871.871v6.532a.871.871,0,0,0,.871.871h7.357" transform="translate(-7.5 -185.702)" fill="none" stroke="#000" stroke-linecap="round" stroke-linejoin="round" stroke-miterlimit="10" stroke-width="1"/>
        <path id="Trazado_1307653" data-name="Trazado 1307653" d="M21.648,346.6H8.371a.871.871,0,0,0-.871.871V354a.871.871,0,0,0,.871.871h8.443" transform="translate(-7.5 -319.47)" fill="none" stroke="#000" stroke-linecap="round" stroke-linejoin="round" stroke-miterlimit="10" stroke-width="1"/>
        <g id="Grupo_1227739" data-name="Grupo 1227739" transform="translate(20.27 22.934)">
          <path id="Trazado_1307654" data-name="Trazado 1307654" d="M242.617,305.336h-1.859a.435.435,0,0,1-.435-.435v-6a.435.435,0,0,1,.435-.435h1.859a.435.435,0,0,1,.435.435v6A.435.435,0,0,1,242.617,305.336Z" transform="translate(-240.323 -298.461)" fill="none" stroke="#000" stroke-linecap="round" stroke-linejoin="round" stroke-miterlimit="10" stroke-width="1"/>
          <path id="Trazado_1307655" data-name="Trazado 1307655" d="M242.617,409.184h-1.859a.435.435,0,0,1-.435-.435v-1.859a.435.435,0,0,1,.435-.435h1.859a.435.435,0,0,1,.435.435v1.859A.435.435,0,0,1,242.617,409.184Z" transform="translate(-240.323 -397.052)" fill="none" stroke="#000" stroke-linecap="round" stroke-linejoin="round" stroke-miterlimit="10" stroke-width="1"/>
        </g>
        <g id="Grupo_1227742" data-name="Grupo 1227742" transform="translate(3.047 17.112)">
          <g id="Grupo_1227740" data-name="Grupo 1227740">
            <line id="Línea_3874" data-name="Línea 3874" x2="0.087" fill="none" stroke="#000" stroke-linecap="round" stroke-linejoin="round" stroke-miterlimit="10" stroke-width="1"/>
            <line id="Línea_3875" data-name="Línea 3875" x2="0.087" transform="translate(0 2.786)" fill="none" stroke="#000" stroke-linecap="round" stroke-linejoin="round" stroke-miterlimit="10" stroke-width="1"/>
          </g>
          <g id="Grupo_1227741" data-name="Grupo 1227741" transform="translate(37.089)">
            <line id="Línea_3876" data-name="Línea 3876" x2="0.087" fill="none" stroke="#000" stroke-linecap="round" stroke-linejoin="round" stroke-miterlimit="10" stroke-width="1"/>
            <line id="Línea_3877" data-name="Línea 3877" x2="0.087" transform="translate(0 2.786)" fill="none" stroke="#000" stroke-linecap="round" stroke-linejoin="round" stroke-miterlimit="10" stroke-width="1"/>
          </g>
        </g>
        <g id="Grupo_1227745" data-name="Grupo 1227745" transform="translate(3.047 29.869)">
          <g id="Grupo_1227743" data-name="Grupo 1227743">
            <line id="Línea_3878" data-name="Línea 3878" x2="0.087" fill="none" stroke="#000" stroke-linecap="round" stroke-linejoin="round" stroke-miterlimit="10" stroke-width="1"/>
            <line id="Línea_3879" data-name="Línea 3879" x2="0.087" transform="translate(0 2.786)" fill="none" stroke="#000" stroke-linecap="round" stroke-linejoin="round" stroke-miterlimit="10" stroke-width="1"/>
          </g>
          <g id="Grupo_1227744" data-name="Grupo 1227744" transform="translate(37.089)">
            <line id="Línea_3880" data-name="Línea 3880" x2="0.087" fill="none" stroke="#000" stroke-linecap="round" stroke-linejoin="round" stroke-miterlimit="10" stroke-width="1"/>
            <line id="Línea_3881" data-name="Línea 3881" x2="0.087" transform="translate(0 2.786)" fill="none" stroke="#000" stroke-linecap="round" stroke-linejoin="round" stroke-miterlimit="10" stroke-width="1"/>
          </g>
        </g>
        <path id="Trazado_1307656" data-name="Trazado 1307656" d="M397.52,354.868h8.443a.871.871,0,0,0,.871-.871v-6.532a.871.871,0,0,0-.871-.871h-5.441" transform="translate(-363.564 -319.47)" fill="none" stroke="#000" stroke-linecap="round" stroke-linejoin="round" stroke-miterlimit="10" stroke-width="1"/>
        <line id="Línea_3882" data-name="Línea 3882" x1="4.789" transform="translate(29.122 27.125)" fill="none" stroke="#000" stroke-linecap="round" stroke-linejoin="round" stroke-miterlimit="10" stroke-width="1"/>
        <path id="Trazado_1307657" data-name="Trazado 1307657" d="M124.25,237.7l-9.585,15.44a2.752,2.752,0,0,0,2.338,4.2h19.17a2.752,2.752,0,0,0,2.338-4.2l-9.585-15.44A2.752,2.752,0,0,0,124.25,237.7Z" transform="translate(-104.953 -218.868)" fill="none" stroke="#000" stroke-linecap="round" stroke-linejoin="round" stroke-miterlimit="10" stroke-width="1"/>
        <path id="Trazado_1307658" data-name="Trazado 1307658" d="M322,127.671a9.56,9.56,0,0,0-14.331-5.4h0" transform="translate(-281.538 -113.303)" fill="none" stroke="#000" stroke-linecap="round" stroke-linejoin="round" stroke-miterlimit="10" stroke-width="1"/>
        <line id="Línea_3883" data-name="Línea 3883" y2="4.483" transform="translate(2.046 22.642)" fill="none" stroke="#000" stroke-linecap="round" stroke-linejoin="round" stroke-miterlimit="10" stroke-width="1"/>
        <line id="Línea_3884" data-name="Línea 3884" y1="4.483" transform="translate(41.224 22.642)" fill="none" stroke="#000" stroke-linecap="round" stroke-linejoin="round" stroke-miterlimit="10" stroke-width="1"/>
      </g>
    </g>
  </g>
</svg>
