<svg xmlns="http://www.w3.org/2000/svg" width="85" height="85" viewBox="0 0 85 85">
  <g id="Grupo_1227906" data-name="Grupo 1227906" transform="translate(-603.051 -2666)">
    <rect id="Rectángulo_403131" data-name="Rectángulo 403131" width="85" height="85" transform="translate(603.051 2666)" fill="none"/>
    <g id="Grupo_1227905" data-name="Grupo 1227905" transform="translate(530.48 2671)">
      <path id="Trazado_1307799" data-name="Trazado 1307799" d="M302.3,11.59h-4.5V9.338a1.5,1.5,0,0,1,1.5-1.5h1.5a1.5,1.5,0,0,1,1.5,1.5Z" transform="translate(-176.721 -6.711)" fill="#ff503d"/>
      <rect id="Rectángulo_739426" data-name="Rectángulo 739426" width="4.203" height="3.753" transform="translate(126.52 49.162)" fill="#79cae8"/>
      <g id="Grupo_1227904" data-name="Grupo 1227904" transform="translate(92.554 26.645)">
        <path id="Trazado_1307800" data-name="Trazado 1307800" d="M326.481,220.419h-6l-1.5-3.6h9.007Z" transform="translate(-287.411 -212.313)" fill="#4b92b9"/>
        <path id="Trazado_1307801" data-name="Trazado 1307801" d="M144.3,185.469H99.265v1.5a3,3,0,0,0,3,3H141.3a3,3,0,0,0,3-3v-1.5Z" transform="translate(-99.265 -185.469)" fill="#4b92b9"/>
      </g>
      <path id="Trazado_1307802" data-name="Trazado 1307802" d="M136.136,33.959H102.267a3,3,0,0,0-3,3V55.725H144.3V46.043l-3-3.152L138.982,36A3,3,0,0,0,136.136,33.959Z" transform="translate(-6.711 -29.08)" fill="#79cae8"/>
      <path id="Trazado_1307803" data-name="Trazado 1307803" d="M157.894,67.356H144.309a3.115,3.115,0,0,1-3.115-3.115h0a3.115,3.115,0,0,1,3.115-3.115h13.585a3.115,3.115,0,0,1,3.115,3.115h0A3.115,3.115,0,0,1,157.894,67.356Z" transform="translate(-42.616 -52.344)" fill="#fff"/>
      <path id="Trazado_1307804" data-name="Trazado 1307804" d="M313.066,276.828h-1.481v-3.753h-2.1V262.792h-2.252v10.283h-2.1v3.753h-1.481l-2.265,13.762-.005.034a7.04,7.04,0,1,0,13.957,0Zm-4.709,18.958a33.9,33.9,0,0,1,0-16.15,33.9,33.9,0,0,1,0,16.15Zm-.976-20.459h1.952v1.5h-1.952Zm-2.627,19.382a4.787,4.787,0,0,1-1.146-3.771l1.952-11.858h.613a13.222,13.222,0,0,0-.4,1.495,40.053,40.053,0,0,0,0,14.273c.059.276.128.568.208.861A4.787,4.787,0,0,1,304.754,294.708Zm7.205,0a4.788,4.788,0,0,1-1.224,1c.08-.294.149-.585.208-.861a40.056,40.056,0,0,0,0-14.273,13.276,13.276,0,0,0-.4-1.495h.613l1.952,11.858A4.789,4.789,0,0,1,311.96,294.708Z" transform="translate(-179.736 -225.038)"/>
      <path id="Trazado_1307805" data-name="Trazado 1307805" d="M135.573,13.215l-2.235-6.649a4.124,4.124,0,0,0-3.913-2.813H126.7V2.627A2.63,2.63,0,0,0,124.078,0h-1.5a2.63,2.63,0,0,0-2.627,2.627V3.753H95.556a4.133,4.133,0,0,0-4.128,4.128V28.146a4.133,4.133,0,0,0,4.128,4.128h27.811l1.5,3.6h7.506l1.5-3.6h.71a4.133,4.133,0,0,0,4.128-4.128V16.512ZM122.2,2.627a.376.376,0,0,1,.375-.375h1.5a.376.376,0,0,1,.375.375V3.753H122.2ZM93.68,7.881A1.878,1.878,0,0,1,95.556,6h33.869A1.875,1.875,0,0,1,131.2,7.283l2.394,7.123,2.864,3.007v8.106H93.68Zm37.193,25.744h-4.5l-.563-1.351h5.629Zm5.589-5.479a1.878,1.878,0,0,1-1.876,1.876H95.556a1.878,1.878,0,0,1-1.876-1.876v-.375h42.782Z"/>
      <path id="Trazado_1307806" data-name="Trazado 1307806" d="M151.184,53.29H137.6a4.241,4.241,0,0,0,0,8.481h13.585a4.241,4.241,0,1,0,0-8.481Zm0,6.23H137.6a1.989,1.989,0,0,1,0-3.978h13.585a1.989,1.989,0,0,1,0,3.978Z" transform="translate(-35.906 -45.634)"/>
      <rect id="Rectángulo_739427" data-name="Rectángulo 739427" width="7.176" height="2.252" transform="translate(122.907 14.336)"/>
      <rect id="Rectángulo_739428" data-name="Rectángulo 739428" width="7.176" height="2.252" transform="translate(122.907 17.338)"/>
      <rect id="Rectángulo_739429" data-name="Rectángulo 739429" width="7.176" height="2.252" transform="translate(122.907 20.34)"/>
    </g>
  </g>
</svg>
