<svg xmlns="http://www.w3.org/2000/svg" width="85" height="85" viewBox="0 0 85 85">
  <g id="Grupo_1227909" data-name="Grupo 1227909" transform="translate(-918.051 -2666)">
    <rect id="Rectángulo_403131" data-name="Rectángulo 403131" width="85" height="85" transform="translate(918.051 2666)" fill="none"/>
    <g id="Grupo_1227908" data-name="Grupo 1227908" transform="matrix(0.951, -0.309, 0.309, 0.951, 896.674, 2687.607)">
      <path id="Trazado_1307807" data-name="Trazado 1307807" d="M65.251,34.709H56.7V10.583a4.276,4.276,0,0,1,8.551,0Z" transform="translate(-6.079 -0.725)" fill="#80e2ff"/>
      <path id="Trazado_1307808" data-name="Trazado 1307808" d="M56.7,45.795h8.551v5.272H56.7Z" transform="translate(-6.079 -17.085)" fill="#55c2e3"/>
      <g id="Grupo_1227907" data-name="Grupo 1227907" transform="translate(42.026 4.556)">
        <path id="Trazado_1307809" data-name="Trazado 1307809" d="M70.575,21.56a1.025,1.025,0,0,0-1.025,1.025v2.636a1.025,1.025,0,1,0,2.05,0V22.585A1.026,1.026,0,0,0,70.575,21.56Z" transform="translate(-53.429 -11.601)"/>
        <path id="Trazado_1307810" data-name="Trazado 1307810" d="M67.606,58.631c-1.248-9.878-9.577-16.253-11.685-17.72v-5.9h3.251A1.025,1.025,0,0,0,60.2,33.982v-10.4a1.025,1.025,0,1,0-2.05,0v4.1h-6.5V9.857a3.251,3.251,0,0,1,6.5,0,1.025,1.025,0,0,0,2.05,0,5.3,5.3,0,0,0-10.6,0V33.984a1.025,1.025,0,0,0,1.025,1.025h3.251v5.9a32.664,32.664,0,0,0-7.058,6.86A1.025,1.025,0,0,0,48.453,49,30.358,30.358,0,0,1,52.428,44.7a49.218,49.218,0,0,0-2.6,14.017c-.254,5.823.381,10.313,1.8,12.955A10.535,10.535,0,0,1,46.623,68.6c-2.076-2.355-2.907-5.715-2.4-9.714A18.938,18.938,0,0,1,45.853,53.3a1.025,1.025,0,1,0-1.86-.862,21,21,0,0,0-1.807,6.189c-.581,4.6.421,8.517,2.9,11.327a13.493,13.493,0,0,0,19.621,0c2.479-2.81,3.481-6.727,2.9-11.327Zm-15.96-28.9h6.5v3.221h-6.5ZM54.124,71.69c-.63-.658-2.653-3.531-2.244-12.885A46.322,46.322,0,0,1,54.9,43.971,46.329,46.329,0,0,1,57.913,58.8c.41,9.355-1.615,12.228-2.244,12.885a.89.89,0,0,1-1.545,0ZM63.17,68.6a10.535,10.535,0,0,1-5.008,3.067c1.418-2.642,2.053-7.132,1.8-12.955A49.232,49.232,0,0,0,57.367,44.7c3.035,2.731,7.383,7.681,8.205,14.186.505,4-.325,7.359-2.4,9.714Z" transform="translate(-42.026 -4.556)"/>
      </g>
    </g>
  </g>
</svg>
